%FSTAX23Y23*%
%MOIN*%
%SFA1B1*%

%IPPOS*%
%ADD18C,0.000000*%
%ADD19R,0.055000X0.040000*%
%ADD20R,0.024020X0.013780*%
%ADD21R,0.013780X0.024020*%
%ADD22R,0.040000X0.055000*%
%ADD23R,0.057090X0.011810*%
%ADD24R,0.011810X0.057090*%
%ADD25R,0.035430X0.031500*%
%ADD26R,0.057090X0.023620*%
%ADD27R,0.059060X0.059060*%
%ADD28R,0.030000X0.048000*%
%ADD29R,0.094490X0.086610*%
%ADD30R,0.053150X0.015750*%
%ADD31R,0.061020X0.059060*%
%ADD32R,0.041340X0.067720*%
%LNnucleoclone-1*%
%LPD*%
G36*
X03845Y03417D02*
X03845Y03416D01*
X03845Y03415*
X03845Y03414*
X03845Y03413*
X03844Y03412*
X03844Y03411*
X03844Y0341*
X03843Y03409*
X03843Y03408*
X03842Y03407*
X03842Y03406*
X03841Y03405*
X03841Y03404*
X0384Y03404*
X03839Y03403*
X03838Y03402*
X03838Y03402*
X03837Y03401*
X03836Y034*
X03835Y034*
X03834Y03399*
X03833Y03399*
X03832Y03398*
X03831Y03398*
X0383Y03398*
X03829Y03398*
X03828Y03397*
X03827Y03397*
X03826Y03397*
X03825Y03397*
X03804*
X03803Y03397*
X03802Y03397*
X03801Y03397*
X038Y03398*
X03799Y03398*
X03798Y03398*
X03797Y03398*
X03796Y03399*
X03795Y03399*
X03794Y034*
X03793Y034*
X03792Y03401*
X03791Y03402*
X0379Y03402*
X0379Y03403*
X03789Y03404*
X03788Y03404*
X03788Y03405*
X03787Y03406*
X03787Y03407*
X03786Y03408*
X03786Y03409*
X03785Y0341*
X03785Y03411*
X03785Y03412*
X03784Y03413*
X03784Y03414*
X03784Y03415*
X03784Y03416*
X03784Y03417*
Y03464*
X03845*
Y03417*
G37*
G36*
X03826Y03712D02*
X03827Y03712D01*
X03828Y03712*
X03829Y03712*
X0383Y03711*
X03831Y03711*
X03832Y03711*
X03833Y0371*
X03834Y0371*
X03835Y03709*
X03836Y03709*
X03837Y03708*
X03838Y03708*
X03838Y03707*
X03839Y03706*
X0384Y03706*
X03841Y03705*
X03841Y03704*
X03842Y03703*
X03842Y03702*
X03843Y03701*
X03843Y037*
X03844Y03699*
X03844Y03699*
X03844Y03698*
X03845Y03697*
X03845Y03695*
X03845Y03694*
X03845Y03693*
X03845Y03692*
Y03645*
X03784*
Y03692*
X03784Y03693*
X03784Y03694*
X03784Y03695*
X03784Y03697*
X03785Y03698*
X03785Y03699*
X03785Y03699*
X03786Y037*
X03786Y03701*
X03787Y03702*
X03787Y03703*
X03788Y03704*
X03788Y03705*
X03789Y03706*
X0379Y03706*
X0379Y03707*
X03791Y03708*
X03792Y03708*
X03793Y03709*
X03794Y03709*
X03795Y0371*
X03796Y0371*
X03797Y03711*
X03798Y03711*
X03799Y03711*
X038Y03712*
X03801Y03712*
X03802Y03712*
X03803Y03712*
X03804Y03712*
X03825*
X03826Y03712*
G37*
%LNnucleoclone-2*%
%LPC*%
G36*
X03827Y03427D02*
X03802D01*
X03801Y03427*
X03801Y03427*
X038Y03427*
X038Y03426*
X03799Y03426*
X03799Y03426*
X03798Y03426*
X03798Y03426*
X03797Y03426*
X03797Y03425*
X03796Y03425*
X03796Y03425*
X03795Y03424*
X03795Y03424*
X03795Y03424*
X03794Y03423*
X03794Y03423*
X03794Y03423*
X03793Y03422*
X03793Y03422*
X03793Y03421*
X03793Y03421*
X03792Y0342*
X03792Y0342*
X03792Y03419*
X03792Y03419*
X03792Y03418*
X03792Y03418*
X03792Y03417*
X03792Y03417*
X03792Y03416*
X03792Y03416*
X03792Y03415*
X03792Y03415*
X03792Y03414*
X03792Y03414*
X03792Y03413*
X03793Y03413*
X03793Y03412*
X03793Y03412*
X03793Y03411*
X03794Y03411*
X03794Y03411*
X03794Y0341*
X03795Y0341*
X03795Y0341*
X03795Y03409*
X03796Y03409*
X03796Y03409*
X03797Y03408*
X03797Y03408*
X03798Y03408*
X03798Y03408*
X03799Y03407*
X03799Y03407*
X038Y03407*
X038Y03407*
X03801Y03407*
X03801Y03407*
X03802Y03407*
X03827*
X03828Y03407*
X03828Y03407*
X03829Y03407*
X03829Y03407*
X0383Y03407*
X0383Y03407*
X03831Y03408*
X03831Y03408*
X03832Y03408*
X03832Y03408*
X03833Y03409*
X03833Y03409*
X03833Y03409*
X03834Y0341*
X03834Y0341*
X03835Y0341*
X03835Y03411*
X03835Y03411*
X03836Y03411*
X03836Y03412*
X03836Y03412*
X03836Y03413*
X03836Y03413*
X03837Y03414*
X03837Y03414*
X03837Y03415*
X03837Y03415*
X03837Y03416*
X03837Y03416*
X03837Y03417*
X03837Y03417*
X03837Y03418*
X03837Y03418*
X03837Y03419*
X03837Y03419*
X03837Y0342*
X03836Y0342*
X03836Y03421*
X03836Y03421*
X03836Y03422*
X03836Y03422*
X03835Y03423*
X03835Y03423*
X03835Y03423*
X03834Y03424*
X03834Y03424*
X03833Y03424*
X03833Y03425*
X03833Y03425*
X03832Y03425*
X03832Y03426*
X03831Y03426*
X03831Y03426*
X0383Y03426*
X0383Y03426*
X03829Y03426*
X03829Y03427*
X03828Y03427*
X03828Y03427*
X03827Y03427*
G37*
G36*
Y03702D02*
X03802D01*
X03801Y03702*
X03801Y03702*
X038Y03702*
X038Y03702*
X03799Y03702*
X03799Y03702*
X03798Y03702*
X03798Y03701*
X03797Y03701*
X03797Y03701*
X03796Y03701*
X03796Y037*
X03795Y037*
X03795Y037*
X03795Y03699*
X03794Y03699*
X03794Y03699*
X03794Y03698*
X03793Y03698*
X03793Y03697*
X03793Y03697*
X03793Y03696*
X03792Y03696*
X03792Y03695*
X03792Y03695*
X03792Y03694*
X03792Y03694*
X03792Y03693*
X03792Y03693*
X03792Y03692*
X03792Y03692*
X03792Y03691*
X03792Y03691*
X03792Y0369*
X03792Y0369*
X03792Y03689*
X03792Y03689*
X03793Y03688*
X03793Y03688*
X03793Y03687*
X03793Y03687*
X03794Y03687*
X03794Y03686*
X03794Y03686*
X03795Y03685*
X03795Y03685*
X03795Y03685*
X03796Y03684*
X03796Y03684*
X03797Y03684*
X03797Y03684*
X03798Y03683*
X03798Y03683*
X03799Y03683*
X03799Y03683*
X038Y03683*
X038Y03683*
X03801Y03683*
X03801Y03683*
X03802Y03683*
X03827*
X03828Y03683*
X03828Y03683*
X03829Y03683*
X03829Y03683*
X0383Y03683*
X0383Y03683*
X03831Y03683*
X03831Y03683*
X03832Y03684*
X03832Y03684*
X03833Y03684*
X03833Y03684*
X03833Y03685*
X03834Y03685*
X03834Y03685*
X03835Y03686*
X03835Y03686*
X03835Y03687*
X03836Y03687*
X03836Y03687*
X03836Y03688*
X03836Y03688*
X03836Y03689*
X03837Y03689*
X03837Y0369*
X03837Y0369*
X03837Y03691*
X03837Y03691*
X03837Y03692*
X03837Y03692*
X03837Y03693*
X03837Y03693*
X03837Y03694*
X03837Y03694*
X03837Y03695*
X03837Y03695*
X03836Y03696*
X03836Y03696*
X03836Y03697*
X03836Y03697*
X03836Y03698*
X03835Y03698*
X03835Y03699*
X03835Y03699*
X03834Y03699*
X03834Y037*
X03833Y037*
X03833Y037*
X03833Y03701*
X03832Y03701*
X03832Y03701*
X03831Y03701*
X03831Y03702*
X0383Y03702*
X0383Y03702*
X03829Y03702*
X03829Y03702*
X03828Y03702*
X03828Y03702*
X03827Y03702*
G37*
%LNnucleoclone-3*%
%LPD*%
G54D18*
X03784Y03417D02*
X03791D01*
X03838Y03692D02*
X03845D01*
G54D19*
X00744Y00864D03*
Y00938D03*
X00637Y00866D03*
Y0094D03*
X03767Y00577D03*
Y00651D03*
X03137Y02175D03*
Y02249D03*
X02594Y01565D03*
Y01639D03*
X03161Y03203D03*
Y03277D03*
X02586Y03061D03*
Y03135D03*
X02578Y02904D03*
Y0283D03*
X02476Y02829D03*
Y02903D03*
X01657Y0271D03*
Y02636D03*
X02Y02939D03*
Y03013D03*
X0131Y02183D03*
Y02257D03*
X01306Y02422D03*
Y02348D03*
X02314Y00703D03*
Y00777D03*
X00971Y02422D03*
Y02348D03*
X00975Y02163D03*
Y02237D03*
X00862Y02304D03*
Y0223D03*
X00811Y0188D03*
Y01954D03*
X0122Y0173D03*
Y01804D03*
X00909Y01954D03*
Y0188D03*
Y01738D03*
Y01812D03*
X01031Y02644D03*
Y02718D03*
X01114D03*
Y02644D03*
X03464Y02959D03*
Y03033D03*
X02881Y0275D03*
Y02824D03*
X02787Y02758D03*
Y02832D03*
X02712Y02762D03*
Y02836D03*
X01952Y01397D03*
Y01323D03*
X01858Y01391D03*
Y01317D03*
X01763Y01387D03*
Y01313D03*
X01866Y02699D03*
Y02625D03*
X01602Y02958D03*
Y02884D03*
X01952Y0264D03*
Y02714D03*
X02035Y0262D03*
Y02694D03*
X0097Y03518D03*
Y03592D03*
X02929Y03088D03*
Y03014D03*
X02775Y03544D03*
Y0347D03*
X02519Y03375D03*
Y03301D03*
X03173Y03017D03*
Y02943D03*
X0122Y01884D03*
Y01958D03*
G54D20*
X00411Y00883D03*
Y00903D03*
Y00923D03*
Y00942D03*
X00502Y00883D03*
Y00903D03*
Y00923D03*
Y00942D03*
G54D21*
X00476Y00877D03*
X00456D03*
X00437D03*
X00476Y00949D03*
X00456D03*
X00437D03*
G54D22*
X03266Y00724D03*
X0334D03*
X03411Y0072D03*
X03485D03*
X03269Y01409D03*
X03195D03*
X02407Y01397D03*
X02333D03*
X03317Y02665D03*
X03391D03*
X03577Y03834D03*
X03651D03*
X03242Y03338D03*
X03316D03*
X00722Y03594D03*
X00796D03*
X01707Y02905D03*
X01781D03*
X0225Y00629D03*
X02324D03*
X02187Y00858D03*
X02261D03*
X02414Y00958D03*
X0234D03*
X02411Y00858D03*
X02337D03*
X00391Y01653D03*
X00317D03*
X0325Y01594D03*
X03324D03*
X03104D03*
X03178D03*
X0075Y01421D03*
X00824D03*
X0097D03*
X00896D03*
X00305Y01358D03*
X00379D03*
X00313Y0153D03*
X00387D03*
X035Y02762D03*
X03574D03*
X02994Y02799D03*
X03068D03*
X02837Y02622D03*
X02911D03*
X03041Y0246D03*
X03115D03*
X03111Y02645D03*
X03037D03*
X03572Y02838D03*
X03498D03*
X03041Y02374D03*
X03115D03*
X01364Y01519D03*
X01438D03*
X01375Y01606D03*
X01301D03*
X03132Y01818D03*
X03206D03*
X02407Y01311D03*
X02333D03*
X02185Y01221D03*
X02259D03*
X02407Y01224D03*
X02333D03*
X02407Y01141D03*
X02333D03*
X02185Y01134D03*
X02259D03*
X02407Y01047D03*
X02333D03*
X02185Y01047D03*
X02259D03*
X02185Y0096D03*
X02259D03*
X01537Y01488D03*
X01611D03*
X02706Y03326D03*
X02632D03*
X02259Y01395D03*
X02185D03*
X02259Y01308D03*
X02185D03*
X03588Y00598D03*
X03662D03*
X03198Y00728D03*
X03124D03*
X00211Y00637D03*
X00285D03*
X0293Y01834D03*
X02856D03*
X02695Y01771D03*
X02769D03*
X02962Y03342D03*
X02888D03*
G54D23*
X01585Y0236D03*
Y0234D03*
Y0232D03*
Y02301D03*
Y02281D03*
Y02261D03*
Y02242D03*
Y02222D03*
Y02202D03*
Y02183D03*
Y02163D03*
Y02143D03*
Y02124D03*
Y02104D03*
Y02084D03*
Y02064D03*
Y02045D03*
Y02025D03*
Y02005D03*
Y01986D03*
Y01966D03*
Y01946D03*
Y01927D03*
Y01907D03*
Y01887D03*
Y01868D03*
Y01848D03*
Y01828D03*
Y01809D03*
Y01789D03*
Y01769D03*
Y0175D03*
Y0173D03*
Y0171D03*
Y0169D03*
Y01671D03*
X0243D03*
Y0169D03*
Y0171D03*
Y0173D03*
Y0175D03*
Y01769D03*
Y01789D03*
Y01809D03*
Y01828D03*
Y01848D03*
Y01868D03*
Y01887D03*
Y01907D03*
Y01927D03*
Y01946D03*
Y01966D03*
Y01986D03*
Y02005D03*
Y02025D03*
Y02045D03*
Y02064D03*
Y02084D03*
Y02104D03*
Y02124D03*
Y02143D03*
Y02163D03*
Y02183D03*
Y02202D03*
Y02222D03*
Y02242D03*
Y02261D03*
Y02281D03*
Y02301D03*
Y0232D03*
Y0234D03*
Y0236D03*
G54D24*
X01663Y01593D03*
X01683D03*
X01702D03*
X01722D03*
X01742D03*
X01761D03*
X01781D03*
X01801D03*
X0182D03*
X0184D03*
X0186D03*
X01879D03*
X01899D03*
X01919D03*
X01938D03*
X01958D03*
X01978D03*
X01998D03*
X02017D03*
X02037D03*
X02057D03*
X02076D03*
X02096D03*
X02116D03*
X02135D03*
X02155D03*
X02175D03*
X02194D03*
X02214D03*
X02234D03*
X02253D03*
X02273D03*
X02293D03*
X02312D03*
X02332D03*
X02352D03*
Y02437D03*
X02332D03*
X02312D03*
X02293D03*
X02273D03*
X02253D03*
X02234D03*
X02214D03*
X02194D03*
X02175D03*
X02155D03*
X02135D03*
X02116D03*
X02096D03*
X02076D03*
X02057D03*
X02037D03*
X02017D03*
X01998D03*
X01978D03*
X01958D03*
X01938D03*
X01919D03*
X01899D03*
X01879D03*
X0186D03*
X0184D03*
X0182D03*
X01801D03*
X01781D03*
X01761D03*
X01742D03*
X01722D03*
X01702D03*
X01683D03*
X01663D03*
G54D25*
X03502Y03765D03*
Y0384D03*
X03424Y03803D03*
X03507Y03616D03*
Y0369D03*
X03429Y03653D03*
G54D26*
X03575Y03106D03*
Y03156D03*
Y03206D03*
Y03256D03*
X03361Y03106D03*
Y03156D03*
Y03206D03*
Y03256D03*
G54D27*
X02984Y03659D03*
Y03797D03*
X03125Y03663D03*
Y03801D03*
X03263Y03671D03*
Y03809D03*
X02811Y03023D03*
Y03161D03*
X00645Y03706D03*
Y03844D03*
X03783Y03155D03*
Y03293D03*
G54D28*
X02437Y03103D03*
Y03235D03*
X0107Y03589D03*
Y03457D03*
X01169Y03589D03*
Y03457D03*
X0074Y03197D03*
Y03329D03*
X00874Y03197D03*
Y03329D03*
G54D29*
X01058Y01978D03*
Y0173D03*
X01137Y02179D03*
Y02427D03*
G54D30*
X03708Y03503D03*
Y03529D03*
Y03555D03*
Y0358D03*
Y03606D03*
G54D31*
X03814Y03515D03*
Y03594D03*
G54D32*
X03604Y03405D03*
X03489D03*
M02*