%FSTAX23Y23*%
%MOIN*%
%SFA1B1*%

%IPPOS*%
%ADD10C,0.007870*%
%ADD59C,0.059060*%
%ADD67C,0.039370*%
%ADD68C,0.050000*%
%LNnucleoclone-1*%
%LPD*%
G36*
X01232Y03618D02*
Y03583D01*
X01283Y03582*
X01283Y03582*
X01286Y03575*
X0129Y03569*
X01296Y03565*
X01302Y03562*
X0131Y03561*
X01317Y03562*
X01323Y03565*
X01329Y03569*
X01334Y03575*
X01336Y03582*
X01378Y03582*
X01378Y03579*
X01381Y03572*
X01385Y03566*
X01391Y03562*
X01398Y03559*
X01405Y03558*
X01412Y03559*
X01419Y03562*
X01425Y03566*
X01429Y03572*
X01432Y03579*
X01432Y03581*
X0207Y03577*
X02074Y03572*
X02073Y0357*
X02072Y03562*
X02073Y03555*
X02075Y03549*
X0208Y03543*
X02086Y03538*
X02092Y03536*
X021Y03535*
X02107Y03536*
X02113Y03538*
X02119Y03543*
X02124Y03549*
X02126Y03555*
X02127Y03562*
X02126Y0357*
X02126Y03571*
X02129Y03576*
X02452Y03574*
X02454Y03569*
X0245Y03566*
X02446Y03561*
X02443Y03554*
X02442Y03547*
X02443Y0354*
X02446Y03533*
X0245Y03527*
X02456Y03523*
X02462Y0352*
X0247Y03519*
X02477Y0352*
X02483Y03523*
X02489Y03527*
X02494Y03533*
X02496Y0354*
X02497Y03547*
X02496Y03554*
X02494Y03561*
X02489Y03566*
X02486Y03569*
X02488Y03574*
X02875Y03571*
X02876Y03566*
X02872Y03565*
X02866Y0356*
X02861Y03554*
X02858Y03547*
X02858Y03544*
X02916*
X02916Y03547*
X02913Y03554*
X02908Y0356*
X02902Y03565*
X02899Y03566*
X029Y03571*
X0359Y03566*
X03602Y03555*
Y02367*
X03597Y02364*
X03595Y02365*
X03588Y02365*
X0358Y02365*
X03574Y02362*
X03568Y02357*
X03564Y02352*
X03561Y02345*
X0356Y02338*
X03561Y0233*
X03564Y02324*
X03568Y02318*
X03574Y02314*
X0358Y02311*
X03588Y0231*
X03595Y02311*
X03597Y02312*
X03602Y02308*
Y02188*
X03601Y02187*
X03598Y0218*
X03597Y02172*
X03598Y02165*
X03601Y02157*
X03602Y02156*
Y02137*
X0361*
X03673Y02074*
Y00562*
X0361Y005*
X03366*
Y00464*
X03149Y00248*
X02543*
X02523Y00267*
X02527Y00346*
X02854*
X03059Y00551*
X0324*
X03244Y00555*
Y00594*
X03224*
X03222Y00597*
X03218Y00603*
X03211Y00608*
X03204Y00611*
X03201Y00611*
Y00582*
X03191*
Y00611*
X03189Y00611*
X03181Y00608*
X03175Y00603*
X0317Y00597*
X03169Y00594*
X03108*
X03106Y00599*
X03169Y00662*
X03172Y00666*
X03173Y0067*
Y01109*
X03396Y01332*
X03398Y01331*
X03405Y0133*
X03412Y01331*
X03419Y01334*
X03425Y01338*
X03429Y01344*
X03432Y01351*
X03433Y01358*
X03432Y01365*
X03429Y01372*
X03425Y01377*
X03419Y01382*
X03412Y01385*
X03405Y01386*
X03398Y01385*
X03391Y01382*
X03385Y01377*
X03381Y01372*
X03378Y01365*
X03377Y01358*
X03378Y01351*
X03379Y01349*
X03162Y01132*
X03157Y01134*
Y01509*
X03158Y01509*
X0316Y01513*
X03161Y01518*
Y01551*
X0316Y01555*
X03158Y01559*
X03142Y01575*
X03138Y01578*
X03133Y01578*
X03095*
X03004Y01669*
X03Y01672*
X02996Y01673*
X02922*
X02914Y01681*
X02916Y01686*
X02919Y01686*
X02926Y01689*
X02932Y01694*
X02936Y01699*
X02939Y01706*
X0294Y01713*
X02939Y0172*
X02936Y01727*
X02932Y01733*
X0293Y01735*
Y0174*
X02932Y01741*
X02936Y01747*
X02939Y01754*
X0294Y01761*
X02939Y01768*
X02936Y01775*
X02932Y01781*
X02926Y01785*
X02919Y01788*
X02912Y01789*
X02905Y01788*
X02898Y01785*
X02892Y01781*
X02888Y01775*
X02886Y0177*
X02881Y01771*
Y01872*
X02883Y01872*
X02888Y01877*
X02893Y01882*
X02896Y01889*
X02897Y01896*
X02896Y01904*
X02893Y0191*
X02888Y01916*
X02883Y0192*
X02876Y01923*
X02869Y01924*
X02862Y01923*
X02855Y0192*
X02849Y01916*
X02845Y0191*
X02842Y01904*
X02841Y01896*
X02842Y01889*
X02845Y01882*
X02849Y01877*
X02855Y01872*
X02857Y01872*
Y01719*
X02852Y01717*
X02834Y01734*
Y0197*
X02839Y01972*
X0284Y01972*
X02845Y01967*
X02852Y01964*
X02859Y01963*
X02867Y01964*
X02873Y01967*
X02877Y0197*
X0288Y01969*
X02882Y01968*
X02885Y01962*
X02889Y01956*
X02895Y01952*
X02902Y01949*
X02909Y01948*
X02916Y01949*
X02923Y01952*
X02929Y01956*
X02933Y01962*
X02936Y01969*
X02937Y01976*
X02941Y0198*
X02944Y0198*
X02952Y01981*
X02958Y01983*
X02964Y01988*
X02968Y01993*
X02971Y02*
X02972Y02007*
X02971Y02015*
X02968Y02021*
X02964Y02027*
X02958Y02031*
X02952Y02034*
X02949Y02035*
X02948Y02039*
X02949Y02041*
X02952Y02047*
X02952Y02055*
X02952Y02062*
X02949Y02069*
X02944Y02074*
X02939Y02079*
X02932Y02081*
X02925Y02082*
X02918Y02081*
X02911Y02079*
X02905Y02074*
X02901Y02069*
X02898Y02062*
X02897Y02055*
X02898Y02047*
X02901Y02041*
X02905Y02035*
X02911Y02031*
X02918Y02028*
X0292Y02027*
X02922Y02023*
X0292Y02021*
X02918Y02015*
X02917Y02007*
X02912Y02003*
X02909Y02004*
X02902Y02003*
X02895Y02*
X02891Y01997*
X02888Y01998*
X02886Y01999*
X02883Y02005*
X02879Y02011*
X02873Y02015*
X02867Y02018*
X02859Y02019*
X02852Y02018*
X02845Y02015*
X0284Y02011*
X02839Y0201*
X02834Y02012*
Y02246*
X02839Y02248*
X0284Y02247*
X02845Y02243*
X02852Y0224*
X02859Y02239*
X02867Y0224*
X02873Y02243*
X02879Y02247*
X02883Y02253*
X02884Y02255*
X02885Y02255*
X0289Y02255*
X02893Y02251*
X02899Y02247*
X02906Y02244*
X02913Y02243*
X0292Y02244*
X02927Y02247*
X02933Y02251*
X02937Y02257*
X0294Y02264*
X02941Y02271*
X0294Y02278*
X02937Y02285*
X02933Y0229*
X02927Y02295*
X0292Y02298*
X02913Y02299*
X02906Y02298*
X02899Y02295*
X02893Y0229*
X02889Y02285*
X02888Y02283*
X02887Y02282*
X02882Y02282*
X02879Y02286*
X02873Y02291*
X02867Y02294*
X02859Y02295*
X02852Y02294*
X02845Y02291*
X0284Y02286*
X02839Y02286*
X02834Y02288*
Y02711*
X02859Y02735*
X0291*
X02912Y02731*
X02917Y02725*
X02923Y0272*
X02929Y02718*
X02937Y02717*
X02944Y02718*
X02949Y0272*
X02949Y0272*
X02952Y02715*
X02951Y02715*
X02948Y02713*
X02944Y02707*
X02941Y027*
X0294Y02693*
X02941Y02686*
X02944Y02679*
X02948Y02674*
X02954Y02669*
X02961Y02666*
X02968Y02665*
X02975Y02666*
X02982Y02669*
X02988Y02674*
X02992Y02679*
X02995Y02686*
X02996Y02693*
X02996Y02694*
X02997Y02695*
X03Y02697*
X03005Y02693*
X03012Y0269*
X03019Y02689*
X03026Y0269*
X03033Y02693*
X03039Y02697*
X03043Y02703*
X03046Y0271*
X03047Y02717*
X03046Y02724*
X03043Y02731*
X03039Y02737*
X03033Y02741*
X03026Y02744*
X03019Y02745*
X03012Y02744*
X03005Y02741*
X03Y02737*
X02995Y02731*
X02992Y02724*
X02991Y02717*
X02992Y02716*
X0299Y02715*
X02987Y02714*
X02982Y02717*
X02975Y0272*
X02968Y02721*
X02961Y0272*
X02956Y02718*
X02955Y02718*
X02953Y02722*
X02953Y02723*
X02956Y02725*
X02961Y02731*
X02963Y02737*
X02964Y02744*
X02963Y02752*
X02961Y02758*
X02956Y02764*
X0295Y02769*
X02944Y02771*
X02937Y02772*
X02929Y02771*
X02923Y02769*
X02917Y02764*
X02913Y0276*
X02854*
X02849Y02759*
X02845Y02756*
X02814Y02725*
X02811Y02721*
X0281Y02716*
Y01736*
X02806Y01734*
X02731Y01809*
X02731Y01814*
X02732Y01814*
X02736Y0182*
X02739Y01827*
X0274Y01834*
X02739Y01841*
X02736Y01848*
X02732Y01854*
X02726Y01858*
X02719Y01861*
X02712Y01862*
X02705Y01861*
X02698Y01858*
X02692Y01854*
X02688Y01848*
X02685Y01841*
X02684Y01834*
X02685Y01827*
X02688Y0182*
X02692Y01814*
X02698Y0181*
X027Y01809*
X02701Y01806*
X02704Y01802*
X02885Y01621*
X02889Y01618*
X02894Y01617*
X02971*
X03047Y01542*
Y01297*
X03034Y01285*
X03032Y01281*
X03031Y01276*
Y0125*
X03032Y01246*
X03032Y01245*
Y00608*
X03018Y00594*
X02491*
X0249Y00597*
X02485Y00603*
X02479Y00608*
X02472Y00611*
X02469Y00611*
Y00582*
X02459*
Y00611*
X02456Y00611*
X02449Y00608*
X02443Y00603*
X02438Y00597*
X02437Y00594*
X0239*
Y01355*
X02429Y01395*
X02432Y01399*
X02433Y01404*
Y01446*
X02437Y01449*
X02438Y01448*
X02445Y01445*
X02452Y01444*
X02459Y01445*
X02466Y01448*
X02472Y01452*
X02476Y01458*
X02479Y01465*
X0248Y0147*
X02485Y01472*
X02485*
X02486Y01471*
X02492Y01469*
X02499Y01468*
X02507Y01469*
X02513Y01471*
X02519Y01476*
X02524Y01482*
X02526Y01488*
X02527Y01496*
X02526Y01503*
X02524Y01509*
X02519Y01515*
X02513Y0152*
X02507Y01522*
X02499Y01523*
X02492Y01522*
X02486Y0152*
X0248Y01515*
X02475Y01509*
X02473Y01503*
X02472Y01498*
X02467Y01495*
X02467Y01495*
X02466Y01496*
X02459Y01499*
X02452Y015*
X02445Y01499*
X02438Y01496*
X02437Y01495*
X02433Y01497*
Y01519*
X02432Y01524*
X02429Y01527*
X02427Y0153*
X02428Y01533*
X02429Y01535*
X02436Y01536*
X02443Y01538*
X02448Y01543*
X02453Y01549*
X02455Y01555*
X02456Y01562*
X02455Y0157*
X02453Y01576*
X02448Y01582*
X02443Y01587*
X02436Y01589*
X02429Y0159*
X02421Y01589*
X02415Y01587*
X02409Y01582*
X02405Y01576*
X02402Y0157*
X02401Y01565*
X02396Y01562*
X02396Y01563*
X02394Y01567*
X02396Y01571*
X02397Y01576*
Y01896*
X02398Y01897*
X02399Y01902*
Y01928*
X02398Y01933*
X02397Y01934*
Y01956*
X02396Y01961*
X02394Y01965*
X02362Y01996*
Y02022*
X02364Y02023*
X0237Y02027*
X02374Y02033*
X02377Y0204*
X02378Y02047*
X02377Y02054*
X02374Y02061*
X02373Y02063*
X02374Y02068*
X02375Y02068*
X02381Y02073*
X02386Y02079*
X02389Y02086*
X02389Y02089*
X0233*
X02331Y02086*
X02334Y02079*
X02336Y02076*
X02336Y02075*
X02335Y0207*
X02331Y02066*
X02326Y02061*
X02323Y02054*
X02323Y02047*
X02323Y0204*
X02326Y02033*
X02331Y02027*
X02336Y02023*
X02338Y02022*
Y01991*
X02339Y01987*
X02342Y01983*
X02373Y01951*
Y01942*
X02368Y0194*
X02363Y01942*
X02356Y01943*
X02353Y01942*
X02352Y01943*
X02349Y01947*
X0235Y01952*
X02349Y01959*
X02346Y01966*
X02342Y01972*
X02336Y01976*
X0233Y01979*
X02322Y0198*
X02315Y01979*
X02308Y01976*
X02303Y01972*
X02298Y01966*
X02295Y01959*
X02295Y01952*
X02295Y01945*
X02298Y01938*
X02303Y01933*
X02308Y01928*
X02315Y01925*
X02322Y01924*
X02325Y01925*
X02326Y01924*
X02329Y0192*
X02328Y01915*
X02329Y01908*
X02332Y01901*
X02336Y01895*
X02342Y01891*
X02344Y0189*
Y01874*
X0231Y0184*
X02307Y01836*
X02306Y01831*
Y0175*
X02307Y01745*
X0231Y01741*
X02354Y01698*
Y01691*
X02349Y01689*
X02316Y01722*
X02312Y01724*
X02307Y01725*
X023*
X02299Y01727*
X02295Y0173*
X0229Y0173*
X0229*
X02264*
X02259Y0173*
X02256Y01727*
X02245Y01716*
X02221*
X0222Y01718*
X02216Y01724*
X0221Y01728*
X02204Y01731*
X02196Y01732*
X02189Y01731*
X02182Y01728*
X02178Y01725*
X02173Y01727*
Y0181*
X02176Y01812*
X02181Y0181*
X02181Y01807*
X02184Y01801*
X02189Y01795*
X02194Y0179*
X02201Y01788*
X02208Y01787*
X02215Y01788*
X02222Y0179*
X02228Y01795*
X02232Y01801*
X02235Y01807*
X02236Y01814*
X02235Y01822*
X02232Y01828*
X02228Y01834*
X02222Y01839*
X02215Y01841*
X02211Y01842*
X02209Y01847*
X02228Y01867*
X02231Y01871*
X02232Y01875*
Y01978*
X02231Y01983*
X02228Y01987*
X01933Y02283*
Y02341*
X01934Y02342*
X01938Y02343*
X01945Y02341*
X01947Y0234*
Y0237*
X01952*
Y02375*
X01982*
X01981Y02377*
X01978Y02385*
X01973Y02391*
X01967Y02396*
X0196Y02399*
X01952Y024*
X01949Y02403*
Y02494*
X0195Y02495*
X01956Y025*
X01961Y02505*
X01963Y02512*
X01964Y02519*
X01963Y02526*
X01961Y02533*
X01956Y02539*
X0195Y02543*
X01946Y02545*
X01947Y0255*
X01952Y02549*
X01959Y0255*
X01966Y02553*
X01972Y02557*
X01976Y02563*
X01979Y0257*
X0198Y02577*
X01979Y02584*
X01976Y02591*
X01972Y02597*
X01966Y02601*
X01959Y02604*
X01952Y02605*
X01945Y02604*
X01938Y02601*
X01933Y02597*
X01928Y02591*
X01925Y02584*
X01924Y02577*
X01925Y0257*
X01928Y02563*
X01933Y02557*
X01938Y02553*
X01943Y02551*
X01941Y02546*
X01937Y02547*
X01929Y02546*
X01923Y02543*
X01917Y02539*
X01912Y02533*
X0191Y02526*
X01909Y02519*
X0191Y02512*
X01912Y02505*
X01917Y025*
X01923Y02495*
X01924Y02494*
Y02403*
X01912Y02391*
X0191Y02387*
X01909Y02383*
Y02383*
Y02278*
X0191Y02273*
X01912Y02269*
X02161Y0202*
X02159Y02015*
X02027*
X02022Y02015*
X02019Y02012*
X01845Y01838*
X01771*
X01767Y01837*
X01763Y01835*
X01752Y01825*
X01748Y01826*
Y01884*
X0175Y01885*
X01755Y01889*
X0176Y01895*
X01763Y01902*
X01764Y01909*
X01763Y01916*
X0176Y01923*
X01755Y01929*
X0175Y01933*
X01743Y01936*
X01736Y01937*
X01729Y01936*
X01722Y01933*
X01716Y01929*
X01712Y01923*
X01709Y01916*
X01708Y01909*
X01709Y01902*
X01712Y01895*
X01716Y01889*
X01722Y01885*
X01724Y01884*
Y01818*
X01625Y01719*
X01622Y01715*
X01621Y01711*
Y0159*
X01433Y01401*
X01322*
X01318Y014*
X01314Y01398*
X01208Y01291*
X01205Y01288*
X01204Y01283*
Y01283*
Y01098*
X01205Y01093*
X01208Y0109*
X0126Y01038*
X01259Y01035*
X01255Y01029*
X01252Y01022*
X01251Y01015*
X01252Y01008*
X01255Y01001*
X01259Y00996*
X01265Y00991*
X01272Y00988*
X01279Y00987*
X01286Y00988*
X01293Y00991*
X01299Y00996*
X01303Y01001*
X01306Y01008*
X01307Y01015*
X01306Y01022*
X01303Y01029*
X01299Y01035*
X01293Y01039*
X01287Y01042*
X01286Y01044*
X01284Y01048*
X01277Y01054*
X01279Y01058*
X01581*
X01666Y00973*
X01666Y00971*
X01665Y00964*
X01666Y00957*
X01668Y0095*
X01673Y00944*
X01679Y0094*
X01685Y00937*
X01692Y00936*
X017Y00937*
X01706Y0094*
X01707Y00941*
X01712Y00939*
Y00865*
X01709Y00865*
X01702Y00862*
X01696Y00858*
X01692Y00852*
X01689Y00845*
X01688Y00838*
X01689Y00831*
X01692Y00824*
X01696Y00818*
X01702Y00814*
X01709Y00811*
X01716Y0081*
X01723Y00811*
X0173Y00814*
X01736Y00818*
X0174Y00824*
X01743Y00831*
X01744Y00838*
X01743Y00845*
X0174Y00852*
X01736Y00857*
Y00931*
X0174Y00933*
X01742Y00932*
X01748Y00929*
X01755Y00928*
X01763Y00929*
X01763Y00929*
X01763Y00929*
X01766Y00925*
X01764Y0092*
X01763Y00913*
X01764Y00906*
X01767Y00899*
X01771Y00893*
X01777Y00889*
X01784Y00886*
X01791Y00885*
X01798Y00886*
X01805Y00889*
X01806Y0089*
X0181Y00887*
Y00594*
X01556*
X01555Y00596*
X01551Y00602*
X01545Y00606*
X01538Y00609*
X01531Y0061*
X01524Y00609*
X01517Y00606*
X01511Y00602*
X01507Y00596*
X01506Y00594*
X01343*
X0134Y00599*
X01341Y00603*
X01342Y0061*
X01341Y00617*
X01339Y00624*
X01334Y00629*
X01328Y00634*
X01322Y00637*
X01314Y00638*
X01307Y00637*
X01301Y00634*
X01295Y00629*
X0129Y00624*
X01288Y00617*
X01287Y0061*
X01288Y00603*
X01289Y00599*
X01286Y00594*
X0123*
X01229Y00599*
X01232Y00604*
X01235Y0061*
X01236Y00618*
X01235Y00625*
X01232Y00632*
X01228Y00637*
X01222Y00642*
X01217Y00644*
X01218Y00649*
X01358*
X01362Y0065*
X01366Y00652*
X01438Y00724*
X0165*
X01651Y00721*
X01655Y00715*
X01662Y0071*
X01669Y00707*
X01672Y00706*
Y00736*
Y00765*
X01669Y00765*
X01662Y00762*
X01655Y00757*
X01651Y00751*
X0165Y00748*
X01433*
X01428Y00747*
X01424Y00744*
X01353Y00673*
X01238*
X01237Y00678*
X0124Y00682*
X01243Y00689*
X01244Y00696*
X01243Y00704*
X0124Y0071*
X01236Y00716*
X0123Y0072*
X0123Y00721*
X01229Y00726*
X01231Y00728*
X01235Y00734*
X01238Y0074*
X01239Y00748*
X01238Y00755*
X01235Y00761*
X01231Y00767*
X01225Y00772*
X01219Y00774*
X01211Y00775*
X01204Y00774*
X01197Y00772*
X01192Y00767*
X01187Y00761*
X01184Y00755*
X01184Y00748*
X01184Y0074*
X01187Y00734*
X01192Y00728*
X01197Y00723*
X01198Y00723*
X01198Y00718*
X01196Y00716*
X01192Y0071*
X01189Y00704*
X01188Y00696*
X01189Y00689*
X01192Y00682*
X01195Y00678*
X01194Y00673*
X01059*
Y00649*
X01199*
X012Y00644*
X01194Y00642*
X01189Y00637*
X01184Y00632*
X01181Y00625*
X0118Y00618*
X01181Y0061*
X01184Y00604*
X01188Y00599*
X01186Y00594*
X01035*
X01031Y0059*
X00814*
X0077Y00545*
Y00295*
X00444Y00291*
X0044Y00294*
Y00594*
X00275*
Y00712*
X00047*
Y00803*
X00051Y00807*
X00161*
X00165Y00811*
Y01185*
X00169Y01188*
X00244*
Y02086*
X00275Y02118*
Y02165*
X0028Y02168*
X00285Y02165*
X00288Y02165*
Y02194*
Y02224*
X00285Y02223*
X0028Y02221*
X00275Y02224*
Y0254*
X00248*
Y03173*
X00059*
X00043Y03188*
Y03665*
X00078Y037*
X00645*
X00696Y03751*
X01098*
X01232Y03618*
G37*
G36*
X02164Y0199D02*
X02164Y01988D01*
X02162Y01984*
X02157Y01982*
X02151Y01978*
X02147Y01972*
X02146Y0197*
X02027*
X02023Y01969*
X02019Y01967*
X01819Y01767*
X01815Y01769*
X01818Y01776*
X01819Y01783*
X01818Y01791*
X01815Y01797*
X0181Y01803*
X01805Y01807*
X018Y01809*
X01801Y01814*
X0185*
X01855Y01815*
X01858Y01818*
X02032Y01991*
X02163*
X02164Y0199*
G37*
G36*
X02373Y01796D02*
Y01719D01*
X02369Y01717*
X0233Y01755*
Y01793*
X02335Y01795*
X02336Y01794*
X02343Y01792*
X0235Y01791*
X02357Y01792*
X02364Y01794*
X02368Y01798*
X02373Y01796*
G37*
G36*
X02084Y01941D02*
X02079Y01939D01*
X02073Y01935*
X02069Y01929*
X02066Y01922*
X02065Y01915*
X02066Y01908*
X02069Y01901*
X02073Y01895*
X02079Y01891*
X02086Y01888*
X02093Y01887*
X021Y01888*
X02107Y01891*
X02112Y01895*
X02117Y01901*
X02118Y01903*
X0219*
X02195Y01904*
X02199Y01906*
X02203Y01911*
X02208Y01909*
Y0188*
X02152Y01825*
X0215Y01821*
X02149Y01816*
Y01733*
X02144Y01731*
X02143Y01732*
X02137Y01736*
X02131Y01739*
X02124Y0174*
X02116Y01739*
X0211Y01736*
X02104Y01732*
X02099Y01726*
X02097Y01719*
X02096Y01712*
X02097Y01705*
X02098Y01701*
X02095Y01697*
X0209Y01696*
X02086Y017*
X02086Y01704*
X02085Y01711*
X02083Y01718*
X02078Y01724*
X02072Y01728*
X02066Y01731*
X02059Y01732*
X02051Y01731*
X02045Y01728*
X02039Y01724*
X02034Y01718*
X02032Y01711*
X02031Y0171*
X02027Y01708*
X02026Y01708*
X02024Y01714*
X02019Y0172*
X02013Y01724*
X02007Y01727*
X02Y01728*
X01992Y01727*
X01986Y01724*
X0198Y0172*
X01975Y01714*
X01973Y01707*
X01972Y017*
X01973Y01693*
X01973Y01691*
X01963Y01681*
X01958Y01683*
X01958Y01689*
X01955Y01696*
X0195Y01702*
X01944Y01707*
X01936Y0171*
X01934Y0171*
Y01681*
X01929*
Y01676*
X01899*
X019Y01673*
X01903Y01666*
X01907Y0166*
X01914Y01655*
X01921Y01652*
X01926Y01651*
X01928Y01646*
X01892Y0161*
X01888Y01612*
Y01727*
X01889Y01728*
X01895Y01732*
X019Y01738*
X01902Y01745*
X01903Y01752*
X01902Y01759*
X019Y01766*
X01895Y01772*
X01889Y01776*
X01883Y01779*
X01875Y0178*
X01873Y01779*
X0187Y01784*
X02032Y01946*
X02083*
X02084Y01941*
G37*
G36*
X01848Y01755D02*
X01848Y01752D01*
X01849Y01745*
X01851Y01738*
X01856Y01732*
X01862Y01728*
X01863Y01727*
Y01294*
X01858Y0129*
X01854Y01291*
X01847Y0129*
X0184Y01287*
X01834Y01283*
X0183Y01277*
X01827Y0127*
X01826Y01263*
X01827Y01256*
X0183Y01249*
X01834Y01244*
X0184Y01239*
X01847Y01236*
X01854Y01235*
X01858Y01236*
X01863Y01232*
Y01022*
X0179Y00949*
X01788Y00945*
X01787Y00943*
X01786Y00942*
X01785Y00942*
X01781Y00946*
X01782Y00949*
X01783Y00956*
X01782Y00963*
X01779Y0097*
X01775Y00976*
X01769Y0098*
X01763Y00983*
X01755Y00984*
X01748Y00983*
X01742Y0098*
X0174Y00979*
X01736Y00982*
Y00996*
X01735Y01*
X01732Y01004*
X01732*
X01681Y01056*
Y01235*
X01683Y01235*
X01688Y0124*
X01693Y01245*
X01696Y01252*
X01697Y01259*
X01696Y01267*
X01693Y01273*
X01688Y01279*
X01683Y01283*
X01676Y01286*
X01669Y01287*
X01662Y01286*
X01655Y01283*
X01649Y01279*
X01645Y01273*
X01642Y01267*
X01641Y01259*
X01642Y01252*
X01645Y01245*
X01649Y0124*
X01655Y01235*
X01657Y01235*
Y01051*
X01658Y01046*
X0166Y01042*
X01709Y00994*
X01709Y00992*
X01703Y00989*
X017Y00991*
X01692Y00992*
X01685Y00991*
X01683Y0099*
X01595Y01079*
X01591Y01081*
X01586Y01082*
X01348*
X01346Y01087*
X0135Y0109*
X01354Y01096*
X01357Y01102*
X0136Y01103*
X01362Y01104*
X01365Y01101*
X01372Y01099*
X01379Y01098*
X01386Y01099*
X01393Y01101*
X01399Y01106*
X01403Y01112*
X01405Y01115*
X01406Y01116*
X01411Y01116*
X01415Y01113*
X01421Y0111*
X01429Y0111*
X01436Y0111*
X01443Y01113*
X01448Y01118*
X01453Y01123*
X01453Y01123*
X01458Y01124*
X0146Y01122*
X01466Y01117*
X01473Y01114*
X0148Y01113*
X01487Y01114*
X01494Y01117*
X01499Y01122*
X01504Y01127*
X01507Y01134*
X01508Y01141*
X01507Y01148*
X01504Y01155*
X01499Y01161*
X01494Y01165*
X01492Y01166*
Y01241*
X01497Y01243*
X01501Y01239*
X01508Y01236*
X01515Y01235*
X01522Y01236*
X01529Y01239*
X01535Y01244*
X01539Y01249*
X01542Y01256*
X01543Y01263*
X01542Y0127*
X01539Y01277*
X01535Y01283*
X01529Y01287*
X01522Y0129*
X01515Y01291*
X01508Y0129*
X01501Y01287*
X01497Y01284*
X01492Y01286*
Y01321*
X0166Y01489*
X01662Y01488*
X01669Y01487*
X01676Y01488*
X01683Y01491*
X01688Y01496*
X01693Y01501*
X01696Y01508*
X01697Y01515*
X01696Y01522*
X01693Y01529*
X01688Y01535*
X01683Y01539*
X01676Y01542*
X01669Y01543*
X01665Y01543*
X01663Y01547*
X01799Y01684*
X018Y01685*
X01806Y01686*
X01806Y01686*
X01808Y01684*
X01815Y01682*
X01822Y01681*
X0183Y01682*
X01836Y01684*
X01842Y01689*
X01846Y01695*
X01849Y01701*
X0185Y01709*
X01849Y01716*
X01846Y01722*
X01842Y01728*
X01836Y01733*
X0183Y01735*
X01828Y01736*
X01827Y0174*
X01843Y01757*
X01848Y01755*
G37*
G36*
X02338Y01666D02*
Y01585D01*
Y01585*
Y01577*
X02333Y01575*
X02256Y01652*
X02256Y01654*
X02257Y01661*
X02257Y01661*
X02262Y01664*
X02263Y01663*
X0227Y0166*
X02277Y01659*
X02284Y0166*
X02291Y01663*
X02297Y01667*
X02301Y01673*
X02304Y0168*
X02305Y01687*
X02304Y01692*
X02309Y01695*
X02338Y01666*
G37*
G36*
X01769Y018D02*
X01767Y01797D01*
X01764Y01791*
X01763Y01783*
X01764Y01776*
X01765Y01773*
X01765Y01771*
X01762Y01768*
X01756Y01767*
X01749Y01764*
X01744Y0176*
X01739Y01754*
X01736Y01747*
X01735Y0174*
X01736Y01733*
X01739Y01726*
X01744Y0172*
X01749Y01716*
X01756Y01713*
X01763Y01712*
X0177Y01713*
X01774Y01715*
X01779Y01711*
Y01697*
X01666Y01584*
X01661Y01586*
Y0166*
X01666Y01661*
X01667Y0166*
X01674Y01655*
X01681Y01652*
X01683Y01652*
Y01681*
Y0171*
X01681Y0171*
X01678Y01709*
X01675Y01713*
X01765Y01803*
X01769Y018*
G37*
G36*
X02032Y01697D02*
X02034Y0169D01*
X02039Y01685*
X02045Y0168*
X02051Y01677*
X02059Y01676*
X02062Y01677*
X02067Y01673*
X02066Y01669*
X02067Y01662*
X0207Y01655*
X02074Y01649*
X0208Y01645*
X02087Y01642*
X02094Y01641*
X02101Y01642*
X02108Y01645*
X02114Y01649*
X02118Y01655*
X02121Y01662*
X02122Y01669*
X02121Y01676*
X02119Y0168*
X02123Y01684*
X02124Y01684*
X02131Y01685*
X02137Y01688*
X02143Y01692*
X02144Y01693*
X02149Y01692*
Y01646*
X02021Y01519*
X02016Y0152*
X02016Y01521*
X02011Y01527*
X02006Y01531*
X01999Y01534*
X01992Y01535*
X01984Y01534*
X01978Y01531*
X01972Y01527*
X01969Y01523*
X01968Y01523*
X01964*
X01963Y01523*
X0196Y01527*
X01954Y01531*
X01948Y01534*
X0194Y01535*
X01933Y01534*
X01927Y01531*
X01921Y01527*
X01916Y01521*
X01914Y01515*
X01913Y01507*
X01914Y015*
X01914Y01498*
X01908Y01492*
X01903Y01494*
Y01587*
X0199Y01674*
X01992Y01673*
X01997Y01673*
X02Y01668*
Y01668*
X01999Y01667*
X01996Y0166*
X01995Y01653*
X01996Y01646*
X01999Y01639*
X02003Y01633*
X02009Y01629*
X02016Y01626*
X02023Y01625*
X0203Y01626*
X02037Y01629*
X02043Y01633*
X02047Y01639*
X0205Y01646*
X02051Y01653*
X0205Y0166*
X02047Y01667*
X02043Y01673*
X02037Y01677*
X0203Y0168*
X02025Y01681*
X02023Y01685*
X02023Y01686*
X02024Y01686*
X02026Y01693*
X02027Y01695*
X02031Y01697*
X02032Y01697*
G37*
G36*
X02182Y0168D02*
X02189Y01677D01*
X02196Y01676*
X02201Y01677*
X02204Y01673*
X02203Y01668*
X02202Y01661*
X02203Y01654*
X02205Y01647*
X0221Y01641*
X02216Y01637*
X02222Y01634*
X02229Y01633*
X02237Y01634*
X02238Y01635*
X02314Y01559*
Y01547*
X02311Y01543*
X02304*
X02303Y01545*
X02299Y01551*
X02293Y01555*
X02286Y01558*
X02279Y01559*
X02272Y01558*
X02265Y01555*
X02259Y01551*
X02257Y01548*
X02252Y01547*
X02251Y01547*
X02246Y01551*
X02239Y01554*
X02232Y01555*
X02225Y01554*
X02218Y01551*
X02212Y01547*
X02208Y01541*
X02205Y01534*
X02204Y01527*
X02205Y0152*
X02208Y01513*
X02212Y01507*
X02218Y01503*
X02225Y015*
X02226Y015*
X02232Y01495*
Y01483*
X02227Y01481*
X02226Y01482*
X02219Y01485*
X02212Y01486*
X02205Y01485*
X02204Y01484*
X02198Y01487*
X02198Y01491*
X02195Y01498*
X02191Y01503*
X02185Y01508*
X02178Y01511*
X02171Y01512*
X02164Y01511*
X02157Y01508*
X02152Y01503*
X02147Y01498*
X02144Y01491*
X02143Y01484*
X02144Y01477*
X02147Y0147*
X02152Y01464*
X02157Y0146*
X02159Y01459*
Y01407*
X02154Y01405*
X02113Y01447*
X02112Y01448*
X02113Y01453*
X02118Y01456*
X02122Y01462*
X02125Y01469*
X02126Y01476*
X02125Y01483*
X02122Y0149*
X02118Y01496*
X02112Y015*
X02105Y01503*
X02098Y01504*
X02091Y01503*
X02084Y015*
X02078Y01496*
X02076Y01493*
X02071Y01492*
X0207Y01492*
X02065Y01496*
X02058Y01499*
X02051Y015*
X02043Y01499*
X02042Y01498*
X02039Y01502*
X02169Y01633*
X02172Y01637*
X02173Y01641*
Y01682*
X02178Y01684*
X02182Y0168*
G37*
G36*
X01969Y01491D02*
X01972Y01488D01*
X01978Y01483*
X0198Y01483*
Y01461*
X01944Y01425*
X01941Y01421*
X0194Y01417*
Y01342*
X01941Y01337*
X01944Y01334*
X01968Y01309*
Y01285*
X01963Y01283*
X01962Y01283*
X01956Y01286*
X01948Y01287*
X01941Y01286*
X01934Y01283*
X01933Y01283*
X01929Y01285*
Y01289*
X01928Y01294*
X01925Y01298*
X01919Y01304*
Y01469*
X01931Y01481*
X01933Y01481*
X0194Y0148*
X01948Y01481*
X01954Y01483*
X0196Y01488*
X01963Y01491*
X01964Y01492*
X01968*
X01969Y01491*
G37*
G36*
X02079Y01456D02*
X02084Y01452D01*
X02086Y01451*
Y01444*
X02087Y0144*
X02089Y01436*
X02119Y01406*
X02118Y01403*
X02117Y01401*
X0211Y014*
X02104Y01398*
X02098Y01393*
X02095Y01389*
X02094Y01389*
X0209*
X02089Y01389*
X02086Y01393*
X0208Y01398*
X02074Y014*
X02066Y01401*
X02059Y014*
X02053Y01398*
X02047Y01394*
X02047Y01393*
X02041Y01394*
X02039Y01397*
X02033Y01402*
X02026Y01404*
X02019Y01405*
X02012Y01404*
X02005Y01402*
X02Y01397*
X01995Y01391*
X01992Y01385*
X01991Y01377*
X01992Y0137*
X01995Y01364*
X02Y01358*
X02005Y01353*
X02012Y01351*
X02019Y0135*
X02026Y01351*
X02033Y01353*
X02038Y01357*
X02039Y01358*
X02044Y01357*
X02047Y01354*
X02053Y01349*
X02059Y01347*
X02066Y01346*
X02074Y01347*
X0208Y01349*
X02086Y01354*
X02089Y01358*
X0209Y01358*
X02094*
X02095Y01358*
X02098Y01354*
X02104Y01349*
X0211Y01347*
X02118Y01346*
X02121Y01346*
X02124Y01341*
X02046Y01264*
X02031*
X02026Y01263*
X02022Y0126*
X02012Y0125*
X02008Y01252*
Y01326*
X02007Y01331*
X02004Y01335*
X01984Y01355*
Y014*
X0202Y01436*
X02022Y0144*
X02023Y01444*
Y01454*
X02028Y01456*
X02031Y01452*
X02037Y01448*
X02043Y01445*
X02051Y01444*
X02058Y01445*
X02065Y01448*
X0207Y01452*
X02073Y01455*
X02078Y01456*
X02079Y01456*
G37*
G36*
X02362Y01361D02*
X02365Y01359D01*
Y00594*
X0209*
Y00765*
X02111Y00786*
X02111*
X02114Y0079*
X02115Y00794*
Y01123*
X02346Y01354*
X02348*
X02353Y01355*
X02356Y01357*
X02361Y01361*
X02362Y01361*
G37*
G36*
X01426Y01373D02*
X01282Y01228D01*
X0128Y01225*
X01279Y0122*
Y0113*
X01272Y01129*
X01265Y01126*
X01264Y01125*
X0126Y01127*
Y01214*
X01291Y01246*
X01294Y0125*
X01295Y01254*
Y01272*
X01331Y01308*
X01333Y01307*
X0134Y01306*
X01348Y01307*
X01354Y0131*
X0136Y01314*
X01365Y0132*
X01367Y01327*
X01368Y01334*
X01367Y01341*
X01365Y01348*
X0136Y01354*
X01354Y01358*
X01348Y01361*
X0134Y01362*
X01333Y01361*
X01327Y01358*
X01321Y01354*
X01316Y01348*
X01314Y01341*
X01313Y01334*
X01314Y01327*
X01314Y01325*
X01277Y01288*
X01271Y01287*
X0127Y01288*
X01265Y01291*
X01259Y01294*
X01252Y01295*
X01251Y01297*
X0125Y013*
X01327Y01377*
X01425*
X01426Y01373*
G37*
G36*
X03094Y01517D02*
X03098Y01511D01*
X03104Y01507*
X0311Y01504*
X03118Y01503*
X03125Y01504*
X03128Y01506*
X03133Y01502*
Y00682*
X03061Y00609*
X03056Y00611*
Y01237*
X03061Y01239*
X03067Y01236*
X03074Y01235*
X03081Y01236*
X03088Y01239*
X03094Y01244*
X03098Y01249*
X03101Y01256*
X03102Y01263*
X03101Y0127*
X03098Y01277*
X03094Y01283*
X03088Y01287*
X03086Y01288*
Y01521*
X03091Y01522*
X03094Y01517*
G37*
G36*
X01641Y01519D02*
X01641Y01515D01*
X01642Y01508*
X01643Y01506*
X01471Y01335*
X01469Y01331*
X01468Y01326*
Y01166*
X01466Y01165*
X0146Y01161*
X01456Y01155*
X01456Y01155*
X0145Y01155*
X01448Y01157*
X01443Y01161*
X01436Y01164*
X01429Y01165*
X01421Y01164*
X01415Y01161*
X01409Y01157*
X01405Y01151*
X01403Y01148*
X01402Y01147*
X01397Y01146*
X01393Y0115*
X01386Y01152*
X01379Y01153*
X01372Y01152*
X01365Y0115*
X01359Y01145*
X01355Y01139*
X01354Y01137*
X01348Y01134*
X01348Y01135*
X01346Y01137*
Y01231*
X01637Y01521*
X01641Y01519*
G37*
G36*
X01913Y00976D02*
Y00897D01*
X01914Y00893*
X01916Y00889*
X01926Y00879*
X01925Y00877*
X01924Y0087*
X01925Y00862*
X01928Y00856*
X01933Y0085*
X01938Y00846*
X01945Y00843*
X01952Y00842*
X01959Y00843*
X01963Y00844*
X01969Y00841*
X01969Y00841*
X01969Y0084*
X01947Y00818*
X01944Y00818*
X0194Y00815*
X01916Y00791*
X01913Y00787*
X01912Y00782*
Y00594*
X01834*
Y00898*
X01839Y009*
X01844Y00897*
X01851Y00894*
X01858Y00893*
X01865Y00894*
X01872Y00897*
X01877Y00901*
X01882Y00907*
X01885Y00914*
X01886Y00921*
X01885Y00928*
X01882Y00935*
X01877Y0094*
X01877Y00941*
X01876Y00946*
X01908Y00978*
X01913Y00976*
G37*
G36*
X01946Y00971D02*
X01953Y00969D01*
X0196Y00968*
X01967Y00969*
X01968Y00969*
X01972Y00966*
Y00895*
X01967Y00893*
X01966Y00894*
X01959Y00896*
X01952Y00897*
X01945Y00896*
X01943Y00896*
X01937Y00902*
Y00973*
X01942Y00975*
X01946Y00971*
G37*
%LNnucleoclone-2*%
%LPC*%
G36*
X02916Y03534D02*
X02892D01*
Y0351*
X02895Y0351*
X02902Y03513*
X02908Y03518*
X02913Y03524*
X02916Y03531*
X02916Y03534*
G37*
G36*
X02882D02*
X02858D01*
X02858Y03531*
X02861Y03524*
X02866Y03518*
X02872Y03513*
X02879Y0351*
X02882Y0351*
Y03534*
G37*
G36*
X0137Y03559D02*
X01362Y03558D01*
X01356Y03555*
X0135Y03551*
X01346Y03545*
X01343Y03538*
X01342Y03531*
X01343Y03524*
X01346Y03517*
X0135Y03511*
X01356Y03507*
X01362Y03504*
X0137Y03503*
X01377Y03504*
X01383Y03507*
X01389Y03511*
X01394Y03517*
X01396Y03524*
X01397Y03531*
X01396Y03538*
X01394Y03545*
X01389Y03551*
X01383Y03555*
X01377Y03558*
X0137Y03559*
G37*
G36*
X02973Y03539D02*
X02966Y03538D01*
X02959Y03535*
X02953Y03531*
X02949Y03525*
X02946Y03519*
X02945Y03511*
X02946Y03504*
X02949Y03497*
X02953Y03492*
X02959Y03487*
X02966Y03484*
X02973Y03484*
X0298Y03484*
X02987Y03487*
X02992Y03492*
X02997Y03497*
X03Y03504*
X03001Y03511*
X03Y03519*
X02997Y03525*
X02992Y03531*
X02987Y03535*
X0298Y03538*
X02973Y03539*
G37*
G36*
X01602Y03523D02*
X01595Y03522D01*
X01588Y0352*
X01582Y03515*
X01578Y03509*
X01575Y03503*
X01574Y03496*
X01575Y03488*
X01578Y03482*
X01582Y03476*
X01588Y03471*
X01595Y03469*
X01602Y03468*
X01609Y03469*
X01616Y03471*
X01622Y03476*
X01626Y03482*
X01629Y03488*
X0163Y03496*
X01629Y03503*
X01626Y03509*
X01622Y03515*
X01616Y0352*
X01609Y03522*
X01602Y03523*
G37*
G36*
X021Y03508D02*
X02092Y03507D01*
X02086Y03504*
X0208Y03499*
X02075Y03494*
X02073Y03487*
X02072Y0348*
X02073Y03473*
X02075Y03466*
X0208Y0346*
X02086Y03456*
X02092Y03453*
X021Y03452*
X02107Y03453*
X02113Y03456*
X02119Y0346*
X02124Y03466*
X02126Y03473*
X02127Y0348*
X02126Y03487*
X02124Y03494*
X02119Y03499*
X02113Y03504*
X02107Y03507*
X021Y03508*
G37*
G36*
X01484Y03523D02*
X01477Y03522D01*
X0147Y0352*
X01464Y03515*
X0146Y03509*
X01457Y03503*
X01456Y03496*
X01457Y03488*
X0146Y03482*
X01464Y03476*
X0147Y03471*
X01475Y03469*
X01477Y03465*
X01477Y03464*
X01475Y03462*
X01473Y03456*
X01472Y03448*
X01473Y03441*
X01475Y03434*
X0148Y03429*
X01486Y03424*
X01492Y03421*
X015Y03421*
X01507Y03421*
X01513Y03424*
X01519Y03429*
X01524Y03434*
X01526Y03441*
X01527Y03448*
X01526Y03456*
X01524Y03462*
X01519Y03468*
X01513Y03472*
X01509Y03474*
X01507Y03479*
Y0348*
X01508Y03482*
X01511Y03488*
X01512Y03496*
X01511Y03503*
X01508Y03509*
X01503Y03515*
X01498Y0352*
X01491Y03522*
X01484Y03523*
G37*
G36*
X02395D02*
X02388Y03522D01*
X02381Y0352*
X02375Y03515*
X02371Y03509*
X02368Y03503*
X02367Y03496*
X02368Y03488*
X02371Y03482*
X02375Y03476*
X02381Y03472*
X02381Y03471*
X02381Y03466*
X02379Y03464*
X02375Y03458*
X02372Y03452*
X02371Y03444*
X02372Y03437*
X02375Y0343*
X02379Y03425*
X02385Y0342*
X02392Y03418*
X02399Y03417*
X02406Y03418*
X02413Y0342*
X02418Y03425*
X02423Y0343*
X02426Y03437*
X02427Y03444*
X02426Y03452*
X02423Y03458*
X02418Y03464*
X02413Y03468*
X02413Y03468*
X02412Y03474*
X02414Y03476*
X02419Y03482*
X02422Y03488*
X02423Y03496*
X02422Y03503*
X02419Y03509*
X02414Y03515*
X02409Y0352*
X02402Y03522*
X02395Y03523*
G37*
G36*
X03314Y03468D02*
X03307Y03467D01*
X03301Y03465*
X03295Y0346*
X0329Y03454*
X03288Y03448*
X03287Y0344*
X03288Y03433*
X0329Y03427*
X03295Y03421*
X03301Y03416*
X03307Y03414*
X03314Y03413*
X03322Y03414*
X03328Y03416*
X03334Y03421*
X03339Y03427*
X03341Y03433*
X03342Y0344*
X03341Y03448*
X03339Y03454*
X03334Y0346*
X03328Y03465*
X03322Y03467*
X03314Y03468*
G37*
G36*
X01606Y0346D02*
X01599Y03459D01*
X01592Y03457*
X01586Y03452*
X01582Y03446*
X01579Y0344*
X01578Y03433*
X01579Y03425*
X01582Y03419*
X01586Y03413*
X01592Y03408*
X01599Y03406*
X01606Y03405*
X01613Y03406*
X0162Y03408*
X01625Y03413*
X0163Y03419*
X01633Y03425*
X01634Y03433*
X01633Y0344*
X0163Y03446*
X01625Y03452*
X0162Y03457*
X01613Y03459*
X01606Y0346*
G37*
G36*
X02245Y03409D02*
X02238Y03408D01*
X02231Y03405*
X02226Y03401*
X02221Y03395*
X02218Y03389*
X02217Y03381*
X02218Y03374*
X02221Y03367*
X02226Y03362*
X02231Y03357*
X02238Y03355*
X02245Y03354*
X02252Y03355*
X02259Y03357*
X02265Y03362*
X02269Y03367*
X02272Y03374*
X02273Y03381*
X02272Y03389*
X02269Y03395*
X02265Y03401*
X02259Y03405*
X02252Y03408*
X02245Y03409*
G37*
G36*
X00529Y03401D02*
X00522Y034D01*
X00516Y03398*
X0051Y03393*
X00505Y03387*
X00503Y03381*
X00502Y03374*
X00503Y03366*
X00505Y0336*
X0051Y03354*
X00516Y03349*
X00522Y03347*
X00529Y03346*
X00537Y03347*
X00543Y03349*
X00549Y03354*
X00549Y03354*
X00555Y03353*
X00557Y03348*
X00561Y03342*
X00567Y03338*
X00573Y03335*
X00581Y03334*
X00588Y03335*
X00595Y03338*
X006Y03342*
X00605Y03348*
X00607Y03355*
X00608Y03362*
X00607Y03369*
X00605Y03376*
X006Y03381*
X00595Y03386*
X00588Y03389*
X00581Y0339*
X00573Y03389*
X00567Y03386*
X00561Y03381*
X00561Y03381*
X00556Y03383*
X00553Y03387*
X00549Y03393*
X00543Y03398*
X00537Y034*
X00529Y03401*
G37*
G36*
X02194Y03374D02*
X02187Y03373D01*
X0218Y0337*
X02174Y03366*
X0217Y0336*
X02167Y03353*
X02166Y03346*
X02167Y03339*
X0217Y03332*
X02174Y03326*
X0218Y03322*
X02187Y03319*
X02194Y03318*
X02201Y03319*
X02208Y03322*
X02214Y03326*
X02218Y03332*
X02221Y03339*
X02222Y03346*
X02221Y03353*
X02218Y0336*
X02214Y03366*
X02208Y0337*
X02201Y03373*
X02194Y03374*
G37*
G36*
X03169Y03362D02*
X03162Y03361D01*
X03155Y03358*
X03149Y03354*
X03145Y03348*
X03142Y03341*
X03141Y03334*
X03142Y03327*
X03145Y0332*
X03149Y03314*
X03155Y0331*
X03162Y03307*
X03169Y03306*
X03176Y03307*
X03183Y0331*
X03188Y03314*
X03193Y0332*
X03196Y03327*
X03197Y03334*
X03196Y03341*
X03193Y03348*
X03188Y03354*
X03183Y03358*
X03176Y03361*
X03169Y03362*
G37*
G36*
X00813Y0336D02*
X00806Y03359D01*
X00799Y03356*
X00793Y03351*
X00789Y03346*
X00786Y03339*
X00785Y03332*
X00786Y03325*
X00789Y03318*
X00793Y03312*
X00799Y03308*
X00806Y03305*
X00813Y03304*
X0082Y03305*
X00827Y03308*
X00833Y03312*
X00837Y03318*
X0084Y03325*
X00841Y03332*
X0084Y03339*
X00837Y03346*
X00833Y03351*
X00827Y03356*
X0082Y03359*
X00813Y0336*
G37*
G36*
X0241Y0332D02*
Y03296D01*
X02434*
X02434Y03299*
X02431Y03306*
X02426Y03312*
X0242Y03317*
X02413Y0332*
X0241Y0332*
G37*
G36*
X024D02*
X02397Y0332D01*
X0239Y03317*
X02384Y03312*
X02379Y03306*
X02376Y03299*
X02376Y03296*
X024*
Y0332*
G37*
G36*
X00675Y0335D02*
X00668Y03349D01*
X00661Y03346*
X00655Y03342*
X00651Y03336*
X00648Y0333*
X00647Y03322*
X00648Y03315*
X00651Y03308*
X00655Y03303*
X00661Y03298*
X00668Y03295*
X00675Y03295*
X00682Y03295*
X00689Y03298*
X00695Y03303*
X00699Y03308*
X00702Y03315*
X00703Y03322*
X00702Y0333*
X00699Y03336*
X00695Y03342*
X00689Y03346*
X00682Y03349*
X00675Y0335*
G37*
G36*
X0208Y03342D02*
X02073Y03341D01*
X02066Y03339*
X0206Y03334*
X02056Y03328*
X02053Y03322*
X02052Y03314*
X02053Y03307*
X02056Y03301*
X0206Y03295*
X02066Y0329*
X02073Y03288*
X0208Y03287*
X02087Y03288*
X02094Y0329*
X02099Y03295*
X02104Y03301*
X02107Y03307*
X02108Y03314*
X02107Y03322*
X02104Y03328*
X02099Y03334*
X02094Y03339*
X02087Y03341*
X0208Y03342*
G37*
G36*
X00947Y03324D02*
X0094Y03323D01*
X00933Y0332*
X00927Y03316*
X00923Y0331*
X0092Y03304*
X00919Y03296*
X0092Y03289*
X00923Y03282*
X00927Y03277*
X00933Y03272*
X0094Y03269*
X00947Y03269*
X00954Y03269*
X00961Y03272*
X00966Y03277*
X00971Y03282*
X00974Y03289*
X00975Y03296*
X00974Y03304*
X00971Y0331*
X00966Y03316*
X00961Y0332*
X00954Y03323*
X00947Y03324*
G37*
G36*
X02434Y03286D02*
X0241D01*
Y03262*
X02413Y03262*
X0242Y03265*
X02426Y0327*
X02431Y03276*
X02434Y03283*
X02434Y03286*
G37*
G36*
X024D02*
X02376D01*
X02376Y03283*
X02379Y03276*
X02384Y0327*
X0239Y03265*
X02397Y03262*
X024Y03262*
Y03286*
G37*
G36*
X02914Y03295D02*
X02907Y03294D01*
X02901Y03291*
X02895Y03287*
X0289Y03281*
X02888Y03274*
X02887Y03267*
X02888Y0326*
X0289Y03253*
X02895Y03248*
X02901Y03243*
X02907Y0324*
X02914Y03239*
X02922Y0324*
X02928Y03243*
X02934Y03248*
X02939Y03253*
X02941Y0326*
X02942Y03267*
X02941Y03274*
X02939Y03281*
X02934Y03287*
X02928Y03291*
X02922Y03294*
X02914Y03295*
G37*
G36*
X01305Y03344D02*
X01298Y03343D01*
X01291Y0334*
X01285Y03336*
X01281Y0333*
X01278Y03323*
X01277Y03316*
X01278Y03309*
X01281Y03302*
X01285Y03296*
X01287Y03295*
X01286Y03289*
X01283Y03287*
X01279Y03281*
X01276Y03274*
X01275Y03267*
X01276Y0326*
X01279Y03253*
X01283Y03248*
X01289Y03243*
X01295Y0324*
X01303Y03239*
X0131Y0324*
X01317Y03243*
X01322Y03248*
X01327Y03253*
X0133Y0326*
X0133Y03267*
X0133Y03274*
X01327Y03281*
X01322Y03287*
X01321Y03288*
X01321Y03294*
X01325Y03296*
X01329Y03302*
X01332Y03309*
X01333Y03316*
X01332Y03323*
X01329Y0333*
X01325Y03336*
X01319Y0334*
X01312Y03343*
X01305Y03344*
G37*
G36*
X01133Y0335D02*
X01126Y03349D01*
X01119Y03346*
X01114Y03342*
X01109Y03336*
X01107Y0333*
X01106Y03322*
X01107Y03315*
X01109Y03308*
X01114Y03303*
X01119Y03298*
X01125Y03296*
X01126Y03294*
X01126Y03294*
X01126Y0329*
X01122Y03287*
X01117Y03281*
X01114Y03274*
X01113Y03267*
X01114Y0326*
X01117Y03253*
X01122Y03248*
X01127Y03243*
X01134Y0324*
X01141Y03239*
X01148Y0324*
X01155Y03243*
X01161Y03248*
X01165Y03253*
X01168Y0326*
X01169Y03267*
X01168Y03274*
X01165Y03281*
X01161Y03287*
X01155Y03291*
X01149Y03294*
X01149Y03295*
X01148Y03296*
X01148Y03299*
X01153Y03303*
X01157Y03308*
X0116Y03315*
X01161Y03322*
X0116Y0333*
X01157Y03336*
X01153Y03342*
X01147Y03346*
X01141Y03349*
X01133Y0335*
G37*
G36*
X02332Y03287D02*
X02325Y03286D01*
X02318Y03283*
X02313Y03279*
X02308Y03273*
X02305Y03267*
X02304Y03259*
X02305Y03252*
X02308Y03245*
X02313Y0324*
X02318Y03235*
X02325Y03232*
X02332Y03232*
X02339Y03232*
X02346Y03235*
X02352Y0324*
X02356Y03245*
X02359Y03252*
X0236Y03259*
X02359Y03267*
X02356Y03273*
X02352Y03279*
X02346Y03283*
X02339Y03286*
X02332Y03287*
G37*
G36*
X03288Y03264D02*
X0328Y03263D01*
X03274Y0326*
X03268Y03255*
X03264Y0325*
X03261Y03243*
X0326Y03236*
X03261Y03229*
X03264Y03222*
X03268Y03216*
X03274Y03212*
X0328Y03209*
X03288Y03208*
X03295Y03209*
X03302Y03212*
X03307Y03216*
X03312Y03222*
X03315Y03229*
X03315Y03236*
X03315Y03243*
X03312Y0325*
X03307Y03255*
X03302Y0326*
X03295Y03263*
X03288Y03264*
G37*
G36*
X0296Y03222D02*
X02952Y03221D01*
X02944Y03217*
X02937Y03212*
X02931Y03205*
X02928Y03197*
X02927Y03188*
X02928Y0318*
X02931Y03172*
X02937Y03165*
X02944Y0316*
X02952Y03156*
X0296Y03155*
X02969Y03156*
X02977Y0316*
X02984Y03165*
X02989Y03172*
X02992Y0318*
X02993Y03188*
X02992Y03197*
X02989Y03205*
X02984Y03212*
X02977Y03217*
X02969Y03221*
X0296Y03222*
G37*
G36*
X01331Y03171D02*
Y03146D01*
X01356*
X01355Y03149*
X01352Y03156*
X01347Y03162*
X01341Y03167*
X01334Y0317*
X01331Y03171*
G37*
G36*
X01321D02*
X01319Y0317D01*
X01311Y03167*
X01305Y03162*
X013Y03156*
X01297Y03149*
X01297Y03146*
X01321*
Y03171*
G37*
G36*
X01567Y03171D02*
Y03146D01*
X01592*
X01591Y03149*
X01588Y03156*
X01584Y03162*
X01577Y03167*
X0157Y0317*
X01567Y03171*
G37*
G36*
X01557D02*
X01555Y0317D01*
X01548Y03167*
X01541Y03162*
X01537Y03156*
X01534Y03149*
X01533Y03146*
X01557*
Y03171*
G37*
G36*
X03248Y03181D02*
X03241Y0318D01*
X03234Y03177*
X03229Y03173*
X03224Y03167*
X03221Y0316*
X03221Y03153*
X03221Y03146*
X03224Y03139*
X03229Y03133*
X03234Y03129*
X03241Y03126*
X03248Y03125*
X03256Y03126*
X03262Y03129*
X03268Y03133*
X03272Y03139*
X03275Y03146*
X03276Y03153*
X03275Y0316*
X03272Y03167*
X03268Y03173*
X03262Y03177*
X03256Y0318*
X03248Y03181*
G37*
G36*
X02248Y03283D02*
X0224Y03282D01*
X02234Y03279*
X02228Y03275*
X02223Y03269*
X02221Y03263*
X0222Y03255*
X02221Y03248*
X02223Y03242*
X02226Y03238*
X02226Y03233*
X02225Y03232*
X0222Y03228*
X02216Y03222*
X02213Y03215*
X02212Y03208*
X02213Y03201*
X02216Y03194*
X0222Y03189*
X02226Y03184*
X02232Y03181*
X02234Y03181*
X02236Y03176*
X02236Y03176*
X0223Y03173*
X02224Y03169*
X0222Y03163*
X02217Y03156*
X02216Y03149*
X02217Y03142*
X0222Y03135*
X02224Y03129*
X0223Y03125*
X02236Y03122*
X02244Y03121*
X02251Y03122*
X02257Y03125*
X02263Y03129*
X02268Y03135*
X0227Y03142*
X02271Y03149*
X0227Y03156*
X02268Y03163*
X02263Y03169*
X02257Y03173*
X02251Y03176*
X02249Y03176*
X02247Y03181*
X02247Y03181*
X02254Y03184*
X02259Y03189*
X02264Y03194*
X02267Y03201*
X02267Y03208*
X02267Y03215*
X02264Y03222*
X02261Y03226*
X02261Y03231*
X02262Y03232*
X02267Y03236*
X02272Y03242*
X02274Y03248*
X02275Y03255*
X02274Y03263*
X02272Y03269*
X02267Y03275*
X02261Y03279*
X02255Y03282*
X02248Y03283*
G37*
G36*
X02092Y03275D02*
X02085Y03274D01*
X02078Y03272*
X02072Y03267*
X02068Y03261*
X02065Y03255*
X02064Y03248*
X02065Y0324*
X02068Y03234*
X02072Y03228*
X02078Y03223*
X02081Y03222*
X02083Y03216*
X02082Y03214*
X02079Y03207*
X02078Y032*
X02079Y03193*
X02082Y03186*
X02086Y03181*
X02092Y03176*
X02099Y03173*
X02103Y03173*
X02104Y03172*
X02105Y03168*
X02101Y03163*
X02099Y03156*
X02098Y03149*
X02099Y03142*
X02101Y03135*
X02106Y03129*
X02112Y03125*
X02118Y03122*
X02125Y03121*
X02133Y03122*
X02139Y03125*
X02145Y03129*
X0215Y03135*
X02152Y03142*
X02153Y03149*
X02152Y03156*
X0215Y03163*
X02145Y03169*
X02139Y03173*
X02133Y03176*
X02128Y03177*
X02127Y03178*
X02126Y03182*
X0213Y03186*
X02133Y03193*
X02134Y032*
X02133Y03207*
X0213Y03214*
X02125Y0322*
X0212Y03224*
X02116Y03226*
X02115Y03232*
X02116Y03234*
X02119Y0324*
X0212Y03248*
X02119Y03255*
X02116Y03261*
X02112Y03267*
X02106Y03272*
X02099Y03274*
X02092Y03275*
G37*
G36*
X01356Y03136D02*
X01331D01*
Y03112*
X01334Y03112*
X01341Y03115*
X01347Y0312*
X01352Y03126*
X01355Y03133*
X01356Y03136*
G37*
G36*
X01321D02*
X01297D01*
X01297Y03133*
X013Y03126*
X01305Y0312*
X01311Y03115*
X01319Y03112*
X01321Y03112*
Y03136*
G37*
G36*
X01592Y03136D02*
X01567D01*
Y03112*
X0157Y03112*
X01577Y03115*
X01584Y0312*
X01588Y03126*
X01591Y03133*
X01592Y03136*
G37*
G36*
X01557D02*
X01533D01*
X01534Y03133*
X01537Y03126*
X01541Y0312*
X01548Y03115*
X01555Y03112*
X01557Y03112*
Y03136*
G37*
G36*
X03162Y03165D02*
X03155Y03164D01*
X03148Y03161*
X03142Y03157*
X03138Y03151*
X03135Y03144*
X03134Y03137*
X03135Y0313*
X03138Y03123*
X03142Y03118*
X03148Y03113*
X03155Y0311*
X03162Y0311*
X03169Y0311*
X03176Y03113*
X03181Y03118*
X03186Y03123*
X03189Y0313*
X0319Y03137*
X03189Y03144*
X03186Y03151*
X03181Y03157*
X03176Y03161*
X03169Y03164*
X03162Y03165*
G37*
G36*
X03218Y03111D02*
Y03087D01*
X03242*
X03242Y0309*
X03239Y03097*
X03234Y03103*
X03228Y03108*
X03221Y03111*
X03218Y03111*
G37*
G36*
X03208D02*
X03205Y03111D01*
X03198Y03108*
X03192Y03103*
X03187Y03097*
X03184Y0309*
X03184Y03087*
X03208*
Y03111*
G37*
G36*
X02688Y03123D02*
X02681Y03122D01*
X02675Y03119*
X02669Y03114*
X02664Y03109*
X02662Y03102*
X02661Y03095*
X02662Y03088*
X02664Y03081*
X02669Y03075*
X02675Y03071*
X02681Y03068*
X02688Y03067*
X02696Y03068*
X02702Y03071*
X02708Y03075*
X02713Y03081*
X02715Y03088*
X02716Y03095*
X02715Y03102*
X02713Y03109*
X02708Y03114*
X02702Y03119*
X02696Y03122*
X02688Y03123*
G37*
G36*
X02353Y03084D02*
Y0306D01*
X02377*
X02377Y03062*
X02374Y0307*
X02369Y03076*
X02363Y03081*
X02356Y03084*
X02353Y03084*
G37*
G36*
X02343D02*
X0234Y03084D01*
X02333Y03081*
X02327Y03076*
X02322Y0307*
X02319Y03062*
X02319Y0306*
X02343*
Y03084*
G37*
G36*
X02019Y03114D02*
X02012Y03113D01*
X02005Y0311*
X02Y03106*
X01995Y031*
X01992Y03093*
X01991Y03086*
X01992Y03079*
X01995Y03072*
X02Y03066*
X02005Y03062*
X02012Y03059*
X02019Y03058*
X02026Y03059*
X02033Y03062*
X02039Y03066*
X02043Y03072*
X02046Y03079*
X02047Y03086*
X02046Y03093*
X02043Y031*
X02039Y03106*
X02033Y0311*
X02026Y03113*
X02019Y03114*
G37*
G36*
X0214Y03109D02*
X02133Y03108D01*
X02127Y03105*
X02121Y03101*
X02116Y03095*
X02114Y03088*
X02113Y03081*
X02114Y03074*
X02116Y03067*
X02121Y03061*
X02127Y03057*
X02133Y03054*
X0214Y03053*
X02148Y03054*
X02154Y03057*
X0216Y03061*
X02165Y03067*
X02167Y03074*
X02168Y03081*
X02167Y03088*
X02165Y03095*
X0216Y03101*
X02154Y03105*
X02148Y03108*
X0214Y03109*
G37*
G36*
X03242Y03077D02*
X03218D01*
Y03053*
X03221Y03053*
X03228Y03056*
X03234Y03061*
X03239Y03067*
X03242Y03074*
X03242Y03077*
G37*
G36*
X03208D02*
X03184D01*
X03184Y03074*
X03187Y03067*
X03192Y03061*
X03198Y03056*
X03205Y03053*
X03208Y03053*
Y03077*
G37*
G36*
X01956Y03098D02*
X01949Y03097D01*
X01942Y03094*
X01937Y0309*
X01932Y03084*
X01929Y03078*
X01928Y0307*
X01929Y03063*
X01932Y03056*
X01937Y03051*
X01942Y03046*
X01949Y03044*
X01956Y03043*
X01963Y03044*
X0197Y03046*
X01976Y03051*
X0198Y03056*
X01983Y03063*
X01984Y0307*
X01983Y03078*
X0198Y03084*
X01976Y0309*
X0197Y03094*
X01963Y03097*
X01956Y03098*
G37*
G36*
X02377Y0305D02*
X02353D01*
Y03025*
X02356Y03026*
X02363Y03029*
X02369Y03033*
X02374Y0304*
X02377Y03047*
X02377Y0305*
G37*
G36*
X02343D02*
X02319D01*
X02319Y03047*
X02322Y0304*
X02327Y03033*
X02333Y03029*
X0234Y03026*
X02343Y03025*
Y0305*
G37*
G36*
X01326Y03075D02*
X01319Y03074D01*
X01312Y03071*
X01307Y03066*
X01302Y03061*
X01299Y03054*
X01298Y03047*
X01299Y0304*
X01302Y03033*
X01307Y03027*
X01312Y03023*
X01319Y0302*
X01326Y03019*
X01333Y0302*
X0134Y03023*
X01346Y03027*
X0135Y03033*
X01353Y0304*
X01354Y03047*
X01353Y03054*
X0135Y03061*
X01346Y03066*
X0134Y03071*
X01333Y03074*
X01326Y03075*
G37*
G36*
X0214Y03043D02*
X02133Y03042D01*
X02127Y03039*
X02121Y03035*
X02116Y03029*
X02114Y03022*
X02113Y03015*
X02114Y03008*
X02116Y03001*
X02121Y02996*
X02127Y02991*
X02133Y02988*
X0214Y02987*
X02148Y02988*
X02154Y02991*
X0216Y02996*
X02165Y03001*
X02167Y03008*
X02168Y03015*
X02167Y03022*
X02165Y03029*
X0216Y03035*
X02154Y03039*
X02148Y03042*
X0214Y03043*
G37*
G36*
X03542Y03039D02*
X03535Y03038D01*
X03528Y03035*
X03523Y03031*
X03518Y03025*
X03515Y03019*
X03514Y03011*
X03515Y03004*
X03518Y02997*
X03523Y02992*
X03528Y02987*
X03535Y02984*
X03542Y02984*
X03549Y02984*
X03556Y02987*
X03562Y02992*
X03566Y02997*
X03569Y03004*
X0357Y03011*
X03569Y03019*
X03566Y03025*
X03562Y03031*
X03556Y03035*
X03549Y03038*
X03542Y03039*
G37*
G36*
X01874Y03035D02*
X01866Y03034D01*
X0186Y03031*
X01854Y03027*
X01849Y03021*
X01847Y03015*
X01846Y03007*
X01847Y03*
X01849Y02993*
X01854Y02988*
X0186Y02983*
X01866Y02981*
X01874Y0298*
X01881Y02981*
X01887Y02983*
X01893Y02988*
X01898Y02993*
X019Y03*
X01901Y03007*
X019Y03015*
X01898Y03021*
X01893Y03027*
X01887Y03031*
X01881Y03034*
X01874Y03035*
G37*
G36*
X01779D02*
X01772Y03034D01*
X01765Y03031*
X01759Y03027*
X01755Y03021*
X01752Y03015*
X01751Y03007*
X01752Y03*
X01755Y02993*
X01759Y02988*
X01765Y02983*
X01772Y02981*
X01779Y0298*
X01786Y02981*
X01793Y02983*
X01799Y02988*
X01803Y02993*
X01806Y03*
X01807Y03007*
X01806Y03015*
X01803Y03021*
X01799Y03027*
X01793Y03031*
X01786Y03034*
X01779Y03035*
G37*
G36*
X00665Y03126D02*
X00658Y03125D01*
X00651Y03122*
X00645Y03118*
X00641Y03112*
X00638Y03105*
X00637Y03098*
X00638Y03091*
X00641Y03084*
X00645Y03078*
X00651Y03074*
X00656Y03072*
X00657Y03066*
X00657Y03066*
X00653Y03061*
X0065Y03054*
X00649Y03047*
X0065Y0304*
X00653Y03033*
X00657Y03027*
X00663Y03023*
X00666Y03021*
Y03016*
X00663Y03015*
X00657Y0301*
X00653Y03005*
X0065Y02998*
X00649Y02991*
X0065Y02984*
X00653Y02977*
X00657Y02971*
X00663Y02967*
X00669Y02964*
X00677Y02963*
X00684Y02964*
X00691Y02967*
X00696Y02971*
X00701Y02977*
X00704Y02984*
X00704Y02991*
X00704Y02998*
X00701Y03005*
X00696Y0301*
X00691Y03015*
X00688Y03016*
Y03021*
X00691Y03023*
X00696Y03027*
X00701Y03033*
X00704Y0304*
X00704Y03047*
X00704Y03054*
X00701Y03061*
X00696Y03066*
X00691Y03071*
X00686Y03073*
X00684Y03078*
X00685Y03078*
X00689Y03084*
X00692Y03091*
X00693Y03098*
X00692Y03105*
X00689Y03112*
X00685Y03118*
X00679Y03122*
X00672Y03125*
X00665Y03126*
G37*
G36*
X00586Y03009D02*
X00579Y03008D01*
X00572Y03005*
X00566Y03001*
X00562Y02995*
X00559Y02989*
X00558Y02981*
X00559Y02974*
X00562Y02967*
X00566Y02962*
X00572Y02957*
X00579Y02955*
X00586Y02954*
X00593Y02955*
X006Y02957*
X00606Y02962*
X0061Y02967*
X00613Y02974*
X00614Y02981*
X00613Y02989*
X0061Y02995*
X00606Y03001*
X006Y03005*
X00593Y03008*
X00586Y03009*
G37*
G36*
X01119Y02938D02*
Y02914D01*
X01143*
X01143Y02917*
X0114Y02924*
X01135Y0293*
X01129Y02935*
X01121Y02938*
X01119Y02938*
G37*
G36*
X01109D02*
X01106Y02938D01*
X01099Y02935*
X01093Y0293*
X01088Y02924*
X01085Y02917*
X01084Y02914*
X01109*
Y02938*
G37*
G36*
X00637Y0296D02*
X0063Y02959D01*
X00623Y02956*
X00618Y02951*
X00613Y02946*
X0061Y02939*
X0061Y02932*
X0061Y02925*
X00613Y02918*
X00618Y02912*
X00623Y02908*
X0063Y02905*
X00637Y02904*
X00644Y02905*
X00651Y02908*
X00657Y02912*
X00661Y02918*
X00664Y02925*
X00665Y02932*
X00664Y02939*
X00661Y02946*
X00657Y02951*
X00651Y02956*
X00644Y02959*
X00637Y0296*
G37*
G36*
X02281Y02941D02*
X02273Y0294D01*
X02267Y02937*
X02261Y02933*
X02257Y02927*
X02254Y0292*
X02253Y02913*
X02254Y02906*
X02257Y02899*
X02261Y02893*
X02267Y02889*
X02273Y02886*
X02281Y02885*
X02288Y02886*
X02294Y02889*
X023Y02893*
X02305Y02899*
X02307Y02906*
X02308Y02913*
X02307Y0292*
X02305Y02927*
X023Y02933*
X02294Y02937*
X02288Y0294*
X02281Y02941*
G37*
G36*
X01143Y02904D02*
X01119D01*
Y0288*
X01121Y0288*
X01129Y02883*
X01135Y02888*
X0114Y02894*
X01143Y02901*
X01143Y02904*
G37*
G36*
X01109D02*
X01084D01*
X01085Y02901*
X01088Y02894*
X01093Y02888*
X01099Y02883*
X01106Y0288*
X01109Y0288*
Y02904*
G37*
G36*
X03519Y02929D02*
X03512Y02928D01*
X03505Y02925*
X035Y02921*
X03495Y02915*
X03492Y02908*
X03491Y02901*
X03492Y02894*
X03495Y02887*
X035Y02881*
X03505Y02877*
X03512Y02874*
X03519Y02873*
X03526Y02874*
X03533Y02877*
X03539Y02881*
X03543Y02887*
X03546Y02894*
X03547Y02901*
X03546Y02908*
X03543Y02915*
X03539Y02921*
X03533Y02925*
X03526Y02928*
X03519Y02929*
G37*
G36*
X03224Y02909D02*
X03217Y02908D01*
X0321Y02905*
X03204Y02901*
X032Y02895*
X03197Y02889*
X03196Y02881*
X03197Y02874*
X032Y02867*
X03204Y02862*
X0321Y02857*
X03217Y02855*
X03224Y02854*
X03231Y02855*
X03238Y02857*
X03244Y02862*
X03248Y02867*
X03251Y02874*
X03252Y02881*
X03251Y02889*
X03248Y02895*
X03244Y02901*
X03238Y02905*
X03231Y02908*
X03224Y02909*
G37*
G36*
X00897Y02905D02*
X0089Y02904D01*
X00883Y02902*
X00877Y02897*
X00873Y02891*
X0087Y02885*
X00869Y02877*
X0087Y0287*
X00873Y02864*
X00877Y02858*
X00883Y02853*
X0089Y02851*
X00897Y0285*
X00904Y02851*
X00911Y02853*
X00917Y02858*
X00921Y02864*
X00924Y0287*
X00925Y02877*
X00924Y02885*
X00921Y02891*
X00917Y02897*
X00911Y02902*
X00904Y02904*
X00897Y02905*
G37*
G36*
X02141Y0298D02*
X02134Y02979D01*
X02127Y02976*
X02122Y02972*
X02117Y02966*
X02114Y02959*
X02113Y02952*
X02114Y02945*
X02117Y02938*
X02122Y02933*
X02127Y02928*
X02129Y02927*
X02131Y02921*
X02129Y02919*
X02126Y02912*
X02125Y02905*
X02126Y02898*
X02129Y02891*
X02133Y02885*
X02139Y02881*
X02146Y02878*
X02153Y02877*
X02157Y02873*
X02157Y0287*
X02158Y02862*
X0216Y02856*
X02165Y0285*
X02171Y02846*
X02177Y02843*
X02185Y02842*
X02192Y02843*
X02198Y02846*
X02204Y0285*
X02209Y02856*
X02211Y02862*
X02212Y0287*
X02211Y02877*
X02209Y02883*
X02204Y02889*
X02198Y02894*
X02192Y02896*
X02185Y02897*
X0218Y02902*
X02181Y02905*
X0218Y02912*
X02177Y02919*
X02173Y02925*
X02167Y02929*
X02165Y0293*
X02163Y02936*
X02165Y02938*
X02168Y02945*
X02169Y02952*
X02168Y02959*
X02165Y02966*
X02161Y02972*
X02155Y02976*
X02148Y02979*
X02141Y0298*
G37*
G36*
X0265Y02858D02*
Y02833D01*
X02674*
X02674Y02836*
X02671Y02843*
X02666Y02849*
X0266Y02854*
X02653Y02857*
X0265Y02858*
G37*
G36*
X0264D02*
X02637Y02857D01*
X0263Y02854*
X02624Y02849*
X02619Y02843*
X02616Y02836*
X02616Y02833*
X0264*
Y02858*
G37*
G36*
X02295Y02878D02*
X02288Y02877D01*
X02281Y02874*
X02275Y0287*
X02271Y02864*
X02268Y02857*
X02267Y0285*
X02268Y02843*
X02271Y02836*
X02275Y0283*
X02281Y02826*
X02288Y02823*
X02295Y02822*
X02302Y02823*
X02309Y02826*
X02314Y0283*
X02319Y02836*
X02322Y02843*
X02323Y0285*
X02322Y02857*
X02319Y02864*
X02314Y0287*
X02309Y02874*
X02302Y02877*
X02295Y02878*
G37*
G36*
X0185Y0287D02*
X01843Y02869D01*
X01836Y02866*
X0183Y02862*
X01826Y02856*
X01823Y02849*
X01822Y02842*
X01823Y02835*
X01826Y02828*
X0183Y02822*
X01836Y02818*
X01843Y02815*
X0185Y02814*
X01857Y02815*
X01864Y02818*
X0187Y02822*
X01874Y02828*
X01877Y02835*
X01878Y02842*
X01877Y02849*
X01874Y02856*
X0187Y02862*
X01864Y02866*
X01857Y02869*
X0185Y0287*
G37*
G36*
X02674Y02823D02*
X0265D01*
Y02799*
X02653Y02799*
X0266Y02802*
X02666Y02807*
X02671Y02813*
X02674Y0282*
X02674Y02823*
G37*
G36*
X0264D02*
X02616D01*
X02616Y0282*
X02619Y02813*
X02624Y02807*
X0263Y02802*
X02637Y02799*
X0264Y02799*
Y02823*
G37*
G36*
X0204Y02834D02*
X02033Y02833D01*
X02027Y02831*
X02021Y02826*
X02016Y0282*
X02014Y02814*
X02013Y02807*
X02014Y02799*
X02016Y02793*
X02021Y02787*
X02027Y02783*
X02033Y0278*
X0204Y02779*
X02048Y0278*
X02054Y02783*
X0206Y02787*
X02065Y02793*
X02067Y02799*
X02068Y02807*
X02067Y02814*
X02065Y0282*
X0206Y02826*
X02054Y02831*
X02048Y02833*
X0204Y02834*
G37*
G36*
X01968Y02823D02*
X01961Y02822D01*
X01954Y02819*
X01948Y02814*
X01944Y02809*
X01941Y02802*
X0194Y02795*
X01941Y02788*
X01944Y02781*
X01948Y02775*
X01954Y02771*
X01961Y02768*
X01968Y02767*
X01975Y02768*
X01982Y02771*
X01988Y02775*
X01992Y02781*
X01995Y02788*
X01996Y02795*
X01995Y02802*
X01992Y02809*
X01988Y02814*
X01982Y02819*
X01975Y02822*
X01968Y02823*
G37*
G36*
X03409Y0287D02*
X03402Y02869D01*
X03395Y02866*
X03389Y02862*
X03385Y02856*
X03382Y02849*
X03381Y02842*
X03382Y02835*
X03385Y02828*
X03389Y02822*
X03395Y02818*
X03401Y02815*
X03402Y02815*
X034Y0281*
X03398Y0281*
X03391Y02807*
X03385Y02803*
X03381Y02797*
X03378Y0279*
X03377Y02783*
X03378Y02776*
X03381Y02769*
X03385Y02763*
X03391Y02759*
X03398Y02756*
X03405Y02755*
X03412Y02756*
X03419Y02759*
X03425Y02763*
X03429Y02769*
X03432Y02776*
X03433Y02783*
X03432Y0279*
X03429Y02797*
X03425Y02803*
X03419Y02807*
X03413Y0281*
X03412Y0281*
X03414Y02815*
X03416Y02815*
X03423Y02818*
X03429Y02822*
X03433Y02828*
X03436Y02835*
X03437Y02842*
X03436Y02849*
X03433Y02856*
X03429Y02862*
X03423Y02866*
X03416Y02869*
X03409Y0287*
G37*
G36*
X00649Y02857D02*
X00642Y02856D01*
X00635Y02853*
X00629Y02849*
X00625Y02843*
X00622Y02837*
X00621Y02829*
X00622Y02822*
X00625Y02816*
X00629Y0281*
X00635Y02805*
X00636Y02805*
Y028*
X00635Y028*
X00629Y02796*
X00625Y0279*
X00622Y02783*
X00621Y02776*
X00622Y02769*
X00625Y02762*
X00629Y02756*
X00635Y02752*
X00642Y02749*
X00649Y02748*
X00656Y02749*
X00663Y02752*
X00669Y02756*
X00673Y02762*
X00676Y02769*
X00677Y02776*
X00676Y02783*
X00673Y0279*
X00669Y02796*
X00663Y028*
X00663Y028*
Y02805*
X00663Y02805*
X00669Y0281*
X00673Y02816*
X00676Y02822*
X00677Y02829*
X00676Y02837*
X00673Y02843*
X00669Y02849*
X00663Y02853*
X00656Y02856*
X00649Y02857*
G37*
G36*
X03192Y02803D02*
X03185Y02802D01*
X03179Y02799*
X03173Y02795*
X03168Y02789*
X03166Y02782*
X03165Y02775*
X03166Y02768*
X03168Y02761*
X03173Y02755*
X03179Y02751*
X03185Y02748*
X03192Y02747*
X032Y02748*
X03206Y02751*
X03212Y02755*
X03216Y02761*
X03219Y02768*
X0322Y02775*
X03219Y02782*
X03216Y02789*
X03212Y02795*
X03206Y02799*
X032Y02802*
X03192Y02803*
G37*
G36*
X01799Y02771D02*
X01792Y0277D01*
X01785Y02768*
X01779Y02763*
X01775Y02757*
X01772Y02751*
X01771Y02746*
X01767Y02743*
X01766Y02743*
X01759Y02744*
X01752Y02743*
X01745Y0274*
X0174Y02736*
X01735Y0273*
X01732Y02723*
X01732Y02716*
X01732Y02709*
X01735Y02702*
X0174Y02696*
X01745Y02692*
X01752Y02689*
X01759Y02688*
X01767Y02689*
X01773Y02692*
X01779Y02696*
X01783Y02702*
X01786Y02709*
X01787Y02713*
X01791Y02717*
X01792Y02717*
X01799Y02716*
X01806Y02717*
X01813Y0272*
X01818Y02724*
X01823Y0273*
X01826Y02736*
X01827Y02744*
X01826Y02751*
X01823Y02757*
X01818Y02763*
X01813Y02768*
X01806Y0277*
X01799Y02771*
G37*
G36*
X01535Y0272D02*
X01528Y02719D01*
X01521Y02716*
X01515Y02712*
X01511Y02706*
X01508Y027*
X01508Y02698*
X01503*
X01503Y027*
X015Y02706*
X01496Y02712*
X0149Y02716*
X01483Y02719*
X01476Y0272*
X01469Y02719*
X01462Y02716*
X01456Y02712*
X01452Y02706*
X01449Y027*
X01448Y02692*
X01449Y02685*
X01452Y02679*
X01456Y02673*
X01462Y02668*
X01469Y02666*
X01476Y02665*
X01483Y02666*
X0149Y02668*
X01496Y02673*
X015Y02679*
X01503Y02685*
X01503Y02686*
X01508*
X01508Y02685*
X01511Y02679*
X01515Y02673*
X01521Y02668*
X01528Y02666*
X01535Y02665*
X01542Y02666*
X01549Y02668*
X01555Y02673*
X01559Y02679*
X01562Y02685*
X01563Y02692*
X01562Y027*
X01559Y02706*
X01555Y02712*
X01549Y02716*
X01542Y02719*
X01535Y0272*
G37*
G36*
X03457Y02694D02*
Y0267D01*
X03482*
X03481Y02673*
X03478Y0268*
X03473Y02686*
X03467Y02691*
X0346Y02694*
X03457Y02694*
G37*
G36*
X03447D02*
X03445Y02694D01*
X03437Y02691*
X03431Y02686*
X03426Y0268*
X03423Y02673*
X03423Y0267*
X03447*
Y02694*
G37*
G36*
X02246Y02736D02*
X02238Y02735D01*
X02232Y02732*
X02226Y02728*
X02221Y02722*
X02219Y02715*
X02218Y02708*
X02219Y02701*
X02221Y02694*
X02226Y02689*
X02232Y02684*
X02238Y02681*
X02246Y0268*
X02253Y02681*
X02254Y02682*
X0226Y02679*
X0226Y02676*
X02263Y02669*
X02267Y02663*
X02273Y02659*
X0228Y02656*
X02287Y02655*
X02294Y02656*
X02301Y02659*
X02307Y02663*
X02311Y02669*
X02314Y02676*
X02314Y02677*
X02316Y02678*
X02319Y0268*
X02325Y02677*
X02332Y02676*
X02336Y02677*
X0234Y02673*
X0234Y02669*
X02341Y02662*
X02344Y02655*
X02348Y02649*
X02354Y02645*
X0236Y02642*
X02368Y02641*
X02375Y02642*
X02382Y02645*
X02387Y02649*
X02392Y02655*
X02394Y02662*
X02395Y02669*
X02394Y02676*
X02392Y02683*
X02387Y02688*
X02382Y02693*
X02375Y02696*
X02368Y02697*
X02364Y02696*
X02359Y027*
X0236Y02704*
X02359Y02711*
X02356Y02718*
X02352Y02724*
X02346Y02728*
X02339Y02731*
X02332Y02732*
X02325Y02731*
X02318Y02728*
X02313Y02724*
X02308Y02718*
X02305Y02711*
X02305Y0271*
X02303Y02708*
X023Y02707*
X02294Y0271*
X02287Y0271*
X0228Y0271*
X02278Y02709*
X02273Y02712*
X02272Y02715*
X0227Y02722*
X02265Y02728*
X02259Y02732*
X02253Y02735*
X02246Y02736*
G37*
G36*
X03482Y0266D02*
X03457D01*
Y02636*
X0346Y02636*
X03467Y02639*
X03473Y02644*
X03478Y0265*
X03481Y02657*
X03482Y0266*
G37*
G36*
X03447D02*
X03423D01*
X03423Y02657*
X03426Y0265*
X03431Y02644*
X03437Y02639*
X03445Y02636*
X03447Y02636*
Y0266*
G37*
G36*
X0324Y02654D02*
X03232Y02653D01*
X03226Y0265*
X0322Y02646*
X03216Y0264*
X03213Y02634*
X03212Y02626*
X03213Y02619*
X03216Y02612*
X0322Y02607*
X03226Y02602*
X03232Y02599*
X0324Y02599*
X03247Y02599*
X03254Y02602*
X03259Y02607*
X03264Y02612*
X03267Y02619*
X03267Y02626*
X03267Y02634*
X03264Y0264*
X03259Y02646*
X03254Y0265*
X03247Y02653*
X0324Y02654*
G37*
G36*
X02137Y02634D02*
X0213Y02633D01*
X02123Y0263*
X02118Y02625*
X02113Y0262*
X0211Y02613*
X02109Y02606*
X0211Y02599*
X02113Y02592*
X02118Y02586*
X02123Y02582*
X0213Y02579*
X02137Y02578*
X02144Y02579*
X02151Y02582*
X02157Y02586*
X02161Y02592*
X02164Y02599*
X02165Y02606*
X02164Y02613*
X02161Y0262*
X02157Y02625*
X02151Y0263*
X02144Y02633*
X02137Y02634*
G37*
G36*
X0146Y02627D02*
X01453Y02626D01*
X01446Y02623*
X0144Y02619*
X01436Y02613*
X01433Y02606*
X01432Y02599*
X01433Y02592*
X01436Y02585*
X0144Y02579*
X01446Y02575*
X01453Y02572*
X0146Y02571*
X01467Y02572*
X01474Y02575*
X0148Y02579*
X01484Y02585*
X01487Y02592*
X01488Y02599*
X01487Y02606*
X01484Y02613*
X0148Y02619*
X01474Y02623*
X01467Y02626*
X0146Y02627*
G37*
G36*
X0185Y02598D02*
X01843Y02597D01*
X01836Y02594*
X0183Y0259*
X01826Y02584*
X01823Y02578*
X01822Y02573*
X01818Y0257*
X01817Y0257*
X01811Y02571*
X01803Y0257*
X01797Y02567*
X01791Y02562*
X01786Y02557*
X01784Y0255*
X01783Y02543*
X01784Y02536*
X01784Y02534*
X01771Y02521*
X01767Y02522*
X01767Y02523*
X01764Y0253*
X01759Y02536*
X01754Y0254*
X01747Y02543*
X0174Y02544*
X01732Y02543*
X01726Y0254*
X0172Y02536*
X01716Y0253*
X01713Y02523*
X01712Y02516*
X01713Y02509*
X01714Y02507*
X01515Y02308*
X01512Y02304*
X01511Y023*
Y02079*
X01439Y02008*
X01188*
X01185Y02013*
X01187Y02015*
X0119Y02022*
X01191Y02029*
X01191Y02031*
X01195Y02035*
X01199Y02035*
X01206Y02036*
X01213Y02038*
X01218Y02043*
X01223Y02049*
X01226Y02055*
X01227Y02062*
X01226Y0207*
X01223Y02076*
X01218Y02082*
X01213Y02087*
X01206Y02089*
X01199Y0209*
X01192Y02089*
X01185Y02087*
X01179Y02082*
X01175Y02076*
X01172Y0207*
X01171Y02062*
X01171Y02061*
X01167Y02056*
X01163Y02057*
X01156Y02056*
X01149Y02053*
X01144Y02049*
X01139Y02043*
X01136Y02036*
X01135Y02029*
X01136Y02022*
X01139Y02015*
X01141Y02013*
X01139Y02008*
X00557*
X00552Y02007*
X00548Y02004*
X00397Y01853*
X00394Y01849*
X00393Y01844*
Y01034*
X00392Y01034*
X00386Y01031*
X0038Y01027*
X00375Y01021*
X00373Y01015*
X00372Y01007*
X00373Y01*
X00375Y00993*
X0038Y00988*
X00386Y00983*
X00392Y00981*
X004Y0098*
X00407Y00981*
X00413Y00983*
X00419Y00988*
X00424Y00993*
X00429Y00993*
X00431Y0099*
X00435Y00984*
X00441Y00979*
X00447Y00977*
X00455Y00976*
X00462Y00977*
X00469Y00979*
X00474Y00984*
X00479Y0099*
X00481Y00996*
X00482Y01003*
X00481Y01011*
X00479Y01017*
X00474Y01023*
X00469Y01028*
X00462Y0103*
X00455Y01031*
X00447Y0103*
X00447Y0103*
X00433Y01044*
Y01348*
X00438Y01349*
X0044Y01344*
X00444Y01338*
X0045Y01334*
X00457Y01331*
X00464Y0133*
X00471Y01331*
X00478Y01334*
X00484Y01338*
X00488Y01344*
X00491Y01351*
X00492Y01358*
X00491Y01365*
X00488Y01372*
X00484Y01377*
X00478Y01382*
X00471Y01385*
X00464Y01386*
X00457Y01385*
X0045Y01382*
X00444Y01377*
X0044Y01372*
X00438Y01366*
X00433Y01367*
Y01832*
X00568Y01968*
X013*
X01302Y01963*
X01301Y01962*
X01297Y01956*
X01294Y0195*
X01293Y01942*
X01294Y01935*
X01297Y01929*
X01301Y01923*
X01307Y01918*
X01314Y01916*
X01321Y01915*
X01328Y01916*
X01335Y01918*
X0134Y01923*
X01345Y01929*
X01348Y01935*
X01349Y01942*
X01348Y0195*
X01345Y01956*
X0134Y01962*
X0134Y01963*
X01341Y01968*
X01451*
X01451*
X01456Y01969*
X01459Y01971*
X01547Y02059*
X0155Y02063*
X01551Y02068*
Y02266*
X0178Y02494*
X01781Y02496*
X01801Y02517*
X01803Y02516*
X01811Y02515*
X01815Y02511*
X01814Y02507*
X01815Y025*
X01818Y02493*
X01822Y02488*
X01828Y02483*
X01835Y02481*
X01842Y0248*
X01849Y02481*
X01856Y02483*
X01862Y02488*
X01866Y02493*
X01869Y025*
X0187Y02507*
X01869Y02515*
X01866Y02521*
X01862Y02527*
X01856Y02531*
X01849Y02534*
X01842Y02535*
X01841Y02536*
X01841Y02539*
X01847Y02543*
X0185Y02543*
X01857Y02544*
X01864Y02546*
X0187Y02551*
X01874Y02556*
X01877Y02563*
X01878Y0257*
X01877Y02578*
X01874Y02584*
X0187Y0259*
X01864Y02594*
X01857Y02597*
X0185Y02598*
G37*
G36*
X02633Y0262D02*
X02626Y02619D01*
X02619Y02616*
X02614Y02612*
X02609Y02606*
X02607Y02599*
X02606Y02592*
X02607Y02585*
X02609Y02578*
X02614Y02572*
X02619Y02568*
X02626Y02565*
X02633Y02564*
X02641Y02565*
X02647Y02568*
X02653Y02572*
X02657Y02578*
X0266Y02585*
X02661Y02592*
X0266Y02599*
X02657Y02606*
X02653Y02612*
X02647Y02616*
X02641Y02619*
X02633Y0262*
G37*
G36*
X0133Y02661D02*
X01323Y0266D01*
X01316Y02657*
X01311Y02653*
X01306Y02647*
X01303Y02641*
X01302Y02633*
X01303Y02626*
X01306Y02619*
X01309Y02616*
X01308Y02611*
X01308Y0261*
X01303Y02606*
X01298Y026*
X01295Y02593*
X01295Y02586*
X01295Y02579*
X01298Y02572*
X01303Y02566*
X01308Y02562*
X01315Y02559*
X01322Y02558*
X0133Y02559*
X01336Y02562*
X01342Y02566*
X01346Y02572*
X01349Y02579*
X0135Y02586*
X01349Y02593*
X01346Y026*
X01344Y02604*
X01344Y02609*
X01345Y0261*
X0135Y02614*
X01354Y02619*
X01357Y02626*
X01358Y02633*
X01357Y02641*
X01354Y02647*
X0135Y02653*
X01344Y02657*
X01337Y0266*
X0133Y02661*
G37*
G36*
X03275Y02595D02*
X03268Y02594D01*
X03261Y02591*
X03255Y02587*
X03251Y02581*
X03248Y02574*
X03247Y02567*
X03248Y0256*
X03251Y02553*
X03255Y02548*
X03261Y02543*
X03268Y0254*
X03275Y02539*
X03282Y0254*
X03289Y02543*
X03295Y02548*
X03299Y02553*
X03302Y0256*
X03303Y02567*
X03302Y02574*
X03299Y02581*
X03295Y02587*
X03289Y02591*
X03282Y02594*
X03275Y02595*
G37*
G36*
X01122Y02564D02*
X01115Y02563D01*
X01108Y0256*
X01103Y02555*
X01098Y0255*
X01095Y02543*
X01095Y0254*
X0109Y02539*
X01084Y02543*
X01078Y02546*
X0107Y02547*
X01063Y02546*
X01056Y02543*
X01051Y02539*
X01046Y02533*
X01044Y02526*
X01043Y02519*
X01044Y02512*
X01046Y02505*
X01051Y025*
X01056Y02495*
X01063Y02492*
X0107Y02491*
X01078Y02492*
X01084Y02495*
X0109Y025*
X01094Y02505*
X01097Y02512*
X01098Y02515*
X01103Y02516*
X01108Y02512*
X01115Y02509*
X01122Y02508*
X0113Y02509*
X01136Y02512*
X01142Y02516*
X01146Y02522*
X01149Y02529*
X0115Y02536*
X01149Y02543*
X01146Y0255*
X01142Y02555*
X01136Y0256*
X0113Y02563*
X01122Y02564*
G37*
G36*
X0295Y02591D02*
X02943Y0259D01*
X02936Y02587*
X0293Y02583*
X02926Y02577*
X02923Y02571*
X02922Y02563*
X02923Y02556*
X02926Y02549*
X0293Y02544*
X02936Y02539*
X02943Y02536*
X0295Y02536*
X02957Y02536*
X02964Y02539*
X0297Y02544*
X02974Y02549*
X02977Y02556*
X02978Y02563*
X02977Y02571*
X02974Y02577*
X0297Y02583*
X02964Y02587*
X02957Y0259*
X0295Y02591*
G37*
G36*
X03023Y02579D02*
X03016Y02578D01*
X03009Y02576*
X03003Y02571*
X02999Y02565*
X02996Y02559*
X02995Y02551*
X02996Y02544*
X02999Y02538*
X03003Y02532*
X03009Y02527*
X03016Y02525*
X03023Y02524*
X0303Y02525*
X03037Y02527*
X03043Y02532*
X03047Y02538*
X0305Y02544*
X03051Y02551*
X0305Y02559*
X03047Y02565*
X03043Y02571*
X03037Y02576*
X0303Y02578*
X03023Y02579*
G37*
G36*
X00917D02*
X0091Y02578D01*
X00903Y02576*
X00897Y02571*
X00893Y02565*
X0089Y02559*
X00889Y02551*
X0089Y02544*
X00893Y02538*
X00897Y02532*
X00903Y02527*
X0091Y02525*
X00917Y02524*
X00924Y02525*
X00931Y02527*
X00936Y02532*
X00941Y02538*
X00944Y02544*
X00945Y02551*
X00944Y02559*
X00941Y02565*
X00936Y02571*
X00931Y02576*
X00924Y02578*
X00917Y02579*
G37*
G36*
X01527Y02641D02*
X0152Y02641D01*
X01513Y02638*
X01507Y02633*
X01503Y02628*
X015Y02621*
X01499Y02614*
X015Y02606*
X01503Y026*
X01507Y02594*
X01513Y0259*
X0152Y02587*
X01521Y02587*
Y02582*
X0152Y02581*
X01513Y02579*
X01507Y02574*
X01503Y02569*
X015Y02562*
X01499Y02555*
X015Y02547*
X01503Y02541*
X01507Y02535*
X01513Y02531*
X0152Y02528*
X01527Y02527*
X01534Y02528*
X01541Y02531*
X01546Y02534*
X01547Y02535*
X01552Y02534*
X01555Y02531*
X0156Y02527*
X01567Y02524*
X01574Y02523*
X01582Y02524*
X01588Y02527*
X01594Y02531*
X01598Y02537*
X01601Y02543*
X01602Y02551*
X01601Y02558*
X01598Y02565*
X01594Y0257*
X01588Y02575*
X01582Y02578*
X01574Y02578*
X01567Y02578*
X0156Y02575*
X01555Y02571*
X01554Y0257*
X01549Y02571*
X01547Y02574*
X01541Y02579*
X01534Y02581*
X01533Y02582*
Y02587*
X01534Y02587*
X01541Y0259*
X01547Y02594*
X01551Y026*
X01554Y02606*
X01555Y02614*
X01554Y02621*
X01551Y02628*
X01547Y02633*
X01541Y02638*
X01534Y02641*
X01527Y02641*
G37*
G36*
X02031Y02575D02*
X02024Y02574D01*
X02017Y02571*
X02011Y02566*
X02007Y02561*
X02004Y02554*
X02003Y02547*
X02004Y0254*
X02007Y02533*
X02011Y02527*
X02017Y02523*
X02024Y0252*
X02031Y02519*
X02038Y0252*
X02045Y02523*
X02051Y02527*
X02055Y02533*
X02058Y0254*
X02059Y02547*
X02058Y02554*
X02055Y02561*
X02051Y02566*
X02045Y02571*
X02038Y02574*
X02031Y02575*
G37*
G36*
X01641D02*
X01634Y02574D01*
X01627Y02571*
X01622Y02566*
X01617Y02561*
X01614Y02554*
X01613Y02547*
X01614Y0254*
X01617Y02533*
X01622Y02527*
X01627Y02523*
X01634Y0252*
X01641Y02519*
X01648Y0252*
X01655Y02523*
X01661Y02527*
X01665Y02533*
X01668Y0254*
X01669Y02547*
X01668Y02554*
X01665Y02561*
X01661Y02566*
X01655Y02571*
X01648Y02574*
X01641Y02575*
G37*
G36*
X0235Y02571D02*
X02343Y0257D01*
X02336Y02567*
X0233Y02562*
X02326Y02557*
X02323Y0255*
X02322Y02543*
X02323Y02536*
X02326Y02529*
X0233Y02523*
X02336Y02519*
X02343Y02516*
X0235Y02515*
X02357Y02516*
X02364Y02519*
X0237Y02523*
X02374Y02529*
X02377Y02536*
X02378Y02543*
X02377Y0255*
X02374Y02557*
X0237Y02562*
X02364Y02567*
X02357Y0257*
X0235Y02571*
G37*
G36*
X00988Y02567D02*
X00981Y02567D01*
X00975Y02564*
X00969Y02559*
X00964Y02554*
X00962Y02547*
X00961Y0254*
X00962Y02532*
X00964Y02526*
X00969Y0252*
X00975Y02516*
X00981Y02513*
X00988Y02512*
X00996Y02513*
X01002Y02516*
X01008Y0252*
X01013Y02526*
X01015Y02532*
X01016Y0254*
X01015Y02547*
X01013Y02554*
X01008Y02559*
X01002Y02564*
X00996Y02567*
X00988Y02567*
G37*
G36*
X02688Y02561D02*
X02681Y0256D01*
X02675Y02557*
X02669Y02553*
X02664Y02547*
X02662Y0254*
X02661Y02533*
X02662Y02526*
X02664Y02519*
X02669Y02513*
X02675Y02509*
X02681Y02506*
X02688Y02505*
X02696Y02506*
X02702Y02509*
X02708Y02513*
X02713Y02519*
X02715Y02526*
X02716Y02533*
X02715Y0254*
X02713Y02547*
X02708Y02553*
X02702Y02557*
X02696Y0256*
X02688Y02561*
G37*
G36*
X01244Y0256D02*
X01237Y02559D01*
X0123Y02556*
X01225Y02551*
X0122Y02546*
X01218Y02539*
X01217Y02532*
X01218Y02525*
X0122Y02518*
X01225Y02512*
X0123Y02508*
X01237Y02505*
X01244Y02504*
X01252Y02505*
X01258Y02508*
X01264Y02512*
X01268Y02518*
X01271Y02525*
X01272Y02532*
X01271Y02539*
X01268Y02546*
X01264Y02551*
X01258Y02556*
X01252Y02559*
X01244Y0256*
G37*
G36*
X03452Y02551D02*
X03445Y0255D01*
X03438Y02547*
X03433Y02543*
X03428Y02537*
X03425Y0253*
X03424Y02523*
X03425Y02516*
X03428Y02509*
X03433Y02503*
X03438Y02499*
X03445Y02496*
X03452Y02495*
X03459Y02496*
X03466Y02499*
X03472Y02503*
X03476Y02509*
X03479Y02516*
X0348Y02523*
X03479Y0253*
X03476Y02537*
X03472Y02543*
X03466Y02547*
X03459Y0255*
X03452Y02551*
G37*
G36*
X0335Y02523D02*
X03343Y02522D01*
X03336Y0252*
X0333Y02515*
X03326Y02509*
X03323Y02503*
X03322Y02496*
X03323Y02488*
X03326Y02482*
X0333Y02476*
X03336Y02471*
X03343Y02469*
X0335Y02468*
X03357Y02469*
X03364Y02471*
X0337Y02476*
X03374Y02482*
X03377Y02488*
X03378Y02496*
X03377Y02503*
X03374Y02509*
X0337Y02515*
X03364Y0252*
X03357Y02522*
X0335Y02523*
G37*
G36*
X02468Y02508D02*
X02461Y02507D01*
X02454Y02504*
X02448Y02499*
X02444Y02494*
X02441Y02487*
X0244Y0248*
X02441Y02473*
X02444Y02466*
X02448Y0246*
X02454Y02456*
X02461Y02453*
X02468Y02452*
X02475Y02453*
X02482Y02456*
X02488Y0246*
X02492Y02466*
X02495Y02473*
X02496Y0248*
X02495Y02487*
X02492Y02494*
X02488Y02499*
X02482Y02504*
X02475Y02507*
X02468Y02508*
G37*
G36*
X00377Y02492D02*
X0037Y02491D01*
X00364Y02488*
X00358Y02484*
X00353Y02478*
X00351Y02471*
X0035Y02464*
X00351Y02457*
X00353Y0245*
X00358Y02444*
X00364Y0244*
X0037Y02437*
X00377Y02436*
X00385Y02437*
X00391Y0244*
X00397Y02444*
X00402Y0245*
X00404Y02457*
X00405Y02464*
X00404Y02471*
X00402Y02478*
X00397Y02484*
X00391Y02488*
X00385Y02491*
X00377Y02492*
G37*
G36*
X02401Y02523D02*
X02394Y02522D01*
X02387Y0252*
X02381Y02515*
X02377Y02509*
X02374Y02503*
X02373Y02496*
X02374Y02488*
X02377Y02482*
X02381Y02476*
X02385Y02473*
X02386Y02469*
X02386Y02467*
X02382Y02462*
X0238Y02456*
X02379Y02448*
X0238Y02441*
X02382Y02434*
X02387Y02429*
X02393Y02424*
X02399Y02421*
X02406Y02421*
X02414Y02421*
X0242Y02424*
X02426Y02429*
X02431Y02434*
X02433Y02441*
X02434Y02448*
X02433Y02456*
X02431Y02462*
X02426Y02468*
X02422Y02471*
X02421Y02475*
X02422Y02477*
X02425Y02482*
X02428Y02488*
X02429Y02496*
X02428Y02503*
X02425Y02509*
X02421Y02515*
X02415Y0252*
X02408Y02522*
X02401Y02523*
G37*
G36*
X03106Y02937D02*
X03099Y02936D01*
X03092Y02933*
X03086Y02929*
X03082Y02923*
X03079Y02916*
X03078Y02909*
X03079Y02902*
X03082Y02895*
X03086Y02889*
X03092Y02885*
X03094Y02884*
Y02421*
X03089Y02419*
X03047Y02461*
X03043Y02463*
X03039Y02464*
X03003*
X02999Y02463*
X02995Y02461*
X0299Y02461*
X02986Y02465*
X02979Y02467*
X02972Y02468*
X02965Y02467*
X02958Y02465*
X02952Y0246*
X02948Y02454*
X02945Y02448*
X02944Y0244*
X02945Y02433*
X02948Y02427*
X02949Y02426*
X02945Y02422*
X0294Y02424*
X02933Y02425*
X02925Y02424*
X02919Y02421*
X02913Y02417*
X02908Y02411*
X02906Y02404*
X02905Y02397*
X02906Y0239*
X02908Y02383*
X02913Y02377*
X02919Y02373*
X02925Y0237*
X02933Y02369*
X0294Y0237*
X02946Y02373*
X02952Y02377*
X02957Y02383*
X02959Y0239*
X0296Y02397*
X02959Y02404*
X02957Y02411*
X02956Y02412*
X02959Y02416*
X02965Y02414*
X02972Y02413*
X02979Y02414*
X02986Y02416*
X02992Y02421*
X02996Y02427*
X02998Y0243*
X03Y02432*
X03008Y0244*
X03034*
X03078Y02396*
Y02124*
X03073Y02123*
X03073Y02125*
X0307Y02132*
X03066Y02137*
X0306Y02142*
X03053Y02144*
X03046Y02145*
X03039Y02144*
X03033Y02142*
X03031Y02143*
X03029Y02145*
X0303Y02149*
X0303Y02152*
X03006*
Y02127*
X03009Y02128*
X03016Y02131*
X03016Y02131*
X0302Y02128*
X03019Y02125*
X03018Y02118*
X03019Y0211*
X03022Y02104*
X03026Y02098*
X03032Y02094*
X03039Y02091*
X03046Y0209*
X03053Y02091*
X0306Y02094*
X03066Y02098*
X0307Y02104*
X03073Y0211*
X03073Y02112*
X03078Y02112*
Y01875*
Y01875*
X03079Y01871*
X03082Y01867*
X03137Y01811*
Y01678*
X03135Y01677*
X03129Y01673*
X03125Y01667*
X03122Y0166*
X03121Y01653*
X03122Y01646*
X03125Y01639*
X03129Y01633*
X03135Y01629*
X03142Y01626*
X03149Y01625*
X03156Y01626*
X03163Y01629*
X03169Y01633*
X03173Y01639*
X03176Y01646*
X03177Y01653*
X03176Y0166*
X03173Y01667*
X03169Y01673*
X03163Y01677*
X03161Y01678*
Y01816*
X0316Y01821*
X03158Y01825*
X03125Y01857*
X03128Y01862*
X03132Y0186*
X03139Y01859*
X03146Y0186*
X03153Y01863*
X03159Y01867*
X03163Y01873*
X03166Y0188*
X03167Y01887*
X03166Y01894*
X03163Y01901*
X03159Y01907*
X03153Y01911*
X03146Y01914*
X03139Y01915*
X03132Y01914*
X03125Y01911*
X03119Y01907*
X03115Y01901*
X03112Y01894*
X03111Y01887*
X03112Y0188*
X03114Y01876*
X03109Y01873*
X03102Y0188*
Y02054*
X03107Y02056*
X03153Y0201*
X03151Y02005*
X03151Y02005*
X03143Y02004*
X03137Y02002*
X03131Y01997*
X03127Y01991*
X03124Y01985*
X03123Y01977*
X03124Y0197*
X03127Y01964*
X03131Y01958*
X03137Y01953*
X03143Y01951*
X03151Y0195*
X03158Y01951*
X03165Y01953*
X0317Y01958*
X03175Y01964*
X03178Y0197*
X03178Y01977*
X03178Y01978*
X03183Y0198*
X03216Y01947*
Y01717*
X03217Y01712*
X03219Y01708*
X03358Y0157*
X03362Y01567*
X03366Y01566*
X03386*
X03387Y01564*
X03391Y01559*
X03397Y01554*
X03404Y01551*
X03411Y0155*
X03418Y01551*
X03425Y01554*
X03431Y01559*
X03435Y01564*
X03438Y01571*
X03439Y01578*
X03438Y01585*
X03435Y01592*
X03431Y01598*
X03425Y01602*
X03418Y01605*
X03411Y01606*
X03404Y01605*
X03397Y01602*
X03391Y01598*
X03387Y01592*
X03386Y0159*
X03371*
X0324Y01722*
Y01777*
X03244Y01778*
X03245Y01778*
X03249Y01773*
X03255Y01768*
X03262Y01766*
X03269Y01765*
X03276Y01766*
X03283Y01768*
X03288Y01773*
X03293Y01779*
X03296Y01785*
X03297Y01792*
X03296Y018*
X03293Y01806*
X03288Y01812*
X03283Y01816*
X03276Y01819*
X03269Y0182*
X03262Y01819*
X03255Y01816*
X03249Y01812*
X03245Y01807*
X03244Y01806*
X0324Y01808*
Y01952*
Y01952*
X03239Y01957*
X03236Y01961*
X03118Y02079*
Y02884*
X0312Y02885*
X03125Y02889*
X0313Y02895*
X03133Y02902*
X03134Y02909*
X03133Y02916*
X0313Y02923*
X03125Y02929*
X0312Y02933*
X03113Y02936*
X03106Y02937*
G37*
G36*
X02535Y02472D02*
X02528Y02471D01*
X02521Y02468*
X02515Y02464*
X02511Y02458*
X02508Y02452*
X02507Y02444*
X02508Y02437*
X02511Y0243*
X02515Y02425*
X02521Y0242*
X02528Y02418*
X02535Y02417*
X02542Y02418*
X02549Y0242*
X02555Y02425*
X02559Y0243*
X02562Y02437*
X02563Y02444*
X02562Y02452*
X02559Y02458*
X02555Y02464*
X02549Y02468*
X02542Y02471*
X02535Y02472*
G37*
G36*
X02714Y02466D02*
X02707Y02465D01*
X027Y02462*
X02695Y02458*
X0269Y02452*
X02687Y02446*
X02686Y02438*
X02687Y02431*
X0269Y02424*
X02695Y02419*
X027Y02414*
X02707Y02411*
X02714Y02411*
X02721Y02411*
X02728Y02414*
X02734Y02419*
X02738Y02424*
X02741Y02431*
X02742Y02438*
X02741Y02446*
X02738Y02452*
X02734Y02458*
X02728Y02462*
X02721Y02465*
X02714Y02466*
G37*
G36*
X00671Y02517D02*
X00664Y02517D01*
X00657Y02514*
X00652Y02509*
X00647Y02504*
X00644Y02497*
X00643Y0249*
X00644Y02482*
X00647Y02476*
X00652Y0247*
X00657Y02466*
X00664Y02463*
X00665Y02463*
Y02458*
X00664Y02457*
X00657Y02455*
X00652Y0245*
X00647Y02445*
X00644Y02438*
X00643Y02431*
X00644Y02423*
X00647Y02417*
X00652Y02411*
X00657Y02407*
X00664Y02404*
X00671Y02403*
X00678Y02404*
X00685Y02407*
X00691Y02411*
X00695Y02417*
X00698Y02423*
X00699Y02431*
X00698Y02438*
X00695Y02445*
X00691Y0245*
X00685Y02455*
X00678Y02457*
X00677Y02458*
Y02463*
X00678Y02463*
X00685Y02466*
X00691Y0247*
X00695Y02476*
X00698Y02482*
X00699Y0249*
X00698Y02497*
X00695Y02504*
X00691Y02509*
X00685Y02514*
X00678Y02517*
X00671Y02517*
G37*
G36*
X03157Y02736D02*
X0315Y02735D01*
X03143Y02732*
X03137Y02728*
X03133Y02722*
X0313Y02715*
X03129Y02708*
X0313Y02701*
X03133Y02694*
X03137Y02689*
X03143Y02684*
X03145Y02683*
Y02458*
X03133Y02446*
X0313Y02442*
X03129Y02438*
Y02292*
X0313Y02287*
X03133Y02284*
X03172Y02244*
X03171Y02243*
X0317Y02235*
X03171Y02228*
X03174Y02221*
X03178Y02216*
X03184Y02211*
X03191Y02208*
X03198Y02208*
X03205Y02208*
X03212Y02211*
X03218Y02216*
X03222Y02221*
X03225Y02228*
X03226Y02235*
X03226Y02235*
X03246*
X03509Y01973*
Y01621*
X03504Y0162*
X03502Y01624*
X03498Y01629*
X03492Y01634*
X03485Y01637*
X03478Y01638*
X03471Y01637*
X03464Y01634*
X03458Y01629*
X03454Y01624*
X03451Y01617*
X0345Y0161*
X03451Y01603*
X03454Y01596*
X03458Y0159*
X03464Y01586*
X03471Y01583*
X03478Y01582*
X03485Y01583*
X03492Y01586*
X03498Y0159*
X03502Y01596*
X03504Y016*
X03509Y01599*
Y01404*
X03381Y01276*
X03378Y01272*
X03377Y01267*
Y01131*
X03375Y0113*
X0337Y01125*
X03365Y0112*
X03362Y01113*
X03361Y01106*
X03362Y01099*
X03365Y01092*
X0337Y01086*
X03375Y01082*
X03382Y01079*
X03389Y01078*
X03396Y01079*
X03403Y01082*
X03409Y01086*
X03413Y01092*
X03416Y01099*
X03417Y01106*
X03416Y01113*
X03413Y0112*
X03409Y01125*
X03403Y0113*
X03401Y01131*
Y01262*
X03529Y0139*
X03532Y01394*
X03533Y01399*
Y01978*
X03532Y01983*
X03529Y01987*
X0326Y02256*
X03256Y02259*
X03251Y0226*
X03211*
X03205Y02262*
X03198Y02263*
X03191Y02262*
X03189Y02261*
X03153Y02297*
Y02399*
X03158Y02401*
X03159Y02401*
X03166Y02398*
X03173Y02397*
X0318Y02398*
X03187Y02401*
X03192Y02405*
X03197Y02411*
X032Y02418*
X03201Y02425*
X032Y02432*
X03197Y02439*
X03192Y02444*
X03187Y02449*
X0318Y02452*
X03174Y02452*
X03173Y02453*
X03169Y02457*
Y02683*
X03171Y02684*
X03177Y02689*
X03181Y02694*
X03184Y02701*
X03185Y02708*
X03184Y02715*
X03181Y02722*
X03177Y02728*
X03171Y02732*
X03164Y02735*
X03157Y02736*
G37*
G36*
X03507Y02449D02*
X035Y02448D01*
X03493Y02445*
X03488Y0244*
X03483Y02435*
X03481Y02428*
X0348Y02421*
X03481Y02414*
X03483Y02407*
X03488Y02401*
X03493Y02397*
X035Y02394*
X03507Y02393*
X03515Y02394*
X03521Y02397*
X03527Y02401*
X03531Y02407*
X03534Y02414*
X03535Y02421*
X03534Y02428*
X03531Y02435*
X03527Y0244*
X03521Y02445*
X03515Y02448*
X03507Y02449*
G37*
G36*
X0335Y02445D02*
X03343Y02444D01*
X03336Y02441*
X0333Y02436*
X03326Y02431*
X03323Y02424*
X03322Y02417*
X03323Y0241*
X03326Y02403*
X0333Y02397*
X03336Y02393*
X03343Y0239*
X0335Y02389*
X03357Y0239*
X03364Y02393*
X0337Y02397*
X03374Y02403*
X03377Y0241*
X03378Y02417*
X03377Y02424*
X03374Y02431*
X0337Y02436*
X03364Y02441*
X03357Y02444*
X0335Y02445*
G37*
G36*
X03271Y02437D02*
X03264Y02436D01*
X03257Y02433*
X03252Y02429*
X03247Y02423*
X03244Y02416*
X03243Y02409*
X03244Y02402*
X03247Y02395*
X03252Y02389*
X03257Y02385*
X03264Y02382*
X03271Y02381*
X03278Y02382*
X03285Y02385*
X03291Y02389*
X03295Y02395*
X03298Y02402*
X03299Y02409*
X03298Y02416*
X03295Y02423*
X03291Y02429*
X03285Y02433*
X03278Y02436*
X03271Y02437*
G37*
G36*
X02146Y02399D02*
Y02375D01*
X02171*
X0217Y02377*
X02167Y02385*
X02162Y02391*
X02156Y02396*
X02149Y02399*
X02146Y02399*
G37*
G36*
X02136D02*
X02133Y02399D01*
X02126Y02396*
X0212Y02391*
X02115Y02385*
X02112Y02377*
X02112Y02375*
X02136*
Y02399*
G37*
G36*
X01397Y02425D02*
X0139Y02424D01*
X01383Y02421*
X01377Y02417*
X01373Y02411*
X0137Y02404*
X01369Y02397*
X0137Y0239*
X01373Y02383*
X01377Y02377*
X01383Y02373*
X0139Y0237*
X01397Y02369*
X01404Y0237*
X01411Y02373*
X01417Y02377*
X01421Y02383*
X01424Y0239*
X01425Y02397*
X01424Y02404*
X01421Y02411*
X01417Y02417*
X01411Y02421*
X01404Y02424*
X01397Y02425*
G37*
G36*
X00333Y02403D02*
X00325Y02402D01*
X00319Y024*
X00313Y02395*
X00309Y02389*
X00306Y02383*
X00305Y02375*
X00306Y02368*
X00309Y02362*
X00313Y02356*
X00319Y02351*
X00325Y02349*
X00333Y02348*
X0034Y02349*
X00346Y02351*
X00352Y02356*
X00357Y02362*
X00359Y02368*
X0036Y02375*
X00359Y02383*
X00357Y02389*
X00352Y02395*
X00346Y024*
X0034Y02402*
X00333Y02403*
G37*
G36*
X01073Y02371D02*
Y02347D01*
X01097*
X01097Y0235*
X01094Y02357*
X01089Y02363*
X01083Y02368*
X01076Y02371*
X01073Y02371*
G37*
G36*
X01063D02*
X0106Y02371D01*
X01053Y02368*
X01047Y02363*
X01042Y02357*
X01039Y0235*
X01039Y02347*
X01063*
Y02371*
G37*
G36*
X00695Y02399D02*
X00688Y02398D01*
X00681Y02396*
X00675Y02391*
X00671Y02385*
X00668Y02379*
X00667Y02372*
X00668Y02364*
X00671Y02358*
X00675Y02352*
X00681Y02347*
X00688Y02345*
X00695Y02344*
X00702Y02345*
X00709Y02347*
X00714Y02352*
X00719Y02358*
X00722Y02364*
X00723Y02372*
X00722Y02379*
X00719Y02385*
X00714Y02391*
X00709Y02396*
X00702Y02398*
X00695Y02399*
G37*
G36*
X02171Y02365D02*
X02146D01*
Y0234*
X02149Y02341*
X02156Y02344*
X02162Y02348*
X02167Y02355*
X0217Y02362*
X02171Y02365*
G37*
G36*
X02136D02*
X02112D01*
X02112Y02362*
X02115Y02355*
X0212Y02348*
X02126Y02344*
X02133Y02341*
X02136Y0234*
Y02365*
G37*
G36*
X01982D02*
X01957D01*
Y0234*
X0196Y02341*
X01967Y02344*
X01973Y02348*
X01978Y02355*
X01981Y02362*
X01982Y02365*
G37*
G36*
X02323Y02359D02*
Y02335D01*
X02348*
X02347Y02338*
X02344Y02345*
X0234Y02351*
X02333Y02356*
X02326Y02359*
X02323Y02359*
G37*
G36*
X02313D02*
X02311Y02359D01*
X02303Y02356*
X02297Y02351*
X02292Y02345*
X02289Y02338*
X02289Y02335*
X02313*
Y02359*
G37*
G36*
X01728Y02393D02*
X01721Y02392D01*
X01714Y0239*
X01708Y02385*
X01704Y0238*
X01701Y02373*
X017Y02366*
X01701Y02358*
X01704Y02352*
X01708Y02346*
X01714Y02342*
X01721Y02339*
X01728Y02338*
X01735Y02339*
X01742Y02342*
X01747Y02345*
X0175Y02345*
X01752Y02344*
X01752Y02343*
X01755Y02336*
X01759Y0233*
X01765Y02326*
X01772Y02323*
X01779Y02322*
X01786Y02323*
X01793Y02326*
X01799Y0233*
X01801Y02333*
X01806Y02334*
X01807Y02334*
X01812Y0233*
X01819Y02327*
X01826Y02326*
X01833Y02327*
X0184Y0233*
X01846Y02334*
X0185Y0234*
X01853Y02347*
X01854Y02354*
X01853Y02361*
X0185Y02368*
X01846Y02373*
X0184Y02378*
X01833Y02381*
X01826Y02382*
X01819Y02381*
X01812Y02378*
X01807Y02373*
X01804Y0237*
X01799Y0237*
X01798Y0237*
X01793Y02374*
X01786Y02377*
X01779Y02378*
X01772Y02377*
X01765Y02374*
X0176Y0237*
X01757Y02371*
X01755Y02372*
X01755Y02373*
X01752Y0238*
X01748Y02385*
X01742Y0239*
X01735Y02392*
X01728Y02393*
G37*
G36*
X01097Y02337D02*
X01073D01*
Y02313*
X01076Y02313*
X01083Y02316*
X01089Y02321*
X01094Y02327*
X01097Y02334*
X01097Y02337*
G37*
G36*
X01063D02*
X01039D01*
X01039Y02334*
X01042Y02327*
X01047Y02321*
X01053Y02316*
X0106Y02313*
X01063Y02313*
Y02337*
G37*
G36*
X02966Y02365D02*
X02958Y02364D01*
X02952Y02361*
X02946Y02357*
X02942Y02351*
X02939Y02344*
X02938Y02337*
X02939Y0233*
X02942Y02323*
X02946Y02317*
X02952Y02313*
X02958Y0231*
X02966Y02309*
X02973Y0231*
X0298Y02313*
X02985Y02317*
X0299Y02323*
X02992Y0233*
X02993Y02337*
X02992Y02344*
X0299Y02351*
X02985Y02357*
X0298Y02361*
X02973Y02364*
X02966Y02365*
G37*
G36*
X01131Y02307D02*
X01124Y02306D01*
X01117Y02303*
X01111Y02299*
X01107Y02293*
X01105Y02288*
X011Y02287*
X01099Y02287*
X01095Y02292*
X01088Y02298*
X0108Y02301*
X01075Y02302*
Y02267*
Y02233*
X0108Y02233*
X01088Y02237*
X01095Y02242*
X01101Y0225*
X01104Y02258*
X01105Y0226*
X0111Y02261*
X01111Y02259*
X01117Y02255*
X01124Y02252*
X01131Y02251*
X01138Y02252*
X01145Y02255*
X01151Y02259*
X01155Y02265*
X01158Y02272*
X01159Y02279*
X01158Y02286*
X01155Y02293*
X01151Y02299*
X01145Y02303*
X01138Y02306*
X01131Y02307*
G37*
G36*
X02511Y02378D02*
X02504Y02377D01*
X02497Y02374*
X02492Y0237*
X02487Y02364*
X02484Y02357*
X02484Y0235*
X02484Y02343*
X02487Y02336*
X02492Y0233*
X02497Y02326*
X02504Y02323*
X02507Y02323*
X02507Y02323*
X0251Y02317*
X02508Y02313*
X02507Y02306*
X02508Y02299*
X02511Y02292*
X02515Y02287*
X02521Y02282*
X02528Y02279*
X02535Y02278*
X02542Y02279*
X02549Y02282*
X02555Y02287*
X02559Y02292*
X02562Y02299*
X02563Y02306*
X02562Y02313*
X02559Y0232*
X02555Y02326*
X02549Y0233*
X02542Y02333*
X02539Y02333*
X02539Y02334*
X02537Y02339*
X02538Y02343*
X02539Y0235*
X02538Y02357*
X02535Y02364*
X02531Y0237*
X02525Y02374*
X02519Y02377*
X02511Y02378*
G37*
G36*
X027Y02386D02*
X02693Y02385D01*
X02686Y02382*
X02681Y02377*
X02676Y02372*
X02673Y02365*
X02672Y02358*
X02673Y02351*
X02676Y02344*
X02681Y02338*
X02685Y02335*
X02684Y0233*
X02684Y02329*
X02682Y02328*
X02676Y02324*
X02671Y02318*
X02669Y02311*
X02668Y02304*
X02669Y02297*
X02671Y0229*
X02676Y02285*
X02682Y0228*
X02688Y02277*
X02696Y02276*
X02703Y02277*
X02709Y0228*
X02715Y02285*
X0272Y0229*
X02722Y02297*
X02723Y02304*
X02722Y02311*
X0272Y02318*
X02715Y02324*
X02711Y02327*
X02711Y02332*
X02712Y02333*
X02714Y02334*
X0272Y02338*
X02724Y02344*
X02727Y02351*
X02728Y02358*
X02727Y02365*
X02724Y02372*
X0272Y02377*
X02714Y02382*
X02707Y02385*
X027Y02386*
G37*
G36*
X01065Y02302D02*
X01061Y02301D01*
X01053Y02298*
X01045Y02292*
X0104Y02285*
X01036Y02276*
X01036Y02272*
X01065*
Y02302*
G37*
G36*
X03466Y02332D02*
X03458Y02331D01*
X03452Y02328*
X03446Y02324*
X03442Y02318*
X03439Y02311*
X03438Y02304*
X03439Y02297*
X03442Y0229*
X03446Y02285*
X03452Y0228*
X03458Y02277*
X03466Y02276*
X03473Y02277*
X0348Y0228*
X03485Y02285*
X03489Y0229*
X03492Y0229*
X03495Y02289*
X03497Y02284*
X03501Y02279*
X03507Y02274*
X03514Y02271*
X03521Y02271*
X03528Y02271*
X03535Y02274*
X0354Y02279*
X03545Y02284*
X03548Y02291*
X03549Y02298*
X03548Y02306*
X03545Y02312*
X0354Y02318*
X03535Y02322*
X03528Y02325*
X03521Y02326*
X03514Y02325*
X03507Y02322*
X03501Y02318*
X03497Y02313*
X03495Y02313*
X03492Y02313*
X0349Y02318*
X03485Y02324*
X0348Y02328*
X03473Y02331*
X03466Y02332*
G37*
G36*
X01763Y02307D02*
X01756Y02306D01*
X01749Y02303*
X01744Y02299*
X01739Y02293*
X01736Y02286*
X01735Y02279*
X01736Y02272*
X01739Y02265*
X01744Y02259*
X01749Y02255*
X01756Y02252*
X01763Y02251*
X0177Y02252*
X01777Y02255*
X01783Y02259*
X01787Y02265*
X0179Y02272*
X01791Y02279*
X0179Y02286*
X01787Y02293*
X01783Y02299*
X01777Y02303*
X0177Y02306*
X01763Y02307*
G37*
G36*
X01651Y02303D02*
X01643Y02302D01*
X01637Y02299*
X01631Y02295*
X01627Y02289*
X01624Y02282*
X01623Y02275*
X01624Y02268*
X01627Y02261*
X01631Y02255*
X01637Y02251*
X01643Y02248*
X01651Y02247*
X01658Y02248*
X01665Y02251*
X0167Y02255*
X01675Y02261*
X01678Y02268*
X01678Y02275*
X01678Y02282*
X01675Y02289*
X0167Y02295*
X01665Y02299*
X01658Y02302*
X01651Y02303*
G37*
G36*
X02348Y02325D02*
X02289D01*
X02289Y02322*
X02292Y02315*
X02297Y02309*
X02303Y02304*
X02304Y02304*
Y0219*
Y0219*
X02305Y02186*
X02308Y02182*
X02348Y02142*
Y02121*
X02345Y0212*
X02339Y02115*
X02334Y02109*
X02331Y02102*
X0233Y02099*
X02389*
X02389Y02102*
X02386Y02109*
X02381Y02115*
X02375Y0212*
X02372Y02121*
Y02147*
X02371Y02152*
X02368Y02156*
X02328Y02195*
Y02238*
X02333Y0224*
X02334Y02239*
X02341Y02236*
X02348Y02235*
X02355Y02236*
X02362Y02239*
X02368Y02244*
X02372Y02249*
X02375Y02256*
X02376Y02263*
X02375Y0227*
X02372Y02277*
X02368Y02283*
X02362Y02287*
X02355Y0229*
X02348Y02291*
X02341Y0229*
X02334Y02287*
X02333Y02287*
X02328Y02289*
Y02302*
X02333Y02304*
X0234Y02309*
X02344Y02315*
X02347Y02322*
X02348Y02325*
G37*
G36*
X01065Y02262D02*
X01036D01*
X01036Y02258*
X0104Y0225*
X01045Y02242*
X01053Y02237*
X01061Y02233*
X01065Y02233*
Y02262*
G37*
G36*
X007Y02251D02*
Y02227D01*
X00724*
X00724Y0223*
X00721Y02237*
X00716Y02243*
X0071Y02248*
X00703Y02251*
X007Y02251*
G37*
G36*
X0069D02*
X00687Y02251D01*
X0068Y02248*
X00674Y02243*
X00669Y02237*
X00666Y0223*
X00666Y02227*
X0069*
Y02251*
G37*
G36*
X00298Y02224D02*
Y02199D01*
X00322*
X00322Y02202*
X00319Y02209*
X00314Y02216*
X00308Y0222*
X00301Y02223*
X00298Y02224*
G37*
G36*
X00724Y02217D02*
X007D01*
Y02193*
X00703Y02193*
X0071Y02196*
X00716Y02201*
X00721Y02207*
X00724Y02214*
X00724Y02217*
G37*
G36*
X0069D02*
X00666D01*
X00666Y02214*
X00669Y02207*
X00674Y02201*
X0068Y02196*
X00687Y02193*
X0069Y02193*
Y02217*
G37*
G36*
X00322Y02189D02*
X00298D01*
Y02165*
X00301Y02165*
X00308Y02168*
X00314Y02173*
X00319Y02179*
X00322Y02187*
X00322Y02189*
G37*
G36*
X03006Y02186D02*
Y02162D01*
X0303*
X0303Y02164*
X03027Y02172*
X03022Y02178*
X03016Y02183*
X03009Y02186*
X03006Y02186*
G37*
G36*
X02996D02*
X02993Y02186D01*
X02986Y02183*
X0298Y02178*
X02975Y02172*
X02972Y02164*
X02972Y02162*
X02996*
Y02186*
G37*
G36*
X02887Y02212D02*
X0288Y02211D01*
X02873Y02208*
X02867Y02204*
X02863Y02198*
X0286Y02191*
X02859Y02184*
X0286Y02177*
X02863Y0217*
X02867Y02164*
X02873Y0216*
X0288Y02157*
X02887Y02156*
X02894Y02157*
X02901Y0216*
X02907Y02164*
X02911Y0217*
X02914Y02177*
X02915Y02184*
X02914Y02191*
X02911Y02198*
X02907Y02204*
X02901Y02208*
X02894Y02211*
X02887Y02212*
G37*
G36*
X01462Y02191D02*
X01455Y0219D01*
X01448Y02187*
X01442Y02183*
X01438Y02177*
X01435Y0217*
X01434Y02163*
X01435Y02156*
X01438Y02149*
X01442Y02143*
X01448Y02139*
X01455Y02136*
X01462Y02135*
X01469Y02136*
X01476Y02139*
X01481Y02143*
X01486Y02149*
X01489Y02156*
X0149Y02163*
X01489Y0217*
X01486Y02177*
X01481Y02183*
X01476Y02187*
X01469Y0219*
X01462Y02191*
G37*
G36*
X02996Y02152D02*
X02972D01*
X02972Y02149*
X02975Y02142*
X0298Y02135*
X02986Y02131*
X02993Y02128*
X02996Y02127*
Y02152*
G37*
G36*
X01666Y02228D02*
X01659Y02227D01*
X01653Y02224*
X01647Y0222*
X01642Y02214*
X0164Y02207*
X01639Y022*
X0164Y02193*
X01642Y02186*
X01647Y02181*
X01651Y02177*
X01652Y02172*
X01651Y02171*
X01646Y02165*
X01644Y02158*
X01643Y02151*
X01644Y02144*
X01646Y02137*
X01651Y02131*
X01656Y02127*
X01663Y02124*
X0167Y02123*
X01678Y02124*
X01684Y02127*
X0169Y02131*
X01694Y02137*
X01697Y02144*
X01698Y02151*
X01697Y02158*
X01694Y02165*
X0169Y02171*
X01686Y02174*
X01685Y0218*
X01686Y02181*
X01691Y02186*
X01693Y02193*
X01694Y022*
X01693Y02207*
X01691Y02214*
X01686Y0222*
X0168Y02224*
X01674Y02227*
X01666Y02228*
G37*
G36*
X02227Y02119D02*
Y02095D01*
X02251*
X02251Y02098*
X02248Y02105*
X02243Y02111*
X02237Y02116*
X0223Y02119*
X02227Y02119*
G37*
G36*
X02217D02*
X02214Y02119D01*
X02207Y02116*
X02201Y02111*
X02196Y02105*
X02193Y02098*
X02193Y02095*
X02217*
Y02119*
G37*
G36*
X01041Y02141D02*
X01034Y0214D01*
X01027Y02137*
X01022Y02133*
X01017Y02127*
X01014Y0212*
X01013Y02113*
X01014Y02106*
X01017Y02099*
X01022Y02094*
X01027Y02089*
X01034Y02086*
X01041Y02085*
X01048Y02086*
X01055Y02089*
X01061Y02094*
X01065Y02099*
X01068Y02106*
X01069Y02113*
X01068Y0212*
X01065Y02127*
X01061Y02133*
X01055Y02137*
X01048Y0214*
X01041Y02141*
G37*
G36*
X00636Y0214D02*
X00629Y02139D01*
X00622Y02136*
X00616Y02131*
X00612Y02126*
X00609Y02119*
X00608Y02112*
X00609Y02105*
X00612Y02098*
X00616Y02092*
X00622Y02088*
X00629Y02085*
X00636Y02084*
X00643Y02085*
X0065Y02088*
X00655Y02092*
X0066Y02098*
X00663Y02105*
X00664Y02112*
X00663Y02119*
X0066Y02126*
X00655Y02131*
X0065Y02136*
X00643Y02139*
X00636Y0214*
G37*
G36*
X0319Y02137D02*
X03183Y02136D01*
X03176Y02133*
X0317Y02129*
X03166Y02123*
X03163Y02117*
X03162Y02109*
X03163Y02102*
X03166Y02095*
X0317Y0209*
X03176Y02085*
X03183Y02082*
X0319Y02082*
X03197Y02082*
X03204Y02085*
X0321Y0209*
X03214Y02095*
X03217Y02102*
X03218Y02109*
X03217Y02117*
X03214Y02123*
X0321Y02129*
X03204Y02133*
X03197Y02136*
X0319Y02137*
G37*
G36*
X01247Y02136D02*
X0124Y02135D01*
X01233Y02132*
X01227Y02127*
X01223Y02122*
X0122Y02115*
X01219Y02108*
X0122Y02101*
X01223Y02094*
X01227Y02088*
X01233Y02084*
X0124Y02081*
X01247Y0208*
X01254Y02081*
X01261Y02084*
X01266Y02088*
X01271Y02094*
X01274Y02101*
X01275Y02108*
X01274Y02115*
X01271Y02122*
X01266Y02127*
X01261Y02132*
X01254Y02135*
X01247Y02136*
G37*
G36*
X01393Y02228D02*
X01386Y02227D01*
X01379Y02224*
X01374Y0222*
X01369Y02214*
X01366Y02207*
X01365Y022*
X01366Y02193*
X01369Y02186*
X01374Y02181*
X01379Y02176*
X01379Y02174*
Y02174*
X01379Y02171*
X01374Y02167*
X01369Y02161*
X01366Y02154*
X01365Y02147*
X01366Y0214*
X01369Y02133*
X01374Y02127*
X01378Y02124*
X01379Y02118*
X01377Y02118*
X01373Y02112*
X0137Y02105*
X01369Y02098*
X0137Y02091*
X01373Y02084*
X01377Y02078*
X01383Y02074*
X0139Y02071*
X01397Y0207*
X01404Y02071*
X01411Y02074*
X01417Y02078*
X01421Y02084*
X01424Y02091*
X01425Y02098*
X01424Y02105*
X01421Y02112*
X01417Y02118*
X01412Y02121*
X01412Y02127*
X01413Y02127*
X01417Y02133*
X0142Y0214*
X01421Y02147*
X0142Y02154*
X01417Y02161*
X01413Y02167*
X01407Y02171*
X01407Y02174*
Y02174*
X01407Y02176*
X01413Y02181*
X01417Y02186*
X0142Y02193*
X01421Y022*
X0142Y02207*
X01417Y02214*
X01413Y0222*
X01407Y02224*
X014Y02227*
X01393Y02228*
G37*
G36*
X02251Y02085D02*
X02227D01*
Y02061*
X0223Y02061*
X02237Y02064*
X02243Y02069*
X02248Y02075*
X02251Y02082*
X02251Y02085*
G37*
G36*
X02217D02*
X02193D01*
X02193Y02082*
X02196Y02075*
X02201Y02069*
X02207Y02064*
X02214Y02061*
X02217Y02061*
Y02085*
G37*
G36*
X02988Y02114D02*
X0298Y02113D01*
X02974Y0211*
X02968Y02106*
X02964Y021*
X02961Y02093*
X0296Y02086*
X02961Y02079*
X02964Y02072*
X02968Y02066*
X02974Y02062*
X0298Y02059*
X02988Y02058*
X02995Y02059*
X03002Y02062*
X03007Y02066*
X03012Y02072*
X03015Y02079*
X03015Y02086*
X03015Y02093*
X03012Y021*
X03007Y02106*
X03002Y0211*
X02995Y02113*
X02988Y02114*
G37*
G36*
X0112Y02108D02*
X01113Y02107D01*
X01106Y02104*
X011Y021*
X01096Y02094*
X01093Y02087*
X01092Y0208*
X01093Y02073*
X01096Y02066*
X011Y02061*
X01106Y02056*
X01113Y02053*
X0112Y02052*
X01127Y02053*
X01134Y02056*
X0114Y02061*
X01144Y02066*
X01147Y02073*
X01148Y0208*
X01147Y02087*
X01144Y02094*
X0114Y021*
X01134Y02104*
X01127Y02107*
X0112Y02108*
G37*
G36*
X01799Y02047D02*
X01792Y02046D01*
X01785Y02043*
X01779Y02039*
X01775Y02033*
X01772Y02026*
X01771Y02019*
X01772Y02012*
X01775Y02005*
X01779Y02*
X01785Y01995*
X01792Y01992*
X01799Y01991*
X01806Y01992*
X01808Y01993*
X01812Y0199*
X01811Y01987*
X0181Y0198*
X01811Y01973*
X01814Y01966*
X01818Y0196*
X01824Y01956*
X01831Y01953*
X01838Y01952*
X01845Y01953*
X01852Y01956*
X01858Y0196*
X01862Y01966*
X01865Y01973*
X01866Y0198*
X01865Y01987*
X01862Y01994*
X01858Y01999*
X01852Y02004*
X01845Y02007*
X01838Y02008*
X01831Y02007*
X01828Y02006*
X01825Y02009*
X01826Y02012*
X01827Y02019*
X01826Y02026*
X01823Y02033*
X01818Y02039*
X01813Y02043*
X01806Y02046*
X01799Y02047*
G37*
G36*
X01901Y0198D02*
X01894Y01979D01*
X01887Y01976*
X01881Y01972*
X01877Y01966*
X01874Y01959*
X01873Y01952*
X01874Y01945*
X01877Y01938*
X01881Y01933*
X01887Y01928*
X01894Y01925*
X01901Y01924*
X01908Y01925*
X01915Y01928*
X01921Y01933*
X01925Y01938*
X01928Y01945*
X01929Y01952*
X01928Y01959*
X01925Y01966*
X01921Y01972*
X01915Y01976*
X01908Y01979*
X01901Y0198*
G37*
G36*
X02767Y01974D02*
X0276Y01973D01*
X02753Y0197*
X02748Y01966*
X02743Y0196*
X0274Y01953*
X02739Y01946*
X0274Y01939*
X02743Y01932*
X02748Y01926*
X02753Y01922*
X0276Y01919*
X02767Y01918*
X02774Y01919*
X02781Y01922*
X02787Y01926*
X02791Y01932*
X02794Y01939*
X02795Y01946*
X02794Y01953*
X02791Y0196*
X02787Y01966*
X02781Y0197*
X02774Y01973*
X02767Y01974*
G37*
G36*
X03391Y02015D02*
X03384Y02014D01*
X03377Y02011*
X03371Y02007*
X03367Y02001*
X03364Y01994*
X03363Y01987*
X03364Y0198*
X03367Y01973*
X03371Y01968*
X03377Y01963*
X03384Y0196*
X03391Y0196*
X03392Y0196*
X03395Y01955*
X03394Y01952*
X03393Y01944*
X03394Y01937*
X03397Y0193*
X03401Y01925*
X03407Y0192*
X03414Y01918*
X03421Y01917*
X03428Y01918*
X03435Y0192*
X0344Y01925*
X03445Y0193*
X03448Y01937*
X03449Y01944*
X03448Y01952*
X03445Y01958*
X0344Y01964*
X03435Y01968*
X03428Y01971*
X03421Y01972*
X0342Y01972*
X03416Y01977*
X03418Y0198*
X03419Y01987*
X03418Y01994*
X03415Y02001*
X0341Y02007*
X03405Y02011*
X03398Y02014*
X03391Y02015*
G37*
G36*
X02625Y01964D02*
X02618Y01963D01*
X02612Y01961*
X02606Y01956*
X02601Y0195*
X02599Y01944*
X02598Y01937*
X02599Y01929*
X02601Y01923*
X02606Y01917*
X02612Y01912*
X02618Y0191*
X02625Y01909*
X02633Y0191*
X02639Y01912*
X02645Y01917*
X02651Y01917*
X02653Y01914*
X02659Y0191*
X02666Y01907*
X02673Y01906*
X0268Y01907*
X02687Y0191*
X02692Y01914*
X02697Y0192*
X027Y01927*
X02701Y01934*
X027Y01941*
X02697Y01948*
X02692Y01954*
X02687Y01958*
X0268Y01961*
X02673Y01962*
X02666Y01961*
X02659Y01958*
X02653Y01954*
X02647Y01954*
X02645Y01956*
X02639Y01961*
X02633Y01963*
X02625Y01964*
G37*
G36*
X02515Y01945D02*
X02508Y01944D01*
X02501Y01941*
X02496Y01936*
X02491Y01931*
X02488Y01924*
X02487Y01917*
X02488Y0191*
X02491Y01903*
X02496Y01897*
X02501Y01893*
X02508Y0189*
X02515Y01889*
X02522Y0189*
X02529Y01893*
X02535Y01897*
X02539Y01903*
X02542Y0191*
X02543Y01917*
X02542Y01924*
X02539Y01931*
X02535Y01936*
X02529Y01941*
X02522Y01944*
X02515Y01945*
G37*
G36*
X00622Y01944D02*
X00614Y01943D01*
X00608Y01941*
X00602Y01936*
X00597Y0193*
X00595Y01924*
X00594Y01916*
X00595Y01909*
X00597Y01903*
X00602Y01897*
X00608Y01892*
X00614Y0189*
X00622Y01889*
X00629Y0189*
X00635Y01892*
X00641Y01897*
X00646Y01903*
X00648Y01909*
X00649Y01916*
X00648Y01924*
X00646Y0193*
X00641Y01936*
X00635Y01941*
X00629Y01943*
X00622Y01944*
G37*
G36*
X03033Y0193D02*
X03025Y0193D01*
X03019Y01927*
X03013Y01922*
X03009Y01917*
X03006Y0191*
X03005Y01903*
X03006Y01895*
X03009Y01889*
X03013Y01883*
X03019Y01879*
X03025Y01876*
X03033Y01875*
X0304Y01876*
X03046Y01879*
X03052Y01883*
X03057Y01889*
X03059Y01895*
X0306Y01903*
X03059Y0191*
X03057Y01917*
X03052Y01922*
X03046Y01927*
X0304Y0193*
X03033Y0193*
G37*
G36*
X0109Y01911D02*
X01083Y0191D01*
X01076Y01907*
X0107Y01903*
X01066Y01897*
X01063Y01891*
X01062Y01883*
X01063Y01876*
X01066Y01869*
X0107Y01864*
X01076Y01859*
X01083Y01857*
X0109Y01856*
X01097Y01857*
X01104Y01859*
X0111Y01864*
X01114Y01869*
X01117Y01876*
X01118Y01883*
X01117Y01891*
X01114Y01897*
X0111Y01903*
X01104Y01907*
X01097Y0191*
X0109Y01911*
G37*
G36*
X0102Y01873D02*
Y01843D01*
X0105*
X01049Y01847*
X01046Y01856*
X0104Y01863*
X01033Y01869*
X01024Y01872*
X0102Y01873*
G37*
G36*
X0101D02*
X01006Y01872D01*
X00998Y01869*
X0099Y01863*
X00985Y01856*
X00981Y01847*
X00981Y01843*
X0101*
Y01873*
G37*
G36*
X02622Y01866D02*
X02614Y01865D01*
X02608Y01862*
X02602Y01858*
X02597Y01852*
X02595Y01845*
X02595Y01844*
X02592Y01843*
X02589Y01843*
X02584Y01846*
X02578Y01849*
X0257Y0185*
X02563Y01849*
X02556Y01846*
X02551Y01842*
X02546Y01836*
X02544Y0183*
X02543Y01822*
X02544Y01815*
X02546Y01808*
X02551Y01803*
X02556Y01798*
X02563Y01795*
X0257Y01795*
X02578Y01795*
X02584Y01798*
X0259Y01803*
X02594Y01808*
X02597Y01815*
X02597Y01816*
X026Y01817*
X02603Y01818*
X02608Y01814*
X02614Y01811*
X02622Y0181*
X02629Y01811*
X02635Y01814*
X02641Y01818*
X02646Y01824*
X02648Y01831*
X02649Y01838*
X02648Y01845*
X02646Y01852*
X02641Y01858*
X02635Y01862*
X02629Y01865*
X02622Y01866*
G37*
G36*
X0105Y01833D02*
X0102D01*
Y01803*
X01024Y01804*
X01033Y01808*
X0104Y01813*
X01046Y0182*
X01049Y01829*
X0105Y01833*
G37*
G36*
X0101D02*
X00981D01*
X00981Y01829*
X00985Y0182*
X0099Y01813*
X00998Y01808*
X01006Y01804*
X0101Y01803*
Y01833*
G37*
G36*
X02775Y01856D02*
X02768Y01855D01*
X02761Y01852*
X02755Y01848*
X02751Y01842*
X02748Y01835*
X02747Y01828*
X02748Y01821*
X02751Y01814*
X02755Y01809*
X02761Y01804*
X02768Y01801*
X02775Y018*
X02782Y01801*
X02789Y01804*
X02795Y01809*
X02799Y01814*
X02802Y01821*
X02803Y01828*
X02802Y01835*
X02799Y01842*
X02795Y01848*
X02789Y01852*
X02782Y01855*
X02775Y01856*
G37*
G36*
X0109Y01846D02*
X01083Y01845D01*
X01076Y01842*
X0107Y01838*
X01066Y01832*
X01063Y01826*
X01062Y01818*
X01063Y01811*
X01066Y01805*
X0107Y01799*
X01076Y01794*
X01083Y01792*
X0109Y01791*
X01097Y01792*
X01104Y01794*
X0111Y01799*
X01114Y01805*
X01117Y01811*
X01118Y01818*
X01117Y01826*
X01114Y01832*
X0111Y01838*
X01104Y01842*
X01097Y01845*
X0109Y01846*
G37*
G36*
X01307Y01842D02*
X01299Y01841D01*
X01293Y01839*
X01287Y01834*
X01283Y01828*
X0128Y01822*
X01279Y01814*
X0128Y01807*
X01283Y01801*
X01287Y01795*
X01293Y0179*
X01299Y01788*
X01307Y01787*
X01314Y01788*
X0132Y0179*
X01326Y01795*
X01331Y01801*
X01333Y01807*
X01334Y01814*
X01333Y01822*
X01331Y01828*
X01326Y01834*
X0132Y01839*
X01314Y01841*
X01307Y01842*
G37*
G36*
X00813Y01838D02*
X00806Y01837D01*
X00799Y01835*
X00794Y0183*
X00789Y01824*
X00786Y01818*
X00786Y01811*
X00786Y01803*
X00789Y01797*
X00794Y01791*
X00799Y01786*
X00806Y01784*
X00813Y01783*
X0082Y01784*
X00827Y01786*
X00833Y01791*
X00837Y01797*
X0084Y01803*
X00841Y01811*
X0084Y01818*
X00837Y01824*
X00833Y0183*
X00827Y01835*
X0082Y01837*
X00813Y01838*
G37*
G36*
X00679Y01838D02*
X00672Y01837D01*
X00665Y01834*
X00659Y0183*
X00655Y01824*
X00652Y01817*
X00651Y0181*
X00652Y01803*
X00655Y01796*
X00659Y0179*
X00665Y01786*
X00672Y01783*
X00679Y01782*
X00686Y01783*
X00693Y01786*
X00699Y0179*
X00703Y01796*
X00706Y01803*
X00707Y0181*
X00706Y01817*
X00703Y01824*
X00699Y0183*
X00693Y01834*
X00686Y01837*
X00679Y01838*
G37*
G36*
X03391Y01913D02*
X03384Y01912D01*
X03377Y01909*
X03371Y01905*
X03367Y01899*
X03364Y01892*
X03363Y01885*
X03364Y01878*
X03367Y01871*
X03371Y01865*
X03373Y01864*
Y01859*
X03371Y01857*
X03367Y01852*
X03364Y01845*
X03363Y01838*
X03364Y0183*
X03367Y01824*
X03371Y01818*
X03377Y01814*
X03379Y01813*
X03379Y01813*
X03379Y01807*
X03375Y01804*
X03371Y01798*
X03368Y01792*
X03367Y01785*
X03368Y01777*
X03371Y01771*
X03375Y01765*
X03381Y0176*
X03388Y01758*
X03395Y01757*
X03402Y01758*
X03409Y0176*
X03414Y01765*
X03419Y01771*
X03422Y01777*
X03423Y01785*
X03422Y01792*
X03419Y01798*
X03414Y01804*
X03409Y01809*
X03407Y01809*
X03407Y0181*
X03406Y01815*
X0341Y01818*
X03415Y01824*
X03418Y0183*
X03419Y01838*
X03418Y01845*
X03415Y01852*
X0341Y01857*
X03409Y01859*
Y01864*
X0341Y01865*
X03415Y01871*
X03418Y01878*
X03419Y01885*
X03418Y01892*
X03415Y01899*
X0341Y01905*
X03405Y01909*
X03398Y01912*
X03391Y01913*
G37*
G36*
X01374Y0185D02*
X01366Y01849D01*
X0136Y01846*
X01354Y01842*
X01349Y01836*
X01347Y0183*
X01346Y01822*
X01347Y01815*
X01349Y01808*
X01354Y01803*
X0136Y01798*
X01366Y01795*
X01369Y01795*
X01372Y0179*
X0137Y01786*
X01369Y01779*
X0137Y01772*
X01373Y01765*
X01377Y01759*
X01383Y01755*
X0139Y01752*
X01397Y01751*
X01404Y01752*
X01411Y01755*
X01417Y01759*
X01421Y01765*
X01424Y01772*
X01425Y01779*
X01424Y01786*
X01421Y01793*
X01417Y01799*
X01411Y01803*
X01404Y01806*
X01402Y01806*
X01399Y01812*
X014Y01815*
X01401Y01822*
X014Y0183*
X01398Y01836*
X01393Y01842*
X01387Y01846*
X01381Y01849*
X01374Y0185*
G37*
G36*
X0148Y01764D02*
X01473Y01763D01*
X01466Y0176*
X0146Y01755*
X01456Y0175*
X01453Y01743*
X01452Y01736*
X01453Y01729*
X01456Y01722*
X0146Y01716*
X01466Y01712*
X01473Y01709*
X0148Y01708*
X01487Y01709*
X01494Y01712*
X01499Y01716*
X01504Y01722*
X01507Y01729*
X01508Y01736*
X01507Y01743*
X01504Y0175*
X01499Y01755*
X01494Y0176*
X01487Y01763*
X0148Y01764*
G37*
G36*
X0122Y01704D02*
X01213Y01704D01*
X01206Y01701*
X012Y01696*
X01198Y01693*
X01193Y01692*
X01192Y01693*
X01187Y01697*
X0118Y017*
X01173Y01701*
X01166Y017*
X01159Y01697*
X01153Y01692*
X01149Y01687*
X01146Y0168*
X01145Y01675*
X01141Y01672*
X0114Y01672*
X01133Y01673*
X01126Y01672*
X01119Y01669*
X01114Y01665*
X01109Y01659*
X01107Y01652*
X01106Y01645*
X01107Y01638*
X01109Y01631*
X01114Y01626*
X01119Y01621*
X01126Y01618*
X01133Y01617*
X01141Y01618*
X01147Y01621*
X01153Y01626*
X01157Y01631*
X0116Y01638*
X01161Y01642*
X01165Y01646*
X01166Y01646*
X01173Y01645*
X0118Y01646*
X01187Y01649*
X01192Y01653*
X01195Y01656*
X012Y01657*
X01201Y01656*
X01206Y01653*
X01213Y0165*
X0122Y01649*
X01227Y0165*
X01234Y01653*
X0124Y01657*
X01244Y01663*
X01247Y01669*
X01248Y01677*
X01247Y01684*
X01244Y01691*
X0124Y01696*
X01234Y01701*
X01227Y01704*
X0122Y01704*
G37*
G36*
X01397Y0174D02*
X0139Y01739D01*
X01383Y01736*
X01377Y01732*
X01373Y01726*
X0137Y01719*
X01369Y01712*
X0137Y01705*
X01373Y01698*
X01377Y01692*
X01383Y01688*
X0139Y01685*
X01397Y01684*
X01404Y01685*
X01411Y01688*
X01417Y01692*
X01421Y01698*
X01424Y01705*
X01425Y01712*
X01424Y01719*
X01421Y01726*
X01417Y01732*
X01411Y01736*
X01404Y01739*
X01397Y0174*
G37*
G36*
X00657Y01736D02*
X0065Y01735D01*
X00643Y01732*
X00637Y01727*
X00633Y01722*
X0063Y01715*
X00629Y01708*
X0063Y01701*
X00633Y01694*
X00637Y01688*
X00643Y01684*
X0065Y01681*
X00657Y0168*
X00664Y01681*
X00671Y01684*
X00677Y01688*
X00681Y01694*
X00684Y01701*
X00685Y01708*
X00684Y01715*
X00681Y01722*
X00677Y01727*
X00671Y01732*
X00664Y01735*
X00657Y01736*
G37*
G36*
X03409Y01716D02*
X03402Y01715D01*
X03395Y01713*
X03389Y01708*
X03385Y01702*
X03382Y01696*
X03381Y01688*
X03382Y01681*
X03385Y01675*
X03389Y01669*
X03395Y01664*
X03402Y01662*
X03409Y01661*
X03416Y01662*
X03423Y01664*
X03429Y01669*
X03433Y01675*
X03436Y01681*
X03437Y01688*
X03436Y01696*
X03433Y01702*
X03429Y01708*
X03423Y01713*
X03416Y01715*
X03409Y01716*
G37*
G36*
X00813Y01712D02*
X00806Y01711D01*
X00799Y01709*
X00794Y01704*
X00789Y01698*
X00786Y01692*
X00786Y01685*
X00786Y01677*
X00789Y01671*
X00794Y01665*
X00799Y0166*
X00806Y01658*
X00813Y01657*
X0082Y01658*
X00827Y0166*
X00833Y01665*
X00837Y01671*
X0084Y01677*
X00841Y01685*
X0084Y01692*
X00837Y01698*
X00833Y01704*
X00827Y01709*
X0082Y01711*
X00813Y01712*
G37*
G36*
X00586Y01708D02*
X00579Y01707D01*
X00572Y01704*
X00566Y017*
X00562Y01694*
X00559Y01687*
X00558Y0168*
X00559Y01673*
X00562Y01666*
X00566Y01661*
X00572Y01656*
X00579Y01653*
X00586Y01652*
X00593Y01653*
X006Y01656*
X00606Y01661*
X0061Y01666*
X00613Y01673*
X00614Y0168*
X00613Y01687*
X0061Y01694*
X00606Y017*
X006Y01704*
X00593Y01707*
X00586Y01708*
G37*
G36*
X03216Y01681D02*
X03209Y0168D01*
X03202Y01677*
X03196Y01673*
X03192Y01667*
X03189Y0166*
X03188Y01653*
X03189Y01646*
X03192Y01639*
X03196Y01633*
X03202Y01629*
X03209Y01626*
X03216Y01625*
X03223Y01626*
X0323Y01629*
X03236Y01633*
X0324Y01639*
X03243Y01646*
X03244Y01653*
X03243Y0166*
X0324Y01667*
X03236Y01673*
X0323Y01677*
X03223Y0168*
X03216Y01681*
G37*
G36*
X02665Y01653D02*
X02658Y01652D01*
X02651Y0165*
X02645Y01645*
X02641Y01639*
X02638Y01633*
X02637Y01625*
X02638Y01618*
X02641Y01612*
X02645Y01606*
X02651Y01601*
X02658Y01599*
X02665Y01598*
X02672Y01599*
X02679Y01601*
X02685Y01606*
X02689Y01612*
X02691Y01617*
X02696Y01616*
X02697Y0161*
X027Y01604*
X02704Y01598*
X0271Y01594*
X02717Y01591*
X02724Y0159*
X02731Y01591*
X02738Y01594*
X02744Y01598*
X02748Y01604*
X02751Y0161*
X02752Y01618*
X02751Y01625*
X02748Y01632*
X02744Y01637*
X02738Y01642*
X02731Y01644*
X02724Y01645*
X02717Y01644*
X0271Y01642*
X02704Y01637*
X027Y01632*
X02698Y01626*
X02692Y01627*
X02692Y01633*
X02689Y01639*
X02685Y01645*
X02679Y0165*
X02672Y01652*
X02665Y01653*
G37*
G36*
X0144Y01641D02*
X01433Y01641D01*
X01427Y01638*
X01421Y01633*
X01416Y01628*
X01414Y01621*
X01413Y01614*
X01414Y01606*
X01416Y016*
X01421Y01594*
X01427Y0159*
X01433Y01587*
X0144Y01586*
X01448Y01587*
X01454Y0159*
X0146Y01594*
X01465Y016*
X01467Y01606*
X01468Y01614*
X01467Y01621*
X01465Y01628*
X0146Y01633*
X01454Y01638*
X01448Y01641*
X0144Y01641*
G37*
G36*
X02519Y01683D02*
X02512Y01682D01*
X02505Y01679*
X025Y01675*
X02495Y01669*
X02492Y01663*
X02491Y01655*
X02492Y01648*
X02495Y01642*
X025Y01636*
X02499Y0163*
X02497Y01628*
X02493Y01622*
X0249Y01615*
X02489Y01608*
X0249Y01601*
X02493Y01594*
X02497Y01589*
X02503Y01584*
X02509Y01581*
X02517Y0158*
X02524Y01581*
X0253Y01584*
X02536Y01589*
X02541Y01594*
X02543Y01601*
X02544Y01608*
X02543Y01615*
X02541Y01622*
X02536Y01628*
X02536Y01634*
X02539Y01636*
X02543Y01642*
X02546Y01648*
X02547Y01655*
X02546Y01663*
X02543Y01669*
X02539Y01675*
X02533Y01679*
X02526Y01682*
X02519Y01683*
G37*
G36*
X01082Y01618D02*
X01075Y01617D01*
X01068Y01614*
X01063Y0161*
X01058Y01604*
X01055Y01597*
X01054Y0159*
X01055Y01583*
X01058Y01576*
X01063Y0157*
X01068Y01566*
X01075Y01563*
X01082Y01562*
X01089Y01563*
X01096Y01566*
X01102Y0157*
X01106Y01576*
X01109Y01583*
X0111Y0159*
X01109Y01597*
X01106Y01604*
X01102Y0161*
X01096Y01614*
X01089Y01617*
X01082Y01618*
G37*
G36*
X015Y01582D02*
X01492Y01581D01*
X01486Y01579*
X0148Y01574*
X01475Y01569*
X01473Y01562*
X01472Y01555*
X01473Y01547*
X01475Y01541*
X0148Y01535*
X01486Y01531*
X01492Y01528*
X015Y01527*
X01507Y01528*
X01513Y01531*
X01519Y01535*
X01524Y01541*
X01526Y01547*
X01527Y01555*
X01526Y01562*
X01524Y01569*
X01519Y01574*
X01513Y01579*
X01507Y01581*
X015Y01582*
G37*
G36*
X02696Y01575D02*
X02688Y01574D01*
X02682Y01571*
X02676Y01566*
X02671Y01561*
X02669Y01554*
X02668Y01547*
X02669Y0154*
X02671Y01533*
X02676Y01527*
X02682Y01523*
X02688Y0152*
X02696Y01519*
X02703Y0152*
X02709Y01523*
X02715Y01527*
X0272Y01533*
X02722Y0154*
X02723Y01547*
X02722Y01554*
X0272Y01561*
X02715Y01566*
X02709Y01571*
X02703Y01574*
X02696Y01575*
G37*
G36*
X02665Y01512D02*
X02658Y01511D01*
X02651Y01508*
X02645Y01503*
X02642Y01499*
X02638Y01498*
X02636Y01498*
X02635Y01499*
X02629Y01504*
X02622Y01507*
X02615Y01508*
X02608Y01507*
X02601Y01504*
X02595Y01499*
X02591Y01494*
X02588Y01487*
X02587Y0148*
X02588Y01473*
X02591Y01466*
X02595Y0146*
X02596Y0146*
Y01454*
X02594Y01452*
X0259Y01446*
X02587Y0144*
X02586Y01433*
X02587Y01425*
X0259Y01419*
X02594Y01413*
X026Y01409*
X02606Y01406*
X02609Y01405*
X02611Y01401*
X02609Y01399*
X02607Y01393*
X02606Y01385*
X02607Y01378*
X02609Y01371*
X02614Y01366*
X02619Y01361*
X02626Y01358*
X02633Y01358*
X02635Y01358*
X02638Y01353*
X02637Y01352*
X02634Y01345*
X02633Y01338*
X02634Y01331*
X02637Y01324*
X02641Y01318*
X02647Y01314*
X02654Y01311*
X02658Y01311*
X02661Y01306*
X02662Y01305*
X02661Y01299*
X02662Y01292*
X02664Y01285*
X02669Y01279*
X02675Y01275*
X02681Y01272*
X02688Y01271*
X02691Y01271*
X02696Y01267*
X02697Y0126*
X027Y01253*
X02701Y01252*
X02701Y01251*
X02699Y01246*
X02694Y01244*
X02689Y0124*
X02684Y01234*
X02681Y01227*
X0268Y0122*
X02681Y01213*
X02684Y01206*
X02689Y012*
X02694Y01196*
X02701Y01193*
X02708Y01192*
X02715Y01193*
X02722Y01196*
X02728Y012*
X02732Y01206*
X02735Y01213*
X02736Y0122*
X02735Y01227*
X02732Y01234*
X02731Y01235*
X02731Y01236*
X02733Y01241*
X02738Y01243*
X02743Y01248*
X02748Y01253*
X02751Y0126*
X02752Y01267*
X02751Y01274*
X02748Y01281*
X02743Y01287*
X02738Y01291*
X02731Y01294*
X02724Y01295*
X02721Y01295*
X02716Y01299*
X02715Y01306*
X02713Y01313*
X02708Y01318*
X02702Y01323*
X02696Y01326*
X02691Y01326*
X02688Y01331*
X02688Y01331*
X02689Y01338*
X02688Y01345*
X02685Y01352*
X02681Y01358*
X02675Y01362*
X02668Y01365*
X02661Y01366*
X02659Y01366*
X02657Y0137*
X02657Y01371*
X0266Y01378*
X02661Y01385*
X0266Y01393*
X02657Y01399*
X02653Y01405*
X02647Y01409*
X02641Y01412*
X02638Y01412*
X02637Y01417*
X02638Y01419*
X02641Y01425*
X02641Y01433*
X02641Y0144*
X02638Y01446*
X02633Y01452*
X02633Y01453*
Y01459*
X02635Y0146*
X02638Y01465*
X02642Y01466*
X02644Y01465*
X02645Y01464*
X02651Y0146*
X02658Y01457*
X02665Y01456*
X02672Y01457*
X02679Y0146*
X02685Y01464*
X02689Y0147*
X02692Y01477*
X02693Y01484*
X02692Y01491*
X02689Y01498*
X02685Y01503*
X02679Y01508*
X02672Y01511*
X02665Y01512*
G37*
G36*
X03287Y01545D02*
X0328Y01544D01*
X03273Y01542*
X03267Y01537*
X03263Y01532*
X0326Y01525*
X03259Y01518*
X0326Y0151*
X03263Y01504*
X03267Y01498*
X03273Y01494*
X0328Y01491*
X03287Y0149*
X03294Y01491*
X03301Y01494*
X03307Y01498*
X03311Y01504*
X03314Y0151*
X03315Y01518*
X03314Y01525*
X03311Y01532*
X03307Y01537*
X03301Y01542*
X03294Y01544*
X03287Y01545*
G37*
G36*
X03385Y01527D02*
X03378Y01526D01*
X03371Y01524*
X03366Y01519*
X03361Y01513*
X03358Y01507*
X03358Y015*
X03358Y01492*
X03361Y01486*
X03366Y0148*
X03371Y01475*
X03378Y01473*
X03385Y01472*
X03393Y01473*
X03399Y01475*
X03405Y0148*
X03409Y01486*
X03412Y01492*
X03413Y015*
X03412Y01507*
X03409Y01513*
X03405Y01519*
X03399Y01524*
X03393Y01526*
X03385Y01527*
G37*
G36*
X02908Y01512D02*
X02901Y01511D01*
X02894Y01508*
X02889Y01503*
X02884Y01498*
X02881Y01491*
X0288Y01484*
X02881Y01477*
X02884Y0147*
X02889Y01464*
X02894Y0146*
X02901Y01457*
X02908Y01456*
X02915Y01457*
X02922Y0146*
X02928Y01464*
X02932Y0147*
X02935Y01477*
X02936Y01484*
X02935Y01491*
X02932Y01498*
X02928Y01503*
X02922Y01508*
X02915Y01511*
X02908Y01512*
G37*
G36*
X01259Y01547D02*
X01252Y01546D01*
X01245Y01543*
X0124Y01539*
X01235Y01533*
X01232Y01526*
X01232Y01519*
X01232Y01512*
X01235Y01505*
X0124Y015*
X01245Y01495*
X01252Y01492*
X01259Y01491*
X01267Y01492*
X01273Y01495*
X01274Y01496*
X01278Y01493*
X01276Y01487*
X01275Y0148*
X01276Y01473*
X01279Y01466*
X01283Y0146*
X01289Y01456*
X01295Y01453*
X01303Y01452*
X0131Y01453*
X01317Y01456*
X01322Y0146*
X01327Y01466*
X0133Y01473*
X0133Y0148*
X0133Y01487*
X01327Y01494*
X01322Y01499*
X01317Y01504*
X0131Y01507*
X01303Y01508*
X01295Y01507*
X01289Y01504*
X01288Y01503*
X01284Y01506*
X01286Y01512*
X01287Y01519*
X01286Y01526*
X01283Y01533*
X01279Y01539*
X01273Y01543*
X01267Y01546*
X01259Y01547*
G37*
G36*
X02744Y01496D02*
X02736Y01495D01*
X0273Y01492*
X02724Y01488*
X0272Y01482*
X02717Y01475*
X02716Y01468*
X02717Y01461*
X0272Y01454*
X02724Y01448*
X0273Y01444*
X02736Y01441*
X02744Y0144*
X02751Y01441*
X02757Y01444*
X02763Y01448*
X02768Y01454*
X0277Y01461*
X02771Y01468*
X0277Y01475*
X02768Y01482*
X02763Y01488*
X02757Y01492*
X02751Y01495*
X02744Y01496*
G37*
G36*
X01437Y01484D02*
X01429Y01483D01*
X01423Y0148*
X01417Y01476*
X01412Y0147*
X0141Y01463*
X01409Y01456*
X0141Y01449*
X01412Y01442*
X01417Y01437*
X01423Y01432*
X01429Y01429*
X01437Y01428*
X01444Y01429*
X0145Y01432*
X01456Y01437*
X01461Y01442*
X01463Y01449*
X01464Y01456*
X01463Y01463*
X01461Y0147*
X01456Y01476*
X0145Y0148*
X01444Y01483*
X01437Y01484*
G37*
G36*
X03354Y01472D02*
X03347Y01471D01*
X0334Y01468*
X03334Y01464*
X0333Y01458*
X03327Y01452*
X03326Y01444*
X03327Y01437*
X0333Y0143*
X03334Y01425*
X0334Y0142*
X03347Y01418*
X03354Y01417*
X03361Y01418*
X03368Y0142*
X03373Y01425*
X03378Y0143*
X03381Y01437*
X03382Y01444*
X03381Y01452*
X03378Y01458*
X03373Y01464*
X03368Y01468*
X03361Y01471*
X03354Y01472*
G37*
G36*
X00633Y01421D02*
X00626Y0142D01*
X00619Y01417*
X00614Y01413*
X0061Y01408*
X00609Y01407*
X00604Y01407*
X006Y01409*
X00593Y01412*
X00586Y01413*
X00579Y01412*
X00572Y01409*
X00566Y01405*
X00564Y01402*
X00559Y01401*
X00558Y01402*
X00553Y01405*
X00546Y01408*
X00539Y01409*
X00532Y01408*
X00525Y01405*
X00519Y01401*
X00515Y01395*
X00512Y01389*
X00511Y01381*
X00512Y01374*
X00515Y01367*
X00519Y01362*
X00525Y01357*
X00532Y01355*
X00539Y01354*
X00546Y01355*
X00553Y01357*
X00559Y01362*
X00561Y01365*
X00566Y01366*
X00567Y01365*
X00572Y01361*
X00579Y01358*
X00586Y01358*
X00593Y01358*
X006Y01361*
X00606Y01366*
X0061Y01371*
X00611Y01371*
X00616Y01372*
X00619Y01369*
X00626Y01366*
X00633Y01365*
X00641Y01366*
X00647Y01369*
X00653Y01374*
X00657Y01379*
X0066Y01386*
X00661Y01393*
X0066Y014*
X00657Y01407*
X00653Y01413*
X00647Y01417*
X00641Y0142*
X00633Y01421*
G37*
G36*
X00854Y01393D02*
X00847Y01392D01*
X0084Y0139*
X00834Y01385*
X0083Y0138*
X00827Y01373*
X00826Y01366*
X00827Y01358*
X0083Y01352*
X00834Y01346*
X0084Y01342*
X00847Y01339*
X00854Y01338*
X00861Y01339*
X00868Y01342*
X00873Y01346*
X00878Y01352*
X00881Y01358*
X00882Y01366*
X00881Y01373*
X00878Y0138*
X00873Y01385*
X00868Y0139*
X00861Y01392*
X00854Y01393*
G37*
G36*
X02755Y01425D02*
X02748Y01424D01*
X02742Y01421*
X02736Y01417*
X02731Y01411*
X02729Y01404*
X02728Y01397*
X02729Y0139*
X02731Y01383*
X02736Y01377*
X02742Y01373*
X02748Y0137*
X02755Y01369*
X02763Y0137*
X02763Y01371*
X02767Y01368*
X02767Y01366*
X02768Y01358*
X02771Y01352*
X02775Y01346*
X02781Y01342*
X02788Y01339*
X02795Y01338*
X02802Y01339*
X02809Y01342*
X02814Y01346*
X02817Y0135*
X02822Y01348*
X02823Y01343*
X02826Y01336*
X0283Y0133*
X02836Y01326*
X02843Y01323*
X0285Y01322*
X02857Y01323*
X02864Y01326*
X0287Y0133*
X02874Y01336*
X02877Y01343*
X02878Y0135*
X02877Y01357*
X02874Y01364*
X0287Y0137*
X02864Y01374*
X02857Y01377*
X0285Y01378*
X02843Y01377*
X02836Y01374*
X0283Y0137*
X02827Y01366*
X02822Y01367*
X02822Y01373*
X02819Y0138*
X02814Y01385*
X02809Y0139*
X02802Y01392*
X02795Y01393*
X02788Y01392*
X02787Y01392*
X02783Y01395*
X02783Y01397*
X02782Y01404*
X02779Y01411*
X02775Y01417*
X02769Y01421*
X02763Y01424*
X02755Y01425*
G37*
G36*
X00653Y01258D02*
X00646Y01257D01*
X00639Y01254*
X00633Y0125*
X00632Y01248*
X00627*
X00625Y0125*
X0062Y01254*
X00613Y01257*
X00606Y01258*
X00599Y01257*
X00592Y01254*
X00586Y0125*
X00582Y01244*
X00579Y01237*
X00578Y0123*
X00579Y01223*
X00582Y01216*
X00586Y01211*
X00588Y01209*
Y01204*
X00586Y01203*
X00582Y01197*
X00579Y0119*
X00578Y01183*
X00579Y01176*
X00582Y01169*
X00586Y01163*
X00592Y01159*
X00599Y01156*
X00606Y01155*
X00613Y01156*
X0062Y01159*
X00625Y01163*
X0063Y01169*
X00633Y01176*
X00634Y01183*
X00633Y0119*
X0063Y01197*
X00625Y01203*
X00624Y01204*
Y01209*
X00625Y01211*
X00627Y01212*
X00632*
X00633Y01211*
X00639Y01206*
X00646Y01203*
X00653Y01202*
X0066Y01203*
X00667Y01206*
X00673Y01211*
X00677Y01216*
X0068Y01223*
X00681Y0123*
X0068Y01237*
X00677Y01244*
X00673Y0125*
X00667Y01254*
X0066Y01257*
X00653Y01258*
G37*
G36*
X02901Y01307D02*
X02894Y01306D01*
X02887Y01303*
X02881Y01299*
X02877Y01293*
X02874Y01286*
X02873Y01279*
X02874Y01272*
X02877Y01265*
X02881Y01259*
X02887Y01255*
X02893Y01253*
X02894Y01251*
X02894Y0125*
X02894Y01247*
X02889Y01244*
X02885Y01238*
X02882Y01231*
X02881Y01224*
X02882Y01217*
X02885Y0121*
X02889Y01204*
X02895Y012*
X02902Y01197*
X02909Y01196*
X02916Y01197*
X02923Y012*
X02929Y01204*
X02933Y0121*
X02936Y01217*
X02937Y01224*
X02936Y01231*
X02933Y01238*
X02929Y01244*
X02923Y01248*
X02917Y0125*
X02916Y01252*
X02916Y01253*
X02916Y01256*
X02921Y01259*
X02925Y01265*
X02928Y01272*
X02929Y01279*
X02928Y01286*
X02925Y01293*
X02921Y01299*
X02915Y01303*
X02908Y01306*
X02901Y01307*
G37*
G36*
X0084Y01228D02*
X00833Y01227D01*
X00827Y01224*
X00821Y0122*
X00816Y01214*
X00814Y01207*
X00813Y012*
X00814Y01193*
X00816Y01186*
X00821Y01181*
X00827Y01176*
X00833Y01173*
X0084Y01172*
X00848Y01173*
X00854Y01176*
X0086Y01181*
X00865Y01186*
X00867Y01193*
X00868Y012*
X00867Y01207*
X00865Y01214*
X0086Y0122*
X00854Y01224*
X00848Y01227*
X0084Y01228*
G37*
G36*
X02925Y01149D02*
X02918Y01148D01*
X02911Y01146*
X02905Y01141*
X02901Y01135*
X02898Y01129*
X02897Y01122*
X02898Y01114*
X02901Y01108*
X02905Y01102*
X02905Y01102*
X02904Y01096*
X02899Y01094*
X02893Y0109*
X02889Y01084*
X02887Y01079*
X02882Y01078*
X02881*
X0288Y01079*
X02873Y01081*
X02866Y01082*
X02858Y01081*
X02852Y01079*
X02846Y01074*
X02842Y01069*
X02839Y01062*
X02838Y01055*
X02839Y01047*
X02842Y01041*
X02842Y0104*
X0284Y01035*
X02838Y01035*
X02831Y01034*
X02824Y01031*
X02818Y01027*
X02814Y01021*
X02811Y01015*
X0281Y01007*
X02811Y01*
X02814Y00993*
X02818Y00988*
X02824Y00983*
X02831Y00981*
X02838Y0098*
X02845Y00981*
X02852Y00983*
X02858Y00988*
X02862Y00993*
X02865Y01*
X02866Y01007*
X02865Y01015*
X02862Y01021*
X02861Y01022*
X02864Y01027*
X02866Y01027*
X02873Y01028*
X0288Y01031*
X02885Y01035*
X0289Y01041*
X02892Y01046*
X02896Y01047*
X02898*
X02899Y01046*
X02906Y01044*
X02913Y01043*
X0292Y01044*
X02927Y01046*
X02933Y01051*
X02937Y01056*
X0294Y01063*
X02941Y0107*
X0294Y01078*
X02937Y01084*
X02933Y0109*
X02932Y0109*
X02934Y01095*
X02939Y01097*
X02944Y01102*
X02949Y01108*
X02952Y01114*
X02952Y01122*
X02952Y01129*
X02949Y01135*
X02944Y01141*
X02939Y01146*
X02932Y01148*
X02925Y01149*
G37*
G36*
X00911Y0109D02*
X00904Y01089D01*
X00897Y01087*
X00892Y01082*
X00887Y01076*
X00884Y0107*
X00884Y01062*
X00884Y01055*
X00887Y01049*
X00892Y01043*
X00897Y01038*
X00904Y01036*
X00911Y01035*
X00919Y01036*
X00925Y01038*
X00931Y01043*
X00935Y01049*
X00938Y01055*
X00939Y01062*
X00938Y0107*
X00935Y01076*
X00931Y01082*
X00925Y01087*
X00919Y01089*
X00911Y0109*
G37*
G36*
X00636Y01031D02*
X00629Y0103D01*
X00622Y01028*
X00616Y01023*
X00612Y01017*
X00609Y01011*
X00608Y01003*
X00609Y00996*
X00612Y0099*
X00616Y00984*
X00622Y00979*
X00629Y00977*
X00636Y00976*
X00643Y00977*
X0065Y00979*
X00655Y00984*
X0066Y0099*
X00663Y00996*
X00664Y01003*
X00663Y01011*
X0066Y01017*
X00655Y01023*
X0065Y01028*
X00643Y0103*
X00636Y01031*
G37*
G36*
X01586Y01027D02*
X01579Y01026D01*
X01572Y01024*
X01566Y01019*
X01562Y01013*
X01559Y01007*
X01558Y01*
X01559Y00992*
X01562Y00986*
X01566Y0098*
X01572Y00975*
X01579Y00973*
X01586Y00972*
X01593Y00973*
X016Y00975*
X01606Y0098*
X0161Y00986*
X01613Y00992*
X01614Y01*
X01613Y01007*
X0161Y01013*
X01606Y01019*
X016Y01024*
X01593Y01026*
X01586Y01027*
G37*
G36*
X00545Y01023D02*
X00538Y01022D01*
X00531Y0102*
X00526Y01015*
X00521Y01009*
X00518Y01003*
X00517Y00996*
X00518Y00988*
X00521Y00982*
X00526Y00976*
X00531Y00971*
X00538Y00969*
X00545Y00968*
X00552Y00969*
X00559Y00971*
X00565Y00976*
X00569Y00982*
X00572Y00988*
X00573Y00996*
X00572Y01003*
X00569Y01009*
X00565Y01015*
X00559Y0102*
X00552Y01022*
X00545Y01023*
G37*
G36*
X01165Y0096D02*
X01158Y00959D01*
X01151Y00957*
X01145Y00952*
X01141Y00946*
X01138Y0094*
X01137Y00933*
X01138Y00925*
X01141Y00919*
X01145Y00913*
X01151Y00909*
X01158Y00906*
X01165Y00905*
X01172Y00906*
X01179Y00909*
X01185Y00913*
X01189Y00919*
X01192Y00925*
X01193Y00933*
X01192Y0094*
X01189Y00946*
X01185Y00952*
X01179Y00957*
X01172Y00959*
X01165Y0096*
G37*
G36*
X02822Y00968D02*
X02815Y00967D01*
X02808Y00965*
X02803Y0096*
X02798Y00954*
X02795Y00948*
X02795Y0094*
X02795Y00933*
X02798Y00927*
X02799Y00925*
X02798Y0092*
X02795Y0092*
X02789Y00917*
X02783Y00913*
X02779Y00907*
X02776Y009*
X02775Y00893*
X02776Y00886*
X02779Y00879*
X02783Y00874*
X02789Y00869*
X02795Y00866*
X02803Y00865*
X0281Y00866*
X02817Y00869*
X02822Y00874*
X02827Y00879*
X0283Y00886*
X0283Y00893*
X0283Y009*
X02827Y00907*
X02826Y00909*
X02827Y00913*
X0283Y00914*
X02836Y00916*
X02842Y00921*
X02846Y00927*
X02849Y00933*
X0285Y0094*
X02849Y00948*
X02846Y00954*
X02842Y0096*
X02836Y00965*
X0283Y00967*
X02822Y00968*
G37*
G36*
X00351Y00913D02*
X00344Y00912D01*
X00337Y00909*
X00331Y00905*
X00327Y00899*
X00324Y00893*
X00323Y00885*
X00324Y00878*
X00327Y00871*
X00331Y00866*
X00337Y00861*
X00344Y00858*
X00351Y00858*
X00358Y00858*
X00365Y00861*
X0037Y00866*
X00375Y00871*
X00378Y00878*
X00378Y00885*
X00378Y00893*
X00375Y00899*
X0037Y00905*
X00365Y00909*
X00358Y00912*
X00351Y00913*
G37*
G36*
X0109Y0083D02*
X01083Y0083D01*
X01076Y00827*
X0107Y00822*
X01066Y00817*
X01063Y0081*
X01062Y00803*
X01063Y00795*
X01066Y00789*
X0107Y00783*
X01076Y00779*
X01083Y00776*
X0109Y00775*
X01097Y00776*
X01104Y00779*
X0111Y00783*
X01114Y00789*
X01117Y00795*
X01118Y00803*
X01117Y0081*
X01114Y00817*
X0111Y00822*
X01104Y00827*
X01097Y0083*
X0109Y0083*
G37*
G36*
X01682Y00765D02*
Y00741D01*
X01706*
X01706Y00743*
X01703Y00751*
X01698Y00757*
X01692Y00762*
X01684Y00765*
X01682Y00765*
G37*
G36*
X01706Y00731D02*
X01682D01*
Y00706*
X01684Y00707*
X01692Y0071*
X01698Y00715*
X01703Y00721*
X01706Y00728*
X01706Y00731*
G37*
G36*
X00369Y00696D02*
X00364Y00695D01*
X00356Y00691*
X00349Y00686*
X00343Y00679*
X00339Y0067*
X00339Y00666*
X00369*
Y00696*
G37*
G36*
X01507Y00689D02*
X015Y00688D01*
X01493Y00685*
X01488Y00681*
X01483Y00675*
X01481Y00668*
X0148Y00661*
X01481Y00654*
X01483Y00647*
X01488Y00641*
X01493Y00637*
X015Y00634*
X01507Y00633*
X01515Y00634*
X01521Y00637*
X01527Y00641*
X01531Y00647*
X01534Y00654*
X01535Y00661*
X01534Y00668*
X01531Y00675*
X01527Y00681*
X01521Y00685*
X01515Y00688*
X01507Y00689*
G37*
G36*
X00379Y00696D02*
Y00661D01*
Y00626*
X00383Y00627*
X00391Y0063*
X00398Y00636*
X00404Y00643*
X00406Y00649*
X0044*
Y00673*
X00406*
X00404Y00679*
X00398Y00686*
X00391Y00691*
X00383Y00695*
X00379Y00696*
G37*
G36*
X00369Y00656D02*
X00339D01*
X00339Y00652*
X00343Y00643*
X00349Y00636*
X00356Y0063*
X00364Y00627*
X00369Y00626*
Y00656*
G37*
G36*
X01437Y00669D02*
X01429Y00668D01*
X01423Y00665*
X01417Y00661*
X01412Y00655*
X0141Y00648*
X01409Y00641*
X0141Y00634*
X01412Y00627*
X01417Y00622*
X01423Y00617*
X01429Y00614*
X01437Y00613*
X01444Y00614*
X0145Y00617*
X01456Y00622*
X01461Y00627*
X01463Y00634*
X01464Y00641*
X01463Y00648*
X01461Y00655*
X01456Y00661*
X0145Y00665*
X01444Y00668*
X01437Y00669*
G37*
G36*
X01976Y01811D02*
X01969Y0181D01*
X01962Y01807*
X01956Y01803*
X01952Y01797*
X01949Y0179*
X01948Y01783*
X01949Y01776*
X01952Y01769*
X01956Y01763*
X01962Y01759*
X01969Y01756*
X01976Y01755*
X01983Y01756*
X0199Y01759*
X01996Y01763*
X02Y01769*
X02003Y01776*
X02004Y01783*
X02003Y0179*
X02Y01797*
X01996Y01803*
X0199Y01807*
X01983Y0181*
X01976Y01811*
G37*
G36*
X01924Y0171D02*
X01921Y0171D01*
X01914Y01707*
X01907Y01702*
X01903Y01696*
X019Y01689*
X01899Y01686*
X01924*
Y0171*
G37*
G36*
X01765Y01484D02*
X01758Y01483D01*
X01751Y0148*
X01745Y01476*
X01741Y0147*
X01738Y01463*
X01737Y01456*
X01738Y01449*
X01741Y01442*
X01745Y01437*
X01751Y01432*
X01758Y01429*
X01765Y01428*
X01772Y01429*
X01779Y01432*
X01785Y01437*
X01789Y01442*
X01792Y01449*
X01793Y01456*
X01792Y01463*
X01789Y0147*
X01785Y01476*
X01779Y0148*
X01772Y01483*
X01765Y01484*
G37*
G36*
X01645Y01425D02*
X01638Y01424D01*
X01631Y01421*
X01626Y01417*
X01621Y01411*
X01618Y01404*
X01617Y01397*
X01618Y0139*
X01621Y01383*
X01626Y01377*
X01631Y01373*
X01638Y0137*
X01645Y01369*
X01652Y0137*
X01659Y01373*
X01665Y01377*
X01669Y01383*
X01672Y0139*
X01673Y01397*
X01672Y01404*
X01669Y01411*
X01665Y01417*
X01659Y01421*
X01652Y01424*
X01645Y01425*
G37*
G36*
X01653Y01358D02*
X01646Y01357D01*
X01639Y01354*
X01633Y0135*
X01629Y01344*
X01626Y01337*
X01625Y0133*
X01626Y01323*
X01629Y01316*
X01633Y01311*
X01639Y01306*
X01646Y01303*
X01653Y01302*
X0166Y01303*
X01667Y01306*
X01673Y01311*
X01677Y01316*
X0168Y01323*
X01681Y0133*
X0168Y01337*
X01677Y01344*
X01673Y0135*
X01667Y01354*
X0166Y01357*
X01653Y01358*
G37*
G36*
X01751Y0122D02*
X01744Y01219D01*
X01738Y01216*
X01732Y01212*
X01727Y01206*
X01725Y012*
X01724Y01192*
X01725Y01185*
X01727Y01179*
X01732Y01173*
X01738Y01168*
X01744Y01166*
X01751Y01165*
X01759Y01166*
X01765Y01168*
X01771Y01173*
X01776Y01179*
X01778Y01185*
X01779Y01192*
X01778Y012*
X01776Y01206*
X01771Y01212*
X01765Y01216*
X01759Y01219*
X01751Y0122*
G37*
G36*
X0159Y01185D02*
X01583Y01184D01*
X01576Y01181*
X0157Y01177*
X01566Y01171*
X01563Y01164*
X01562Y01157*
X01563Y0115*
X01566Y01143*
X0157Y01137*
X01576Y01133*
X01583Y0113*
X0159Y01129*
X01597Y0113*
X01604Y01133*
X0161Y01137*
X01614Y01143*
X01617Y0115*
X01618Y01157*
X01617Y01164*
X01614Y01171*
X0161Y01177*
X01604Y01181*
X01597Y01184*
X0159Y01185*
G37*
G36*
X01693Y0171D02*
Y01686D01*
X01718*
X01717Y01689*
X01714Y01696*
X0171Y01702*
X01703Y01707*
X01696Y0171*
X01693Y0171*
G37*
G36*
X01718Y01676D02*
X01693D01*
Y01652*
X01696Y01652*
X01703Y01655*
X0171Y0166*
X01714Y01666*
X01717Y01673*
X01718Y01676*
G37*
G36*
X02243Y00779D02*
X02236Y00778D01*
X02229Y00776*
X02223Y00771*
X02219Y00765*
X02216Y00759*
X02215Y00751*
X02216Y00744*
X02219Y00738*
X02223Y00732*
X02229Y00727*
X02236Y00725*
X02243Y00724*
X0225Y00725*
X02257Y00727*
X02263Y00732*
X02267Y00738*
X0227Y00744*
X02271Y00751*
X0227Y00759*
X02267Y00765*
X02263Y00771*
X02257Y00776*
X0225Y00778*
X02243Y00779*
G37*
%LNnucleoclone-3*%
%LPD*%
G54D10*
X02385Y0193D02*
Y01956D01*
Y0193D02*
X02387Y01928D01*
Y01902D02*
Y01928D01*
X02385Y019D02*
X02387Y01902D01*
X02385Y01576D02*
Y019D01*
X01433Y00736D02*
X0167D01*
X01358Y00661D02*
X01433Y00736D01*
X01011Y00661D02*
X01358D01*
X00165Y02081D02*
X00264D01*
X03196Y00527D02*
Y00582D01*
X02437Y00287D02*
X02503Y00354D01*
X02845*
X03161Y0067*
Y01114*
X03145Y00677D02*
Y01514D01*
X03161Y01114D02*
X03405Y01358D01*
X00374Y00661D02*
X0048D01*
X03098Y00175D02*
X03103Y0017D01*
X03098Y00175D02*
Y00283D01*
X00421Y01039D02*
X00448Y01011D01*
X00421Y01039D02*
Y01837D01*
X00563Y0198*
X01451*
X01539Y02068*
Y02271*
X01771Y02503*
Y02503*
X01811Y02543*
X00405Y01019D02*
Y01844D01*
X00557Y01996*
X01444*
X01523Y02074*
Y023*
X0174Y02516*
X02316Y02328D02*
X02318Y0233D01*
X02316Y0219D02*
Y02328D01*
Y0219D02*
X0236Y02147D01*
Y02094D02*
Y02147D01*
X02421Y0033D02*
X02433D01*
X02472Y0037*
X02838*
X03145Y00677*
Y01514D02*
X03149Y01518D01*
Y01551*
X03133Y01566D02*
X03149Y01551D01*
X0309Y01566D02*
X03133D01*
X02996Y01661D02*
X0309Y01566D01*
X03074Y01263D02*
Y01555D01*
X03059Y01292D02*
Y01547D01*
X02976Y01629D02*
X03059Y01547D01*
X02917Y01661D02*
X02996D01*
X02894Y01629D02*
X02976D01*
X02712Y01811D02*
X02894Y01629D01*
X02869Y01709D02*
X02917Y01661D01*
X02869Y01709D02*
Y01896D01*
X02712Y01811D02*
Y01834D01*
X01953Y00355D02*
Y00377D01*
X01984Y00408*
Y00429*
X02078Y00523*
Y0077*
X02103Y00794*
Y01128*
X02341Y01366*
X02348*
X02405Y01423*
Y01512*
X02374Y01459D02*
Y01499D01*
X02389Y01452D02*
Y01506D01*
X02421Y01404D02*
Y01519D01*
X02362Y01425D02*
X02389Y01452D01*
X02346Y01431D02*
X02374Y01459D01*
X02366Y01552D02*
X02405Y01512D01*
X02366Y01552D02*
Y01578D01*
Y01578*
Y01703*
X02326Y01547D02*
Y01564D01*
X0232Y01531D02*
X02358Y01493D01*
X02279Y01531D02*
X0232D01*
X02358Y01465D02*
Y01493D01*
X0233Y01438D02*
X02358Y01465D01*
X02326Y01547D02*
X02374Y01499D01*
X0235Y01545D02*
X02389Y01506D01*
X0235Y01545D02*
Y01585D01*
X02381Y01558D02*
X02421Y01519D01*
X02381Y01558D02*
Y01572D01*
X0235Y01585D02*
Y01585D01*
Y01671*
X02381Y01572D02*
X02385Y01576D01*
X02307Y01713D02*
X0235Y01671D01*
X02229Y01661D02*
X02326Y01564D01*
X0233Y01429D02*
Y01438D01*
X02346Y01422D02*
Y01431D01*
X02362Y01409D02*
Y01425D01*
X02087Y01134D02*
X02362Y01409D01*
X02071Y01147D02*
X02346Y01422D01*
X02055Y01154D02*
X0233Y01429D01*
X02232Y01511D02*
X02244Y015D01*
Y01463D02*
Y015D01*
Y01463D02*
X02255Y01451D01*
Y01377D02*
Y01451D01*
X02212Y01374D02*
Y01458D01*
X02051Y01251D02*
X02149Y0135D01*
X02171Y01345D02*
Y01484D01*
X02232Y01511D02*
Y01527D01*
X02149Y0135D02*
Y01393D01*
X02212Y01374D02*
X0222Y01366D01*
X02024Y0117D02*
X0222Y01366D01*
X0204Y01162D02*
X02255Y01377D01*
X02023Y01503D02*
X02161Y01641D01*
X02098Y01444D02*
X02149Y01393D01*
X01992Y01456D02*
Y01507D01*
X02098Y01444D02*
Y01476D01*
X01972Y01405D02*
X02011Y01444D01*
Y01483*
X02023Y01494*
Y01503*
X01907Y01474D02*
X0194Y01507D01*
X02008Y01182D02*
X02171Y01345D01*
X01972Y0135D02*
X01996Y01326D01*
X01972Y0135D02*
Y01405D01*
X02318Y0175D02*
X02366Y01703D01*
X02318Y0175D02*
Y01831D01*
X02356Y01869*
Y01915*
X02377Y0136D02*
X02421Y01404D01*
X02377Y00108D02*
Y0136D01*
X01924Y00457D02*
X01944Y00437D01*
X01924Y00457D02*
Y00782D01*
X01948Y00807*
X0194Y005D02*
X0196Y0048D01*
X0194Y005D02*
Y00765D01*
X01964Y00789*
Y00791*
X01956Y00555D02*
X01988Y00523D01*
X01956Y00555D02*
Y00759D01*
X01971Y00606D02*
X02015Y00562D01*
X01971Y00606D02*
Y00752D01*
X01987Y00643D02*
X02015Y00614D01*
X01987Y00643D02*
Y00746D01*
X02003Y00681D02*
X02027Y00657D01*
X02019Y00701D02*
Y00733D01*
Y00701D02*
X02022D01*
X02003Y00681D02*
Y00739D01*
X02019Y00733D02*
X02087Y00801D01*
Y01134*
X02295Y01713D02*
X02307D01*
X0229Y01718D02*
X02295Y01713D01*
X02264Y01718D02*
X0229D01*
X0225Y01704D02*
X02264Y01718D01*
X02196Y01704D02*
X0225D01*
X02003Y00739D02*
X02071Y00807D01*
Y01147*
X01987Y00746D02*
X02055Y00814D01*
Y01154*
X02348Y00078D02*
X02377Y00108D01*
X01971Y00752D02*
X0204Y00821D01*
Y01162*
X01956Y00759D02*
X02024Y00827D01*
Y0117*
X01964Y00791D02*
X02008Y00835D01*
Y01182*
X01275Y01015D02*
Y01039D01*
X01216Y01098D02*
X01275Y01039D01*
X01216Y01098D02*
Y01283D01*
X01322Y01389*
X01438*
X01633Y01585*
X01291Y0122D02*
X01649Y01578D01*
Y01704*
X01633Y01585D02*
Y01711D01*
X01736Y01813*
Y01909*
X02161Y01816D02*
X0222Y01875D01*
X02161Y01641D02*
Y01816D01*
X01724Y0085D02*
Y00996D01*
X01669Y01051D02*
X01724Y00996D01*
X01669Y01051D02*
Y01259D01*
X01948Y00807D02*
X01952D01*
X01984Y00839*
Y00975*
X01992Y00983*
Y01009*
X01976Y01024D02*
X01992Y01009D01*
X01976Y01024D02*
Y01196D01*
X02031Y01251*
X02051*
X01283Y01277D02*
X0134Y01334D01*
X01283Y01254D02*
Y01277D01*
X01248Y01219D02*
X01283Y01254D01*
X01248Y01089D02*
Y01219D01*
Y01089D02*
X01266Y0107D01*
X01586*
X01692Y00964*
X0148Y01326D02*
X01669Y01515D01*
X0148Y01141D02*
Y01326D01*
X01925Y00897D02*
X01952Y0087D01*
X01925Y00897D02*
Y00989D01*
X01929Y00993*
Y01009*
X01944Y01024*
Y01181*
X01917Y01019D02*
Y01289D01*
X0185Y00937D02*
X01913Y01D01*
X01901Y01026D02*
Y01283D01*
X01897Y01022D02*
X01901Y01026D01*
X01897Y01011D02*
Y01022D01*
X01822Y00937D02*
X01897Y01011D01*
X01913Y01015D02*
X01917Y01019D01*
X01913Y01D02*
Y01015D01*
X01944Y01181D02*
D01*
Y01211*
X0198Y01246*
Y01314*
X01996Y0124D02*
Y01326D01*
X0196Y01204D02*
X01996Y0124D01*
X0196Y00996D02*
Y01204D01*
X01952Y01342D02*
X0198Y01314D01*
X01952Y01342D02*
Y01417D01*
X01992Y01456*
X01907Y01299D02*
Y01474D01*
X01608Y00078D02*
X0161D01*
X01657Y00125*
Y00228*
X01822Y00393*
Y00937*
X01858Y00921D02*
Y00929D01*
X0185Y00937D02*
X01858Y00929D01*
X01799Y00909D02*
Y0094D01*
X01875Y01017D02*
Y0124D01*
X01799Y0094D02*
X01875Y01017D01*
Y0124D02*
X01885Y0125D01*
X01891Y01293D02*
X01901Y01283D01*
X01907Y01299D02*
X01917Y01289D01*
X01875Y01286D02*
X01885Y01276D01*
Y0125D02*
Y01276D01*
X01891Y01293D02*
Y01592D01*
X02Y017*
X03141Y02292D02*
X03198Y02235D01*
X03141Y02292D02*
Y02438D01*
X03157Y02453*
Y02708*
X01937Y02398D02*
Y02519D01*
X01921Y02383D02*
X01937Y02398D01*
X01921Y02278D02*
Y02383D01*
X02027Y01958D02*
X02171D01*
X01921Y02278D02*
X0222Y01978D01*
Y01875D02*
Y01978D01*
X01875Y01286D02*
Y01752D01*
X02425Y00385D02*
X02826D01*
X03044Y00603*
Y01249*
X03043Y0125D02*
X03044Y01249D01*
X03043Y0125D02*
Y01276D01*
X03059Y01292*
X02208Y00078D02*
X02348D01*
X0235Y01991D02*
X02385Y01956D01*
X0235Y01991D02*
Y02047D01*
X01291Y0111D02*
Y0122D01*
X01649Y01704D02*
X01771Y01826D01*
X0185*
X02027Y02003*
X02173*
X02204Y01972*
Y01929D02*
Y01972D01*
X0219Y01915D02*
X02204Y01929D01*
X02093Y01915D02*
X0219D01*
X01334Y01118D02*
Y01236D01*
X01791Y01692*
Y01722*
X02027Y01958*
X03198Y02235D02*
X0321Y02248D01*
X03251*
X03521Y01978*
Y01399D02*
Y01978D01*
X03389Y01267D02*
X03521Y01399D01*
X03389Y01106D02*
Y01267D01*
X02854Y02748D02*
X02933D01*
X02822Y02716D02*
X02854Y02748D01*
X02822Y01729D02*
Y02716D01*
Y01729D02*
X02907Y01645D01*
X02984*
X03074Y01555*
X0309Y01875D02*
Y02401D01*
X03106Y02074D02*
Y02909D01*
Y02074D02*
X03228Y01952D01*
Y01717D02*
Y01952D01*
X03003Y02452D02*
X03039D01*
X0309Y02401*
X02992Y0244D02*
X03003Y02452D01*
X03366Y01578D02*
X03411D01*
X03228Y01717D02*
X03366Y01578D01*
X0309Y01875D02*
X03149Y01816D01*
Y01653D02*
Y01816D01*
X02972Y0244D02*
X02992D01*
G54D59*
X03103Y0017D03*
X00165Y02081D03*
X02208Y00078D03*
X01608D03*
G54D67*
X01677Y00736D03*
X02429Y00283D03*
X004Y01007D03*
X00455Y01003D03*
X01811Y02543D03*
X0174Y02516D03*
X03213Y03082D03*
X01716Y00838D03*
X02421Y0033D03*
X02869Y01896D03*
X02712Y01834D03*
X01956Y0035D03*
X02212Y01458D03*
X02171Y01484D03*
X02232Y01527D03*
X01992Y01507D03*
X02098Y01476D03*
X0194Y01507D03*
X02279Y01531D03*
X02356Y01915D03*
X01952Y00421D03*
X01279Y01015D03*
X01963Y00476D03*
X01991Y00515D03*
X02018Y00555D03*
X02022Y00602D03*
X02034Y00653D03*
X02038Y007D03*
X02229Y01661D03*
X02196Y01704D03*
X01736Y01909D03*
X01669Y01259D03*
X01692Y00964D03*
X01952Y0087D03*
X01858Y00921D03*
X01791Y00913D03*
X02Y017D03*
X03157Y02708D03*
X02171Y01958D03*
X0196Y00996D03*
X01875Y01752D03*
X02417Y00381D03*
X0235Y02047D03*
X01279Y01102D03*
X02093Y01915D03*
X0133Y0111D03*
X0236Y02094D03*
X02222Y0209D03*
X03196Y00582D03*
X02464D03*
X03198Y02235D03*
X03389Y01106D03*
X0148Y01141D03*
X02937Y02744D03*
X03074Y01263D03*
X03106Y02909D03*
X02972Y0244D03*
X03149Y01653D03*
X03411Y01578D03*
X03405Y01358D03*
X01952Y0237D03*
X03001Y02157D03*
X03452Y02665D03*
X01114Y02909D03*
X00293Y02194D03*
X00695Y02222D03*
X02645Y02828D03*
X02318Y0233D03*
X02887Y03539D03*
X02405Y03291D03*
X02348Y03055D03*
X01326Y03141D03*
X01562D03*
X01937Y02519D03*
X02141Y0237D03*
X01068Y02342D03*
X0134Y01334D03*
X01929Y01681D03*
X01688D03*
X01669Y01515D03*
G54D68*
X0107Y02267D03*
X01015Y01838D03*
X00374Y00661D03*
M02*