%FSTAX23Y23*%
%MOIN*%
%SFA1B1*%

%IPPOS*%
%ADD10C,0.007870*%
%ADD14C,0.005000*%
%ADD70C,0.003940*%
%ADD71C,0.007810*%
%LNnucleoclone-1*%
%LPD*%
G54D10*
X03657Y03501D02*
D01*
X03657Y03502*
X03657Y03502*
X03657Y03502*
X03657Y03503*
X03657Y03503*
X03657Y03503*
X03657Y03503*
X03656Y03504*
X03656Y03504*
X03656Y03504*
X03656Y03504*
X03656Y03504*
X03655Y03505*
X03655Y03505*
X03655Y03505*
X03655Y03505*
X03655Y03505*
X03654Y03505*
X03654Y03505*
X03654Y03505*
X03653Y03505*
X03653Y03505*
X03653*
X03653Y03505*
X03652Y03505*
X03652Y03505*
X03652Y03505*
X03652Y03505*
X03651Y03505*
X03651Y03505*
X03651Y03505*
X03651Y03505*
X0365Y03504*
X0365Y03504*
X0365Y03504*
X0365Y03504*
X0365Y03504*
X0365Y03503*
X03649Y03503*
X03649Y03503*
X03649Y03503*
X03649Y03502*
X03649Y03502*
X03649Y03502*
X03649Y03501*
X03649Y03501*
X03649Y03501*
X03649Y03501*
X03649Y035*
X03649Y035*
X03649Y035*
X0365Y035*
X0365Y03499*
X0365Y03499*
X0365Y03499*
X0365Y03499*
X0365Y03499*
X03651Y03498*
X03651Y03498*
X03651Y03498*
X03651Y03498*
X03652Y03498*
X03652Y03498*
X03652Y03498*
X03652Y03498*
X03653Y03498*
X03653Y03498*
X03653*
X03653Y03498*
X03654Y03498*
X03654Y03498*
X03654Y03498*
X03655Y03498*
X03655Y03498*
X03655Y03498*
X03655Y03498*
X03655Y03498*
X03656Y03499*
X03656Y03499*
X03656Y03499*
X03656Y03499*
X03656Y03499*
X03657Y035*
X03657Y035*
X03657Y035*
X03657Y035*
X03657Y03501*
X03657Y03501*
X03657Y03501*
X03657Y03501*
D01*
X03657Y03502*
X03657Y03502*
X03657Y03502*
X03657Y03503*
X03657Y03503*
X03657Y03503*
X03657Y03503*
X03656Y03504*
X03656Y03504*
X03656Y03504*
X03656Y03504*
X03656Y03504*
X03655Y03505*
X03655Y03505*
X03655Y03505*
X03655Y03505*
X03655Y03505*
X03654Y03505*
X03654Y03505*
X03654Y03505*
X03653Y03505*
X03653Y03505*
X03653*
X03653Y03505*
X03652Y03505*
X03652Y03505*
X03652Y03505*
X03652Y03505*
X03651Y03505*
X03651Y03505*
X03651Y03505*
X03651Y03505*
X0365Y03504*
X0365Y03504*
X0365Y03504*
X0365Y03504*
X0365Y03504*
X0365Y03503*
X03649Y03503*
X03649Y03503*
X03649Y03503*
X03649Y03502*
X03649Y03502*
X03649Y03502*
X03649Y03501*
X03649Y03501*
X03649Y03501*
X03649Y03501*
X03649Y035*
X03649Y035*
X03649Y035*
X0365Y035*
X0365Y03499*
X0365Y03499*
X0365Y03499*
X0365Y03499*
X0365Y03499*
X03651Y03498*
X03651Y03498*
X03651Y03498*
X03651Y03498*
X03652Y03498*
X03652Y03498*
X03652Y03498*
X03652Y03498*
X03653Y03498*
X03653Y03498*
X03653*
X03653Y03498*
X03654Y03498*
X03654Y03498*
X03654Y03498*
X03655Y03498*
X03655Y03498*
X03655Y03498*
X03655Y03498*
X03655Y03498*
X03656Y03499*
X03656Y03499*
X03656Y03499*
X03656Y03499*
X03656Y03499*
X03657Y035*
X03657Y035*
X03657Y035*
X03657Y035*
X03657Y03501*
X03657Y03501*
X03657Y03501*
X03657Y03501*
G54D14*
X03872Y03409D02*
Y037D01*
X03702Y03409D02*
X03872D01*
X03899*
X0392Y03396*
Y03713*
X03899Y037D02*
X0392Y03713D01*
X03872Y037D02*
X03899D01*
X03702D02*
X03872D01*
X03702Y03409D02*
Y037D01*
X03872Y03409D02*
Y037D01*
X03702Y03409D02*
X03872D01*
X03899*
X0392Y03396*
Y03713*
X03899Y037D02*
X0392Y03713D01*
X03872Y037D02*
X03899D01*
X03702D02*
X03872D01*
X03702Y03409D02*
Y037D01*
G54D70*
X01669Y02374D02*
D01*
X01669Y02375*
X01669Y02376*
X01668Y02378*
X01668Y02379*
X01668Y0238*
X01667Y02382*
X01666Y02383*
X01666Y02384*
X01665Y02385*
X01664Y02386*
X01663Y02387*
X01662Y02388*
X01661Y02389*
X0166Y0239*
X01659Y02391*
X01658Y02391*
X01656Y02392*
X01655Y02392*
X01654Y02393*
X01653Y02393*
X01651Y02393*
X0165Y02393*
X01648*
X01647Y02393*
X01646Y02393*
X01644Y02393*
X01643Y02392*
X01642Y02392*
X0164Y02391*
X01639Y02391*
X01638Y0239*
X01637Y02389*
X01636Y02388*
X01635Y02387*
X01634Y02386*
X01633Y02385*
X01632Y02384*
X01632Y02383*
X01631Y02382*
X01631Y0238*
X0163Y02379*
X0163Y02378*
X0163Y02376*
X01629Y02375*
X01629Y02374*
X01629Y02372*
X0163Y02371*
X0163Y02369*
X0163Y02368*
X01631Y02367*
X01631Y02366*
X01632Y02364*
X01632Y02363*
X01633Y02362*
X01634Y02361*
X01635Y0236*
X01636Y02359*
X01637Y02358*
X01638Y02357*
X01639Y02356*
X0164Y02356*
X01642Y02355*
X01643Y02355*
X01644Y02354*
X01646Y02354*
X01647Y02354*
X01648Y02354*
X0165*
X01651Y02354*
X01653Y02354*
X01654Y02354*
X01655Y02355*
X01656Y02355*
X01658Y02356*
X01659Y02356*
X0166Y02357*
X01661Y02358*
X01662Y02359*
X01663Y0236*
X01664Y02361*
X01665Y02362*
X01666Y02363*
X01666Y02364*
X01667Y02366*
X01668Y02367*
X01668Y02368*
X01668Y02369*
X01669Y02371*
X01669Y02372*
X01669Y02374*
X03444Y03244D02*
D01*
X03444Y03245*
X03444Y03246*
X03444Y03248*
X03444Y03249*
X03443Y0325*
X03443Y03252*
X03442Y03253*
X03441Y03254*
X03441Y03255*
X0344Y03256*
X03439Y03257*
X03438Y03258*
X03437Y03259*
X03436Y0326*
X03435Y03261*
X03433Y03261*
X03432Y03262*
X03431Y03262*
X03429Y03263*
X03428Y03263*
X03427Y03263*
X03425Y03263*
X03424*
X03423Y03263*
X03421Y03263*
X0342Y03263*
X03419Y03262*
X03417Y03262*
X03416Y03261*
X03415Y03261*
X03414Y0326*
X03413Y03259*
X03412Y03258*
X03411Y03257*
X0341Y03256*
X03409Y03255*
X03408Y03254*
X03407Y03253*
X03407Y03252*
X03406Y0325*
X03406Y03249*
X03405Y03248*
X03405Y03246*
X03405Y03245*
X03405Y03244*
X03405Y03242*
X03405Y03241*
X03405Y0324*
X03406Y03238*
X03406Y03237*
X03407Y03236*
X03407Y03234*
X03408Y03233*
X03409Y03232*
X0341Y03231*
X03411Y0323*
X03412Y03229*
X03413Y03228*
X03414Y03227*
X03415Y03227*
X03416Y03226*
X03417Y03225*
X03419Y03225*
X0342Y03224*
X03421Y03224*
X03423Y03224*
X03424Y03224*
X03425*
X03427Y03224*
X03428Y03224*
X03429Y03224*
X03431Y03225*
X03432Y03225*
X03433Y03226*
X03435Y03227*
X03436Y03227*
X03437Y03228*
X03438Y03229*
X03439Y0323*
X0344Y03231*
X03441Y03232*
X03441Y03233*
X03442Y03234*
X03443Y03236*
X03443Y03237*
X03444Y03238*
X03444Y0324*
X03444Y03241*
X03444Y03242*
X03444Y03244*
X01614Y01622D02*
Y02409D01*
X02401Y01622D02*
Y02409D01*
X01614D02*
X02401D01*
X01614Y01622D02*
X02401D01*
X03488Y03745D02*
Y0386D01*
X03437Y03745D02*
Y0386D01*
Y03745D02*
X03488D01*
X03437Y0386D02*
X03488D01*
X03494Y03596D02*
Y03711D01*
X03442Y03596D02*
Y03711D01*
Y03596D02*
X03494D01*
X03442Y03711D02*
X03494D01*
X03389Y03082D02*
X03547D01*
X03389Y03279D02*
X03547D01*
Y03082D02*
Y03279D01*
X03389Y03082D02*
Y03279D01*
G54D71*
X03872Y03478D02*
Y03509D01*
X03868Y0352*
X03865Y03524*
X03858Y03527*
X03847*
X0384Y03524*
X03837Y0352*
X03833Y03509*
Y03478*
X03907*
X03851Y03596D02*
X03844Y03593D01*
X03837Y03586*
X03833Y03579*
Y03565*
X03837Y03558*
X03844Y03551*
X03851Y03547*
X03861Y03544*
X03879*
X03889Y03547*
X03896Y03551*
X03903Y03558*
X03907Y03565*
Y03579*
X03903Y03586*
X03896Y03593*
X03889Y03596*
X03833Y03617D02*
X03907D01*
X03833D02*
Y03649D01*
X03837Y03659*
X0384Y03663*
X03847Y03666*
X03854*
X03861Y03663*
X03865Y03659*
X03868Y03649*
Y03617D02*
Y03649D01*
X03872Y03659*
X03875Y03663*
X03882Y03666*
X03893*
X039Y03663*
X03903Y03659*
X03907Y03649*
Y03617*
X03833Y03786D02*
Y03741D01*
X03907*
Y03786*
X03868Y03741D02*
Y03769D01*
X03833Y03799D02*
X03907D01*
X03833D02*
X03907Y03848D01*
X03833D02*
X03907D01*
X03833Y03868D02*
X03907D01*
X03833D02*
Y03893D01*
X03837Y03903*
X03844Y0391*
X03851Y03914*
X03861Y03918*
X03879*
X03889Y03914*
X03896Y0391*
X03903Y03903*
X03907Y03893*
Y03868*
X03872Y03478D02*
Y03509D01*
X03868Y0352*
X03865Y03524*
X03858Y03527*
X03847*
X0384Y03524*
X03837Y0352*
X03833Y03509*
Y03478*
X03907*
X03851Y03596D02*
X03844Y03593D01*
X03837Y03586*
X03833Y03579*
Y03565*
X03837Y03558*
X03844Y03551*
X03851Y03547*
X03861Y03544*
X03879*
X03889Y03547*
X03896Y03551*
X03903Y03558*
X03907Y03565*
Y03579*
X03903Y03586*
X03896Y03593*
X03889Y03596*
X03833Y03617D02*
X03907D01*
X03833D02*
Y03649D01*
X03837Y03659*
X0384Y03663*
X03847Y03666*
X03854*
X03861Y03663*
X03865Y03659*
X03868Y03649*
Y03617D02*
Y03649D01*
X03872Y03659*
X03875Y03663*
X03882Y03666*
X03893*
X039Y03663*
X03903Y03659*
X03907Y03649*
Y03617*
X03833Y03786D02*
Y03741D01*
X03907*
Y03786*
X03868Y03741D02*
Y03769D01*
X03833Y03799D02*
X03907D01*
X03833D02*
X03907Y03848D01*
X03833D02*
X03907D01*
X03833Y03868D02*
X03907D01*
X03833D02*
Y03893D01*
X03837Y03903*
X03844Y0391*
X03851Y03914*
X03861Y03918*
X03879*
X03889Y03914*
X03896Y0391*
X03903Y03903*
X03907Y03893*
Y03868*
M02*