%FSTAX23Y23*%
%MOIN*%
%SFA1B1*%

%IPPOS*%
%ADD33C,0.000000*%
%ADD34R,0.063000X0.048000*%
%ADD35R,0.032020X0.021780*%
%ADD36R,0.021780X0.032020*%
%ADD37R,0.048000X0.063000*%
%ADD38R,0.065090X0.019810*%
%ADD39R,0.019810X0.065090*%
%ADD40R,0.043430X0.039500*%
%ADD41R,0.065090X0.031620*%
%ADD42R,0.067060X0.067060*%
%ADD43R,0.038000X0.056000*%
%ADD44R,0.102490X0.094610*%
%ADD45R,0.061150X0.023750*%
%ADD46R,0.069020X0.067060*%
%ADD47R,0.049340X0.075720*%
%ADD48C,0.067060*%
%ADD49R,0.067060X0.067060*%
%ADD50C,0.053000*%
%ADD51O,0.033590X0.059180*%
%ADD52O,0.069020X0.038510*%
%ADD53C,0.081230*%
%ADD54C,0.055240*%
%ADD55C,0.093630*%
%ADD56C,0.058000*%
%LNnucleoclone-1*%
%LPD*%
G36*
X0378Y03413D02*
Y03468D01*
X03849*
Y03413*
X03849Y03412*
X03849Y03411*
X03849Y0341*
X03848Y03409*
X03848Y03408*
X03848Y03407*
X03848Y03406*
X03847Y03405*
X03847Y03404*
X03846Y03403*
X03846Y03402*
X03845Y03401*
X03845Y03401*
X03844Y034*
X03843Y03399*
X03842Y03398*
X03842Y03398*
X03841Y03397*
X0384Y03396*
X03839Y03396*
X03838Y03395*
X03837Y03395*
X03836Y03395*
X03835Y03394*
X03834Y03394*
X03833Y03394*
X03832Y03393*
X03831Y03393*
X0383Y03393*
X03829Y03393*
X038*
X03799Y03393*
X03798Y03393*
X03797Y03393*
X03796Y03394*
X03795Y03394*
X03794Y03394*
X03793Y03395*
X03792Y03395*
X03791Y03395*
X0379Y03396*
X03789Y03396*
X03788Y03397*
X03787Y03398*
X03787Y03398*
X03786Y03399*
X03785Y034*
X03784Y03401*
X03784Y03401*
X03783Y03402*
X03783Y03403*
X03782Y03404*
X03782Y03405*
X03781Y03406*
X03781Y03407*
X03781Y03408*
X0378Y03409*
X0378Y0341*
X0378Y03411*
X0378Y03412*
X0378Y03413*
G37*
G36*
X03849Y03696D02*
Y03641D01*
X0378*
Y03696*
X0378Y03697*
X0378Y03698*
X0378Y03699*
X0378Y037*
X03781Y03701*
X03781Y03702*
X03781Y03703*
X03782Y03704*
X03782Y03705*
X03783Y03706*
X03783Y03707*
X03784Y03708*
X03784Y03709*
X03785Y0371*
X03786Y0371*
X03787Y03711*
X03787Y03712*
X03788Y03712*
X03789Y03713*
X0379Y03713*
X03791Y03714*
X03792Y03714*
X03793Y03715*
X03794Y03715*
X03795Y03715*
X03796Y03716*
X03797Y03716*
X03798Y03716*
X03799Y03716*
X038Y03716*
X03829*
X0383Y03716*
X03831Y03716*
X03832Y03716*
X03833Y03716*
X03834Y03715*
X03835Y03715*
X03836Y03715*
X03837Y03714*
X03838Y03714*
X03839Y03713*
X0384Y03713*
X03841Y03712*
X03842Y03712*
X03842Y03711*
X03843Y0371*
X03844Y0371*
X03845Y03709*
X03845Y03708*
X03846Y03707*
X03846Y03706*
X03847Y03705*
X03847Y03704*
X03848Y03703*
X03848Y03702*
X03848Y03701*
X03848Y037*
X03849Y03699*
X03849Y03698*
X03849Y03697*
X03849Y03696*
G37*
G54D33*
X00157Y03765D02*
D01*
X00157Y03767*
X00157Y03769*
X00157Y03771*
X00157Y03772*
X00156Y03774*
X00155Y03775*
X00155Y03777*
X00154Y03778*
X00153Y0378*
X00152Y03781*
X00151Y03782*
X00149Y03784*
X00148Y03785*
X00147Y03786*
X00145Y03787*
X00144Y03787*
X00142Y03788*
X00141Y03789*
X00139Y03789*
X00137Y0379*
X00136Y0379*
X00134Y0379*
X00132*
X0013Y0379*
X00129Y0379*
X00127Y03789*
X00125Y03789*
X00124Y03788*
X00122Y03787*
X00121Y03787*
X00119Y03786*
X00118Y03785*
X00117Y03784*
X00115Y03782*
X00114Y03781*
X00113Y0378*
X00112Y03778*
X00111Y03777*
X00111Y03775*
X0011Y03774*
X00109Y03772*
X00109Y03771*
X00109Y03769*
X00109Y03767*
X00108Y03765*
X00109Y03764*
X00109Y03762*
X00109Y0376*
X00109Y03759*
X0011Y03757*
X00111Y03755*
X00111Y03754*
X00112Y03752*
X00113Y03751*
X00114Y0375*
X00115Y03748*
X00117Y03747*
X00118Y03746*
X00119Y03745*
X00121Y03744*
X00122Y03743*
X00124Y03743*
X00125Y03742*
X00127Y03742*
X00129Y03741*
X0013Y03741*
X00132Y03741*
X00134*
X00136Y03741*
X00137Y03741*
X00139Y03742*
X00141Y03742*
X00142Y03743*
X00144Y03743*
X00145Y03744*
X00147Y03745*
X00148Y03746*
X00149Y03747*
X00151Y03748*
X00152Y0375*
X00153Y03751*
X00154Y03752*
X00155Y03754*
X00155Y03755*
X00156Y03757*
X00157Y03759*
X00157Y0376*
X00157Y03762*
X00157Y03764*
X00157Y03765*
Y03815D02*
D01*
X00157Y03817*
X00157Y03819*
X00157Y03821*
X00157Y03822*
X00156Y03824*
X00155Y03825*
X00155Y03827*
X00154Y03828*
X00153Y0383*
X00152Y03831*
X00151Y03832*
X00149Y03834*
X00148Y03835*
X00147Y03836*
X00145Y03837*
X00144Y03837*
X00142Y03838*
X00141Y03839*
X00139Y03839*
X00137Y0384*
X00136Y0384*
X00134Y0384*
X00132*
X0013Y0384*
X00129Y0384*
X00127Y03839*
X00125Y03839*
X00124Y03838*
X00122Y03837*
X00121Y03837*
X00119Y03836*
X00118Y03835*
X00117Y03834*
X00115Y03832*
X00114Y03831*
X00113Y0383*
X00112Y03828*
X00111Y03827*
X00111Y03825*
X0011Y03824*
X00109Y03822*
X00109Y03821*
X00109Y03819*
X00109Y03817*
X00108Y03815*
X00109Y03814*
X00109Y03812*
X00109Y0381*
X00109Y03809*
X0011Y03807*
X00111Y03805*
X00111Y03804*
X00112Y03802*
X00113Y03801*
X00114Y038*
X00115Y03798*
X00117Y03797*
X00118Y03796*
X00119Y03795*
X00121Y03794*
X00122Y03793*
X00124Y03793*
X00125Y03792*
X00127Y03792*
X00129Y03791*
X0013Y03791*
X00132Y03791*
X00134*
X00136Y03791*
X00137Y03791*
X00139Y03792*
X00141Y03792*
X00142Y03793*
X00144Y03793*
X00145Y03794*
X00147Y03795*
X00148Y03796*
X00149Y03797*
X00151Y03798*
X00152Y038*
X00153Y03801*
X00154Y03802*
X00155Y03804*
X00155Y03805*
X00156Y03807*
X00157Y03809*
X00157Y0381*
X00157Y03812*
X00157Y03814*
X00157Y03815*
X00207Y03765D02*
D01*
X00207Y03767*
X00207Y03769*
X00207Y03771*
X00207Y03772*
X00206Y03774*
X00205Y03775*
X00205Y03777*
X00204Y03778*
X00203Y0378*
X00202Y03781*
X00201Y03782*
X00199Y03784*
X00198Y03785*
X00197Y03786*
X00195Y03787*
X00194Y03787*
X00192Y03788*
X00191Y03789*
X00189Y03789*
X00187Y0379*
X00186Y0379*
X00184Y0379*
X00182*
X0018Y0379*
X00179Y0379*
X00177Y03789*
X00175Y03789*
X00174Y03788*
X00172Y03787*
X00171Y03787*
X00169Y03786*
X00168Y03785*
X00167Y03784*
X00165Y03782*
X00164Y03781*
X00163Y0378*
X00162Y03778*
X00161Y03777*
X00161Y03775*
X0016Y03774*
X00159Y03772*
X00159Y03771*
X00159Y03769*
X00159Y03767*
X00158Y03765*
X00159Y03764*
X00159Y03762*
X00159Y0376*
X00159Y03759*
X0016Y03757*
X00161Y03755*
X00161Y03754*
X00162Y03752*
X00163Y03751*
X00164Y0375*
X00165Y03748*
X00167Y03747*
X00168Y03746*
X00169Y03745*
X00171Y03744*
X00172Y03743*
X00174Y03743*
X00175Y03742*
X00177Y03742*
X00179Y03741*
X0018Y03741*
X00182Y03741*
X00184*
X00186Y03741*
X00187Y03741*
X00189Y03742*
X00191Y03742*
X00192Y03743*
X00194Y03743*
X00195Y03744*
X00197Y03745*
X00198Y03746*
X00199Y03747*
X00201Y03748*
X00202Y0375*
X00203Y03751*
X00204Y03752*
X00205Y03754*
X00205Y03755*
X00206Y03757*
X00207Y03759*
X00207Y0376*
X00207Y03762*
X00207Y03764*
X00207Y03765*
Y03815D02*
D01*
X00207Y03817*
X00207Y03819*
X00207Y03821*
X00207Y03822*
X00206Y03824*
X00205Y03825*
X00205Y03827*
X00204Y03828*
X00203Y0383*
X00202Y03831*
X00201Y03832*
X00199Y03834*
X00198Y03835*
X00197Y03836*
X00195Y03837*
X00194Y03837*
X00192Y03838*
X00191Y03839*
X00189Y03839*
X00187Y0384*
X00186Y0384*
X00184Y0384*
X00182*
X0018Y0384*
X00179Y0384*
X00177Y03839*
X00175Y03839*
X00174Y03838*
X00172Y03837*
X00171Y03837*
X00169Y03836*
X00168Y03835*
X00167Y03834*
X00165Y03832*
X00164Y03831*
X00163Y0383*
X00162Y03828*
X00161Y03827*
X00161Y03825*
X0016Y03824*
X00159Y03822*
X00159Y03821*
X00159Y03819*
X00159Y03817*
X00158Y03815*
X00159Y03814*
X00159Y03812*
X00159Y0381*
X00159Y03809*
X0016Y03807*
X00161Y03805*
X00161Y03804*
X00162Y03802*
X00163Y03801*
X00164Y038*
X00165Y03798*
X00167Y03797*
X00168Y03796*
X00169Y03795*
X00171Y03794*
X00172Y03793*
X00174Y03793*
X00175Y03792*
X00177Y03792*
X00179Y03791*
X0018Y03791*
X00182Y03791*
X00184*
X00186Y03791*
X00187Y03791*
X00189Y03792*
X00191Y03792*
X00192Y03793*
X00194Y03793*
X00195Y03794*
X00197Y03795*
X00198Y03796*
X00199Y03797*
X00201Y03798*
X00202Y038*
X00203Y03801*
X00204Y03802*
X00205Y03804*
X00205Y03805*
X00206Y03807*
X00207Y03809*
X00207Y0381*
X00207Y03812*
X00207Y03814*
X00207Y03815*
X00257Y03765D02*
D01*
X00257Y03767*
X00257Y03769*
X00257Y03771*
X00257Y03772*
X00256Y03774*
X00255Y03775*
X00255Y03777*
X00254Y03778*
X00253Y0378*
X00252Y03781*
X00251Y03782*
X00249Y03784*
X00248Y03785*
X00247Y03786*
X00245Y03787*
X00244Y03787*
X00242Y03788*
X00241Y03789*
X00239Y03789*
X00237Y0379*
X00236Y0379*
X00234Y0379*
X00232*
X0023Y0379*
X00229Y0379*
X00227Y03789*
X00225Y03789*
X00224Y03788*
X00222Y03787*
X00221Y03787*
X00219Y03786*
X00218Y03785*
X00217Y03784*
X00215Y03782*
X00214Y03781*
X00213Y0378*
X00212Y03778*
X00211Y03777*
X00211Y03775*
X0021Y03774*
X00209Y03772*
X00209Y03771*
X00209Y03769*
X00209Y03767*
X00208Y03765*
X00209Y03764*
X00209Y03762*
X00209Y0376*
X00209Y03759*
X0021Y03757*
X00211Y03755*
X00211Y03754*
X00212Y03752*
X00213Y03751*
X00214Y0375*
X00215Y03748*
X00217Y03747*
X00218Y03746*
X00219Y03745*
X00221Y03744*
X00222Y03743*
X00224Y03743*
X00225Y03742*
X00227Y03742*
X00229Y03741*
X0023Y03741*
X00232Y03741*
X00234*
X00236Y03741*
X00237Y03741*
X00239Y03742*
X00241Y03742*
X00242Y03743*
X00244Y03743*
X00245Y03744*
X00247Y03745*
X00248Y03746*
X00249Y03747*
X00251Y03748*
X00252Y0375*
X00253Y03751*
X00254Y03752*
X00255Y03754*
X00255Y03755*
X00256Y03757*
X00257Y03759*
X00257Y0376*
X00257Y03762*
X00257Y03764*
X00257Y03765*
Y03815D02*
D01*
X00257Y03817*
X00257Y03819*
X00257Y03821*
X00257Y03822*
X00256Y03824*
X00255Y03825*
X00255Y03827*
X00254Y03828*
X00253Y0383*
X00252Y03831*
X00251Y03832*
X00249Y03834*
X00248Y03835*
X00247Y03836*
X00245Y03837*
X00244Y03837*
X00242Y03838*
X00241Y03839*
X00239Y03839*
X00237Y0384*
X00236Y0384*
X00234Y0384*
X00232*
X0023Y0384*
X00229Y0384*
X00227Y03839*
X00225Y03839*
X00224Y03838*
X00222Y03837*
X00221Y03837*
X00219Y03836*
X00218Y03835*
X00217Y03834*
X00215Y03832*
X00214Y03831*
X00213Y0383*
X00212Y03828*
X00211Y03827*
X00211Y03825*
X0021Y03824*
X00209Y03822*
X00209Y03821*
X00209Y03819*
X00209Y03817*
X00208Y03815*
X00209Y03814*
X00209Y03812*
X00209Y0381*
X00209Y03809*
X0021Y03807*
X00211Y03805*
X00211Y03804*
X00212Y03802*
X00213Y03801*
X00214Y038*
X00215Y03798*
X00217Y03797*
X00218Y03796*
X00219Y03795*
X00221Y03794*
X00222Y03793*
X00224Y03793*
X00225Y03792*
X00227Y03792*
X00229Y03791*
X0023Y03791*
X00232Y03791*
X00234*
X00236Y03791*
X00237Y03791*
X00239Y03792*
X00241Y03792*
X00242Y03793*
X00244Y03793*
X00245Y03794*
X00247Y03795*
X00248Y03796*
X00249Y03797*
X00251Y03798*
X00252Y038*
X00253Y03801*
X00254Y03802*
X00255Y03804*
X00255Y03805*
X00256Y03807*
X00257Y03809*
X00257Y0381*
X00257Y03812*
X00257Y03814*
X00257Y03815*
X00307Y03765D02*
D01*
X00307Y03767*
X00307Y03769*
X00307Y03771*
X00307Y03772*
X00306Y03774*
X00305Y03775*
X00305Y03777*
X00304Y03778*
X00303Y0378*
X00302Y03781*
X00301Y03782*
X00299Y03784*
X00298Y03785*
X00297Y03786*
X00295Y03787*
X00294Y03787*
X00292Y03788*
X00291Y03789*
X00289Y03789*
X00287Y0379*
X00286Y0379*
X00284Y0379*
X00282*
X0028Y0379*
X00279Y0379*
X00277Y03789*
X00275Y03789*
X00274Y03788*
X00272Y03787*
X00271Y03787*
X00269Y03786*
X00268Y03785*
X00267Y03784*
X00265Y03782*
X00264Y03781*
X00263Y0378*
X00262Y03778*
X00261Y03777*
X00261Y03775*
X0026Y03774*
X00259Y03772*
X00259Y03771*
X00259Y03769*
X00259Y03767*
X00258Y03765*
X00259Y03764*
X00259Y03762*
X00259Y0376*
X00259Y03759*
X0026Y03757*
X00261Y03755*
X00261Y03754*
X00262Y03752*
X00263Y03751*
X00264Y0375*
X00265Y03748*
X00267Y03747*
X00268Y03746*
X00269Y03745*
X00271Y03744*
X00272Y03743*
X00274Y03743*
X00275Y03742*
X00277Y03742*
X00279Y03741*
X0028Y03741*
X00282Y03741*
X00284*
X00286Y03741*
X00287Y03741*
X00289Y03742*
X00291Y03742*
X00292Y03743*
X00294Y03743*
X00295Y03744*
X00297Y03745*
X00298Y03746*
X00299Y03747*
X00301Y03748*
X00302Y0375*
X00303Y03751*
X00304Y03752*
X00305Y03754*
X00305Y03755*
X00306Y03757*
X00307Y03759*
X00307Y0376*
X00307Y03762*
X00307Y03764*
X00307Y03765*
Y03815D02*
D01*
X00307Y03817*
X00307Y03819*
X00307Y03821*
X00307Y03822*
X00306Y03824*
X00305Y03825*
X00305Y03827*
X00304Y03828*
X00303Y0383*
X00302Y03831*
X00301Y03832*
X00299Y03834*
X00298Y03835*
X00297Y03836*
X00295Y03837*
X00294Y03837*
X00292Y03838*
X00291Y03839*
X00289Y03839*
X00287Y0384*
X00286Y0384*
X00284Y0384*
X00282*
X0028Y0384*
X00279Y0384*
X00277Y03839*
X00275Y03839*
X00274Y03838*
X00272Y03837*
X00271Y03837*
X00269Y03836*
X00268Y03835*
X00267Y03834*
X00265Y03832*
X00264Y03831*
X00263Y0383*
X00262Y03828*
X00261Y03827*
X00261Y03825*
X0026Y03824*
X00259Y03822*
X00259Y03821*
X00259Y03819*
X00259Y03817*
X00258Y03815*
X00259Y03814*
X00259Y03812*
X00259Y0381*
X00259Y03809*
X0026Y03807*
X00261Y03805*
X00261Y03804*
X00262Y03802*
X00263Y03801*
X00264Y038*
X00265Y03798*
X00267Y03797*
X00268Y03796*
X00269Y03795*
X00271Y03794*
X00272Y03793*
X00274Y03793*
X00275Y03792*
X00277Y03792*
X00279Y03791*
X0028Y03791*
X00282Y03791*
X00284*
X00286Y03791*
X00287Y03791*
X00289Y03792*
X00291Y03792*
X00292Y03793*
X00294Y03793*
X00295Y03794*
X00297Y03795*
X00298Y03796*
X00299Y03797*
X00301Y03798*
X00302Y038*
X00303Y03801*
X00304Y03802*
X00305Y03804*
X00305Y03805*
X00306Y03807*
X00307Y03809*
X00307Y0381*
X00307Y03812*
X00307Y03814*
X00307Y03815*
X00357Y03765D02*
D01*
X00357Y03767*
X00357Y03769*
X00357Y03771*
X00357Y03772*
X00356Y03774*
X00355Y03775*
X00355Y03777*
X00354Y03778*
X00353Y0378*
X00352Y03781*
X00351Y03782*
X00349Y03784*
X00348Y03785*
X00347Y03786*
X00345Y03787*
X00344Y03787*
X00342Y03788*
X00341Y03789*
X00339Y03789*
X00337Y0379*
X00336Y0379*
X00334Y0379*
X00332*
X0033Y0379*
X00329Y0379*
X00327Y03789*
X00325Y03789*
X00324Y03788*
X00322Y03787*
X00321Y03787*
X00319Y03786*
X00318Y03785*
X00317Y03784*
X00315Y03782*
X00314Y03781*
X00313Y0378*
X00312Y03778*
X00311Y03777*
X00311Y03775*
X0031Y03774*
X00309Y03772*
X00309Y03771*
X00309Y03769*
X00309Y03767*
X00308Y03765*
X00309Y03764*
X00309Y03762*
X00309Y0376*
X00309Y03759*
X0031Y03757*
X00311Y03755*
X00311Y03754*
X00312Y03752*
X00313Y03751*
X00314Y0375*
X00315Y03748*
X00317Y03747*
X00318Y03746*
X00319Y03745*
X00321Y03744*
X00322Y03743*
X00324Y03743*
X00325Y03742*
X00327Y03742*
X00329Y03741*
X0033Y03741*
X00332Y03741*
X00334*
X00336Y03741*
X00337Y03741*
X00339Y03742*
X00341Y03742*
X00342Y03743*
X00344Y03743*
X00345Y03744*
X00347Y03745*
X00348Y03746*
X00349Y03747*
X00351Y03748*
X00352Y0375*
X00353Y03751*
X00354Y03752*
X00355Y03754*
X00355Y03755*
X00356Y03757*
X00357Y03759*
X00357Y0376*
X00357Y03762*
X00357Y03764*
X00357Y03765*
Y03815D02*
D01*
X00357Y03817*
X00357Y03819*
X00357Y03821*
X00357Y03822*
X00356Y03824*
X00355Y03825*
X00355Y03827*
X00354Y03828*
X00353Y0383*
X00352Y03831*
X00351Y03832*
X00349Y03834*
X00348Y03835*
X00347Y03836*
X00345Y03837*
X00344Y03837*
X00342Y03838*
X00341Y03839*
X00339Y03839*
X00337Y0384*
X00336Y0384*
X00334Y0384*
X00332*
X0033Y0384*
X00329Y0384*
X00327Y03839*
X00325Y03839*
X00324Y03838*
X00322Y03837*
X00321Y03837*
X00319Y03836*
X00318Y03835*
X00317Y03834*
X00315Y03832*
X00314Y03831*
X00313Y0383*
X00312Y03828*
X00311Y03827*
X00311Y03825*
X0031Y03824*
X00309Y03822*
X00309Y03821*
X00309Y03819*
X00309Y03817*
X00308Y03815*
X00309Y03814*
X00309Y03812*
X00309Y0381*
X00309Y03809*
X0031Y03807*
X00311Y03805*
X00311Y03804*
X00312Y03802*
X00313Y03801*
X00314Y038*
X00315Y03798*
X00317Y03797*
X00318Y03796*
X00319Y03795*
X00321Y03794*
X00322Y03793*
X00324Y03793*
X00325Y03792*
X00327Y03792*
X00329Y03791*
X0033Y03791*
X00332Y03791*
X00334*
X00336Y03791*
X00337Y03791*
X00339Y03792*
X00341Y03792*
X00342Y03793*
X00344Y03793*
X00345Y03794*
X00347Y03795*
X00348Y03796*
X00349Y03797*
X00351Y03798*
X00352Y038*
X00353Y03801*
X00354Y03802*
X00355Y03804*
X00355Y03805*
X00356Y03807*
X00357Y03809*
X00357Y0381*
X00357Y03812*
X00357Y03814*
X00357Y03815*
X00407Y03765D02*
D01*
X00407Y03767*
X00407Y03769*
X00407Y03771*
X00407Y03772*
X00406Y03774*
X00405Y03775*
X00405Y03777*
X00404Y03778*
X00403Y0378*
X00402Y03781*
X00401Y03782*
X00399Y03784*
X00398Y03785*
X00397Y03786*
X00395Y03787*
X00394Y03787*
X00392Y03788*
X00391Y03789*
X00389Y03789*
X00387Y0379*
X00386Y0379*
X00384Y0379*
X00382*
X0038Y0379*
X00379Y0379*
X00377Y03789*
X00375Y03789*
X00374Y03788*
X00372Y03787*
X00371Y03787*
X00369Y03786*
X00368Y03785*
X00367Y03784*
X00365Y03782*
X00364Y03781*
X00363Y0378*
X00362Y03778*
X00361Y03777*
X00361Y03775*
X0036Y03774*
X00359Y03772*
X00359Y03771*
X00359Y03769*
X00359Y03767*
X00358Y03765*
X00359Y03764*
X00359Y03762*
X00359Y0376*
X00359Y03759*
X0036Y03757*
X00361Y03755*
X00361Y03754*
X00362Y03752*
X00363Y03751*
X00364Y0375*
X00365Y03748*
X00367Y03747*
X00368Y03746*
X00369Y03745*
X00371Y03744*
X00372Y03743*
X00374Y03743*
X00375Y03742*
X00377Y03742*
X00379Y03741*
X0038Y03741*
X00382Y03741*
X00384*
X00386Y03741*
X00387Y03741*
X00389Y03742*
X00391Y03742*
X00392Y03743*
X00394Y03743*
X00395Y03744*
X00397Y03745*
X00398Y03746*
X00399Y03747*
X00401Y03748*
X00402Y0375*
X00403Y03751*
X00404Y03752*
X00405Y03754*
X00405Y03755*
X00406Y03757*
X00407Y03759*
X00407Y0376*
X00407Y03762*
X00407Y03764*
X00407Y03765*
Y03815D02*
D01*
X00407Y03817*
X00407Y03819*
X00407Y03821*
X00407Y03822*
X00406Y03824*
X00405Y03825*
X00405Y03827*
X00404Y03828*
X00403Y0383*
X00402Y03831*
X00401Y03832*
X00399Y03834*
X00398Y03835*
X00397Y03836*
X00395Y03837*
X00394Y03837*
X00392Y03838*
X00391Y03839*
X00389Y03839*
X00387Y0384*
X00386Y0384*
X00384Y0384*
X00382*
X0038Y0384*
X00379Y0384*
X00377Y03839*
X00375Y03839*
X00374Y03838*
X00372Y03837*
X00371Y03837*
X00369Y03836*
X00368Y03835*
X00367Y03834*
X00365Y03832*
X00364Y03831*
X00363Y0383*
X00362Y03828*
X00361Y03827*
X00361Y03825*
X0036Y03824*
X00359Y03822*
X00359Y03821*
X00359Y03819*
X00359Y03817*
X00358Y03815*
X00359Y03814*
X00359Y03812*
X00359Y0381*
X00359Y03809*
X0036Y03807*
X00361Y03805*
X00361Y03804*
X00362Y03802*
X00363Y03801*
X00364Y038*
X00365Y03798*
X00367Y03797*
X00368Y03796*
X00369Y03795*
X00371Y03794*
X00372Y03793*
X00374Y03793*
X00375Y03792*
X00377Y03792*
X00379Y03791*
X0038Y03791*
X00382Y03791*
X00384*
X00386Y03791*
X00387Y03791*
X00389Y03792*
X00391Y03792*
X00392Y03793*
X00394Y03793*
X00395Y03794*
X00397Y03795*
X00398Y03796*
X00399Y03797*
X00401Y03798*
X00402Y038*
X00403Y03801*
X00404Y03802*
X00405Y03804*
X00405Y03805*
X00406Y03807*
X00407Y03809*
X00407Y0381*
X00407Y03812*
X00407Y03814*
X00407Y03815*
X00457Y03765D02*
D01*
X00457Y03767*
X00457Y03769*
X00457Y03771*
X00457Y03772*
X00456Y03774*
X00455Y03775*
X00455Y03777*
X00454Y03778*
X00453Y0378*
X00452Y03781*
X00451Y03782*
X00449Y03784*
X00448Y03785*
X00447Y03786*
X00445Y03787*
X00444Y03787*
X00442Y03788*
X00441Y03789*
X00439Y03789*
X00437Y0379*
X00436Y0379*
X00434Y0379*
X00432*
X0043Y0379*
X00429Y0379*
X00427Y03789*
X00425Y03789*
X00424Y03788*
X00422Y03787*
X00421Y03787*
X00419Y03786*
X00418Y03785*
X00417Y03784*
X00415Y03782*
X00414Y03781*
X00413Y0378*
X00412Y03778*
X00411Y03777*
X00411Y03775*
X0041Y03774*
X00409Y03772*
X00409Y03771*
X00409Y03769*
X00409Y03767*
X00408Y03765*
X00409Y03764*
X00409Y03762*
X00409Y0376*
X00409Y03759*
X0041Y03757*
X00411Y03755*
X00411Y03754*
X00412Y03752*
X00413Y03751*
X00414Y0375*
X00415Y03748*
X00417Y03747*
X00418Y03746*
X00419Y03745*
X00421Y03744*
X00422Y03743*
X00424Y03743*
X00425Y03742*
X00427Y03742*
X00429Y03741*
X0043Y03741*
X00432Y03741*
X00434*
X00436Y03741*
X00437Y03741*
X00439Y03742*
X00441Y03742*
X00442Y03743*
X00444Y03743*
X00445Y03744*
X00447Y03745*
X00448Y03746*
X00449Y03747*
X00451Y03748*
X00452Y0375*
X00453Y03751*
X00454Y03752*
X00455Y03754*
X00455Y03755*
X00456Y03757*
X00457Y03759*
X00457Y0376*
X00457Y03762*
X00457Y03764*
X00457Y03765*
Y03815D02*
D01*
X00457Y03817*
X00457Y03819*
X00457Y03821*
X00457Y03822*
X00456Y03824*
X00455Y03825*
X00455Y03827*
X00454Y03828*
X00453Y0383*
X00452Y03831*
X00451Y03832*
X00449Y03834*
X00448Y03835*
X00447Y03836*
X00445Y03837*
X00444Y03837*
X00442Y03838*
X00441Y03839*
X00439Y03839*
X00437Y0384*
X00436Y0384*
X00434Y0384*
X00432*
X0043Y0384*
X00429Y0384*
X00427Y03839*
X00425Y03839*
X00424Y03838*
X00422Y03837*
X00421Y03837*
X00419Y03836*
X00418Y03835*
X00417Y03834*
X00415Y03832*
X00414Y03831*
X00413Y0383*
X00412Y03828*
X00411Y03827*
X00411Y03825*
X0041Y03824*
X00409Y03822*
X00409Y03821*
X00409Y03819*
X00409Y03817*
X00408Y03815*
X00409Y03814*
X00409Y03812*
X00409Y0381*
X00409Y03809*
X0041Y03807*
X00411Y03805*
X00411Y03804*
X00412Y03802*
X00413Y03801*
X00414Y038*
X00415Y03798*
X00417Y03797*
X00418Y03796*
X00419Y03795*
X00421Y03794*
X00422Y03793*
X00424Y03793*
X00425Y03792*
X00427Y03792*
X00429Y03791*
X0043Y03791*
X00432Y03791*
X00434*
X00436Y03791*
X00437Y03791*
X00439Y03792*
X00441Y03792*
X00442Y03793*
X00444Y03793*
X00445Y03794*
X00447Y03795*
X00448Y03796*
X00449Y03797*
X00451Y03798*
X00452Y038*
X00453Y03801*
X00454Y03802*
X00455Y03804*
X00455Y03805*
X00456Y03807*
X00457Y03809*
X00457Y0381*
X00457Y03812*
X00457Y03814*
X00457Y03815*
G54D34*
X00744Y00864D03*
Y00938D03*
X00637Y00866D03*
Y0094D03*
X03767Y00577D03*
Y00651D03*
X03137Y02175D03*
Y02249D03*
X02594Y01565D03*
Y01639D03*
X03161Y03203D03*
Y03277D03*
X02586Y03061D03*
Y03135D03*
X02578Y02904D03*
Y0283D03*
X02476Y02829D03*
Y02903D03*
X01657Y0271D03*
Y02636D03*
X02Y02939D03*
Y03013D03*
X0131Y02183D03*
Y02257D03*
X01306Y02422D03*
Y02348D03*
X02314Y00703D03*
Y00777D03*
X00971Y02422D03*
Y02348D03*
X00975Y02163D03*
Y02237D03*
X00862Y02304D03*
Y0223D03*
X00811Y0188D03*
Y01954D03*
X0122Y0173D03*
Y01804D03*
X00909Y01954D03*
Y0188D03*
Y01738D03*
Y01812D03*
X01031Y02644D03*
Y02718D03*
X01114D03*
Y02644D03*
X03464Y02959D03*
Y03033D03*
X02881Y0275D03*
Y02824D03*
X02787Y02758D03*
Y02832D03*
X02712Y02762D03*
Y02836D03*
X01952Y01397D03*
Y01323D03*
X01858Y01391D03*
Y01317D03*
X01763Y01387D03*
Y01313D03*
X01866Y02699D03*
Y02625D03*
X01602Y02958D03*
Y02884D03*
X01952Y0264D03*
Y02714D03*
X02035Y0262D03*
Y02694D03*
X0097Y03518D03*
Y03592D03*
X02929Y03088D03*
Y03014D03*
X02775Y03544D03*
Y0347D03*
X02519Y03375D03*
Y03301D03*
X03173Y03017D03*
Y02943D03*
X0122Y01884D03*
Y01958D03*
G54D35*
X00411Y00883D03*
Y00903D03*
Y00923D03*
Y00942D03*
X00502Y00883D03*
Y00903D03*
Y00923D03*
Y00942D03*
G54D36*
X00476Y00877D03*
X00456D03*
X00437D03*
X00476Y00949D03*
X00456D03*
X00437D03*
G54D37*
X03266Y00724D03*
X0334D03*
X03411Y0072D03*
X03485D03*
X03269Y01409D03*
X03195D03*
X02407Y01397D03*
X02333D03*
X03317Y02665D03*
X03391D03*
X03577Y03834D03*
X03651D03*
X03242Y03338D03*
X03316D03*
X00722Y03594D03*
X00796D03*
X01707Y02905D03*
X01781D03*
X0225Y00629D03*
X02324D03*
X02187Y00858D03*
X02261D03*
X02414Y00958D03*
X0234D03*
X02411Y00858D03*
X02337D03*
X00391Y01653D03*
X00317D03*
X0325Y01594D03*
X03324D03*
X03104D03*
X03178D03*
X0075Y01421D03*
X00824D03*
X0097D03*
X00896D03*
X00305Y01358D03*
X00379D03*
X00313Y0153D03*
X00387D03*
X035Y02762D03*
X03574D03*
X02994Y02799D03*
X03068D03*
X02837Y02622D03*
X02911D03*
X03041Y0246D03*
X03115D03*
X03111Y02645D03*
X03037D03*
X03572Y02838D03*
X03498D03*
X03041Y02374D03*
X03115D03*
X01364Y01519D03*
X01438D03*
X01375Y01606D03*
X01301D03*
X03132Y01818D03*
X03206D03*
X02407Y01311D03*
X02333D03*
X02185Y01221D03*
X02259D03*
X02407Y01224D03*
X02333D03*
X02407Y01141D03*
X02333D03*
X02185Y01134D03*
X02259D03*
X02407Y01047D03*
X02333D03*
X02185Y01047D03*
X02259D03*
X02185Y0096D03*
X02259D03*
X01537Y01488D03*
X01611D03*
X02706Y03326D03*
X02632D03*
X02259Y01395D03*
X02185D03*
X02259Y01308D03*
X02185D03*
X03588Y00598D03*
X03662D03*
X03198Y00728D03*
X03124D03*
X00211Y00637D03*
X00285D03*
X0293Y01834D03*
X02856D03*
X02695Y01771D03*
X02769D03*
X02962Y03342D03*
X02888D03*
G54D38*
X01585Y0236D03*
Y0234D03*
Y0232D03*
Y02301D03*
Y02281D03*
Y02261D03*
Y02242D03*
Y02222D03*
Y02202D03*
Y02183D03*
Y02163D03*
Y02143D03*
Y02124D03*
Y02104D03*
Y02084D03*
Y02064D03*
Y02045D03*
Y02025D03*
Y02005D03*
Y01986D03*
Y01966D03*
Y01946D03*
Y01927D03*
Y01907D03*
Y01887D03*
Y01868D03*
Y01848D03*
Y01828D03*
Y01809D03*
Y01789D03*
Y01769D03*
Y0175D03*
Y0173D03*
Y0171D03*
Y0169D03*
Y01671D03*
X0243D03*
Y0169D03*
Y0171D03*
Y0173D03*
Y0175D03*
Y01769D03*
Y01789D03*
Y01809D03*
Y01828D03*
Y01848D03*
Y01868D03*
Y01887D03*
Y01907D03*
Y01927D03*
Y01946D03*
Y01966D03*
Y01986D03*
Y02005D03*
Y02025D03*
Y02045D03*
Y02064D03*
Y02084D03*
Y02104D03*
Y02124D03*
Y02143D03*
Y02163D03*
Y02183D03*
Y02202D03*
Y02222D03*
Y02242D03*
Y02261D03*
Y02281D03*
Y02301D03*
Y0232D03*
Y0234D03*
Y0236D03*
G54D39*
X01663Y01593D03*
X01683D03*
X01702D03*
X01722D03*
X01742D03*
X01761D03*
X01781D03*
X01801D03*
X0182D03*
X0184D03*
X0186D03*
X01879D03*
X01899D03*
X01919D03*
X01938D03*
X01958D03*
X01978D03*
X01998D03*
X02017D03*
X02037D03*
X02057D03*
X02076D03*
X02096D03*
X02116D03*
X02135D03*
X02155D03*
X02175D03*
X02194D03*
X02214D03*
X02234D03*
X02253D03*
X02273D03*
X02293D03*
X02312D03*
X02332D03*
X02352D03*
Y02437D03*
X02332D03*
X02312D03*
X02293D03*
X02273D03*
X02253D03*
X02234D03*
X02214D03*
X02194D03*
X02175D03*
X02155D03*
X02135D03*
X02116D03*
X02096D03*
X02076D03*
X02057D03*
X02037D03*
X02017D03*
X01998D03*
X01978D03*
X01958D03*
X01938D03*
X01919D03*
X01899D03*
X01879D03*
X0186D03*
X0184D03*
X0182D03*
X01801D03*
X01781D03*
X01761D03*
X01742D03*
X01722D03*
X01702D03*
X01683D03*
X01663D03*
G54D40*
X03502Y03765D03*
Y0384D03*
X03424Y03803D03*
X03507Y03616D03*
Y0369D03*
X03429Y03653D03*
G54D41*
X03575Y03106D03*
Y03156D03*
Y03206D03*
Y03256D03*
X03361Y03106D03*
Y03156D03*
Y03206D03*
Y03256D03*
G54D42*
X02984Y03659D03*
Y03797D03*
X03125Y03663D03*
Y03801D03*
X03263Y03671D03*
Y03809D03*
X02811Y03023D03*
Y03161D03*
X00645Y03706D03*
Y03844D03*
X03783Y03155D03*
Y03293D03*
X00065Y00873D03*
X0375Y0283D03*
X00065Y03081D03*
G54D43*
X02437Y03103D03*
Y03235D03*
X0107Y03589D03*
Y03457D03*
X01169Y03589D03*
Y03457D03*
X0074Y03197D03*
Y03329D03*
X00874Y03197D03*
Y03329D03*
G54D44*
X01058Y01978D03*
Y0173D03*
X01137Y02179D03*
Y02427D03*
G54D45*
X03708Y03503D03*
Y03529D03*
Y03555D03*
Y0358D03*
Y03606D03*
G54D46*
X03814Y03515D03*
Y03594D03*
G54D47*
X03604Y03405D03*
X03489D03*
G54D48*
X00065Y00973D03*
X0385Y0283D03*
X0375Y0273D03*
X0385D03*
X0375Y0263D03*
X0385D03*
X0375Y0253D03*
X0385D03*
X0375Y0243D03*
X0385D03*
X0375Y0233D03*
X0385D03*
X0375Y0223D03*
X0385D03*
X0375Y0213D03*
X0385D03*
X0375Y0203D03*
X0385D03*
X0375Y0193D03*
X0385D03*
X0375Y0183D03*
X0385D03*
X0375Y0173D03*
X0385D03*
X0375Y0163D03*
X0385D03*
X0375Y0153D03*
X0385D03*
X0375Y0143D03*
X0385D03*
X0375Y0133D03*
X0385D03*
X0375Y0123D03*
X0385D03*
X0375Y0113D03*
X0385D03*
X0375Y0103D03*
X0385D03*
X0124Y03844D03*
X0134Y03744D03*
Y03844D03*
X0144Y03744D03*
Y03844D03*
X0154Y03744D03*
Y03844D03*
X0164Y03744D03*
Y03844D03*
X0174Y03744D03*
Y03844D03*
X0184Y03744D03*
Y03844D03*
X0194Y03744D03*
Y03844D03*
X0204Y03744D03*
Y03844D03*
X0214Y03744D03*
Y03844D03*
X0224Y03744D03*
Y03844D03*
X0234Y03744D03*
Y03844D03*
X0244Y03744D03*
Y03844D03*
X0254Y03744D03*
Y03844D03*
X0264Y03744D03*
Y03844D03*
X0274Y03744D03*
Y03844D03*
X03103Y0017D03*
Y0007D03*
X03003Y0017D03*
Y0007D03*
X02903Y0017D03*
Y0007D03*
X02803Y0017D03*
Y0007D03*
X02703Y0017D03*
Y0007D03*
X02603Y0017D03*
Y0007D03*
X02503Y0017D03*
X0097Y03844D03*
X0087D03*
X0077D03*
X00165Y01281D03*
X00065D03*
X00165Y01381D03*
X00065D03*
X00165Y01481D03*
X00065D03*
X00165Y01581D03*
X00065D03*
X00165Y01681D03*
X00065D03*
X00165Y01781D03*
X00065D03*
X00165Y01881D03*
X00065D03*
X00165Y01981D03*
X00065D03*
X00165Y02081D03*
X00065D03*
X00165Y02181D03*
X00065D03*
X00165Y02281D03*
X00065D03*
X00165Y02381D03*
X00065D03*
X00165Y02481D03*
X00065D03*
X00165Y02581D03*
X00065D03*
X00165Y02681D03*
X00065D03*
X00165Y02781D03*
X00065D03*
X00165Y02881D03*
X00065D03*
X00165Y02981D03*
X00065D03*
X00165Y03081D03*
X02208Y00178D03*
Y00078D03*
X02108Y00178D03*
Y00078D03*
X02008Y00178D03*
Y00078D03*
X01908Y00178D03*
Y00078D03*
X01808Y00178D03*
Y00078D03*
X01708Y00178D03*
Y00078D03*
X01608Y00178D03*
Y00078D03*
X01508Y00178D03*
Y00078D03*
X01408Y00178D03*
Y00078D03*
X01308Y00178D03*
Y00078D03*
X01208Y00178D03*
Y00078D03*
X01108Y00178D03*
Y00078D03*
X01008Y00178D03*
Y00078D03*
X00908Y00178D03*
Y00078D03*
X00808Y00178D03*
Y00078D03*
X00708Y00178D03*
G54D49*
X0124Y03744D03*
X02503Y0007D03*
X0107Y03844D03*
X00708Y00078D03*
G54D50*
X00133Y03765D03*
Y03815D03*
X00183Y03765D03*
Y03815D03*
X00233Y03765D03*
Y03815D03*
X00283Y03765D03*
Y03815D03*
X00333Y03765D03*
Y03815D03*
X00383Y03765D03*
Y03815D03*
X00433Y03765D03*
Y03815D03*
G54D51*
X03708Y03456D03*
Y03653D03*
G54D52*
X03814Y03417D03*
Y03692D03*
G54D53*
X03783Y00102D03*
X03437Y00448D03*
X00456Y0011D03*
X0011Y00456D03*
G54D54*
X03437Y00102D03*
X0011Y0011D03*
G54D55*
X0361Y00275D03*
X0351D03*
X00283Y00283D03*
X00183D03*
G54D56*
X0296Y03188D03*
X0107Y02267D03*
X01015Y01838D03*
X00374Y00661D03*
M02*