%FSTAX23Y23*%
%MOIN*%
%SFA1B1*%

%IPPOS*%
%ADD33C,0.000000*%
%ADD69C,0.039370*%
%ADD70C,0.003940*%
%LNnucleoclone-1*%
%LPD*%
G54D33*
X03719Y03462D02*
D01*
X03719Y03463*
X03719Y03464*
X03719Y03464*
X03719Y03465*
X03718Y03466*
X03718Y03467*
X03718Y03467*
X03717Y03468*
X03717Y03468*
X03716Y03469*
X03716Y0347*
X03715Y0347*
X03715Y03471*
X03714Y03471*
X03714Y03471*
X03713Y03472*
X03712Y03472*
X03712Y03472*
X03711Y03473*
X0371Y03473*
X03709Y03473*
X03709Y03473*
X03708*
X03707Y03473*
X03706Y03473*
X03706Y03473*
X03705Y03472*
X03704Y03472*
X03703Y03472*
X03703Y03471*
X03702Y03471*
X03701Y03471*
X03701Y0347*
X037Y0347*
X037Y03469*
X03699Y03468*
X03699Y03468*
X03699Y03467*
X03698Y03467*
X03698Y03466*
X03698Y03465*
X03698Y03464*
X03697Y03464*
X03697Y03463*
X03697Y03462*
Y0345D02*
D01*
X03697Y0345*
X03697Y03449*
X03698Y03448*
X03698Y03447*
X03698Y03447*
X03698Y03446*
X03699Y03445*
X03699Y03445*
X03699Y03444*
X037Y03443*
X037Y03443*
X03701Y03442*
X03701Y03442*
X03702Y03441*
X03703Y03441*
X03703Y03441*
X03704Y0344*
X03705Y0344*
X03706Y0344*
X03706Y0344*
X03707Y0344*
X03708Y03439*
X03709*
X03709Y0344*
X0371Y0344*
X03711Y0344*
X03712Y0344*
X03712Y0344*
X03713Y03441*
X03714Y03441*
X03714Y03441*
X03715Y03442*
X03715Y03442*
X03716Y03443*
X03716Y03443*
X03717Y03444*
X03717Y03445*
X03718Y03445*
X03718Y03446*
X03718Y03447*
X03719Y03447*
X03719Y03448*
X03719Y03449*
X03719Y0345*
X03719Y0345*
Y03659D02*
D01*
X03719Y0366*
X03719Y0366*
X03719Y03661*
X03719Y03662*
X03718Y03663*
X03718Y03663*
X03718Y03664*
X03717Y03665*
X03717Y03665*
X03716Y03666*
X03716Y03666*
X03715Y03667*
X03715Y03667*
X03714Y03668*
X03714Y03668*
X03713Y03669*
X03712Y03669*
X03712Y03669*
X03711Y03669*
X0371Y0367*
X03709Y0367*
X03709Y0367*
X03708*
X03707Y0367*
X03706Y0367*
X03706Y03669*
X03705Y03669*
X03704Y03669*
X03703Y03669*
X03703Y03668*
X03702Y03668*
X03701Y03667*
X03701Y03667*
X037Y03666*
X037Y03666*
X03699Y03665*
X03699Y03665*
X03699Y03664*
X03698Y03663*
X03698Y03663*
X03698Y03662*
X03698Y03661*
X03697Y0366*
X03697Y0366*
X03697Y03659*
Y03647D02*
D01*
X03697Y03646*
X03697Y03646*
X03698Y03645*
X03698Y03644*
X03698Y03643*
X03698Y03643*
X03699Y03642*
X03699Y03641*
X03699Y03641*
X037Y0364*
X037Y0364*
X03701Y03639*
X03701Y03639*
X03702Y03638*
X03703Y03638*
X03703Y03637*
X03704Y03637*
X03705Y03637*
X03706Y03637*
X03706Y03636*
X03707Y03636*
X03708Y03636*
X03709*
X03709Y03636*
X0371Y03636*
X03711Y03637*
X03712Y03637*
X03712Y03637*
X03713Y03637*
X03714Y03638*
X03714Y03638*
X03715Y03639*
X03715Y03639*
X03716Y0364*
X03716Y0364*
X03717Y03641*
X03717Y03641*
X03718Y03642*
X03718Y03643*
X03718Y03643*
X03719Y03644*
X03719Y03645*
X03719Y03646*
X03719Y03646*
X03719Y03647*
X03802Y03427D02*
D01*
X03801Y03427*
X038Y03427*
X038Y03426*
X03799Y03426*
X03798Y03426*
X03798Y03426*
X03797Y03426*
X03796Y03425*
X03796Y03425*
X03795Y03424*
X03795Y03424*
X03794Y03423*
X03794Y03423*
X03794Y03422*
X03793Y03422*
X03793Y03421*
X03793Y03421*
X03792Y0342*
X03792Y03419*
X03792Y03419*
X03792Y03418*
X03792Y03417*
Y03416*
X03792Y03416*
X03792Y03415*
X03792Y03414*
X03792Y03414*
X03793Y03413*
X03793Y03413*
X03793Y03412*
X03794Y03411*
X03794Y03411*
X03794Y0341*
X03795Y0341*
X03795Y03409*
X03796Y03409*
X03796Y03408*
X03797Y03408*
X03798Y03408*
X03798Y03408*
X03799Y03407*
X038Y03407*
X038Y03407*
X03801Y03407*
X03802Y03407*
X03827D02*
D01*
X03828Y03407*
X03829Y03407*
X03829Y03407*
X0383Y03407*
X03831Y03408*
X03831Y03408*
X03832Y03408*
X03832Y03408*
X03833Y03409*
X03834Y03409*
X03834Y0341*
X03835Y0341*
X03835Y03411*
X03835Y03411*
X03836Y03412*
X03836Y03413*
X03836Y03413*
X03837Y03414*
X03837Y03414*
X03837Y03415*
X03837Y03416*
X03837Y03416*
Y03417*
X03837Y03418*
X03837Y03419*
X03837Y03419*
X03837Y0342*
X03836Y03421*
X03836Y03421*
X03836Y03422*
X03835Y03422*
X03835Y03423*
X03835Y03423*
X03834Y03424*
X03834Y03424*
X03833Y03425*
X03832Y03425*
X03832Y03426*
X03831Y03426*
X03831Y03426*
X0383Y03426*
X03829Y03426*
X03829Y03427*
X03828Y03427*
X03827Y03427*
Y03683D02*
D01*
X03828Y03683*
X03829Y03683*
X03829Y03683*
X0383Y03683*
X03831Y03683*
X03831Y03683*
X03832Y03684*
X03832Y03684*
X03833Y03684*
X03834Y03685*
X03834Y03685*
X03835Y03686*
X03835Y03686*
X03835Y03687*
X03836Y03687*
X03836Y03688*
X03836Y03689*
X03837Y03689*
X03837Y0369*
X03837Y03691*
X03837Y03691*
X03837Y03692*
Y03693*
X03837Y03693*
X03837Y03694*
X03837Y03695*
X03837Y03695*
X03836Y03696*
X03836Y03697*
X03836Y03697*
X03835Y03698*
X03835Y03698*
X03835Y03699*
X03834Y03699*
X03834Y037*
X03833Y037*
X03832Y03701*
X03832Y03701*
X03831Y03701*
X03831Y03702*
X0383Y03702*
X03829Y03702*
X03829Y03702*
X03828Y03702*
X03827Y03702*
X03802D02*
D01*
X03801Y03702*
X038Y03702*
X038Y03702*
X03799Y03702*
X03798Y03702*
X03798Y03701*
X03797Y03701*
X03796Y03701*
X03796Y037*
X03795Y037*
X03795Y03699*
X03794Y03699*
X03794Y03698*
X03794Y03698*
X03793Y03697*
X03793Y03697*
X03793Y03696*
X03792Y03695*
X03792Y03695*
X03792Y03694*
X03792Y03693*
X03792Y03693*
Y03692*
X03792Y03691*
X03792Y03691*
X03792Y0369*
X03792Y03689*
X03793Y03689*
X03793Y03688*
X03793Y03688*
X03794Y03687*
X03794Y03686*
X03794Y03686*
X03795Y03685*
X03795Y03685*
X03796Y03684*
X03796Y03684*
X03797Y03684*
X03798Y03683*
X03798Y03683*
X03799Y03683*
X038Y03683*
X038Y03683*
X03801Y03683*
X03802Y03683*
X00716Y00884D02*
X00772D01*
X00716Y00859D02*
Y00884D01*
X00772Y00859D02*
Y00884D01*
X00716Y00918D02*
X00772D01*
Y00943*
X00716Y00918D02*
Y00943D01*
X00772Y00884D02*
Y00918D01*
X00716Y00943D02*
X00772D01*
X00716Y00884D02*
Y00918D01*
Y00859D02*
X00772D01*
X00609Y00886D02*
X00665D01*
X00609Y00861D02*
Y00886D01*
X00665Y00861D02*
Y00886D01*
X00609Y0092D02*
X00665D01*
Y00945*
X00609Y0092D02*
Y00945D01*
X00665Y00886D02*
Y0092D01*
X00609Y00945D02*
X00665D01*
X00609Y00886D02*
Y0092D01*
Y00861D02*
X00665D01*
X03286Y00696D02*
Y00752D01*
X03261D02*
X03286D01*
X03261Y00696D02*
X03286D01*
X0332D02*
Y00752D01*
Y00696D02*
X03345D01*
X0332Y00752D02*
X03345D01*
X03286Y00696D02*
X0332D01*
X03345D02*
Y00752D01*
X03286D02*
X0332D01*
X03261Y00696D02*
Y00752D01*
X03431Y00692D02*
Y00748D01*
X03406D02*
X03431D01*
X03406Y00692D02*
X03431D01*
X03465D02*
Y00748D01*
Y00692D02*
X0349D01*
X03465Y00748D02*
X0349D01*
X03431Y00692D02*
X03465D01*
X0349D02*
Y00748D01*
X03431D02*
X03465D01*
X03406Y00692D02*
Y00748D01*
X03739Y00597D02*
X03795D01*
X03739Y00572D02*
Y00597D01*
X03795Y00572D02*
Y00597D01*
X03739Y00631D02*
X03795D01*
Y00656*
X03739Y00631D02*
Y00656D01*
X03795Y00597D02*
Y00631D01*
X03739Y00656D02*
X03795D01*
X03739Y00597D02*
Y00631D01*
Y00572D02*
X03795D01*
X03249Y01381D02*
Y01437D01*
Y01381D02*
X03274D01*
X03249Y01437D02*
X03274D01*
X03215Y01381D02*
Y01437D01*
X0319D02*
X03215D01*
X0319Y01381D02*
X03215D01*
Y01437D02*
X03249D01*
X0319Y01381D02*
Y01437D01*
X03215Y01381D02*
X03249D01*
X03274D02*
Y01437D01*
X02387Y01369D02*
Y01425D01*
Y01369D02*
X02412D01*
X02387Y01425D02*
X02412D01*
X02353Y01369D02*
Y01425D01*
X02328D02*
X02353D01*
X02328Y01369D02*
X02353D01*
Y01425D02*
X02387D01*
X02328Y01369D02*
Y01425D01*
X02353Y01369D02*
X02387D01*
X02412D02*
Y01425D01*
X03337Y02637D02*
Y02693D01*
X03312D02*
X03337D01*
X03312Y02637D02*
X03337D01*
X03371D02*
Y02693D01*
Y02637D02*
X03396D01*
X03371Y02693D02*
X03396D01*
X03337Y02637D02*
X03371D01*
X03396D02*
Y02693D01*
X03337D02*
X03371D01*
X03312Y02637D02*
Y02693D01*
X03109Y02195D02*
X03165D01*
X03109Y0217D02*
Y02195D01*
X03165Y0217D02*
Y02195D01*
X03109Y02229D02*
X03165D01*
Y02254*
X03109Y02229D02*
Y02254D01*
X03165Y02195D02*
Y02229D01*
X03109Y02254D02*
X03165D01*
X03109Y02195D02*
Y02229D01*
Y0217D02*
X03165D01*
X02566Y01585D02*
X02622D01*
X02566Y0156D02*
Y01585D01*
X02622Y0156D02*
Y01585D01*
X02566Y01619D02*
X02622D01*
Y01644*
X02566Y01619D02*
Y01644D01*
X02622Y01585D02*
Y01619D01*
X02566Y01644D02*
X02622D01*
X02566Y01585D02*
Y01619D01*
Y0156D02*
X02622D01*
X03597Y03806D02*
Y03862D01*
X03572D02*
X03597D01*
X03572Y03806D02*
X03597D01*
X03631D02*
Y03862D01*
Y03806D02*
X03656D01*
X03631Y03862D02*
X03656D01*
X03597Y03806D02*
X03631D01*
X03656D02*
Y03862D01*
X03597D02*
X03631D01*
X03572Y03806D02*
Y03862D01*
X03262Y0331D02*
Y03366D01*
X03237D02*
X03262D01*
X03237Y0331D02*
X03262D01*
X03296D02*
Y03366D01*
Y0331D02*
X03321D01*
X03296Y03366D02*
X03321D01*
X03262Y0331D02*
X03296D01*
X03321D02*
Y03366D01*
X03262D02*
X03296D01*
X03237Y0331D02*
Y03366D01*
X03133Y03223D02*
X03189D01*
X03133Y03198D02*
Y03223D01*
X03189Y03198D02*
Y03223D01*
X03133Y03257D02*
X03189D01*
Y03282*
X03133Y03257D02*
Y03282D01*
X03189Y03223D02*
Y03257D01*
X03133Y03282D02*
X03189D01*
X03133Y03223D02*
Y03257D01*
Y03198D02*
X03189D01*
X02558Y03081D02*
X02614D01*
X02558Y03056D02*
Y03081D01*
X02614Y03056D02*
Y03081D01*
X02558Y03115D02*
X02614D01*
Y0314*
X02558Y03115D02*
Y0314D01*
X02614Y03081D02*
Y03115D01*
X02558Y0314D02*
X02614D01*
X02558Y03081D02*
Y03115D01*
Y03056D02*
X02614D01*
X0255Y02884D02*
X02606D01*
Y02909*
X0255Y02884D02*
Y02909D01*
Y0285D02*
X02606D01*
X0255Y02825D02*
Y0285D01*
X02606Y02825D02*
Y0285D01*
X0255D02*
Y02884D01*
Y02825D02*
X02606D01*
Y0285D02*
Y02884D01*
X0255Y02909D02*
X02606D01*
X02448Y02849D02*
X02504D01*
X02448Y02824D02*
Y02849D01*
X02504Y02824D02*
Y02849D01*
X02448Y02883D02*
X02504D01*
Y02908*
X02448Y02883D02*
Y02908D01*
X02504Y02849D02*
Y02883D01*
X02448Y02908D02*
X02504D01*
X02448Y02849D02*
Y02883D01*
Y02824D02*
X02504D01*
X01629Y0269D02*
X01685D01*
Y02715*
X01629Y0269D02*
Y02715D01*
Y02656D02*
X01685D01*
X01629Y02631D02*
Y02656D01*
X01685Y02631D02*
Y02656D01*
X01629D02*
Y0269D01*
Y02631D02*
X01685D01*
Y02656D02*
Y0269D01*
X01629Y02715D02*
X01685D01*
X00742Y03566D02*
Y03622D01*
X00717D02*
X00742D01*
X00717Y03566D02*
X00742D01*
X00776D02*
Y03622D01*
Y03566D02*
X00801D01*
X00776Y03622D02*
X00801D01*
X00742Y03566D02*
X00776D01*
X00801D02*
Y03622D01*
X00742D02*
X00776D01*
X00717Y03566D02*
Y03622D01*
X01972Y02959D02*
X02028D01*
X01972Y02934D02*
Y02959D01*
X02028Y02934D02*
Y02959D01*
X01972Y02993D02*
X02028D01*
Y03018*
X01972Y02993D02*
Y03018D01*
X02028Y02959D02*
Y02993D01*
X01972Y03018D02*
X02028D01*
X01972Y02959D02*
Y02993D01*
Y02934D02*
X02028D01*
X01282Y02203D02*
X01338D01*
X01282Y02178D02*
Y02203D01*
X01338Y02178D02*
Y02203D01*
X01282Y02237D02*
X01338D01*
Y02262*
X01282Y02237D02*
Y02262D01*
X01338Y02203D02*
Y02237D01*
X01282Y02262D02*
X01338D01*
X01282Y02203D02*
Y02237D01*
Y02178D02*
X01338D01*
X01278Y02402D02*
X01334D01*
Y02427*
X01278Y02402D02*
Y02427D01*
Y02368D02*
X01334D01*
X01278Y02343D02*
Y02368D01*
X01334Y02343D02*
Y02368D01*
X01278D02*
Y02402D01*
Y02343D02*
X01334D01*
Y02368D02*
Y02402D01*
X01278Y02427D02*
X01334D01*
X01727Y02877D02*
Y02933D01*
X01702D02*
X01727D01*
X01702Y02877D02*
X01727D01*
X01761D02*
Y02933D01*
Y02877D02*
X01786D01*
X01761Y02933D02*
X01786D01*
X01727Y02877D02*
X01761D01*
X01786D02*
Y02933D01*
X01727D02*
X01761D01*
X01702Y02877D02*
Y02933D01*
X0227Y00601D02*
Y00657D01*
X02245D02*
X0227D01*
X02245Y00601D02*
X0227D01*
X02304D02*
Y00657D01*
Y00601D02*
X02329D01*
X02304Y00657D02*
X02329D01*
X0227Y00601D02*
X02304D01*
X02329D02*
Y00657D01*
X0227D02*
X02304D01*
X02245Y00601D02*
Y00657D01*
X02286Y00723D02*
X02342D01*
X02286Y00698D02*
Y00723D01*
X02342Y00698D02*
Y00723D01*
X02286Y00757D02*
X02342D01*
Y00782*
X02286Y00757D02*
Y00782D01*
X02342Y00723D02*
Y00757D01*
X02286Y00782D02*
X02342D01*
X02286Y00723D02*
Y00757D01*
Y00698D02*
X02342D01*
X02207Y0083D02*
Y00886D01*
X02182D02*
X02207D01*
X02182Y0083D02*
X02207D01*
X02241D02*
Y00886D01*
Y0083D02*
X02266D01*
X02241Y00886D02*
X02266D01*
X02207Y0083D02*
X02241D01*
X02266D02*
Y00886D01*
X02207D02*
X02241D01*
X02182Y0083D02*
Y00886D01*
X02394Y0093D02*
Y00986D01*
Y0093D02*
X02419D01*
X02394Y00986D02*
X02419D01*
X0236Y0093D02*
Y00986D01*
X02335D02*
X0236D01*
X02335Y0093D02*
X0236D01*
Y00986D02*
X02394D01*
X02335Y0093D02*
Y00986D01*
X0236Y0093D02*
X02394D01*
X02419D02*
Y00986D01*
X02391Y0083D02*
Y00886D01*
Y0083D02*
X02416D01*
X02391Y00886D02*
X02416D01*
X02357Y0083D02*
Y00886D01*
X02332D02*
X02357D01*
X02332Y0083D02*
X02357D01*
Y00886D02*
X02391D01*
X02332Y0083D02*
Y00886D01*
X02357Y0083D02*
X02391D01*
X02416D02*
Y00886D01*
X00943Y02402D02*
X00999D01*
Y02427*
X00943Y02402D02*
Y02427D01*
Y02368D02*
X00999D01*
X00943Y02343D02*
Y02368D01*
X00999Y02343D02*
Y02368D01*
X00943D02*
Y02402D01*
Y02343D02*
X00999D01*
Y02368D02*
Y02402D01*
X00943Y02427D02*
X00999D01*
X00947Y02183D02*
X01003D01*
X00947Y02158D02*
Y02183D01*
X01003Y02158D02*
Y02183D01*
X00947Y02217D02*
X01003D01*
Y02242*
X00947Y02217D02*
Y02242D01*
X01003Y02183D02*
Y02217D01*
X00947Y02242D02*
X01003D01*
X00947Y02183D02*
Y02217D01*
Y02158D02*
X01003D01*
X00834Y02284D02*
X0089D01*
Y02309*
X00834Y02284D02*
Y02309D01*
Y0225D02*
X0089D01*
X00834Y02225D02*
Y0225D01*
X0089Y02225D02*
Y0225D01*
X00834D02*
Y02284D01*
Y02225D02*
X0089D01*
Y0225D02*
Y02284D01*
X00834Y02309D02*
X0089D01*
X00371Y01625D02*
Y01681D01*
Y01625D02*
X00396D01*
X00371Y01681D02*
X00396D01*
X00337Y01625D02*
Y01681D01*
X00312D02*
X00337D01*
X00312Y01625D02*
X00337D01*
Y01681D02*
X00371D01*
X00312Y01625D02*
Y01681D01*
X00337Y01625D02*
X00371D01*
X00396D02*
Y01681D01*
X00783Y019D02*
X00839D01*
X00783Y01875D02*
Y019D01*
X00839Y01875D02*
Y019D01*
X00783Y01934D02*
X00839D01*
Y01959*
X00783Y01934D02*
Y01959D01*
X00839Y019D02*
Y01934D01*
X00783Y01959D02*
X00839D01*
X00783Y019D02*
Y01934D01*
Y01875D02*
X00839D01*
X03329Y01566D02*
Y01622D01*
X0327Y01566D02*
X03304D01*
X03245D02*
Y01622D01*
X0327D02*
X03304D01*
X03245Y01566D02*
X0327D01*
X03245Y01622D02*
X0327D01*
Y01566D02*
Y01622D01*
X03304D02*
X03329D01*
X03304Y01566D02*
X03329D01*
X03304D02*
Y01622D01*
X03124Y01566D02*
Y01622D01*
X03099D02*
X03124D01*
X03099Y01566D02*
X03124D01*
X03158D02*
Y01622D01*
Y01566D02*
X03183D01*
X03158Y01622D02*
X03183D01*
X03124Y01566D02*
X03158D01*
X03183D02*
Y01622D01*
X03124D02*
X03158D01*
X03099Y01566D02*
Y01622D01*
X0077Y01393D02*
Y01449D01*
X00745D02*
X0077D01*
X00745Y01393D02*
X0077D01*
X00804D02*
Y01449D01*
Y01393D02*
X00829D01*
X00804Y01449D02*
X00829D01*
X0077Y01393D02*
X00804D01*
X00829D02*
Y01449D01*
X0077D02*
X00804D01*
X00745Y01393D02*
Y01449D01*
X0095Y01393D02*
Y01449D01*
Y01393D02*
X00975D01*
X0095Y01449D02*
X00975D01*
X00916Y01393D02*
Y01449D01*
X00891D02*
X00916D01*
X00891Y01393D02*
X00916D01*
Y01449D02*
X0095D01*
X00891Y01393D02*
Y01449D01*
X00916Y01393D02*
X0095D01*
X00975D02*
Y01449D01*
X00325Y0133D02*
Y01386D01*
X003D02*
X00325D01*
X003Y0133D02*
X00325D01*
X00359D02*
Y01386D01*
Y0133D02*
X00384D01*
X00359Y01386D02*
X00384D01*
X00325Y0133D02*
X00359D01*
X00384D02*
Y01386D01*
X00325D02*
X00359D01*
X003Y0133D02*
Y01386D01*
X01192Y0175D02*
X01248D01*
X01192Y01725D02*
Y0175D01*
X01248Y01725D02*
Y0175D01*
X01192Y01784D02*
X01248D01*
Y01809*
X01192Y01784D02*
Y01809D01*
X01248Y0175D02*
Y01784D01*
X01192Y01809D02*
X01248D01*
X01192Y0175D02*
Y01784D01*
Y01725D02*
X01248D01*
X00881Y01934D02*
X00937D01*
Y01959*
X00881Y01934D02*
Y01959D01*
Y019D02*
X00937D01*
X00881Y01875D02*
Y019D01*
X00937Y01875D02*
Y019D01*
X00881D02*
Y01934D01*
Y01875D02*
X00937D01*
Y019D02*
Y01934D01*
X00881Y01959D02*
X00937D01*
X00881Y01758D02*
X00937D01*
X00881Y01733D02*
Y01758D01*
X00937Y01733D02*
Y01758D01*
X00881Y01792D02*
X00937D01*
Y01817*
X00881Y01792D02*
Y01817D01*
X00937Y01758D02*
Y01792D01*
X00881Y01817D02*
X00937D01*
X00881Y01758D02*
Y01792D01*
Y01733D02*
X00937D01*
X00333Y01502D02*
Y01558D01*
X00308D02*
X00333D01*
X00308Y01502D02*
X00333D01*
X00367D02*
Y01558D01*
Y01502D02*
X00392D01*
X00367Y01558D02*
X00392D01*
X00333Y01502D02*
X00367D01*
X00392D02*
Y01558D01*
X00333D02*
X00367D01*
X00308Y01502D02*
Y01558D01*
X01003Y02664D02*
X01059D01*
X01003Y02639D02*
Y02664D01*
X01059Y02639D02*
Y02664D01*
X01003Y02698D02*
X01059D01*
Y02723*
X01003Y02698D02*
Y02723D01*
X01059Y02664D02*
Y02698D01*
X01003Y02723D02*
X01059D01*
X01003Y02664D02*
Y02698D01*
Y02639D02*
X01059D01*
X01086Y02698D02*
X01142D01*
Y02723*
X01086Y02698D02*
Y02723D01*
Y02664D02*
X01142D01*
X01086Y02639D02*
Y02664D01*
X01142Y02639D02*
Y02664D01*
X01086D02*
Y02698D01*
Y02639D02*
X01142D01*
Y02664D02*
Y02698D01*
X01086Y02723D02*
X01142D01*
X0352Y02734D02*
Y0279D01*
X03495D02*
X0352D01*
X03495Y02734D02*
X0352D01*
X03554D02*
Y0279D01*
Y02734D02*
X03579D01*
X03554Y0279D02*
X03579D01*
X0352Y02734D02*
X03554D01*
X03579D02*
Y0279D01*
X0352D02*
X03554D01*
X03495Y02734D02*
Y0279D01*
X03436Y02979D02*
X03492D01*
X03436Y02954D02*
Y02979D01*
X03492Y02954D02*
Y02979D01*
X03436Y03013D02*
X03492D01*
Y03038*
X03436Y03013D02*
Y03038D01*
X03492Y02979D02*
Y03013D01*
X03436Y03038D02*
X03492D01*
X03436Y02979D02*
Y03013D01*
Y02954D02*
X03492D01*
X03014Y02771D02*
Y02827D01*
X02989D02*
X03014D01*
X02989Y02771D02*
X03014D01*
X03048D02*
Y02827D01*
Y02771D02*
X03073D01*
X03048Y02827D02*
X03073D01*
X03014Y02771D02*
X03048D01*
X03073D02*
Y02827D01*
X03014D02*
X03048D01*
X02989Y02771D02*
Y02827D01*
X02853Y0277D02*
X02909D01*
X02853Y02745D02*
Y0277D01*
X02909Y02745D02*
Y0277D01*
X02853Y02804D02*
X02909D01*
Y02829*
X02853Y02804D02*
Y02829D01*
X02909Y0277D02*
Y02804D01*
X02853Y02829D02*
X02909D01*
X02853Y0277D02*
Y02804D01*
Y02745D02*
X02909D01*
X02759Y02778D02*
X02815D01*
X02759Y02753D02*
Y02778D01*
X02815Y02753D02*
Y02778D01*
X02759Y02812D02*
X02815D01*
Y02837*
X02759Y02812D02*
Y02837D01*
X02815Y02778D02*
Y02812D01*
X02759Y02837D02*
X02815D01*
X02759Y02778D02*
Y02812D01*
Y02753D02*
X02815D01*
X02857Y02594D02*
Y0265D01*
X02832D02*
X02857D01*
X02832Y02594D02*
X02857D01*
X02891D02*
Y0265D01*
Y02594D02*
X02916D01*
X02891Y0265D02*
X02916D01*
X02857Y02594D02*
X02891D01*
X02916D02*
Y0265D01*
X02857D02*
X02891D01*
X02832Y02594D02*
Y0265D01*
X02684Y02782D02*
X0274D01*
X02684Y02757D02*
Y02782D01*
X0274Y02757D02*
Y02782D01*
X02684Y02816D02*
X0274D01*
Y02841*
X02684Y02816D02*
Y02841D01*
X0274Y02782D02*
Y02816D01*
X02684Y02841D02*
X0274D01*
X02684Y02782D02*
Y02816D01*
Y02757D02*
X0274D01*
X03061Y02432D02*
Y02488D01*
X03036D02*
X03061D01*
X03036Y02432D02*
X03061D01*
X03095D02*
Y02488D01*
Y02432D02*
X0312D01*
X03095Y02488D02*
X0312D01*
X03061Y02432D02*
X03095D01*
X0312D02*
Y02488D01*
X03061D02*
X03095D01*
X03036Y02432D02*
Y02488D01*
X03091Y02617D02*
Y02673D01*
Y02617D02*
X03116D01*
X03091Y02673D02*
X03116D01*
X03057Y02617D02*
Y02673D01*
X03032D02*
X03057D01*
X03032Y02617D02*
X03057D01*
Y02673D02*
X03091D01*
X03032Y02617D02*
Y02673D01*
X03057Y02617D02*
X03091D01*
X03116D02*
Y02673D01*
X03552Y0281D02*
Y02866D01*
Y0281D02*
X03577D01*
X03552Y02866D02*
X03577D01*
X03518Y0281D02*
Y02866D01*
X03493D02*
X03518D01*
X03493Y0281D02*
X03518D01*
Y02866D02*
X03552D01*
X03493Y0281D02*
Y02866D01*
X03518Y0281D02*
X03552D01*
X03577D02*
Y02866D01*
X03061Y02346D02*
Y02402D01*
X03036D02*
X03061D01*
X03036Y02346D02*
X03061D01*
X03095D02*
Y02402D01*
Y02346D02*
X0312D01*
X03095Y02402D02*
X0312D01*
X03061Y02346D02*
X03095D01*
X0312D02*
Y02402D01*
X03061D02*
X03095D01*
X03036Y02346D02*
Y02402D01*
X01443Y01491D02*
Y01547D01*
X01384Y01491D02*
X01418D01*
X01359D02*
Y01547D01*
X01384D02*
X01418D01*
X01359Y01491D02*
X01384D01*
X01359Y01547D02*
X01384D01*
Y01491D02*
Y01547D01*
X01418D02*
X01443D01*
X01418Y01491D02*
X01443D01*
X01418D02*
Y01547D01*
X01355Y01578D02*
Y01634D01*
Y01578D02*
X0138D01*
X01355Y01634D02*
X0138D01*
X01321Y01578D02*
Y01634D01*
X01296D02*
X01321D01*
X01296Y01578D02*
X01321D01*
Y01634D02*
X01355D01*
X01296Y01578D02*
Y01634D01*
X01321Y01578D02*
X01355D01*
X0138D02*
Y01634D01*
X01924Y01377D02*
X0198D01*
Y01402*
X01924Y01377D02*
Y01402D01*
Y01343D02*
X0198D01*
X01924Y01318D02*
Y01343D01*
X0198Y01318D02*
Y01343D01*
X01924D02*
Y01377D01*
Y01318D02*
X0198D01*
Y01343D02*
Y01377D01*
X01924Y01402D02*
X0198D01*
X0183Y01371D02*
X01886D01*
Y01396*
X0183Y01371D02*
Y01396D01*
Y01337D02*
X01886D01*
X0183Y01312D02*
Y01337D01*
X01886Y01312D02*
Y01337D01*
X0183D02*
Y01371D01*
Y01312D02*
X01886D01*
Y01337D02*
Y01371D01*
X0183Y01396D02*
X01886D01*
X01735Y01367D02*
X01791D01*
Y01392*
X01735Y01367D02*
Y01392D01*
Y01333D02*
X01791D01*
X01735Y01308D02*
Y01333D01*
X01791Y01308D02*
Y01333D01*
X01735D02*
Y01367D01*
Y01308D02*
X01791D01*
Y01333D02*
Y01367D01*
X01735Y01392D02*
X01791D01*
X01838Y02679D02*
X01894D01*
Y02704*
X01838Y02679D02*
Y02704D01*
Y02645D02*
X01894D01*
X01838Y0262D02*
Y02645D01*
X01894Y0262D02*
Y02645D01*
X01838D02*
Y02679D01*
Y0262D02*
X01894D01*
Y02645D02*
Y02679D01*
X01838Y02704D02*
X01894D01*
X01574Y02938D02*
X0163D01*
Y02963*
X01574Y02938D02*
Y02963D01*
Y02904D02*
X0163D01*
X01574Y02879D02*
Y02904D01*
X0163Y02879D02*
Y02904D01*
X01574D02*
Y02938D01*
Y02879D02*
X0163D01*
Y02904D02*
Y02938D01*
X01574Y02963D02*
X0163D01*
X01924Y0266D02*
X0198D01*
X01924Y02635D02*
Y0266D01*
X0198Y02635D02*
Y0266D01*
X01924Y02694D02*
X0198D01*
Y02719*
X01924Y02694D02*
Y02719D01*
X0198Y0266D02*
Y02694D01*
X01924Y02719D02*
X0198D01*
X01924Y0266D02*
Y02694D01*
Y02635D02*
X0198D01*
X02007Y0264D02*
X02063D01*
X02007Y02615D02*
Y0264D01*
X02063Y02615D02*
Y0264D01*
X02007Y02674D02*
X02063D01*
Y02699*
X02007Y02674D02*
Y02699D01*
X02063Y0264D02*
Y02674D01*
X02007Y02699D02*
X02063D01*
X02007Y0264D02*
Y02674D01*
Y02615D02*
X02063D01*
X00942Y03538D02*
X00998D01*
X00942Y03513D02*
Y03538D01*
X00998Y03513D02*
Y03538D01*
X00942Y03572D02*
X00998D01*
Y03597*
X00942Y03572D02*
Y03597D01*
X00998Y03538D02*
Y03572D01*
X00942Y03597D02*
X00998D01*
X00942Y03538D02*
Y03572D01*
Y03513D02*
X00998D01*
X03152Y0179D02*
Y01846D01*
X03127D02*
X03152D01*
X03127Y0179D02*
X03152D01*
X03186D02*
Y01846D01*
Y0179D02*
X03211D01*
X03186Y01846D02*
X03211D01*
X03152Y0179D02*
X03186D01*
X03211D02*
Y01846D01*
X03152D02*
X03186D01*
X03127Y0179D02*
Y01846D01*
X03697Y0345D02*
Y03462D01*
X03719Y0345D02*
Y03462D01*
X03697Y03647D02*
Y03659D01*
X03719Y03647D02*
Y03659D01*
X03802Y03407D02*
X03827D01*
X03802Y03427D02*
X03827D01*
X03802Y03702D02*
X03827D01*
X03802Y03683D02*
X03827D01*
X02387Y01283D02*
Y01339D01*
Y01283D02*
X02412D01*
X02387Y01339D02*
X02412D01*
X02353Y01283D02*
Y01339D01*
X02328D02*
X02353D01*
X02328Y01283D02*
X02353D01*
Y01339D02*
X02387D01*
X02328Y01283D02*
Y01339D01*
X02353Y01283D02*
X02387D01*
X02412D02*
Y01339D01*
X02205Y01193D02*
Y01249D01*
X0218D02*
X02205D01*
X0218Y01193D02*
X02205D01*
X02239D02*
Y01249D01*
Y01193D02*
X02264D01*
X02239Y01249D02*
X02264D01*
X02205Y01193D02*
X02239D01*
X02264D02*
Y01249D01*
X02205D02*
X02239D01*
X0218Y01193D02*
Y01249D01*
X02387Y01196D02*
Y01252D01*
Y01196D02*
X02412D01*
X02387Y01252D02*
X02412D01*
X02353Y01196D02*
Y01252D01*
X02328D02*
X02353D01*
X02328Y01196D02*
X02353D01*
Y01252D02*
X02387D01*
X02328Y01196D02*
Y01252D01*
X02353Y01196D02*
X02387D01*
X02412D02*
Y01252D01*
X02387Y01113D02*
Y01169D01*
Y01113D02*
X02412D01*
X02387Y01169D02*
X02412D01*
X02353Y01113D02*
Y01169D01*
X02328D02*
X02353D01*
X02328Y01113D02*
X02353D01*
Y01169D02*
X02387D01*
X02328Y01113D02*
Y01169D01*
X02353Y01113D02*
X02387D01*
X02412D02*
Y01169D01*
X02205Y01106D02*
Y01162D01*
X0218D02*
X02205D01*
X0218Y01106D02*
X02205D01*
X02239D02*
Y01162D01*
Y01106D02*
X02264D01*
X02239Y01162D02*
X02264D01*
X02205Y01106D02*
X02239D01*
X02264D02*
Y01162D01*
X02205D02*
X02239D01*
X0218Y01106D02*
Y01162D01*
X02387Y01019D02*
Y01075D01*
Y01019D02*
X02412D01*
X02387Y01075D02*
X02412D01*
X02353Y01019D02*
Y01075D01*
X02328D02*
X02353D01*
X02328Y01019D02*
X02353D01*
Y01075D02*
X02387D01*
X02328Y01019D02*
Y01075D01*
X02353Y01019D02*
X02387D01*
X02412D02*
Y01075D01*
X02205Y01019D02*
Y01075D01*
X0218D02*
X02205D01*
X0218Y01019D02*
X02205D01*
X02239D02*
Y01075D01*
Y01019D02*
X02264D01*
X02239Y01075D02*
X02264D01*
X02205Y01019D02*
X02239D01*
X02264D02*
Y01075D01*
X02205D02*
X02239D01*
X0218Y01019D02*
Y01075D01*
X02205Y00932D02*
Y00988D01*
X0218D02*
X02205D01*
X0218Y00932D02*
X02205D01*
X02239D02*
Y00988D01*
Y00932D02*
X02264D01*
X02239Y00988D02*
X02264D01*
X02205Y00932D02*
X02239D01*
X02264D02*
Y00988D01*
X02205D02*
X02239D01*
X0218Y00932D02*
Y00988D01*
X01616Y0146D02*
Y01516D01*
X01557Y0146D02*
X01591D01*
X01532D02*
Y01516D01*
X01557D02*
X01591D01*
X01532Y0146D02*
X01557D01*
X01532Y01516D02*
X01557D01*
Y0146D02*
Y01516D01*
X01591D02*
X01616D01*
X01591Y0146D02*
X01616D01*
X01591D02*
Y01516D01*
X02901Y03009D02*
X02957D01*
X02901Y03034D02*
Y03068D01*
Y03093D02*
X02957D01*
Y03034D02*
Y03068D01*
X02901D02*
Y03093D01*
X02957Y03068D02*
Y03093D01*
X02901Y03068D02*
X02957D01*
Y03009D02*
Y03034D01*
X02901Y03009D02*
Y03034D01*
X02957*
X02747Y03465D02*
X02803D01*
X02747Y0349D02*
Y03524D01*
Y03549D02*
X02803D01*
Y0349D02*
Y03524D01*
X02747D02*
Y03549D01*
X02803Y03524D02*
Y03549D01*
X02747Y03524D02*
X02803D01*
Y03465D02*
Y0349D01*
X02747Y03465D02*
Y0349D01*
X02803*
X02491Y03296D02*
X02547D01*
X02491Y03321D02*
Y03355D01*
Y0338D02*
X02547D01*
Y03321D02*
Y03355D01*
X02491D02*
Y0338D01*
X02547Y03355D02*
Y0338D01*
X02491Y03355D02*
X02547D01*
Y03296D02*
Y03321D01*
X02491Y03296D02*
Y03321D01*
X02547*
X02627Y03298D02*
Y03354D01*
X02652D02*
X02686D01*
X02711Y03298D02*
Y03354D01*
X02652Y03298D02*
X02686D01*
Y03354D02*
X02711D01*
X02686Y03298D02*
X02711D01*
X02686D02*
Y03354D01*
X02627Y03298D02*
X02652D01*
X02627Y03354D02*
X02652D01*
Y03298D02*
Y03354D01*
X0218Y01367D02*
Y01423D01*
X02205D02*
X02239D01*
X02264Y01367D02*
Y01423D01*
X02205Y01367D02*
X02239D01*
Y01423D02*
X02264D01*
X02239Y01367D02*
X02264D01*
X02239D02*
Y01423D01*
X0218Y01367D02*
X02205D01*
X0218Y01423D02*
X02205D01*
Y01367D02*
Y01423D01*
X0218Y0128D02*
Y01336D01*
X02205D02*
X02239D01*
X02264Y0128D02*
Y01336D01*
X02205Y0128D02*
X02239D01*
Y01336D02*
X02264D01*
X02239Y0128D02*
X02264D01*
X02239D02*
Y01336D01*
X0218Y0128D02*
X02205D01*
X0218Y01336D02*
X02205D01*
Y0128D02*
Y01336D01*
X03145Y02938D02*
X03201D01*
X03145Y02963D02*
Y02997D01*
Y03022D02*
X03201D01*
Y02963D02*
Y02997D01*
X03145D02*
Y03022D01*
X03201Y02997D02*
Y03022D01*
X03145Y02997D02*
X03201D01*
Y02938D02*
Y02963D01*
X03145Y02938D02*
Y02963D01*
X03201*
X03667Y0057D02*
Y00626D01*
X03608Y0057D02*
X03642D01*
X03583D02*
Y00626D01*
X03608D02*
X03642D01*
X03583Y0057D02*
X03608D01*
X03583Y00626D02*
X03608D01*
Y0057D02*
Y00626D01*
X03642D02*
X03667D01*
X03642Y0057D02*
X03667D01*
X03642D02*
Y00626D01*
X03119Y007D02*
Y00756D01*
X03144D02*
X03178D01*
X03203Y007D02*
Y00756D01*
X03144Y007D02*
X03178D01*
Y00756D02*
X03203D01*
X03178Y007D02*
X03203D01*
X03178D02*
Y00756D01*
X03119Y007D02*
X03144D01*
X03119Y00756D02*
X03144D01*
Y007D02*
Y00756D01*
X0029Y00609D02*
Y00665D01*
X00231Y00609D02*
X00265D01*
X00206D02*
Y00665D01*
X00231D02*
X00265D01*
X00206Y00609D02*
X00231D01*
X00206Y00665D02*
X00231D01*
Y00609D02*
Y00665D01*
X00265D02*
X0029D01*
X00265Y00609D02*
X0029D01*
X00265D02*
Y00665D01*
X01192Y01963D02*
X01248D01*
Y01904D02*
Y01938D01*
X01192Y01879D02*
X01248D01*
X01192Y01904D02*
Y01938D01*
X01248Y01879D02*
Y01904D01*
X01192Y01879D02*
Y01904D01*
X01248*
X01192Y01938D02*
Y01963D01*
X01248Y01938D02*
Y01963D01*
X01192Y01938D02*
X01248D01*
X02851Y01806D02*
Y01862D01*
X02876D02*
X0291D01*
X02935Y01806D02*
Y01862D01*
X02876Y01806D02*
X0291D01*
Y01862D02*
X02935D01*
X0291Y01806D02*
X02935D01*
X0291D02*
Y01862D01*
X02851Y01806D02*
X02876D01*
X02851Y01862D02*
X02876D01*
Y01806D02*
Y01862D01*
X02774Y01743D02*
Y01799D01*
X02715Y01743D02*
X02749D01*
X0269D02*
Y01799D01*
X02715D02*
X02749D01*
X0269Y01743D02*
X02715D01*
X0269Y01799D02*
X02715D01*
Y01743D02*
Y01799D01*
X02749D02*
X02774D01*
X02749Y01743D02*
X02774D01*
X02749D02*
Y01799D01*
X02883Y03314D02*
Y0337D01*
X02908D02*
X02942D01*
X02967Y03314D02*
Y0337D01*
X02908Y03314D02*
X02942D01*
Y0337D02*
X02967D01*
X02942Y03314D02*
X02967D01*
X02942D02*
Y0337D01*
X02883Y03314D02*
X02908D01*
X02883Y0337D02*
X02908D01*
Y03314D02*
Y0337D01*
G54D69*
X0Y0D02*
Y03937D01*
X03937*
Y0D02*
Y03937D01*
X0Y0D02*
X03937D01*
G54D70*
X02976Y03728D02*
X02992D01*
X02984Y0372D02*
Y03736D01*
X03118Y03732D02*
X03133D01*
X03125Y03724D02*
Y0374D01*
X03255D02*
X03271D01*
X03263Y03732D02*
Y03748D01*
X02803Y03092D02*
X02818D01*
X02811Y03084D02*
Y031D01*
X00637Y03775D02*
X00653D01*
X00645Y03767D02*
Y03783D01*
X03775Y03224D02*
X03791D01*
X03783Y03216D02*
Y03232D01*
M02*