%FSTAX23Y23*%
%MOIN*%
%SFA1B1*%

%IPPOS*%
%ADD70C,0.003940*%
%ADD72C,0.002010*%
%ADD73C,0.001970*%
%ADD74C,0.003940*%
%LNnucleoclone-1*%
%LPD*%
G54D70*
X01988Y02015D02*
X02027D01*
X02007Y01996D02*
Y02035D01*
X03443Y03803D02*
X03483D01*
X03463Y03783D02*
Y03822D01*
X03448Y03653D02*
X03488D01*
X03468Y03633D02*
Y03673D01*
Y03161D02*
Y032D01*
X03448Y03181D02*
X03488D01*
G54D72*
X00707Y00967D02*
X00779D01*
X00707Y00835D02*
X00779D01*
Y00967*
X00707Y00835D02*
Y00967D01*
X00601Y00969D02*
X00672D01*
X00601Y00837D02*
X00672D01*
Y00969*
X00601Y00837D02*
Y00969D01*
X03369Y00689D02*
Y0076D01*
X03237Y00689D02*
Y0076D01*
Y00689D02*
X03369D01*
X03237Y0076D02*
X03369D01*
X03514Y00685D02*
Y00756D01*
X03383Y00685D02*
Y00756D01*
Y00685D02*
X03514D01*
X03383Y00756D02*
X03514D01*
X03731Y0068D02*
X03802D01*
X03731Y00548D02*
X03802D01*
Y0068*
X03731Y00548D02*
Y0068D01*
X03166Y01373D02*
Y01444D01*
X03298Y01373D02*
Y01444D01*
X03166D02*
X03298D01*
X03166Y01373D02*
X03298D01*
X02303Y01361D02*
Y01432D01*
X02435Y01361D02*
Y01432D01*
X02303D02*
X02435D01*
X02303Y01361D02*
X02435D01*
X0342Y0263D02*
Y02701D01*
X03288Y0263D02*
Y02701D01*
Y0263D02*
X0342D01*
X03288Y02701D02*
X0342D01*
X03101Y02278D02*
X03172D01*
X03101Y02146D02*
X03172D01*
Y02278*
X03101Y02146D02*
Y02278D01*
X02558Y01668D02*
X02629D01*
X02558Y01536D02*
X02629D01*
Y01668*
X02558Y01536D02*
Y01668D01*
X0368Y03799D02*
Y0387D01*
X03548Y03799D02*
Y0387D01*
Y03799D02*
X0368D01*
X03548Y0387D02*
X0368D01*
X03345Y03303D02*
Y03374D01*
X03213Y03303D02*
Y03374D01*
Y03303D02*
X03345D01*
X03213Y03374D02*
X03345D01*
X03125Y03306D02*
X03196D01*
X03125Y03174D02*
X03196D01*
Y03306*
X03125Y03174D02*
Y03306D01*
X02929Y03603D02*
X03038D01*
Y03863*
X02929D02*
X03038D01*
X02929Y03603D02*
Y03863D01*
X03071Y03607D02*
X03179D01*
Y03867*
X03071D02*
X03179D01*
X03071Y03607D02*
Y03867D01*
X03209Y03615D02*
X03317D01*
Y03875*
X03209D02*
X03317D01*
X03209Y03615D02*
Y03875D01*
X0255Y03164D02*
X02621D01*
X0255Y03032D02*
X02621D01*
Y03164*
X0255Y03032D02*
Y03164D01*
X02756Y02967D02*
X02864D01*
Y03227*
X02756D02*
X02864D01*
X02756Y02967D02*
Y03227D01*
X02543Y02801D02*
X02614D01*
X02543Y02933D02*
X02614D01*
X02543Y02801D02*
Y02933D01*
X02614Y02801D02*
Y02933D01*
X0244Y02932D02*
X02511D01*
X0244Y028D02*
X02511D01*
Y02932*
X0244Y028D02*
Y02932D01*
X01622Y02607D02*
X01693D01*
X01622Y02738D02*
X01693D01*
X01622Y02607D02*
Y02738D01*
X01693Y02607D02*
Y02738D01*
X00825Y03559D02*
Y0363D01*
X00694Y03559D02*
Y0363D01*
Y03559D02*
X00825D01*
X00694Y0363D02*
X00825D01*
X00591Y0365D02*
X00699D01*
Y0391*
X00591D02*
X00699D01*
X00591Y0365D02*
Y0391D01*
X01963Y03042D02*
X02035D01*
X01963Y0291D02*
X02035D01*
Y03042*
X01963Y0291D02*
Y03042D01*
X01274Y02286D02*
X01345D01*
X01274Y02154D02*
X01345D01*
Y02286*
X01274Y02154D02*
Y02286D01*
X01271Y02319D02*
X01342D01*
X01271Y02451D02*
X01342D01*
X01271Y02319D02*
Y02451D01*
X01342Y02319D02*
Y02451D01*
X0181Y0287D02*
Y02941D01*
X01678Y0287D02*
Y02941D01*
Y0287D02*
X0181D01*
X01678Y02941D02*
X0181D01*
X02353Y00594D02*
Y00666D01*
X02221Y00594D02*
Y00666D01*
Y00594D02*
X02353D01*
X02221Y00666D02*
X02353D01*
X02278Y00806D02*
X0235D01*
X02278Y00674D02*
X0235D01*
Y00806*
X02278Y00674D02*
Y00806D01*
X0229Y00823D02*
Y00894D01*
X02158Y00823D02*
Y00894D01*
Y00823D02*
X0229D01*
X02158Y00894D02*
X0229D01*
X02311Y00922D02*
Y00993D01*
X02443Y00922D02*
Y00993D01*
X02311D02*
X02443D01*
X02311Y00922D02*
X02443D01*
X02307Y00822D02*
Y00893D01*
X02439Y00822D02*
Y00893D01*
X02307D02*
X02439D01*
X02307Y00822D02*
X02439D01*
X00936Y02319D02*
X01007D01*
X00936Y02451D02*
X01007D01*
X00936Y02319D02*
Y02451D01*
X01007Y02319D02*
Y02451D01*
X00939Y02266D02*
X0101D01*
X00939Y02135D02*
X0101D01*
Y02266*
X00939Y02135D02*
Y02266D01*
X00827Y02201D02*
X00898D01*
X00827Y02333D02*
X00898D01*
X00827Y02201D02*
Y02333D01*
X00898Y02201D02*
Y02333D01*
X00288Y01617D02*
Y01688D01*
X0042Y01617D02*
Y01688D01*
X00288D02*
X0042D01*
X00288Y01617D02*
X0042D01*
X00774Y01983D02*
X00846D01*
X00774Y01851D02*
X00846D01*
Y01983*
X00774Y01851D02*
Y01983D01*
X03221Y01558D02*
X03353D01*
X03221Y01629D02*
X03353D01*
Y01558D02*
Y01629D01*
X03221Y01558D02*
Y01629D01*
X03207Y01559D02*
Y0163D01*
X03075Y01559D02*
Y0163D01*
Y01559D02*
X03207D01*
X03075Y0163D02*
X03207D01*
X00853Y01386D02*
Y01457D01*
X00721Y01386D02*
Y01457D01*
Y01386D02*
X00853D01*
X00721Y01457D02*
X00853D01*
X00866Y01385D02*
Y01456D01*
X00998Y01385D02*
Y01456D01*
X00866D02*
X00998D01*
X00866Y01385D02*
X00998D01*
X00408Y01323D02*
Y01394D01*
X00276Y01323D02*
Y01394D01*
Y01323D02*
X00408D01*
X00276Y01394D02*
X00408D01*
X01184Y01833D02*
X01255D01*
X01184Y01701D02*
X01255D01*
Y01833*
X01184Y01701D02*
Y01833D01*
X00874Y01851D02*
X00945D01*
X00874Y01983D02*
X00945D01*
X00874Y01851D02*
Y01983D01*
X00945Y01851D02*
Y01983D01*
X00873Y01841D02*
X00944D01*
X00873Y01709D02*
X00944D01*
Y01841*
X00873Y01709D02*
Y01841D01*
X00416Y01495D02*
Y01566D01*
X00284Y01495D02*
Y01566D01*
Y01495D02*
X00416D01*
X00284Y01566D02*
X00416D01*
X00995Y02747D02*
X01066D01*
X00995Y02615D02*
X01066D01*
Y02747*
X00995Y02615D02*
Y02747D01*
X01079Y02614D02*
X0115D01*
X01079Y02746D02*
X0115D01*
X01079Y02614D02*
Y02746D01*
X0115Y02614D02*
Y02746D01*
X03603Y02727D02*
Y02798D01*
X03471Y02727D02*
Y02798D01*
Y02727D02*
X03603D01*
X03471Y02798D02*
X03603D01*
X03428Y03062D02*
X03499D01*
X03428Y0293D02*
X03499D01*
Y03062*
X03428Y0293D02*
Y03062D01*
X03097Y02764D02*
Y02835D01*
X02965Y02764D02*
Y02835D01*
Y02764D02*
X03097D01*
X02965Y02835D02*
X03097D01*
X02845Y02853D02*
X02916D01*
X02845Y02721D02*
X02916D01*
Y02853*
X02845Y02721D02*
Y02853D01*
X02751Y02861D02*
X02822D01*
X02751Y02729D02*
X02822D01*
Y02861*
X02751Y02729D02*
Y02861D01*
X0294Y02587D02*
Y02658D01*
X02808Y02587D02*
Y02658D01*
Y02587D02*
X0294D01*
X02808Y02658D02*
X0294D01*
X02676Y02865D02*
X02747D01*
X02676Y02733D02*
X02747D01*
Y02865*
X02676Y02733D02*
Y02865D01*
X03144Y02425D02*
Y02496D01*
X03012Y02425D02*
Y02496D01*
Y02425D02*
X03144D01*
X03012Y02496D02*
X03144D01*
X03008Y02609D02*
Y0268D01*
X0314Y02609D02*
Y0268D01*
X03008D02*
X0314D01*
X03008Y02609D02*
X0314D01*
X03469Y02802D02*
Y02873D01*
X03601Y02802D02*
Y02873D01*
X03469D02*
X03601D01*
X03469Y02802D02*
X03601D01*
X03144Y02338D02*
Y0241D01*
X03012Y02338D02*
Y0241D01*
Y02338D02*
X03144D01*
X03012Y0241D02*
X03144D01*
X01335Y01483D02*
X01467D01*
X01335Y01554D02*
X01467D01*
Y01483D02*
Y01554D01*
X01335Y01483D02*
Y01554D01*
X01272Y0157D02*
Y01641D01*
X01404Y0157D02*
Y01641D01*
X01272D02*
X01404D01*
X01272Y0157D02*
X01404D01*
X01917Y01294D02*
X01988D01*
X01917Y01426D02*
X01988D01*
X01917Y01294D02*
Y01426D01*
X01988Y01294D02*
Y01426D01*
X01823Y01288D02*
X01894D01*
X01823Y0142D02*
X01894D01*
X01823Y01288D02*
Y0142D01*
X01894Y01288D02*
Y0142D01*
X01728Y01284D02*
X018D01*
X01728Y01416D02*
X018D01*
X01728Y01284D02*
Y01416D01*
X018Y01284D02*
Y01416D01*
X01831Y02596D02*
X01902D01*
X01831Y02728D02*
X01902D01*
X01831Y02596D02*
Y02728D01*
X01902Y02596D02*
Y02728D01*
X01567Y02855D02*
X01638D01*
X01567Y02987D02*
X01638D01*
X01567Y02855D02*
Y02987D01*
X01638Y02855D02*
Y02987D01*
X01916Y02743D02*
X01987D01*
X01916Y02611D02*
X01987D01*
Y02743*
X01916Y02611D02*
Y02743D01*
X01999Y02723D02*
X0207D01*
X01999Y02591D02*
X0207D01*
Y02723*
X01999Y02591D02*
Y02723D01*
X00933Y03621D02*
X01005D01*
X00933Y03489D02*
X01005D01*
Y03621*
X00933Y03489D02*
Y03621D01*
X03235Y01783D02*
Y01855D01*
X03103Y01783D02*
Y01855D01*
Y01783D02*
X03235D01*
X03103Y01855D02*
X03235D01*
X03729Y03099D02*
X03837D01*
Y03359*
X03729D02*
X03837D01*
X03729Y03099D02*
Y03359D01*
X02303Y01274D02*
Y01346D01*
X02435Y01274D02*
Y01346D01*
X02303D02*
X02435D01*
X02303Y01274D02*
X02435D01*
X02288Y01186D02*
Y01257D01*
X02156Y01186D02*
Y01257D01*
Y01186D02*
X02288D01*
X02156Y01257D02*
X02288D01*
X02303Y01188D02*
Y01259D01*
X02435Y01188D02*
Y01259D01*
X02303D02*
X02435D01*
X02303Y01188D02*
X02435D01*
X02303Y01105D02*
Y01176D01*
X02435Y01105D02*
Y01176D01*
X02303D02*
X02435D01*
X02303Y01105D02*
X02435D01*
X02288Y01099D02*
Y0117D01*
X02156Y01099D02*
Y0117D01*
Y01099D02*
X02288D01*
X02156Y0117D02*
X02288D01*
X02303Y01011D02*
Y01082D01*
X02435Y01011D02*
Y01082D01*
X02303D02*
X02435D01*
X02303Y01011D02*
X02435D01*
X02288Y01012D02*
Y01083D01*
X02156Y01012D02*
Y01083D01*
Y01012D02*
X02288D01*
X02156Y01083D02*
X02288D01*
Y00925D02*
Y00997D01*
X02156Y00925D02*
Y00997D01*
Y00925D02*
X02288D01*
X02156Y00997D02*
X02288D01*
X01508Y01451D02*
X0164D01*
X01508Y01523D02*
X0164D01*
Y01451D02*
Y01523D01*
X01508Y01451D02*
Y01523D01*
X02892Y02985D02*
Y03117D01*
X02964Y02985D02*
Y03117D01*
X02892Y02985D02*
X02964D01*
X02892Y03117D02*
X02964D01*
X02739Y03442D02*
Y03574D01*
X0281Y03442D02*
Y03574D01*
X02739Y03442D02*
X0281D01*
X02739Y03574D02*
X0281D01*
X02483Y03272D02*
Y03404D01*
X02554Y03272D02*
Y03404D01*
X02483Y03272D02*
X02554D01*
X02483Y03404D02*
X02554D01*
X02603Y03362D02*
X02735D01*
X02603Y03291D02*
X02735D01*
X02603D02*
Y03362D01*
X02735Y03291D02*
Y03362D01*
X02156Y01431D02*
X02288D01*
X02156Y0136D02*
X02288D01*
X02156D02*
Y01431D01*
X02288Y0136D02*
Y01431D01*
X02156Y01344D02*
X02288D01*
X02156Y01273D02*
X02288D01*
X02156D02*
Y01344D01*
X02288Y01273D02*
Y01344D01*
X03137Y02914D02*
Y03046D01*
X03208Y02914D02*
Y03046D01*
X03137Y02914D02*
X03208D01*
X03137Y03046D02*
X03208D01*
X03365Y0052D02*
X03855D01*
Y0003D02*
Y0052D01*
X03365Y0003D02*
X03855D01*
X03365D02*
Y0052D01*
X03559Y00562D02*
X03691D01*
X03559Y00633D02*
X03691D01*
Y00562D02*
Y00633D01*
X03559Y00562D02*
Y00633D01*
X03095Y00764D02*
X03227D01*
X03095Y00693D02*
X03227D01*
X03095D02*
Y00764D01*
X03227Y00693D02*
Y00764D01*
X00038Y00528D02*
X00528D01*
Y00038D02*
Y00528D01*
X00038Y00038D02*
X00528D01*
X00038D02*
Y00528D01*
X00181Y00601D02*
X00313D01*
X00181Y00672D02*
X00313D01*
Y00601D02*
Y00672D01*
X00181Y00601D02*
Y00672D01*
X01256Y01855D02*
Y01987D01*
X01185Y01855D02*
Y01987D01*
X01256*
X01185Y01855D02*
X01256D01*
X02827Y0187D02*
X02959D01*
X02827Y01799D02*
X02959D01*
X02827D02*
Y0187D01*
X02959Y01799D02*
Y0187D01*
X02666Y01735D02*
X02798D01*
X02666Y01806D02*
X02798D01*
Y01735D02*
Y01806D01*
X02666Y01735D02*
Y01806D01*
X02859Y03378D02*
X02991D01*
X02859Y03307D02*
X02991D01*
X02859D02*
Y03378D01*
X02991Y03307D02*
Y03378D01*
G54D73*
X01547Y01555D02*
Y02476D01*
X02468Y01555D02*
Y02476D01*
X01547D02*
X02468D01*
X01547Y01555D02*
X02468D01*
X03524Y03741D02*
Y03864D01*
X03402Y03741D02*
Y03864D01*
Y03741D02*
X03524D01*
X03402Y03864D02*
X03524D01*
X03529Y03592D02*
Y03714D01*
X03407Y03592D02*
Y03714D01*
Y03592D02*
X03529D01*
X03407Y03714D02*
X03529D01*
X03322Y03072D02*
X03614D01*
X03322Y03289D02*
X03614D01*
Y03072D02*
Y03289D01*
X03322Y03072D02*
Y03289D01*
X03672Y03387D02*
Y03722D01*
X0393Y03369D02*
Y03741D01*
X03899Y03387D02*
X0393Y03369D01*
X03672Y03387D02*
X03899D01*
Y03722D02*
X0393Y03741D01*
X03672Y03722D02*
X03899D01*
X03635Y03361D02*
Y03449D01*
X03459Y03361D02*
X03635D01*
X03459D02*
Y03449D01*
X03635*
G54D74*
X00108Y03858D02*
X00158D01*
X00208*
X00258D02*
X00308D01*
X00208D02*
X00258D01*
X00308D02*
X00358D01*
X00408*
X00458*
X00158Y03723D02*
X00208D01*
X00258*
X00208D02*
X00258D01*
X00308D02*
X00358D01*
X00308D02*
X00358D01*
X00108D02*
X00158D01*
X00108D02*
X00158D01*
X00208*
X00258D02*
X00308D01*
X00258D02*
X00308D01*
X00358D02*
X00408D01*
X00358D02*
X00408D01*
X00458D02*
Y03858D01*
X00408Y03723D02*
X00458D01*
X00108D02*
Y03858D01*
M02*