%FSTAX23Y23*%
%MOIN*%
%SFA1B1*%

%IPPOS*%
%ADD10C,0.007870*%
%ADD27R,0.059060X0.059060*%
%ADD59C,0.059060*%
%ADD60R,0.059060X0.059060*%
%ADD61C,0.045000*%
%ADD62O,0.025590X0.051180*%
%ADD63O,0.061020X0.030510*%
%ADD64C,0.073230*%
%ADD65C,0.047240*%
%ADD66C,0.085630*%
%ADD67C,0.039370*%
%ADD68C,0.050000*%
%LNnucleoclone-1*%
%LPD*%
G54D10*
X02356Y03332D02*
X03173D01*
X02716Y01586D02*
X02736Y01566D01*
X02711Y01586D02*
X02716D01*
X02703Y01594D02*
X02711Y01586D01*
X02639Y01594D02*
X02703D01*
X02736Y01472D02*
Y01566D01*
X01421Y0187D02*
X01527Y01763D01*
X01413Y01854D02*
X01511Y01755D01*
X01405Y01822D02*
X01429Y01799D01*
X0136Y01854D02*
X01413D01*
X0137Y0187D02*
X01421D01*
X01078Y01814D02*
X01307D01*
X01078D02*
D01*
X01307D02*
X01318D01*
X01318*
X01352Y01887D02*
X0137Y0187D01*
X01357Y0185D02*
X0136Y01854D01*
X01354Y0185D02*
X01357D01*
X01374Y01822D02*
X01405D01*
X01397Y01757D02*
Y01779D01*
X01429Y01747D02*
Y01799D01*
X01423Y01649D02*
X0148Y01706D01*
X01444Y01693D02*
Y01732D01*
X01429Y01699D02*
Y01725D01*
X0148Y01706D02*
Y01736D01*
X01429Y01747D02*
X01444Y01732D01*
X01397Y01757D02*
X01429Y01725D01*
X02885Y03905D02*
X03732D01*
X02885D02*
X02887Y03903D01*
X03625Y02055D02*
Y02173D01*
X00692Y02224D02*
X00811Y02342D01*
X01338Y02145D02*
X01393Y022D01*
X01783Y02574D02*
X01846D01*
X01775Y02566D02*
X01783Y02574D01*
X01775Y02452D02*
Y02566D01*
X01683Y02551D02*
X01729D01*
X01775Y02598D02*
X01833D01*
X01729Y02551D02*
X01775Y02598D01*
X02724Y02358D02*
X02751Y0233D01*
X027Y02358D02*
X02724D01*
X02293Y02618D02*
X02344Y02669D01*
X02368*
X0222Y02618D02*
X02293D01*
X02213Y02602D02*
X02314D01*
X00909Y01059D02*
X01401D01*
X0172Y00822D02*
Y00838D01*
X017Y00803D02*
X0172Y00822D01*
X0109Y00803D02*
X017D01*
X02673Y01842D02*
X02744Y01913D01*
X02673Y01814D02*
Y01842D01*
Y01814D02*
X02704Y01783D01*
X02618Y01724D02*
Y01831D01*
X02686Y01903D02*
X02704Y01921D01*
X02678Y01903D02*
X02686D01*
X02661Y01885D02*
X02678Y01903D01*
X02582Y01885D02*
X02661D01*
X02625Y01984D02*
X02669Y0194D01*
Y0187D02*
X02686Y01887D01*
X02692*
X0272Y01915*
Y01957*
X02657Y0202D02*
X0272Y01957D01*
X02744Y01967D02*
Y02244D01*
X02736Y01959D02*
X02744Y01967D01*
X02736Y01933D02*
Y01959D01*
Y01933D02*
X02744Y01925D01*
Y01913D02*
Y01925D01*
X02767Y01946D02*
Y02417D01*
X02506Y01598D02*
X02577Y01527D01*
X01657Y02098D02*
X01975Y0178D01*
X02506Y01598D02*
X02517Y01608D01*
X02281Y01672D02*
X0239Y01562D01*
X02476Y01576D02*
X02572Y0148D01*
X02433Y01625D02*
X02476Y01582D01*
X02433Y01625D02*
Y01772D01*
X02476Y01576D02*
Y01582D01*
X02452Y01628D02*
X02492Y01589D01*
X02452Y01628D02*
Y01778D01*
X02492Y01582D02*
X02562Y01511D01*
X02492Y01582D02*
Y01589D01*
X0246Y01556D02*
X02463Y01553D01*
X0246Y01556D02*
Y01576D01*
X02442Y01594D02*
X0246Y01576D01*
X02422Y01594D02*
X02442D01*
X02417Y01599D02*
X02422Y01594D01*
X0239Y01562D02*
X02429D01*
X02275Y01476D02*
X02283D01*
X02007Y01338D02*
X02661D01*
X02014Y01322D02*
X02632D01*
X0202Y01307D02*
X02626D01*
X02035Y01291D02*
X02619D01*
X01874Y01433D02*
X02193D01*
X0196Y01413D02*
X0219D01*
X01996Y01304D02*
X02014Y01322D01*
X02011Y01297D02*
X0202Y01307D01*
X02011Y01233D02*
Y01297D01*
X02027Y01283D02*
X02035Y01291D01*
X02027Y01227D02*
Y01283D01*
X02043Y01255D02*
X02622D01*
X02043Y0122D02*
Y01255D01*
X02231Y01433D02*
X02614D01*
X02225Y01426D02*
X02231Y01433D01*
X02199Y01426D02*
X02225D01*
X02193Y01433D02*
X02199Y01426D01*
X0198Y01311D02*
X02007Y01338D01*
X02463Y01553D02*
X02476D01*
X02417Y01599D02*
Y01612D01*
X02234Y01413D02*
X02582D01*
X02232Y01411D02*
X02234Y01413D01*
X02193Y01411D02*
X02232D01*
X0219Y01413D02*
X02193Y01411D01*
X02283Y01476D02*
X02311Y01448D01*
X02278Y01751D02*
X02417Y01612D01*
X02039Y01751D02*
X02278D01*
X02492Y01496D02*
Y01538D01*
X02476Y01553D02*
X02492Y01538D01*
X02572Y0148D02*
X02615D01*
X02562Y01511D02*
X02637D01*
X0146Y00039D02*
Y00118D01*
X01408Y0017D02*
X0146Y00118D01*
X01165Y00748D02*
X01211D01*
X01108Y00691D02*
X01165Y00748D01*
X01108Y00178D02*
Y00691D01*
X01472Y00027D02*
X01944D01*
X0146Y00039D02*
X01472Y00027D01*
X01408Y0017D02*
Y00178D01*
X02311Y01448D02*
X02341D01*
X02345Y01452D02*
X02448D01*
X02341Y01448D02*
X02345Y01452D01*
X0174Y01846D02*
Y01905D01*
Y01846D02*
X01767Y01818D01*
X01879*
X01921Y01776*
Y01761D02*
Y01776D01*
Y01761D02*
X01954Y01728D01*
X01983*
X01986Y01732*
X02042*
X02046Y01736*
X021*
X02124Y01712*
X0198Y01748D02*
X02035D01*
X02039Y01751*
X01976Y01744D02*
X0198Y01748D01*
X0196Y01744D02*
X01976D01*
X01953Y01653D02*
X02023D01*
X01949Y01657D02*
X01953Y01653D01*
X03374Y01791D02*
X03397D01*
X01515Y01271D02*
Y01452D01*
X0172Y01657*
X01908*
X01916Y0165*
X01942*
X01949Y01657*
X02688Y03094D02*
X03011D01*
X03192Y02437D02*
Y02775D01*
X03181Y02425D02*
X03192Y02437D01*
X0196Y0096D02*
Y00992D01*
X01858Y00858D02*
X0196Y0096D01*
X01858Y00122D02*
Y00858D01*
X01814Y00078D02*
X01858Y00122D01*
X01808Y00078D02*
X01814D01*
X03059Y00027D02*
X03103Y0007D01*
X01944Y00027D02*
X03059D01*
X01908Y00063D02*
X01944Y00027D01*
X01908Y00063D02*
Y00078D01*
X02008D02*
X02019D01*
X02055Y00114*
Y00342*
X02094Y00381*
X02417*
X02222Y0209D02*
X02354D01*
X01401Y01059D02*
X01417Y01043D01*
X02014*
X02065Y01094*
X02397*
X02437Y01055*
Y00599D02*
Y01055D01*
X02433Y00595D02*
X02437Y00599D01*
X02433Y00569D02*
Y00595D01*
Y00569D02*
X02503Y00499D01*
Y0017D02*
Y00499D01*
X02464Y00582D02*
X03192D01*
X01377Y01122D02*
X0144Y01059D01*
X02007*
X02059Y0111*
X02586*
X02803Y00893*
X01429Y01137D02*
X01488Y01078D01*
X01998*
X02049Y01129*
X02633*
X02822Y0094*
X03393Y01098D02*
Y01102D01*
Y01098D02*
X0351Y00981D01*
Y00275D02*
Y00981D01*
X02872Y01181D02*
X03417D01*
X03515Y01082*
X01484Y01141D02*
X01507D01*
X01555Y01094*
X01992*
X02043Y01145*
X0267*
X02807Y01007*
X02838*
X01284Y01555D02*
X01496D01*
X0128Y01559D02*
X01284Y01555D01*
X01254Y01559D02*
X0128D01*
X01082Y0159D02*
X01293D01*
X01133Y01574D02*
X01287D01*
X01293Y0159D02*
X01421D01*
X01293D02*
D01*
X01287Y01574D02*
X01448D01*
X01287D02*
D01*
X0087Y01311D02*
X01133Y01574D01*
X01082Y0159D02*
X01082D01*
X0122Y01524D02*
X01254Y01559D01*
X0122Y01254D02*
Y01524D01*
Y01254D02*
X01301Y01173D01*
X01503*
X01566Y0111*
X0198*
X02031Y01161*
X02681*
X02704Y01137*
X02783*
X02866Y01055*
X03802Y01082D02*
X0385Y0113D01*
X03515Y01082D02*
X03802D01*
X02887Y0243D02*
X02929Y02472D01*
X02887Y02297D02*
Y0243D01*
Y02297D02*
X02913Y02271D01*
X02889Y01157D02*
X02925Y01122D01*
X02917Y0123D02*
Y0125D01*
X02933Y01266*
Y01271*
X03106Y01444*
X03354*
X01901Y01956D02*
X0196Y02015D01*
X02488*
X02515Y01988*
Y01917D02*
Y01988D01*
X0261Y01385D02*
X02633D01*
X02582Y01413D02*
X0261Y01385D01*
X01948Y01401D02*
X0196Y01413D01*
X01948Y01267D02*
Y01401D01*
X02577Y01527D02*
X02662D01*
X0272Y01157D02*
X02889D01*
X02622Y01255D02*
X0272Y01157D01*
X01988Y01165D02*
X02043Y0122D01*
X01813Y01165D02*
X01988D01*
X01778Y01129D02*
X01813Y01165D01*
X01725Y01129D02*
X01778D01*
X01698Y01157D02*
X01725Y01129D01*
X0159Y01157D02*
X01698D01*
X0184Y01984D02*
Y02025D01*
X01763Y02102D02*
X0184Y02025D01*
X01763Y02102D02*
Y02279D01*
X01767Y02019D02*
X01795D01*
X01783Y02397D02*
X01826Y02354D01*
X01775Y02452D02*
X01862Y02366D01*
Y02251D02*
Y02366D01*
X01897Y02275D02*
Y02452D01*
X01921Y02346D02*
Y02465D01*
Y02346D02*
X01929Y02338D01*
X01952Y0237D02*
X02141D01*
X01929Y02338D02*
X02273D01*
X01842Y02507D02*
X01897Y02452D01*
X01881Y02505D02*
X01921Y02465D01*
X01728Y02059D02*
Y02366D01*
X01696Y02379D02*
X01715Y02397D01*
X01696Y02232D02*
Y02379D01*
Y02232D02*
X01704Y02224D01*
Y02129D02*
Y02224D01*
X01689Y02114D02*
X01704Y02129D01*
X01513Y02151D02*
X0167D01*
X01728Y02059D02*
X01767Y02019D01*
X01715Y02397D02*
X01783D01*
X01503Y022D02*
X01666D01*
X01692Y01677D02*
X0192D01*
X01924Y01681*
X01688D02*
X01692Y01677D01*
X02212Y01818D02*
X0235D01*
X02562Y01826D02*
X02606Y0187D01*
X02669*
X02657Y0202D02*
Y02496D01*
X02686Y01966D02*
X02704Y01947D01*
Y01921D02*
Y01947D01*
X02744Y02244D02*
X02751Y02251D01*
X02714Y02438D02*
X02746D01*
X02767Y02417*
X02615Y01834D02*
X02618Y01831D01*
Y01724D02*
X02724Y01618D01*
X03103Y01535D02*
Y01591D01*
X03122Y0161*
X03478*
X03098Y01688D02*
X031Y0169D01*
X03082Y01673D02*
X03098Y01688D01*
X03409*
X02751Y02251D02*
Y0233D01*
X02704Y01783D02*
X02729D01*
X02775Y01737*
Y01455D02*
Y01737D01*
X02763Y01443D02*
X02775Y01455D01*
X02763Y01437D02*
Y01443D01*
X02732Y01437D02*
X02763D01*
X02722Y01426D02*
X02732Y01437D01*
X02722Y01368D02*
Y01426D01*
Y01368D02*
X02771Y01318D01*
X02837*
Y01318*
X0285Y0135D02*
X02967D01*
X02837Y01318D02*
X02957D01*
X03082Y01443*
X03066Y0145D02*
Y01803D01*
X03051Y01456D02*
Y01818D01*
X02976Y01381D02*
X03051Y01456D01*
X02814Y01381D02*
X02976D01*
X03033Y01462D02*
Y01903D01*
X02972Y01401D02*
X03033Y01462D01*
X02751Y01401D02*
X02972D01*
X02967Y0135D02*
X03066Y0145D01*
X03082Y01443D02*
Y01673D01*
X02281Y01672D02*
Y01683D01*
X03334Y0183D02*
X03374Y01791D01*
X03094Y0183D02*
X03334D01*
X03066Y01803D02*
X03094Y0183D01*
X03153Y01976D02*
X03216Y01913D01*
X03374*
X03378Y01916*
X03404*
X03411Y01909*
X03413*
X03429Y01893*
X03288Y01944D02*
X03421D01*
X03275Y01932D02*
X03288Y01944D01*
X03429Y01858D02*
Y01893D01*
X03409Y01838D02*
X03429Y01858D01*
X03391Y01838D02*
X03409D01*
X02803Y0137D02*
X02814Y01381D01*
X03051Y01818D02*
X03082Y0185D01*
X03162*
X03197Y01885*
X03391*
X02997Y02328D02*
X03007Y02338D01*
X02997Y02324D02*
Y02328D01*
X02979Y02305D02*
X02997Y02324D01*
X02975Y02305D02*
X02979D01*
X02944Y02275D02*
X02975Y02305D01*
X03046Y02118D02*
X0309D01*
X03275Y01932*
X02641Y02D02*
Y02489D01*
X02625Y01984D02*
Y02483D01*
X0261Y01952D02*
Y02476D01*
X02594Y0192D02*
Y02469D01*
X02578Y01929D02*
Y02458D01*
X02511Y02347D02*
Y0235D01*
X02455Y02291D02*
X02511Y02347D01*
X02484Y02263D02*
X02527Y02307D01*
X02429Y02426D02*
X0246Y02457D01*
X02429Y02412D02*
Y02426D01*
X02422Y02405D02*
X02429Y02412D01*
X02393Y02405D02*
X02422D01*
X02406Y02448D02*
Y02455D01*
X02527Y02425D02*
X02535Y02433D01*
X02522Y02425D02*
X02527D01*
X02494Y02397D02*
X02522Y02425D01*
X02492Y02397D02*
X02494D01*
X02389Y02295D02*
X02492Y02397D01*
X03625Y02055D02*
X03699Y01981D01*
X03794*
X03844Y0193*
X0385*
X03192Y02078D02*
Y02102D01*
Y02078D02*
X03283Y01987D01*
X03391*
X02918Y02232D02*
X02944Y02258D01*
X02918Y02171D02*
Y02232D01*
X02944Y02258D02*
Y02275D01*
X03007Y02338D02*
X03588D01*
X02673Y01267D02*
X02724D01*
X02669Y01263D02*
X02673Y01267D01*
X0269Y0122D02*
X02708D01*
X02619Y01291D02*
X0269Y0122D01*
X02656Y01299D02*
X02688D01*
X02632Y01322D02*
X02656Y01299D01*
X02626Y01307D02*
X02669Y01263D01*
X01981Y01181D02*
X02027Y01227D01*
X02706Y01347D02*
X02872Y01181D01*
X02706Y01347D02*
Y0149D01*
X02826Y01907D02*
Y02433D01*
X02901Y02507*
X00822Y00559D02*
X00848Y00585D01*
X00856*
X02488Y01745D02*
X02639Y01594D01*
X02488Y01745D02*
Y01791D01*
X02582Y01885*
X02675Y01966D02*
X02686D01*
X02641Y02D02*
X02675Y01966D01*
X0261Y01952D02*
X02625Y01937D01*
X03244Y02429D02*
X03267Y02405D01*
X03244Y02429D02*
Y0258D01*
X03262Y02599*
X03276*
X03568Y02891*
X03102Y02846D02*
X03413D01*
X03568Y02891D02*
Y02916D01*
X03031Y02507D02*
X03062Y02539D01*
X03034Y02488D02*
X03078Y02532D01*
X02694Y02527D02*
X02992D01*
X02901Y02507D02*
X03031D01*
X02917Y02488D02*
X03034D01*
X02929Y02472D02*
X03043D01*
X03507Y02421D02*
X03547Y02381D01*
X03799*
X0385Y0233*
X03452Y02665D02*
X03687Y0243D01*
X0375*
X02846Y02003D02*
X02858Y01992D01*
X02846Y02003D02*
Y02102D01*
X02897Y02153*
X029*
X02918Y02171*
X02578Y02574D02*
X02657Y02496D01*
X02562Y02568D02*
X02641Y02489D01*
X02543Y02565D02*
X02625Y02483D01*
X02527Y02559D02*
X0261Y02476D01*
X02511Y02552D02*
X02594Y02469D01*
X02496Y02541D02*
X02578Y02458D01*
X02535Y02433D02*
Y02444D01*
X02389Y0226D02*
Y02295D01*
X0246Y02457D02*
Y02472D01*
X02398Y02463D02*
X02406Y02455D01*
X02688Y02533D02*
X02694Y02527D01*
X0246Y02472D02*
X02468Y0248D01*
X0237Y02483D02*
X02389Y02463D01*
X0237Y02483D02*
Y02484D01*
X02358Y02496D02*
X0237Y02484D01*
X0244Y02291D02*
X02455D01*
X02496Y02541D02*
Y02559D01*
X02511Y02552D02*
Y02566D01*
X02527Y02559D02*
Y02603D01*
X02543Y02565D02*
Y0261D01*
X02326Y0285D02*
X02562Y02614D01*
Y02568D02*
Y02614D01*
X02578Y02574D02*
Y0262D01*
X02415Y02662D02*
X02511Y02566D01*
X02399Y02656D02*
X02496Y02559D01*
X01791Y02297D02*
X01903Y02185D01*
X01779Y02334D02*
X01791Y02322D01*
X02484Y02263D02*
D01*
X02405Y02185D02*
X02484Y02263D01*
X01903Y02185D02*
X02405D01*
X01791Y02297D02*
Y02322D01*
X02775Y01828D02*
Y01856D01*
X02826Y01907*
X03657Y0337D02*
Y03381D01*
X03641Y03353D02*
X03657Y0337D01*
X03641Y03322D02*
Y03353D01*
X03547Y02984D02*
Y03007D01*
X0348Y02917D02*
X03547Y02984D01*
X0348Y02885D02*
Y02917D01*
X03476Y02881D02*
X0348Y02885D01*
X03224Y02881D02*
X03476D01*
X02421Y02271D02*
X0244Y02291D01*
X02421Y02247D02*
Y02271D01*
X02374Y022D02*
X02421Y02247D01*
X01913Y022D02*
X02374D01*
X02389Y02238D02*
Y02238D01*
X02361Y02232D02*
X02389Y0226D01*
X02361Y02232D02*
D01*
X02361Y02232D02*
X02361Y02232D01*
X0194Y02232D02*
X02361D01*
X01897Y02275D02*
X0194Y02232D01*
X01862Y02251D02*
X01913Y022D01*
X02342Y02856D02*
X02578Y0262D01*
X02342Y02856D02*
Y02869D01*
X02314Y02897D02*
X02342Y02869D01*
X02312Y02897D02*
X02314D01*
X02312D02*
Y02926D01*
X02326Y0285D02*
Y02863D01*
X02308Y02881D02*
X02326Y02863D01*
X02295Y02881D02*
X02308D01*
X02281Y02896D02*
X02295Y02881D01*
X02281Y02896D02*
Y02913D01*
X02275Y02963D02*
X02312Y02926D01*
X02275Y02963D02*
Y03238D01*
X02334Y02818D02*
X02543Y0261D01*
X02328Y02803D02*
X02527Y02603D01*
X02415Y02662D02*
Y02693D01*
X02399Y02656D02*
Y02687D01*
X01846Y02574D02*
X0185Y0257D01*
X02437Y01787D02*
X02578Y01929D01*
X02437Y01776D02*
Y01787D01*
X02433Y01772D02*
X02437Y01776D01*
X02452Y01778D02*
X02594Y0192D01*
X01881Y02505D02*
Y02583D01*
X01863Y02602D02*
X01881Y02583D01*
X01779Y02334D02*
Y0235D01*
X02287Y02317D02*
X02341Y02263D01*
X02287Y02317D02*
Y02324D01*
X0335Y0283D02*
X03399Y02781D01*
X03125Y0283D02*
X0335D01*
X03094Y02799D02*
X03125Y0283D01*
X03094Y02523D02*
Y02799D01*
X03043Y02472D02*
X03094Y02523D01*
X03062Y02539D02*
Y03133D01*
X02992Y02527D02*
X0302Y02555D01*
X03078Y02822D02*
X03102Y02846D01*
X03078Y02532D02*
Y02822D01*
X02859Y0243D02*
X02917Y02488D01*
X02859Y02267D02*
Y0243D01*
X02948Y02566D02*
X02968Y02586D01*
Y02693*
X03568Y02916D02*
X03596Y02943D01*
Y03576*
X03615Y03596*
Y03744*
X03527Y02897D02*
X0358Y0295D01*
Y03618*
X01137Y03909D02*
X01763D01*
X00732D02*
X01137D01*
X01177Y0387*
Y03856D02*
Y0387D01*
X01145Y03825D02*
X01177Y03856D01*
X01145Y03678D02*
Y03825D01*
Y03678D02*
X01177Y03647D01*
Y02976D02*
Y03647D01*
X00813Y03332D02*
X01148D01*
X01192Y02944D02*
Y03313D01*
X01208Y02957D02*
Y03306D01*
X01224Y033D02*
X01226Y03302D01*
X01224Y02964D02*
Y033D01*
X0124Y03293D02*
X01242Y03296D01*
X0124Y0298D02*
Y03293D01*
X01255Y03287D02*
X01258Y03289D01*
X01255Y02996D02*
Y03287D01*
X01271Y0328D02*
X01274Y03283D01*
X01271Y03011D02*
Y0328D01*
X01303Y03267D02*
X01307D01*
X01226Y03302D02*
Y03628D01*
X01242Y03296D02*
Y03621D01*
X01258Y03289D02*
Y036D01*
X01274Y03283D02*
Y03594D01*
X01307Y03267D02*
X01337Y03297D01*
X01114Y02913D02*
X01177Y02976D01*
X01114Y02909D02*
Y02913D01*
X0028Y02181D02*
X00293Y02194D01*
X00165Y02181D02*
X0028D01*
X00251Y01893D02*
Y02108D01*
X0033Y02187*
Y0233*
X00251Y02409D02*
X0033Y0233D01*
X00251Y02409D02*
Y02444D01*
X00236Y0246D02*
X00251Y02444D01*
X00215Y02481D02*
X00236Y0246D01*
X00251Y01893D02*
X00261Y01883D01*
X00811Y02342D02*
X01068D01*
X01244Y02532D02*
X0135Y02426D01*
Y02385D02*
Y02426D01*
Y02385D02*
X01425Y02311D01*
Y02137D02*
Y02311D01*
Y02137D02*
X01448Y02114D01*
X01689*
X01673Y02542D02*
X01683Y02551D01*
X00663Y02423D02*
X00671Y02431D01*
X00663Y02359D02*
Y02423D01*
Y02359D02*
X00671Y02351D01*
Y0234D02*
Y02351D01*
Y0234D02*
X00722D01*
X00813Y02431*
Y0247*
X0085Y02507*
X01015*
X01027Y02519*
X0107*
X01102Y02551D02*
X01113Y0254D01*
X01031Y02551D02*
X01102D01*
X00988Y0254D02*
X0102D01*
X01031Y02551*
X01401Y02393D02*
X01413Y02405D01*
Y02533*
X01438Y02559*
X01464*
X0133Y02633D02*
X01452D01*
X0149Y02637D02*
X01498Y02645D01*
X01464Y02559D02*
X01473Y02568D01*
X01473*
X01492Y02586*
Y02636*
X01507Y02602D02*
X01519Y02614D01*
X01507Y02579D02*
Y02602D01*
X01496Y02568D02*
X01507Y02579D01*
X01496Y02521D02*
Y02568D01*
X0149Y02637D02*
X01492Y02636D01*
X01492Y02661D02*
X01547D01*
X01498Y02645D02*
X0154D01*
X01554Y02653D02*
X01866D01*
X01547Y02661D02*
X01554Y02653D01*
X01548Y02637D02*
X01574D01*
X0154Y02645D02*
X01548Y02637D01*
X01519Y02614D02*
X01527D01*
X01331Y02599D02*
X0146D01*
X01199Y02553D02*
X01322Y02677D01*
X01183Y0256D02*
X01335Y02712D01*
X01483Y02652D02*
X01492Y02661D01*
X01574Y02637D02*
X01606Y02606D01*
Y02531D02*
Y02606D01*
X01462Y02487D02*
X01496Y02521D01*
X01462Y02487D02*
D01*
X01459Y02485D02*
X01462Y02487D01*
X01459Y0247D02*
Y02485D01*
Y0247D02*
X01462Y02467D01*
Y02163D02*
Y02467D01*
X01477Y02477D02*
X01539Y02539D01*
X01477Y02192D02*
Y02477D01*
X01493Y02211D02*
Y02466D01*
X01471Y02652D02*
X01483D01*
X01452Y02633D02*
X01471Y02652D01*
X01149Y0257D02*
X01307Y02728D01*
X01141Y02586D02*
X01299Y02744D01*
X01456Y0274D02*
X01543D01*
X0145Y02755D02*
X01555D01*
X01443Y02771D02*
X01728D01*
X0143Y02803D02*
X01787D01*
X01424Y02818D02*
X01793D01*
X01417Y02834D02*
X018D01*
X01411Y0285D02*
X01834D01*
X01842Y02842*
X018Y02834D02*
X01883Y02751D01*
X01793Y02818D02*
X01876Y02736D01*
X01787Y02803D02*
X01893Y02696D01*
X01728Y02771D02*
X01755Y02744D01*
X01555Y02755D02*
X01625Y02685D01*
X01543Y0274D02*
X01614Y02669D01*
X01489Y02724D02*
X0152Y02692D01*
X01476Y02685D02*
X01484Y02677D01*
X00838Y02759D02*
X01431D01*
X01299Y02744D02*
X01438D01*
X01403Y02842D02*
X01411Y0285D01*
X00885Y02842D02*
X01403D01*
X01405Y02822D02*
X01417Y02834D01*
X00866Y02822D02*
X01405D01*
X01412Y02807D02*
X01424Y02818D01*
X00859Y02807D02*
X01412D01*
X01418Y02791D02*
X0143Y02803D01*
X00852Y02791D02*
X01418D01*
X01431Y02759D02*
X01443Y02771D01*
X01438Y02744D02*
X0145Y02755D01*
X01445Y02728D02*
X01456Y0274D01*
X01307Y02728D02*
X01445D01*
X01463Y02724D02*
X01489D01*
X01451Y02712D02*
X01463Y02724D01*
X01335Y02712D02*
X01451D01*
X01476Y02685D02*
Y02692D01*
X01622Y02514D02*
X01653D01*
X01606Y02531D02*
X01622Y02514D01*
X01653D02*
X01673Y02534D01*
Y02542*
X01641Y02547D02*
Y02555D01*
X01724Y02637*
X01833Y02598D02*
X01837Y02602D01*
X01863*
X02212Y02696D02*
X0222Y02688D01*
X02173Y02681D02*
X022Y02653D01*
X02165Y02665D02*
X02185Y02645D01*
X02118Y02649D02*
X02137Y02629D01*
X02082Y02633D02*
X02106Y0261D01*
X01863Y02633D02*
X02082D01*
X0187Y02649D02*
X02118D01*
X01876Y02665D02*
X02165D01*
X01883Y02681D02*
X02173D01*
X01893Y02696D02*
X02212D01*
X01872Y02669D02*
X01876Y02665D01*
X01879Y02685D02*
X01883Y02681D01*
X01866Y02653D02*
X0187Y02649D01*
X01859Y02637D02*
X01863Y02633D01*
X02273Y02338D02*
X02287Y02324D01*
X02341Y02263D02*
X02348D01*
X02326Y02334D02*
Y02366D01*
X02322Y0237D02*
X02326Y02366D01*
X02141Y0237D02*
X02322D01*
X02389Y02463D02*
X02398D01*
X02318Y0253D02*
Y02555D01*
X02292Y02581D02*
X02318Y02555D01*
X02157Y02581D02*
X02292D01*
X0215Y02574D02*
X02157Y02581D01*
X02124Y02574D02*
X0215D01*
X02106Y02593D02*
X02124Y02574D01*
X02106Y02593D02*
Y0261D01*
X02137Y02606D02*
Y02629D01*
X02303Y02523D02*
Y02539D01*
X02287Y02555D02*
X02303Y02539D01*
X02118Y02555D02*
X02287D01*
X02094Y02578D02*
X02118Y02555D01*
X01953Y02578D02*
X02094D01*
X02104Y02541D02*
X02115Y0253D01*
X02104Y02541D02*
X02104D01*
X02098Y02547D02*
X02104Y02541D01*
X02031Y02547D02*
X02098D01*
X02246Y02708D02*
Y0271D01*
X02279Y02683D02*
Y02725D01*
X02265Y0274D02*
X02279Y02725D01*
X02249Y0274D02*
X02265D01*
X02245Y02744D02*
X02249Y0274D01*
X02019Y02744D02*
X02245D01*
X02271Y02755D02*
X02327Y02699D01*
X02256Y02755D02*
X02271D01*
X02252Y02759D02*
X02256Y02755D01*
X02013Y02759D02*
X02252D01*
X02262Y02771D02*
X02314D01*
X02258Y02775D02*
X02262Y02771D01*
X02006Y02775D02*
X02258D01*
X02269Y02787D02*
X02321D01*
X02257Y02799D02*
X02269Y02787D01*
X02275Y02803D02*
X02328D01*
X02263Y02814D02*
X02275Y02803D01*
X02282Y02818D02*
X02334D01*
X02248Y02853D02*
X02282Y02818D01*
X02293Y0285D02*
X02295D01*
X03011Y03094D02*
X03047Y03059D01*
Y02791D02*
Y03059D01*
X03019Y02763D02*
X03047Y02791D01*
X03019Y02717D02*
Y02763D01*
X03062Y03133D02*
X03114Y03185D01*
X03188*
X03216Y03212*
Y03354*
X032Y0337D02*
X03216Y03354D01*
X03114Y0337D02*
X032D01*
X03102Y03358D02*
X03114Y0337D01*
X032Y03397D02*
X03244Y03354D01*
Y03161D02*
Y03354D01*
X02988Y03397D02*
X032D01*
X02973Y03412D02*
X02988Y03397D01*
X02751Y03358D02*
X03102D01*
X0269Y03419D02*
X02751Y03358D01*
X0269Y03419D02*
Y03657D01*
X02973Y03412D02*
Y03511D01*
X02208Y03905D02*
X02885D01*
X02887Y03539D02*
Y03903D01*
X0335Y03787D02*
Y03834D01*
X03314Y03751D02*
X0335Y03787D01*
X03314Y0344D02*
Y03751D01*
X02275Y03413D02*
X02356Y03332D01*
X02082Y03413D02*
X02275D01*
X01996Y03326D02*
X02082Y03413D01*
X01996Y03161D02*
Y03326D01*
X01964Y03129D02*
X01996Y03161D01*
X01881Y03129D02*
X01964D01*
X01779Y03027D02*
X01881Y03129D01*
X01779Y03007D02*
Y03027D01*
X02348Y03222D02*
X02405Y03279D01*
X02348Y03055D02*
Y03222D01*
X02208Y03905D02*
X0224Y03873D01*
X02204Y03909D02*
X02208Y03905D01*
X03732D02*
X03814Y03822D01*
Y03692D02*
Y03822D01*
X0244Y03515D02*
X02468Y03543D01*
X0244Y03442D02*
Y03515D01*
X01322Y02677D02*
X01484D01*
X0152Y02692D02*
X0154D01*
X02412Y03413D02*
X0244Y03442D01*
X02374Y03413D02*
X02412D01*
X02342Y03444D02*
X02374Y03413D01*
X01712Y03444D02*
X02342D01*
X01653Y03385D02*
X01712Y03444D01*
X01586Y03385D02*
X01653D01*
X01586Y03385D02*
X01586Y03385D01*
X01362Y03385D02*
X01586D01*
X01334Y03358D02*
X01362Y03385D01*
X01334Y03331D02*
Y03358D01*
Y03331D02*
X01337Y03329D01*
Y03297D02*
Y03329D01*
X01322Y03043D02*
X01326Y03039D01*
X01192Y02944D02*
X01248Y02889D01*
X01208Y02957D02*
X0126Y02905D01*
X01224Y02964D02*
X01267Y02921D01*
X0124Y0298D02*
X01283Y02937D01*
X01255Y02996D02*
X01299Y02952D01*
X01271Y03011D02*
X01314Y02968D01*
X01211Y03309D02*
Y03714D01*
X01195Y03315D02*
Y03651D01*
X01192Y03313D02*
X01195Y03315D01*
X01208Y03306D02*
X01211Y03309D01*
X015Y03448D02*
X01606D01*
X01484Y03496D02*
X0159D01*
X01112Y03296D02*
X01141Y03267D01*
X00947Y03296D02*
X01112D01*
X02321Y03283D02*
X02337Y03267D01*
X02307Y03283D02*
X02321D01*
X02244Y03346D02*
X02307Y03283D01*
X02194Y03346D02*
X02244D01*
X02362Y0348D02*
X02389Y03452D01*
X021Y0348D02*
X02362D01*
X01418Y03555D02*
X02098D01*
X01418Y03555D02*
Y03555D01*
X01392Y03555D02*
X01418D01*
X01357Y03589D02*
X01392Y03555D01*
X0131Y03589D02*
X01357D01*
X01405Y03586D02*
X01661D01*
X01673Y03574*
X02278Y03515D02*
X02381D01*
X02278Y03515D02*
X02278Y03515D01*
X01748Y03515D02*
X02278D01*
X01633Y03401D02*
X01748Y03515D01*
X0137Y03531D02*
X02271D01*
X01294Y03636D02*
X01389Y03732D01*
X0129Y03636D02*
X01294D01*
X01262Y03609D02*
X0129Y03636D01*
X01262Y03605D02*
Y03609D01*
X01258Y036D02*
X01262Y03605D01*
X013Y03621D02*
X01349Y03669D01*
X01297Y03621D02*
X013D01*
X01278Y03602D02*
X01297Y03621D01*
X01278Y03598D02*
Y03602D01*
X01274Y03594D02*
X01278Y03598D01*
X01242Y03621D02*
X0134Y0372D01*
X01226Y03628D02*
X01287Y03688D01*
X01211Y03714D02*
X0124Y03744D01*
X01161Y03685D02*
X01195Y03651D01*
X01349Y03669D02*
X01488D01*
X02271Y03531D02*
X02291Y03551D01*
X01389Y03732D02*
Y03783D01*
X0134Y0372D02*
Y03744D01*
X01287Y03688D02*
Y03779D01*
X02381Y03515D02*
X02393Y03503D01*
X01593Y03401D02*
X01633D01*
X01577Y03417D02*
X01593Y03401D01*
X01346Y03417D02*
X01577D01*
X01307Y03377D02*
X01346Y03417D01*
X01307Y03318D02*
Y03377D01*
X01305Y03316D02*
X01307Y03318D01*
X01148Y03332D02*
X01149Y0333D01*
X01326Y03019D02*
Y03039D01*
Y03019D02*
X01338Y03007D01*
X01779*
X02002Y02771D02*
X02006Y02775D01*
X01992Y02771D02*
X02002D01*
X01968Y02795D02*
X01992Y02771D01*
X02005Y02751D02*
X02013Y02759D01*
X02011Y02736D02*
X02019Y02744D01*
X01883Y02751D02*
X02005D01*
X01876Y02736D02*
X02011D01*
X02185Y02843D02*
Y0287D01*
Y02914D02*
X02232Y02867D01*
X022Y02921D02*
X02248Y02873D01*
X022Y02921D02*
Y03003D01*
X02216Y02927D02*
X02293Y0285D01*
X02216Y02927D02*
Y03051D01*
X01909Y02838D02*
X02156D01*
X02Y02854D02*
X02149D01*
X02161Y02843D02*
X02185D01*
X02156Y02838D02*
X02161Y02843D01*
X01874Y02874D02*
X01909Y02838D01*
X02149Y02854D02*
Y02901D01*
X01968Y02885D02*
X02Y02854D01*
X02114Y02884D02*
X02122Y02892D01*
X02114Y02881D02*
Y02884D01*
X01994Y02881D02*
X02114D01*
X01971Y02905D02*
X01994Y02881D01*
X02003Y02897D02*
X02041D01*
X0198Y02921D02*
X02003Y02897D01*
X01884Y02885D02*
X01968D01*
X0126Y02905D02*
X01971D01*
X01267Y02921D02*
X0198D01*
X02051Y02799D02*
X02257D01*
X02321Y02787D02*
X02415Y02693D01*
X02248Y02853D02*
Y02873D01*
X02314Y02771D02*
X02399Y02687D01*
X02236Y02814D02*
X02263D01*
X02244Y02712D02*
X02246Y0271D01*
X02232Y02818D02*
X02236Y02814D01*
X0222Y02688D02*
X02244Y02712D01*
X02637Y01511D02*
X02665Y01484D01*
X02678Y01518D02*
X02706Y0149D01*
X02671Y01518D02*
X02678D01*
X02662Y01527D02*
X02671Y01518D01*
X0233Y02496D02*
X02358D01*
X02268Y0253D02*
X02393Y02405D01*
X02115Y0253D02*
X02268D01*
X01952Y02577D02*
X01953Y02578D01*
X02303Y02523D02*
X0233Y02496D01*
X02275Y03272D02*
Y03275D01*
Y03272D02*
X02279Y03268D01*
Y03242D02*
Y03268D01*
X02275Y03238D02*
X02279Y03242D01*
X02236Y03314D02*
X02275Y03275D01*
X0208Y03314D02*
X02236D01*
Y03248D02*
X02244Y03255D01*
X02092Y03248D02*
X02236D01*
X02224Y032D02*
X02232Y03208D01*
X02106Y032D02*
X02224D01*
X02125Y03149D02*
X02224D01*
X02177Y03385D02*
X02244D01*
X02153Y03362D02*
X02177Y03385D01*
X0206Y03362D02*
X02153D01*
X02023Y03325D02*
X0206Y03362D01*
X02023Y03161D02*
Y03325D01*
X01976Y03114D02*
X02023Y03161D01*
X01948Y03114D02*
X01976D01*
X01881Y03047D02*
X01948Y03114D01*
X01881Y03015D02*
Y03047D01*
X01874Y03007D02*
X01881Y03015D01*
X02181Y03346D02*
D01*
X02067D02*
X02181D01*
X02039Y03318D02*
X02067Y03346D01*
X02039Y0315D02*
Y03318D01*
X01959Y0307D02*
X02039Y0315D01*
X01956Y0307D02*
X01959D01*
X02127Y03112D02*
X02154D01*
X02125Y0311D02*
X02127Y03112D01*
X02086Y0311D02*
X02125D01*
X02157Y03047D02*
X022Y03003D01*
X02127Y03047D02*
X02157D01*
X02109Y03028D02*
X02127Y03047D01*
X02133Y03015D02*
X0214D01*
X02154Y02984D02*
X02185Y02953D01*
X02128Y02984D02*
X02154D01*
X02041Y02897D02*
X02128Y02984D01*
X02122Y02933D02*
X02141Y02952D01*
X02109Y03022D02*
Y03028D01*
X02039Y02952D02*
X02109Y03022D01*
X02127Y03062D02*
X02133Y03069D01*
X02121Y03062D02*
X02127D01*
X02093Y03035D02*
X02121Y03062D01*
X02093Y03029D02*
Y03035D01*
X02032Y02968D02*
X02093Y03029D01*
X01763Y03909D02*
X02204D01*
X0224Y03844D02*
Y03873D01*
X02019Y03086D02*
X02062D01*
X02086Y0311*
X02154Y03112D02*
X02216Y03051D01*
X02149Y02901D02*
X02153Y02905D01*
X02185Y02914D02*
Y02953D01*
X02122Y02892D02*
Y02933D01*
X02055Y02937D02*
X02133Y03015D01*
X01314Y02968D02*
X02032D01*
X01299Y02952D02*
X02039D01*
X01283Y02937D02*
X02055D01*
X0188Y02889D02*
X01884Y02885D01*
X01248Y02889D02*
X0188D01*
X00948Y02874D02*
X01874D01*
X00803Y03019D02*
X00948Y02874D01*
X02393Y02511D02*
X02401Y02503D01*
X02337Y02511D02*
X02393D01*
X02318Y0253D02*
X02337Y02511D01*
X01724Y02637D02*
X01859D01*
X01334Y03141D02*
X01562D01*
X00709Y03846D02*
Y03886D01*
Y03685D02*
Y03846D01*
X00711Y03844*
X0077*
X00813Y01685D02*
X00825Y01673D01*
X01106*
X01133Y01645*
X00679Y0181D02*
X00806D01*
X00885Y0287D02*
Y02893D01*
X00637Y02113D02*
Y02728D01*
X00547Y02818D02*
X00637Y02728D01*
X00547Y02818D02*
Y03216D01*
X00476Y03287D02*
X00547Y03216D01*
X00476Y03287D02*
Y03421D01*
X0087Y03814*
Y03844*
X00709Y03886D02*
X00732Y03909D01*
X01763D02*
X01791Y03881D01*
Y03795D02*
Y03881D01*
X0174Y03744D02*
X01791Y03795D01*
X0174Y03744D02*
Y03744D01*
X02133Y03069D02*
Y03074D01*
X01488Y03669D02*
X0154Y03722D01*
Y03744*
X01389Y03783D02*
X0144Y03834D01*
Y03844*
X02232Y02818D02*
Y02867D01*
X01287Y03779D02*
X0134Y03833D01*
Y03844*
X01186D02*
X0124D01*
X01161Y03818D02*
X01186Y03844D01*
X01161Y03685D02*
Y03818D01*
X00791Y03019D02*
X00803D01*
X00744Y02984D02*
X00885Y02842D01*
X00728Y0296D02*
X00866Y02822D01*
X00712Y02953D02*
X00859Y02807D01*
X00677Y02967D02*
X00852Y02791D01*
X00768Y02829D02*
X00838Y02759D01*
X00775Y03035D02*
X00791Y03019D01*
X00775Y03035D02*
Y03087D01*
X00728Y03135D02*
X00775Y03087D01*
X00744Y02984D02*
Y03074D01*
X00675Y03143D02*
X00744Y03074D01*
X00728Y0296D02*
Y0304D01*
X0067Y03098D02*
X00728Y0304D01*
X00665Y03098D02*
X0067D01*
X00629Y02968D02*
Y03129D01*
X00709Y03131D02*
X00759Y03081D01*
X00677Y03047D02*
X00712Y03011D01*
X00728Y03135D02*
Y03336D01*
X00695Y0337D02*
X00728Y03336D01*
X00588Y03354D02*
X00688D01*
X00618Y0337D02*
X00695D01*
X00594Y03393D02*
X00618Y0337D01*
X0057Y03393D02*
X00594D01*
X00555Y03409D02*
X0057Y03393D01*
X0052Y03409D02*
X00555D01*
X00498Y03387D02*
X0052Y03409D01*
X00498Y03351D02*
Y03387D01*
Y03351D02*
X00547Y03303D01*
X00598*
X00644Y03257*
Y03171D02*
Y03257D01*
X00586Y03114D02*
X00644Y03171D01*
X00586Y02981D02*
Y03114D01*
X00759Y03019D02*
X00885Y02893D01*
X00759Y03019D02*
Y03081D01*
X00114Y0273D02*
X00165Y02781D01*
X00025Y0273D02*
X00114D01*
X00015Y0272D02*
X00025Y0273D01*
X00015Y0222D02*
Y0272D01*
Y0222D02*
X00054Y02181D01*
X00065*
X00263Y03661D02*
X00283D01*
X00255D02*
X00263D01*
Y02807D02*
Y03661D01*
X00238Y02781D02*
X00263Y02807D01*
X00165Y02781D02*
X00238D01*
X00409Y02177D02*
Y02488D01*
X0037Y02527D02*
X00409Y02488D01*
X00118Y02527D02*
X0037D01*
X00409Y02177D02*
X00507Y02078D01*
X00236Y0246D02*
X00362D01*
X00618Y02811D02*
X00649Y02779D01*
X00618Y02811D02*
Y02877D01*
X00606Y02889D02*
X00618Y02877D01*
X00606Y02889D02*
Y02945D01*
X00629Y02968*
Y03129D02*
X00659Y03159D01*
Y03288*
X0061Y03338D02*
X00659Y03288D01*
X00602Y03338D02*
X0061D01*
X00594Y0333D02*
X00602Y03338D01*
X00568Y0333D02*
X00594D01*
X00529Y03368D02*
X00568Y0333D01*
X00529Y03368D02*
Y03374D01*
X00381Y03661D02*
X00685D01*
X00283D02*
X00381D01*
X00383Y03662*
Y03765*
X00283Y03661D02*
Y03765D01*
X00685Y03661D02*
X00709Y03685D01*
X00233Y03683D02*
X00255Y03661D01*
X00233Y03683D02*
Y03765D01*
X00709Y03131D02*
Y03333D01*
X00688Y03354D02*
X00709Y03333D01*
X00581Y03362D02*
X00588Y03354D01*
X00675Y03143D02*
Y03322D01*
X00671Y0249D02*
X00708Y02453D01*
Y02421D02*
Y02453D01*
X00695Y02407D02*
X00708Y02421D01*
X00695Y02372D02*
Y02407D01*
X01606Y03433D02*
Y03448D01*
X01493Y02466D02*
X0157Y02543D01*
X01493Y02211D02*
X01503Y022D01*
X01477Y02192D02*
X01493Y02176D01*
Y02171D02*
Y02176D01*
Y02171D02*
X01513Y02151D01*
X02275Y02679D02*
X02279Y02683D01*
X02275Y02677D02*
Y02679D01*
Y02677D02*
X02283Y02669D01*
X022Y02637D02*
X0222Y02618D01*
X02185Y02631D02*
X02213Y02602D01*
X022Y02637D02*
Y02653D01*
X02185Y02631D02*
Y02645D01*
X01625Y02685D02*
X01879D01*
X01614Y02669D02*
X01872D01*
X00787Y02507D02*
X00866Y02587D01*
X00937Y02551D02*
X00957Y02571D01*
X01002*
X00866Y02587D02*
X01008D01*
X01009Y02586D02*
X01141D01*
X01008Y02587D02*
X01009Y02586D01*
X01002Y0257D02*
X01149D01*
X01002Y02571D02*
X01002Y0257D01*
X00917Y02551D02*
X00937D01*
X02342Y02562D02*
Y02574D01*
X02314Y02602D02*
X02342Y02574D01*
X00787Y0246D02*
Y02507D01*
X00698Y02372D02*
X00787Y0246D01*
X01183Y02553D02*
Y0256D01*
X01199Y02062D02*
Y02553D01*
X01163Y02533D02*
X01183Y02553D01*
X00712Y02953D02*
Y03011D01*
X00677Y02967D02*
Y02991D01*
X01755Y0272D02*
Y02744D01*
Y0272D02*
X01759Y02716D01*
X00649Y02829D02*
X00768D01*
X00856Y00585D02*
Y01147D01*
X00842Y01161D02*
X00856Y01147D01*
X00767Y01161D02*
X00842D01*
X00696Y01232D02*
X00767Y01161D01*
X00696Y01232D02*
Y01375D01*
X00657Y01414D02*
X00696Y01375D01*
X00657Y01414D02*
Y01708D01*
X00919Y0174D02*
X00929Y0173D01*
X00444Y0174D02*
X00919D01*
X00403Y01781D02*
X00444Y0174D01*
X00933Y01755D02*
X01015Y01838D01*
X00451Y01755D02*
X00933D01*
X0041Y01797D02*
X00451Y01755D01*
X01379Y0173D02*
X01397Y01712D01*
X00929Y0173D02*
X01379D01*
X00625Y01909D02*
X00706Y0199D01*
X01129Y02139D02*
Y02275D01*
X01116Y02125D02*
X01129Y02139D01*
X01053Y02125D02*
X01116D01*
X01041Y02113D02*
X01053Y02125D01*
X00706Y0199D02*
X01136D01*
X01144Y01982*
X01183*
X01191Y0199*
X01312*
X01338Y02015*
X01308Y01974D02*
X01334D01*
X01184Y0185D02*
X01308Y01974D01*
X01027Y0185D02*
X01184D01*
X00261Y01883D02*
X0109D01*
X01338Y02015D02*
Y02145D01*
X01937Y01767D02*
X0196Y01744D01*
X01937Y01767D02*
Y01783D01*
X01649Y0207D02*
X01937Y01783D01*
X01414Y0207D02*
X01649D01*
X0141Y02066D02*
X01414Y0207D01*
X01384Y02066D02*
X0141D01*
X01366Y02085D02*
X01384Y02066D01*
X01366Y02085D02*
Y0212D01*
X01393Y02147*
X01854Y01413D02*
X01874Y01433D01*
X01397Y02098D02*
X01657D01*
X0107Y02267D02*
Y02338D01*
X00342Y0237D02*
X0037Y02342D01*
Y02192D02*
Y02342D01*
Y02192D02*
X005Y02062D01*
X00704*
X00706Y02064*
X00651Y0208D02*
X0112D01*
X00649Y02078D02*
X00651Y0208D01*
X00065Y0258D02*
Y02581D01*
Y0258D02*
X00118Y02527D01*
X00507Y02078D02*
X00649D01*
X00695Y02372D02*
X00698D01*
X00165Y02481D02*
X00215D01*
X01015Y01838D02*
X01027Y0185D01*
X00706Y02064D02*
X01083D01*
X0115Y01998*
X01176*
X01195Y02016*
Y02021*
X01205Y02031*
X01212*
X0123Y02049*
Y02091*
X01247Y02108*
X01163Y02029D02*
Y02533D01*
X01334Y01974D02*
X01352Y01955D01*
Y01887D02*
Y01955D01*
X01527Y01692D02*
Y01763D01*
Y01692D02*
X01538Y01681D01*
X01688*
X00165Y02081D02*
X00201D01*
X0022Y02062*
Y01811D02*
Y02062D01*
Y01811D02*
X00234Y01797D01*
X0041*
X01264Y01261D02*
X01333Y01192D01*
X01685*
X0033Y007D02*
X00366Y00665D01*
X0022Y007D02*
X0033D01*
X00114Y00807D02*
X0022Y007D01*
X00114Y00807D02*
Y02035D01*
X0016Y02081*
X00165*
X00065Y02181D02*
X00165D01*
Y02081D02*
Y02181D01*
X01321Y01883D02*
Y01942D01*
X00586Y0168D02*
Y01692D01*
Y01385D02*
Y0168D01*
X00808Y00178D02*
Y00403D01*
X00872Y00466*
Y01213*
X0087Y01216D02*
X00872Y01213D01*
X0087Y01216D02*
Y01311D01*
X01305Y01265D02*
Y01476D01*
X01289Y01258D02*
Y01446D01*
X01305Y01265D02*
X01342Y01228D01*
X01289Y01258D02*
X01336Y01212D01*
X01342Y01228D02*
X01961D01*
X01336Y01212D02*
X01687D01*
X01448Y01574D02*
X01452Y0157D01*
X0084Y01333D02*
X00854Y01346D01*
X0084Y012D02*
Y01333D01*
X01685Y01192D02*
X01732Y01145D01*
X00574Y01217D02*
X00599Y01192D01*
X01338Y01342D02*
Y01434D01*
X0136Y01456*
X01437*
X01452Y0157D02*
X01511Y01629D01*
Y01755*
X01321Y01883D02*
X01354Y0185D01*
X0141Y01681D02*
X01429Y01699D01*
X01384Y01681D02*
X0141D01*
X01368Y01696D02*
X01384Y01681D01*
X01236Y01696D02*
X01368D01*
X01228Y01688D02*
X01236Y01696D01*
X01417Y01665D02*
X01444Y01693D01*
X01378Y01665D02*
X01417D01*
X01362Y01681D02*
X01378Y01665D01*
X01267Y01681D02*
X01362D01*
X01251Y01665D02*
X01267Y01681D01*
X01371Y01649D02*
X01423D01*
X01355Y01665D02*
X01371Y01649D01*
X01275Y01665D02*
X01355D01*
X0124Y01629D02*
X01275Y01665D01*
X01233Y01645D02*
X01251Y01664D01*
X01196Y01645D02*
X01233D01*
X0119Y01629D02*
X0124D01*
X01251Y01664D02*
Y01665D01*
X01177D02*
X01196Y01645D01*
X01178Y01641D02*
X0119Y01629D01*
X01421Y0159D02*
X0144Y0161D01*
X01137Y01641D02*
X01178D01*
X00468Y01358D02*
X00518D01*
X00578Y01297*
Y01247D02*
Y01297D01*
X00574Y01243D02*
X00578Y01247D01*
X00574Y01217D02*
Y01243D01*
X01732Y01145D02*
X01771D01*
X01806Y01181*
X01981*
X00539Y0137D02*
Y01381D01*
Y0137D02*
X00606Y01303D01*
Y0123D02*
Y01303D01*
X00633Y01393D02*
X00653Y01374D01*
Y0123D02*
Y01374D01*
X00165Y01781D02*
X00403D01*
X03744Y03417D02*
X03814D01*
X03708Y03452D02*
X03744Y03417D01*
X03708Y03452D02*
Y03456D01*
X01271Y01464D02*
Y01511D01*
Y01464D02*
X01289Y01446D01*
X01687Y01212D02*
X01738Y01161D01*
X01765*
X018Y01196*
X01974*
X02011Y01233*
X01755Y01196D02*
Y01204D01*
X01763Y01212*
X01968*
X01996Y0124*
Y01304*
X01961Y01228D02*
X0198Y01246D01*
Y01311*
X01854Y01263D02*
Y01413D01*
X0234Y03837D02*
Y03844D01*
X02291Y03787D02*
X0234Y03837D01*
X02291Y03551D02*
Y03787D01*
X01688Y03792D02*
X0174Y03844D01*
X01688Y0359D02*
Y03792D01*
X01673Y03574D02*
X01688Y0359D01*
G54D27*
X00065Y00873D03*
X0375Y0283D03*
X00065Y03081D03*
G54D59*
X00065Y00973D03*
X0385Y0283D03*
X0375Y0273D03*
X0385D03*
X0375Y0263D03*
X0385D03*
X0375Y0253D03*
X0385D03*
X0375Y0243D03*
X0385D03*
X0375Y0233D03*
X0385D03*
X0375Y0223D03*
X0385D03*
X0375Y0213D03*
X0385D03*
X0375Y0203D03*
X0385D03*
X0375Y0193D03*
X0385D03*
X0375Y0183D03*
X0385D03*
X0375Y0173D03*
X0385D03*
X0375Y0163D03*
X0385D03*
X0375Y0153D03*
X0385D03*
X0375Y0143D03*
X0385D03*
X0375Y0133D03*
X0385D03*
X0375Y0123D03*
X0385D03*
X0375Y0113D03*
X0385D03*
X0375Y0103D03*
X0385D03*
X0124Y03844D03*
X0134Y03744D03*
Y03844D03*
X0144Y03744D03*
Y03844D03*
X0154Y03744D03*
Y03844D03*
X0164Y03744D03*
Y03844D03*
X0174Y03744D03*
Y03844D03*
X0184Y03744D03*
Y03844D03*
X0194Y03744D03*
Y03844D03*
X0204Y03744D03*
Y03844D03*
X0214Y03744D03*
Y03844D03*
X0224Y03744D03*
Y03844D03*
X0234Y03744D03*
Y03844D03*
X0244Y03744D03*
Y03844D03*
X0254Y03744D03*
Y03844D03*
X0264Y03744D03*
Y03844D03*
X0274Y03744D03*
Y03844D03*
X03103Y0017D03*
Y0007D03*
X03003Y0017D03*
Y0007D03*
X02903Y0017D03*
Y0007D03*
X02803Y0017D03*
Y0007D03*
X02703Y0017D03*
Y0007D03*
X02603Y0017D03*
Y0007D03*
X02503Y0017D03*
X0097Y03844D03*
X0087D03*
X0077D03*
X00165Y01281D03*
X00065D03*
X00165Y01381D03*
X00065D03*
X00165Y01481D03*
X00065D03*
X00165Y01581D03*
X00065D03*
X00165Y01681D03*
X00065D03*
X00165Y01781D03*
X00065D03*
X00165Y01881D03*
X00065D03*
X00165Y01981D03*
X00065D03*
X00165Y02081D03*
X00065D03*
X00165Y02181D03*
X00065D03*
X00165Y02281D03*
X00065D03*
X00165Y02381D03*
X00065D03*
X00165Y02481D03*
X00065D03*
X00165Y02581D03*
X00065D03*
X00165Y02681D03*
X00065D03*
X00165Y02781D03*
X00065D03*
X00165Y02881D03*
X00065D03*
X00165Y02981D03*
X00065D03*
X00165Y03081D03*
X02208Y00178D03*
Y00078D03*
X02108Y00178D03*
Y00078D03*
X02008Y00178D03*
Y00078D03*
X01908Y00178D03*
Y00078D03*
X01808Y00178D03*
Y00078D03*
X01708Y00178D03*
Y00078D03*
X01608Y00178D03*
Y00078D03*
X01508Y00178D03*
Y00078D03*
X01408Y00178D03*
Y00078D03*
X01308Y00178D03*
Y00078D03*
X01208Y00178D03*
Y00078D03*
X01108Y00178D03*
Y00078D03*
X01008Y00178D03*
Y00078D03*
X00908Y00178D03*
Y00078D03*
X00808Y00178D03*
Y00078D03*
X00708Y00178D03*
G54D60*
X0124Y03744D03*
X02503Y0007D03*
X0107Y03844D03*
X00708Y00078D03*
G54D61*
X00133Y03765D03*
Y03815D03*
X00183Y03765D03*
Y03815D03*
X00233Y03765D03*
Y03815D03*
X00283Y03765D03*
Y03815D03*
X00333Y03765D03*
Y03815D03*
X00383Y03765D03*
Y03815D03*
X00433Y03765D03*
Y03815D03*
G54D62*
X03708Y03456D03*
Y03653D03*
G54D63*
X03814Y03417D03*
Y03692D03*
G54D64*
X03783Y00102D03*
X03437Y00448D03*
X00456Y0011D03*
X0011Y00456D03*
G54D65*
X03437Y00102D03*
X0011Y0011D03*
G54D66*
X0361Y00275D03*
X0351D03*
X00283Y00283D03*
X00183D03*
G54D67*
X02322Y01952D03*
X01677Y00736D03*
X02914Y03267D03*
X02696Y01547D03*
X01307Y01814D03*
X01374Y01822D03*
X02429Y00283D03*
X01259Y01519D03*
X01397Y01779D03*
X0148Y01736D03*
X00636Y01003D03*
X00545Y00996D03*
X00351Y00885D03*
X004Y01007D03*
X00455Y01003D03*
X01393Y022D03*
X01811Y02543D03*
X0174Y02516D03*
X02696Y02304D03*
X027Y02358D03*
X03288Y03236D03*
X03652Y03122D03*
X03213Y03082D03*
X01716Y00838D03*
X0109Y00803D03*
X01165Y00933D03*
X00964Y00444D03*
X02421Y0033D03*
X02869Y01896D03*
X02712Y01834D03*
X02767Y01946D03*
X01019Y00425D03*
X01956Y0035D03*
X02499Y01496D03*
X02517Y01608D03*
X02429Y01562D03*
X02275Y01476D03*
X02212Y01458D03*
X02118Y01374D03*
X02171Y01484D03*
X02232Y01527D03*
X02066Y01374D03*
X01992Y01507D03*
X02019Y01377D03*
X02051Y01472D03*
X02098Y01476D03*
X0194Y01507D03*
X02279Y01531D03*
X02326Y0148D03*
X02356Y01915D03*
X01157Y00464D03*
X01211Y00748D03*
X01208Y00618D03*
X01216Y00696D03*
X00925Y00511D03*
X01952Y00421D03*
X01279Y01015D03*
X01314Y0061D03*
X01437Y00641D03*
X01963Y00476D03*
X01507Y00661D03*
X01531Y00582D03*
X01991Y00515D03*
X02018Y00555D03*
X02022Y00602D03*
X02034Y00653D03*
X02038Y007D03*
X02229Y01661D03*
X02196Y01704D03*
X01736Y01909D03*
X01976Y01783D03*
X02023Y01653D03*
X02124Y01712D03*
X01669Y01259D03*
X01645Y01397D03*
X01653Y0133D03*
X02094Y01669D03*
X01692Y00964D03*
X02243Y00751D03*
X01952Y0087D03*
X01515Y01263D03*
X01858Y00921D03*
X01791Y00913D03*
X01755Y00956D03*
X02Y017D03*
X03192Y02775D03*
X03157Y02708D03*
X02171Y01958D03*
X0196Y00996D03*
X01875Y01752D03*
X01586Y01D03*
X02417Y00381D03*
X02086Y0046D03*
X02145Y00503D03*
X0235Y02047D03*
X01279Y01102D03*
X02093Y01915D03*
X0133Y0111D03*
X0236Y02094D03*
X02222Y0209D03*
X02192Y00468D03*
X00911Y01062D03*
X03196Y00582D03*
X02464D03*
X01379Y01125D03*
X02803Y00893D03*
X01651Y02275D03*
X01429Y01137D03*
X02822Y0094D03*
X03198Y02235D03*
X03389Y01106D03*
X0148Y01141D03*
X02838Y01007D03*
X015Y01555D03*
X02866Y01055D03*
X02913Y0107D03*
X01791Y01783D03*
X02937Y02744D03*
X03074Y01263D03*
X03106Y02909D03*
X02972Y0244D03*
X02933Y02397D03*
X03149Y01653D03*
X03411Y01578D03*
X03405Y01358D03*
X02925Y01122D03*
X02908Y01484D03*
X02665Y01625D03*
X03287Y01518D03*
X02909Y01224D03*
X03354Y01444D03*
X01901Y01952D03*
X02515Y01917D03*
X02901Y01279D03*
X02452Y01472D03*
X02614Y01433D03*
X02615Y0148D03*
X03385Y015D03*
X0159Y01157D03*
X01838Y0198D03*
X01799Y02019D03*
X01826Y02354D03*
X01952Y0237D03*
X01728Y02366D03*
X0167Y02151D03*
X01666Y022D03*
X01763Y02279D03*
X02059Y01704D03*
X02208Y01814D03*
X0235Y01818D03*
X0257Y01822D03*
X02622Y01838D03*
X02724Y01618D03*
X03118Y01531D03*
X03478Y0161D03*
X03269Y01792D03*
X03216Y01653D03*
X03409Y01688D03*
X0285Y0135D03*
X02277Y01687D03*
X02912Y01713D03*
X03395Y01785D03*
X03151Y01977D03*
X03421Y01944D03*
X03391Y01838D03*
X02795Y01366D03*
X03391Y01885D03*
X02966Y02337D03*
X03046Y02118D03*
X02511Y0235D03*
X02535Y02306D03*
X02406Y02448D03*
X03627Y02172D03*
X0319Y02109D03*
X03391Y01987D03*
X02912Y01761D03*
X01765Y01456D03*
X02724Y01267D03*
X02708Y0122D03*
X02661Y01338D03*
X02633Y01385D03*
X02688Y01299D03*
X02755Y01397D03*
X03033Y01903D03*
X0335Y02417D03*
X03173Y02425D03*
X03162Y03137D03*
X02909Y01976D03*
X02944Y02007D03*
X02925Y02055D03*
X02859Y01991D03*
X02988Y02086D03*
X01594Y00555D03*
X00826D03*
X02015Y00413D03*
X02744Y01468D03*
X02673Y01934D03*
X03466Y02304D03*
X03001Y02157D03*
X02625Y01937D03*
X03139Y01887D03*
X03271Y02409D03*
X03409Y02842D03*
X03405Y02783D03*
X02633Y02592D03*
X03023Y02551D03*
X0295Y02563D03*
X03521Y02298D03*
X03507Y02421D03*
X0335Y02496D03*
X01763Y0174D03*
X03588Y02338D03*
X03452Y02665D03*
X01822Y01709D03*
X03452Y02523D03*
X03275Y02567D03*
X0324Y02626D03*
X02714Y02438D03*
X02535Y02444D03*
X02688Y02533D03*
X02468Y0248D03*
X02401Y02496D03*
X02775Y01828D03*
X03664Y03389D03*
X03641Y03322D03*
X03542Y03011D03*
X03224Y02881D03*
X02887Y02184D03*
X02913Y02271D03*
X02859Y02267D03*
X03519Y02901D03*
X02968Y02693D03*
X01133Y03322D03*
X01141Y03267D03*
X01303D03*
X01114Y02909D03*
X00293Y02194D03*
X00695Y02222D03*
X0107Y02519D03*
X01397Y02397D03*
X0133Y02633D03*
X01527Y02555D03*
Y02614D03*
X0146Y02599D03*
X01322Y02586D03*
X01535Y02692D03*
X01476D03*
X01641Y02547D03*
X01574Y02551D03*
X0185Y0257D03*
X01842Y02507D03*
X02348Y02263D03*
X02645Y02828D03*
X02318Y0233D03*
X02137Y02606D03*
X02287Y02683D03*
X02246Y02708D03*
X02295Y0285D03*
X01779Y0235D03*
X02688Y03095D03*
X03019Y02717D03*
X0269Y03657D03*
X03248Y03153D03*
X02973Y03511D03*
X02887Y03905D03*
Y03539D03*
X03354Y03834D03*
X03314Y0344D03*
X03169Y03334D03*
X02405Y03291D03*
X02348Y03055D03*
X03615Y03744D03*
X0358Y03618D03*
X0247Y03547D03*
X01484Y03496D03*
X00947Y03296D03*
X02244Y03149D03*
X02332Y03259D03*
X02399Y03444D03*
X021Y0348D03*
Y03562D03*
X01405Y03586D03*
X0137Y03531D03*
X0131Y03589D03*
X02395Y03496D03*
X01305Y03316D03*
X00813Y03332D03*
X01326Y03047D03*
X01779Y03007D03*
X0204Y02807D03*
X01968Y02795D03*
X02185Y0287D03*
X02281Y02913D03*
X02665Y01484D03*
X02519Y01655D03*
X02368Y02669D03*
X02031Y02547D03*
X01952Y02577D03*
X0224Y03208D03*
X02248Y03255D03*
X02245Y03381D03*
X02194Y03346D03*
X01956Y0307D03*
X02125Y03149D03*
X0214Y03015D03*
X02141Y02952D03*
X0214Y03081D03*
X02106Y032D03*
X0208Y03314D03*
X02092Y03248D03*
X02153Y02905D03*
X02019Y03086D03*
X01874Y03007D03*
X0185Y02842D03*
X01326Y03141D03*
X01562D03*
X00813Y01685D03*
Y01811D03*
X00679Y0181D03*
X00636Y02112D03*
X01799Y02744D03*
X00665Y03098D03*
X00677Y03047D03*
X00586Y02981D03*
X00649Y02776D03*
X00377Y02464D03*
X00529Y03374D03*
X00897Y02877D03*
X00581Y03362D03*
X00675Y03322D03*
X00671Y0249D03*
X01606Y03433D03*
X01602Y03496D03*
X015Y03448D03*
X02332Y02704D03*
X01937Y02519D03*
X02141Y0237D03*
X01244Y02532D03*
X01122Y02536D03*
X00988Y0254D03*
X0235Y02543D03*
X00917Y02551D03*
X01759Y02716D03*
X00649Y02829D03*
X00637Y02932D03*
X00677Y02991D03*
X00657Y01708D03*
X00622Y01916D03*
X01131Y02279D03*
X01041Y02113D03*
X0109Y01883D03*
X01462Y02163D03*
X01393Y02147D03*
X01397Y02098D03*
X01068Y02342D03*
X00333Y02375D03*
X00671Y02431D03*
X00695Y02372D03*
X0109Y01818D03*
X01247Y02108D03*
X00606Y01183D03*
X01251Y01267D03*
X0112Y0208D03*
X01321Y01942D03*
X01199Y02062D03*
X01163Y02029D03*
X01303Y0148D03*
X00854Y01366D03*
X00586Y0168D03*
X0084Y012D03*
X0134Y01334D03*
X01437Y01456D03*
X01397Y01712D03*
X0122Y01677D03*
X0144Y01614D03*
X01082Y0159D03*
X01173Y01673D03*
X01133Y01645D03*
X00464Y01358D03*
X00606Y0123D03*
X00653D03*
X01929Y01681D03*
X01688D03*
X01669Y01515D03*
X00633Y01393D03*
X00586Y01385D03*
X00539Y01381D03*
X01751Y01192D03*
X01948Y01259D03*
X01854Y01263D03*
G54D68*
X0296Y03188D03*
X0107Y02267D03*
X01015Y01838D03*
X00374Y00661D03*
M02*